<svg width="1440" height="57" viewBox="0 0 1440 57" fill="none" xmlns="http://www.w3.org/2000/svg">
<path d="M-0.5 40.5C24.9612 40.5 51.0388 40.5 76.5 40.5C123.454 40.5 169.515 41.2732 216.273 39.5314C267.381 37.6276 286.844 30.2248 337.5 25.5008C396 20.0453 457.799 35.501 486.5 35.501C548.872 35.501 577.11 28.5003 639.5 28.5003C686.603 28.5003 693 38.8461 743 28.5006C786.5 19.5 820.5 10.069 858 17.5002C884.792 22.8089 934.283 38.5441 962 41.001C998.587 44.244 1005.09 38.5709 1042 39C1071.79 39.3464 1125.22 25.0364 1155 25.5008C1219.26 26.5031 1264.43 43.6515 1328.5 40.5C1366.7 38.621 1401.14 42 1439.5 42" stroke="#1B2C51" stroke-width="29" stroke-linecap="square"/>
<rect y="29" width="1440" height="28" fill="#1B2C51"/>
</svg>
