<svg width="19" height="18" viewBox="0 0 19 18" fill="none" xmlns="http://www.w3.org/2000/svg">
<path d="M2 16C4.5138 13.0941 6.96825 10.5903 9.89474 8.22222C10.9557 7.36371 12.1018 6.20824 13.1605 5.33945C13.9129 4.72197 14.6417 4.06762 15.4012 3.46279C15.8031 3.14279 16.2105 2.77778 17 2" stroke="#1B2C51" stroke-width="2" stroke-linecap="square"/>
<path d="M3 2C3.80759 2.94977 4.7887 3.75878 5.57426 4.72881C6.51462 5.89 7.41016 7.08545 8.47745 8.15631C9.55792 9.2404 10.82 10.2927 11.7525 11.4915C12.2576 12.1409 13.0797 12.5857 13.5259 13.2712C13.8379 13.7505 14.3391 14.1419 14.7415 14.5499C15.1935 15.0082 15.5304 15.5671 16 16" stroke="#1B2C51" stroke-width="2" stroke-linecap="square"/>
</svg>
