<svg width="21" height="20" viewBox="0 0 21 20" fill="none" xmlns="http://www.w3.org/2000/svg">
<path d="M10.1221 1.80184C12.7922 1.80184 13.1084 1.812 14.1629 1.86011C15.1379 1.90461 15.6674 2.06752 16.0198 2.20443C16.4865 2.38583 16.8197 2.60257 17.1696 2.95248C17.5195 3.30239 17.7362 3.63555 17.9176 4.10229C18.0546 4.4547 18.2175 4.98419 18.262 5.95914C18.3101 7.01364 18.3202 7.32989 18.3202 10C18.3202 12.6701 18.3101 12.9864 18.262 14.0409C18.2175 15.0158 18.0546 15.5453 17.9176 15.8978C17.7362 16.3645 17.5195 16.6976 17.1696 17.0476C16.8197 17.3975 16.4865 17.6142 16.0198 17.7956C15.6674 17.9325 15.1379 18.0954 14.1629 18.1399C13.1086 18.188 12.7923 18.1982 10.1221 18.1982C7.45176 18.1982 7.13551 18.188 6.08121 18.1399C5.10622 18.0954 4.57673 17.9325 4.22436 17.7956C3.75758 17.6142 3.42442 17.3975 3.07451 17.0476C2.7246 16.6976 2.50786 16.3645 2.3265 15.8978C2.18955 15.5453 2.02664 15.0158 1.98214 14.0409C1.93403 12.9864 1.92387 12.6701 1.92387 10C1.92387 7.32989 1.93403 7.01364 1.98214 5.95918C2.02664 4.98419 2.18955 4.4547 2.3265 4.10229C2.50786 3.63555 2.7246 3.30239 3.07451 2.95248C3.42442 2.60257 3.75758 2.38583 4.22436 2.20443C4.57673 2.06752 5.10622 1.90461 6.08117 1.86011C7.13567 1.812 7.45192 1.80184 10.1221 1.80184ZM10.1221 0C7.40619 0 7.06569 0.0115116 5.99908 0.0601777C4.93466 0.108764 4.20776 0.277786 3.57165 0.525007C2.91406 0.780564 2.35639 1.1225 1.80046 1.67843C1.24453 2.23436 0.902594 2.79203 0.647038 3.44962C0.399817 4.08573 0.230795 4.81263 0.182208 5.87705C0.133542 6.94362 0.12207 7.28416 0.12207 10C0.12207 12.7159 0.133542 13.0564 0.182208 14.123C0.230795 15.1874 0.399817 15.9143 0.647038 16.5504C0.902594 17.208 1.24453 17.7657 1.80046 18.3216C2.35639 18.8775 2.91406 19.2195 3.57165 19.475C4.20776 19.7223 4.93466 19.8913 5.99908 19.9399C7.06569 19.9885 7.40619 20 10.1221 20C12.8379 20 13.1785 19.9885 14.245 19.9399C15.3094 19.8913 16.0363 19.7223 16.6725 19.475C17.33 19.2195 17.8877 18.8775 18.4436 18.3216C18.9996 17.7657 19.3415 17.208 19.5971 16.5504C19.8443 15.9143 20.0133 15.1874 20.0619 14.123C20.1106 13.0564 20.1221 12.7159 20.1221 10C20.1221 7.28416 20.1106 6.94362 20.0619 5.87705C20.0133 4.81263 19.8443 4.08573 19.5971 3.44962C19.3415 2.79203 18.9996 2.23436 18.4436 1.67843C17.8877 1.1225 17.33 0.780564 16.6725 0.525007C16.0363 0.277786 15.3094 0.108764 14.245 0.0601777C13.1785 0.0115116 12.8379 0 10.1221 0ZM10.1221 4.86487C7.286 4.86487 4.9869 7.16397 4.9869 10C4.9869 12.8361 7.286 15.1352 10.1221 15.1352C12.9581 15.1352 15.2572 12.8361 15.2572 10C15.2572 7.16397 12.9581 4.86487 10.1221 4.86487ZM10.1221 13.3334C8.28111 13.3334 6.7887 11.841 6.7887 10C6.7887 8.15908 8.28111 6.66667 10.1221 6.66667C11.963 6.66667 13.4554 8.15908 13.4554 10C13.4554 11.841 11.963 13.3334 10.1221 13.3334ZM16.6601 4.66199C16.6601 5.32474 16.1228 5.86201 15.4601 5.86201C14.7973 5.86201 14.2601 5.32474 14.2601 4.66199C14.2601 3.99924 14.7973 3.462 15.4601 3.462C16.1228 3.462 16.6601 3.99924 16.6601 4.66199Z" fill="white"/>
</svg>
