<svg width="54" height="69" viewBox="0 0 54 69" fill="none" xmlns="http://www.w3.org/2000/svg">
<path d="M43.9366 24.2354L26.6011 0L9.269 24.2354L0 29.9263L6.44986 32.5877V62.2282L26.6241 68.1852L46.7557 61.6761V32.5877L53.2023 29.923L43.9366 24.2354ZM28.2539 54.418L38.249 44.4196C37.9829 45.4053 37.4933 46.3516 36.7277 47.15L28.2539 55.6403V54.418ZM28.2539 52.785V48.7896L37.5491 39.4943C38.134 40.4406 38.4363 41.4986 38.4757 42.5697L28.2539 52.785ZM28.2539 47.1631V45.6517L36.1034 37.7989L36.7244 38.4199C36.7704 38.4692 36.8 38.525 36.8427 38.5677L28.2539 47.1631ZM28.2539 44.022V40.0496L33.3073 34.9962L35.2886 36.984L28.2539 44.022ZM28.2539 38.4231V36.9117L31.74 33.4289L32.4957 34.1813L28.2539 38.4231ZM28.2539 35.2853V29.9296L30.9284 32.614L28.2539 35.2853ZM24.9649 30.6689L24.5476 30.2516L24.9649 29.8343V30.6689ZM23.736 31.0664L24.9649 32.2953V33.8067L22.9803 31.8221L23.736 31.0664ZM22.1687 32.637L24.9649 35.4364V39.8623L19.9541 34.8516L22.1687 32.637ZM19.1426 35.6664L24.9649 41.492V43.0001L18.3869 36.4254L19.1426 35.6664ZM17.5753 37.237L24.9649 44.6299V48.4807L15.7353 39.2479C15.9291 38.9653 16.1361 38.686 16.3826 38.4264L17.5753 37.237ZM15.157 40.2993L24.9649 50.1071V51.2867L14.858 41.1831C14.9401 40.8809 15.0321 40.5884 15.157 40.2993ZM14.6411 42.5927L24.9649 52.9164V55.7389L16.3891 47.1533C15.1636 45.8784 14.5919 44.229 14.6411 42.5927ZM43.4667 30.3863V59.2841L28.2539 64.2062V57.2667L37.5459 47.9583L37.5524 47.9517C40.3453 45.057 40.3453 40.5194 37.5459 37.6149L26.5617 26.6077L15.5611 37.6247C12.7781 40.5194 12.7781 45.0537 15.5677 47.9583L24.9649 57.3686V64.2686L9.73886 59.7672V30.3863L7.222 29.3513L11.5591 26.6866L26.6011 5.64815L41.6497 26.6866L45.9836 29.3513L43.4667 30.3863Z" fill="white"/>
</svg>
