<svg width="119" height="175" viewBox="0 0 119 175" fill="none" xmlns="http://www.w3.org/2000/svg">
<path d="M83.0249 40.7431C82.048 41.1046 80.6776 40.3341 79.5394 40.0658C79.3662 39.9873 79.1813 39.9377 78.992 39.9191L79.4349 41.6874C78.4776 41.5393 77.4979 41.6853 76.6255 42.1062C75.7531 42.5271 75.0293 43.2029 74.5497 44.0443L75.7472 44.3651C74.4641 49.1535 74.4274 51.3432 75.2485 51.5632L76.0318 50.9666L77.1321 52.4712L79.7225 53.7518L81.5964 51.1379C83.1695 54.1622 83.1696 54.1622 84.7 54.609L84.8522 53.2201L92.2012 57.1321C93.042 55.4887 93.7238 53.7688 94.2375 51.9957C94.3158 50.3478 94.1789 48.6968 93.8302 47.0843L96.4908 48.787C96.7358 48.0838 96.9288 47.3636 97.0681 46.6322C97.1009 45.7954 97.0806 44.9573 97.0071 44.123L99.1857 44.3402L97.5924 40.9806L98.3213 40.0395C96.5711 38.6035 94.4691 37.6606 92.2325 37.3083C91.6431 37.2365 91.0473 37.3755 90.5506 37.7007C89.9698 38.0532 89.4123 38.4426 88.8815 38.8665L89.9171 35.0015L88.3635 34.9152L86.368 36.0668C86.2122 36.6482 85.7485 37.1472 85.4217 37.6828C84.2932 38.8835 83.89 40.3884 83.0249 40.7431ZM79.4892 48.1905C79.3871 49.6662 79.2967 50.9616 79.1647 52.6859C78.3454 50.8167 79.0591 49.2483 78.9858 47.4691L76.2848 49.2015L76.041 48.8796C76.7807 48.2135 77.5691 47.6038 78.3999 47.0555C78.93 46.7783 79.3746 46.3619 79.6858 45.8512C79.9971 45.3404 80.1635 44.7545 80.1668 44.1564L76.6287 45.5911C77.8219 43.6014 80.1301 44.2932 81.7583 43.0065C81.1809 45.1613 78.7377 46.8894 80.9414 49.2028L79.4892 48.1905ZM83.8233 48.9852L83.618 48.9302L84.5589 46.1031L85.0037 46.2222L83.8233 48.9852ZM96.3021 40.0483L93.6286 39.6253C92.9089 40.5322 93.8461 41.0032 94.0849 41.6171C94.3238 42.231 94.6812 42.9499 95.1614 44.0317C92.9999 42.7927 93.6146 39.9514 91.4249 39.3647C93.3219 38.4433 94.7283 39.6266 96.3021 40.0483ZM86.0063 43.3016L90.9727 43.7892L90.8261 44.3364C89.2138 43.6478 87.4036 44.5191 85.9037 43.2741C86.3838 44.6177 87.2043 45.814 88.2849 46.7461C89.3656 47.6781 90.6694 48.3141 92.0693 48.592C91.0692 49.3138 90.0807 47.8025 89.3903 49.0106C90.5597 49.9838 90.6562 51.4027 90.9171 52.7556C89.9915 51.7206 89.4521 50.3975 89.3903 49.0106L87.7988 48.1076C87.4964 49.2363 87.2397 50.1939 87.1633 51.1632L86.8897 51.0899C86.923 50.3166 87.0424 49.5494 87.2459 48.8026C87.9686 47.2 87.2398 46.0882 86.2806 44.8781L84.4874 42.6747L86.0063 43.3016Z" fill="#9AAD3B"/>
<path d="M72.7751 40.5334L73.1857 40.6434C73.3644 39.7975 73.4481 38.9342 73.4353 38.0697C73.1979 36.3556 72.7184 34.7234 72.3258 33.0412C71.8889 31.3801 71.5445 29.696 71.2939 27.9968C71.0292 26.6784 71.292 25.3087 72.0259 24.1819C72.7598 23.055 73.9062 22.2609 75.219 21.9701C79.2585 20.5793 83.5008 19.8694 87.7728 19.8692C90.3921 19.9475 93.0297 19.9574 95.9251 19.963L92.4284 15.3585C87.9328 15.9877 83.403 16.6077 79.035 17.3078C76.275 17.964 73.5514 18.7644 70.8752 19.7059C70.16 19.9528 69.533 20.4045 69.0723 21.0048C68.6115 21.6052 68.3373 22.3276 68.2837 23.0825C67.9786 25.8325 68.4245 28.6137 69.5741 31.1302C70.5837 33.9314 71.4198 36.8328 72.3084 39.6749C72.4862 39.8325 72.6524 40.1705 72.7751 40.5334Z" fill="#BF7F2A"/>
<path d="M93.8481 55.3791C93.2694 56.5808 92.8325 57.5271 92.2813 58.6261C90.601 56.7606 88.3992 55.4425 85.9612 54.8425L85.5762 56.2794C84.6284 55.9623 83.7585 55.4483 83.0236 54.771C82.2886 54.0938 81.7053 53.2687 81.3119 52.35C81.0002 53.5132 80.5499 54.236 80.234 55.1414L77.1843 52.5641L76.1579 52.2891L75.088 54.0925L74.5736 53.0013C73.8848 50.6936 73.8932 48.2337 74.598 45.9308C74.6438 45.7597 74.6897 45.5887 74.4893 45.2416L73.4756 45.7401C72.6711 45.2086 71.7919 44.8 70.8669 44.5277C69.3973 44.2623 67.8989 44.1937 66.4111 44.3238C60.9411 44.7444 55.5721 46.0285 50.5038 48.1286C46.0924 49.8884 42.2276 52.7883 39.3047 56.5318C37.9457 58.2585 37.1268 60.3482 36.9509 62.5386C36.775 64.729 37.2498 66.9225 38.3159 68.8441C39.6571 71.6272 41.5891 74.0845 43.9771 76.0447C45.8508 77.5368 47.7245 79.0289 49.66 80.4276C56.7825 85.7856 65.3071 88.9614 74.1993 89.5697C75.6069 89.6535 77.0079 89.6255 78.2879 89.6385L79.7177 86.3547C81.1194 87.3592 82.4555 88.4521 83.718 89.6267C84.6561 86.932 86.1072 84.4443 87.9911 82.3012L91.351 86.8684C94.3669 85.7914 97.0154 83.8813 98.9892 81.3596C100.963 78.838 102.181 75.8082 102.502 72.6221C103.079 65.4062 99.5261 60.054 93.8481 55.3791ZM62.9186 62.9691C62.0975 62.7491 61.6083 61.7012 61.8925 60.6407C61.9053 60.3984 61.9721 60.162 62.0879 59.9488C62.2038 59.7356 62.3658 59.551 62.5622 59.4084C62.7585 59.2659 62.9842 59.169 63.2228 59.1248C63.4614 59.0806 63.7068 59.0903 63.9411 59.1531C64.1755 59.2159 64.393 59.3302 64.5775 59.4878C64.762 59.6453 64.909 59.8421 65.0078 60.0637C65.1065 60.2854 65.1545 60.5263 65.1483 60.7688C65.142 61.0114 65.0817 61.2495 64.9716 61.4657C64.8886 61.9323 64.6288 62.3489 64.2465 62.6289C63.8641 62.9089 63.3885 63.0307 62.9186 62.9691ZM63.3881 74.9022C67.8087 79.7535 73.0136 79.3514 78.3443 78.6163C77.145 79.4229 75.79 79.9692 74.3666 80.2199C72.9432 80.4706 71.4831 80.4203 70.0803 80.072C68.6776 79.7238 67.3634 79.0855 66.2225 78.1982C65.0817 77.3109 64.1395 76.1943 63.4566 74.9206L63.3881 74.9022ZM84.0215 68.5136C83.5747 68.3295 83.2161 67.9803 83.0203 67.5385C82.8245 67.0967 82.8066 66.5964 82.9703 66.1418C83.0455 65.6671 83.3032 65.2407 83.6884 64.9534C84.0737 64.6661 84.556 64.5408 85.0324 64.6042C85.4766 64.7875 85.8317 65.1372 86.0217 65.5786C86.2117 66.02 86.2217 66.5182 86.0495 66.9668C85.9809 67.4269 85.7407 67.844 85.3772 68.1344C85.0137 68.4247 84.5538 68.5667 84.0899 68.5319L84.0215 68.5136Z" fill="url(#paint0_radial_112:103797)"/>
<path d="M30.3568 155.181C27.9269 153.682 25.2921 152.544 22.5348 151.802C22.8647 152.624 24.3902 153.362 24.2185 153.866C21.5462 152.344 19.1744 153.395 16.317 154.205C17.5933 155.547 19.1676 156.57 20.9126 157.19C22.6576 157.811 24.5241 158.011 26.361 157.777C27.7393 157.559 29.166 157.025 30.6719 158.932C33.1557 149.662 37.4932 141.549 40.6221 132.746L38.009 133.329C35.2308 140.686 34.3184 148.471 30.3568 155.181Z" fill="url(#paint1_linear_112:103797)"/>
<path d="M83.8067 89.9708C83.8067 89.9708 83.7333 90.2445 83.5622 90.1987C82.3801 89.6394 81.2422 88.9913 80.1582 88.2598C80.0115 88.8072 79.6619 89.1536 79.4743 89.58C78.8503 90.6669 78.6577 91.9487 78.9348 93.1709C79.2119 94.3931 79.9383 95.4665 80.97 96.1781C82.1669 97.2991 83.2917 98.4946 84.3379 99.7574C84.9256 100.342 85.2897 101.114 85.3666 101.94C85.3167 104.335 84.6876 106.683 83.5331 108.783C83.1623 109.437 82.6158 109.976 81.9555 110.337C81.2951 110.697 80.547 110.867 79.7956 110.825L78.5499 110.821C78.229 112.019 78.6689 112.43 79.5975 112.385C80.3521 112.38 81.0969 112.213 81.7822 111.897C82.4675 111.582 83.0777 111.123 83.5721 110.553C85.4563 108.497 86.7229 105.951 87.2269 103.208C87.2498 102.624 87.4483 102.061 87.7965 101.592C88.1447 101.122 88.6263 100.769 89.1785 100.578C91.2123 99.7326 92.9483 98.3009 94.1651 96.4652C95.3819 94.6295 96.0245 92.473 96.0107 90.2706L92.1035 91.1672L87.5787 83.8309C86.4487 85.9531 85.189 88.0037 83.8067 89.9708ZM87.503 89.8612L87.7166 92.4853L90.1087 91.7694L90.2747 92.1073L87.6451 93.1629L87.5275 96.065L91.9901 94.3271L92.2223 94.8294L87.0783 97.7415L83.5845 94.495C85.1498 94.4011 85.7142 95.5791 86.6447 95.9384C87.048 94.433 87.048 94.433 84.8585 91.7928L86.9749 92.6533C87.2408 91.6611 87.2647 90.7507 87.3912 89.8679L87.503 89.8612Z" fill="#F4D11D"/>
<path d="M34.6778 116.084C34.4771 115.322 34.4789 114.519 34.6831 113.757C34.8873 112.995 35.2867 112.3 35.8421 111.739C38.0289 108.915 40.1065 105.952 42.3868 103.189C44.9788 99.5036 48.1728 96.281 51.835 93.6564C52.0635 93.4716 52.2321 93.2234 52.3197 92.9429C52.8952 90.8905 53.0713 88.7467 52.8383 86.628C52.5488 86.8763 52.2799 87.1477 52.0341 87.4393C45.6976 94.9321 39.8968 102.862 34.6746 111.17C34.286 111.799 33.7947 112.401 33.2142 113.199C32.2374 111.507 31.5502 109.966 29.5169 110.301C27.9161 110.517 26.4305 111.253 25.2888 112.395L26.1203 113.535C22.5691 116.25 23.1235 120.066 23.1305 123.735C24.4295 123.129 25.5391 122.546 26.7146 122.128C28.9105 121.323 31.3226 120.943 32.8471 118.674L33.8356 120.186C34.3375 119.644 34.6813 118.976 34.8298 118.253C34.9783 117.53 34.9257 116.78 34.6778 116.084ZM31.1915 118.011L30.5496 114.795L26.6074 118.286C26.8458 117.396 26.9649 116.951 27.2643 116.518L25.7364 115.925C27.5913 115.982 29.2708 115.736 30.1697 113.886C29.8378 113.946 29.5001 113.966 29.1635 113.947C28.7529 113.837 28.3423 113.727 27.7949 113.58C29.0847 113.009 29.0847 113.009 30.1789 113.852L32.5201 113.6C30.5497 114.795 32.4618 116.554 31.2098 117.942L31.1915 118.011Z" fill="#F4D11D"/>
<path d="M69.6091 143.37C70.1227 141.453 69.0286 140.609 67.3779 139.653C66.2873 148.24 65.2541 156.475 64.3144 164.772L60.8105 164.163L62.0407 165.594C61.9977 165.814 61.9395 166.032 61.8664 166.244C61.1341 167.882 61.1316 168.028 62.6021 168.973C65.1764 170.506 68.1251 171.296 71.1212 171.256C70.4639 170.076 69.6235 169.009 68.6315 168.094C67.827 167.401 68.0239 166.94 68.6179 166.365L65.2791 165.141C66.1929 160.909 67.0332 156.952 67.8394 152.985C68.3937 149.685 68.9137 146.375 69.6091 143.37Z" fill="url(#paint2_linear_112:103797)"/>
<path d="M54.6546 85.5805C53.6729 94.2058 51.5313 102.659 48.2876 110.711C48.9831 112.132 50.1344 113.28 51.558 113.97C56.5591 116.896 62.1644 118.636 67.9431 119.057C70.4499 119.388 72.998 119.197 75.4274 118.496C77.6793 109.632 78.4773 100.46 77.7903 91.3397C69.7286 91.3001 61.7941 89.325 54.6546 85.5805Z" fill="#F4D11D"/>
<path d="M54.9713 116.978C52.4251 116.041 50.1452 114.498 48.3285 112.482C47.9586 111.963 47.4332 111.574 46.8282 111.372C46.2232 111.171 45.5698 111.167 44.9622 111.36C42.3374 111.71 39.8677 112.806 37.8457 114.517C37.0039 115.125 36.3758 115.985 36.0513 116.971C35.8575 118.147 35.3933 119.261 34.6955 120.227C33.9977 121.193 33.0853 121.983 32.0302 122.535C31.8873 122.589 31.7592 122.675 31.6565 122.788C31.5539 122.901 31.4797 123.037 31.4402 123.184C31.4007 123.332 31.397 123.487 31.4294 123.636C31.4619 123.785 31.5295 123.924 31.6266 124.042C31.7799 124.355 31.8509 124.702 31.8329 125.051C31.8367 127.363 31.8404 129.676 31.8758 132.144C34.3131 132.542 36.8069 132.425 39.1969 131.802C41.5868 131.179 43.8202 130.062 45.7536 128.524L46.2656 131.266C47.7613 131.094 49.1634 130.449 50.2684 129.426C51.3734 128.402 52.1238 127.053 52.411 125.575C52.6311 124.753 53.1292 124.263 53.7885 124.403C55.6875 124.394 57.5542 124.894 59.1942 125.851C58.5192 127.081 58.1698 128.462 58.1791 129.865C58.1884 131.267 58.556 132.644 59.2472 133.864L61.2872 132.136C61.5999 132.683 61.8633 133.257 62.0744 133.851C62.2485 134.621 62.6117 135.335 63.1312 135.93C63.6507 136.524 64.3101 136.979 65.0497 137.254C65.6655 137.419 66.2606 137.798 66.8831 138.075C68.6808 138.709 70.1802 139.987 71.0926 141.661C71.3025 141.977 71.5617 142.257 71.8604 142.491C73.1296 140.958 74.5495 139.556 76.0986 138.306C76.9373 137.753 77.6489 137.028 78.1863 136.179C78.7236 135.329 79.0743 134.376 79.2152 133.381C79.3344 132.936 79.4445 132.525 79.5821 132.011L81.4297 132.506C81.2355 130.136 80.4629 127.85 79.1797 125.849L80.1692 124.757C79.2052 124.196 78.3714 123.437 77.7232 122.53C77.0749 121.622 76.627 120.587 76.4091 119.493C75.2543 119.697 74.1588 119.954 73.0657 120.065C66.8696 120.589 60.6426 119.527 54.9713 116.978ZM44.1525 124.646L43.2223 120.728C41.9248 121.55 40.6709 122.438 39.4653 123.39C39.1501 123.951 39.0649 124.612 39.2277 125.234C39.658 126.725 39.5175 128.323 38.8338 129.715L38.6694 124.718L38.1904 124.59C37.2652 125.442 36.3399 126.295 35.4831 127.166C34.6263 128.038 33.9656 128.998 33.0837 129.826C33.7992 127.155 36.2631 125.761 37.9291 123.786C36.3977 122.385 34.6096 123.447 32.5886 123.052C33.5658 122.662 34.6123 122.476 35.6638 122.506C36.7153 122.535 37.7497 122.779 38.7034 123.223L43.0201 119.976L37.8881 118.601C39.5128 118.559 41.1516 118.191 42.5327 119.332C42.8974 119.613 43.5934 119.616 44.2167 119.343C44.7125 119.216 45.1978 119.052 45.6685 118.851C45.6685 118.851 45.6685 118.851 45.9305 119.105L43.8889 120.429L45.6041 127.713C44.4641 127.041 44.4247 125.82 44.1433 124.68L44.1525 124.646ZM76.7352 128.13C75.1988 126.853 73.3336 126.035 71.3536 125.77C71.6576 127.464 72.08 129.134 72.6177 130.769C72.8473 131.417 73.7503 131.88 74.377 132.414C75.2121 133.063 75.9183 133.862 76.4593 134.77L73.0586 132.135L72.3041 141.656L71.791 141.518L72.2342 132.611C70.2162 133.7 68.3502 135.051 66.6842 136.627C67.9854 134.527 69.8125 132.803 71.9845 131.627C71.5486 129.969 71.1311 128.242 70.6001 126.119L64.2593 131.171C65.7783 128.239 68.9281 127.432 70.5357 124.854C71.7352 124.968 72.9001 125.32 73.9628 125.888C75.0254 126.456 75.9646 127.23 76.726 128.164L76.7352 128.13Z" fill="#9AAD3B"/>
<path d="M100.293 82.3673C102.568 79.4391 103.906 75.8923 104.133 72.1909C104.359 68.4896 103.463 64.8061 101.561 61.6225C100.128 59.0939 98.2437 56.8491 96.0018 54.9992C94.976 54.1744 94.2674 53.3978 95.022 51.9499C95.1871 51.3341 95.0808 50.4989 95.1273 49.778C95.1273 49.778 95.1822 49.5727 95.39 49.4817L96.3015 50.4593C97.9072 48.9827 97.5603 47.1297 98.0578 45.1362L100.053 46.0376C99.7039 44.3305 99.4431 42.9772 99.164 41.6924C99.3683 41.5949 99.5605 41.4742 99.737 41.3326C99.7931 41.1767 99.836 41.0165 99.8654 40.8536C97.7865 37.253 94.1617 36.6851 90.1147 36.1874L92.1127 34.8894C91.5417 34.4534 90.845 34.2138 90.1266 34.2063C89.4082 34.1989 88.7067 34.424 88.1267 34.8481L89.6804 34.9343L88.6262 38.8688C89.1571 38.4447 89.7146 38.0552 90.2954 37.7026C90.7921 37.3773 91.3881 37.2382 91.9775 37.31C94.2141 37.6622 96.316 38.6052 98.0662 40.0415L97.3372 40.9829L98.9303 44.3433L96.7517 44.1262C96.825 44.9607 96.8454 45.799 96.8126 46.636C96.6732 47.3677 96.4802 48.0881 96.2351 48.7914L93.5744 47.0884C93.9231 48.7013 94.0599 50.3528 93.9816 52.0011C93.4677 53.7747 92.7856 55.4951 91.9447 57.139L84.5957 53.2264L84.4435 54.6157C82.9039 54.2032 82.9039 54.2032 81.34 51.144L79.466 53.7587L76.8756 52.4779L75.7753 50.973L74.992 51.5698C74.1709 51.3498 74.3171 49.2989 75.4911 44.3698L74.2937 44.0489C74.7733 43.2073 75.4972 42.5312 76.3697 42.1102C77.2421 41.6892 78.2218 41.543 79.1792 41.6911L78.7363 39.9224C78.9256 39.9409 79.1106 39.9905 79.2838 40.069C80.4813 40.3899 81.8608 41.1262 82.7693 40.7463C83.6778 40.3664 84.0378 38.8861 84.639 37.8738C84.966 37.338 85.2929 36.8022 85.5856 36.2573C83.4881 36.832 83.9553 39.194 82.5732 40.6571C81.6494 40.4096 80.774 39.845 79.8001 39.5107C78.8263 39.1764 77.8072 38.4633 76.6927 39.3381L77.3323 40.6462C76.4739 41.1129 75.7706 41.5478 75.0172 41.896C74.2639 42.2442 73.9864 43.4166 72.8323 43.0707C73.8387 41.6367 74.4458 39.961 74.5914 38.2152C74.7371 36.4694 74.4159 34.7163 73.6609 33.1354C73.3268 32.0558 72.9927 30.9762 72.7362 29.8808C71.7651 25.2936 72.6774 23.668 77.2078 22.4984C82.8271 21.0882 88.6483 20.663 94.4129 21.2415C95.3708 21.4982 96.4138 21.3009 98.0451 21.3713L93.0754 13.916C92.8337 13.8183 92.5809 13.7505 92.3227 13.7143C88.5347 14.1661 85.0295 14.657 81.4284 15.2321C77.6956 15.699 74.0434 16.6693 70.5712 18.1167C69.6946 18.4476 68.9252 19.0121 68.3464 19.749C67.7676 20.4859 67.4014 21.367 67.2875 22.2971C67.0547 24.8985 67.4466 27.5178 68.4307 29.9372L70.3944 36.2937C67.7856 34.6059 64.6431 33.9468 61.5759 34.4442C58.8111 34.6665 56.0365 34.7431 53.2637 34.6737C50.3065 34.4915 47.5421 33.1442 45.5766 30.9272C45.1737 30.5338 44.853 30.0642 44.6331 29.5458C44.4132 29.0273 44.2986 28.4703 44.2958 27.9072C44.2369 26.0115 44.8218 24.1517 45.9551 22.6309C47.0884 21.11 48.7034 20.0178 50.5368 19.5322C50.8733 19.4403 51.2251 19.4194 51.57 19.4708C51.9149 19.5222 52.2455 19.6448 52.5405 19.8307C52.8355 20.0167 53.0886 20.2619 53.2837 20.5509C53.4789 20.84 53.6118 21.1664 53.674 21.5095C53.9734 22.6469 53.8227 23.8558 53.2533 24.8849C52.6839 25.9139 51.7396 26.6837 50.6169 27.0341L49.277 27.5185L49.3882 28.0616C50.0456 28.1303 50.7097 28.098 51.3573 27.9659C52.6103 27.4251 53.6243 26.4477 54.2108 25.2155C54.7973 23.9832 54.9164 22.5799 54.5459 21.2665C54.4721 20.7583 54.2793 20.2748 53.9832 19.8553C53.6871 19.4358 53.296 19.0923 52.8418 18.8526C52.3877 18.613 51.8833 18.484 51.3699 18.4763C50.8565 18.4686 50.3485 18.5823 49.8874 18.8082C48.5323 19.4071 47.2418 20.1425 46.0357 21.003C45.3662 21.5203 44.7363 22.0869 44.1513 22.6982C43.5366 21.8641 42.6566 21.2636 41.6557 20.9954C40.6548 20.7272 39.5924 20.8072 38.643 21.2222C37.4697 21.7362 36.4377 22.5253 35.6342 23.5228C34.8307 24.5203 34.2794 25.6968 34.0272 26.9525C33.8613 27.5437 33.9144 28.1749 34.1765 28.7302C34.4387 29.2854 34.8923 29.7274 35.4542 29.975C35.8753 30.2315 36.3665 30.3483 36.8579 30.3087C37.3493 30.2691 37.8156 30.0753 38.1902 29.7548C38.732 29.4139 39.1541 28.9128 39.3981 28.3211C39.6421 27.7293 39.6957 27.0763 39.5516 26.4527C39.2407 25.0126 38.1142 24.5641 36.7853 25.4181C37.1536 25.641 37.5028 25.894 37.8293 26.1745C38.1201 26.4815 38.2861 26.8858 38.2949 27.3085C38.3037 27.7312 38.1546 28.142 37.8768 28.4607C37.7483 28.6263 37.5885 28.7649 37.4064 28.8685C37.2243 28.9722 37.0236 29.039 36.8157 29.065C36.6078 29.0911 36.3967 29.0758 36.1946 29.0202C35.9926 28.9646 35.8035 28.8697 35.6382 28.7409C35.288 28.5052 35.0336 28.1522 34.9207 27.7454C34.8078 27.3387 34.844 26.905 35.0226 26.5225C35.6245 24.6428 36.8996 23.0518 38.6032 22.0549C39.2302 21.6841 39.9564 21.5156 40.6827 21.5724C41.409 21.6292 42.1001 21.9085 42.6618 22.3724C43.8678 23.2089 43.3942 24.2921 43.1693 25.4052C42.8487 26.4117 42.7833 27.4821 42.9788 28.5202C43.1743 29.5582 43.6246 30.5314 44.2894 31.3524C46.0072 33.3796 48.3078 34.8283 50.8783 35.5013L52.6574 35.9781C50.7939 37.4588 49.2774 38.7393 47.5714 40.0423C46.6055 40.7727 45.4812 41.2658 44.2895 41.4815C43.0978 41.6973 41.8721 41.6297 40.7114 41.2843C39.7287 40.9989 38.8529 40.4283 38.1946 39.6449C37.5364 38.8615 37.1253 37.9004 37.0135 36.8832C36.9451 36.1645 37.0797 35.441 37.4019 34.7949C37.7241 34.1488 38.2211 33.6059 38.8363 33.2281C39.2725 32.9255 39.7903 32.7626 40.3212 32.7608C40.8521 32.759 41.371 32.9184 41.8093 33.218C42.1224 33.3574 42.3914 33.5798 42.5871 33.8612C42.7828 34.1426 42.8978 34.4722 42.9195 34.8142C42.9412 35.1563 42.8688 35.4978 42.7102 35.8016C42.5516 36.1055 42.3128 36.3601 42.0198 36.5379C41.4558 36.8635 40.5663 36.6251 39.827 36.6471C40.001 38.0504 40.3475 38.4 41.4246 38.2119C42.0225 38.11 42.5795 37.8415 43.0316 37.4372C43.4837 37.0329 43.8126 36.5093 43.9805 35.9265C44.1566 35.384 44.169 34.8017 44.0163 34.2521C43.8636 33.7026 43.5524 33.2101 43.1216 32.8362C42.7557 32.4588 42.319 32.1572 41.8364 31.9485C41.3539 31.7399 40.835 31.6284 40.3093 31.6203C39.7836 31.6123 39.2616 31.7079 38.7729 31.9017C38.2841 32.0954 37.8384 32.3835 37.461 32.7496C36.708 33.3881 36.1677 34.2411 35.9122 35.1947C35.6566 36.1484 35.6981 37.1573 36.031 38.0867C36.275 39.0813 36.7777 39.9937 37.4881 40.7314C38.1984 41.4691 39.0912 42.0059 40.0759 42.2874C41.3997 42.6849 42.8014 42.7479 44.1556 42.4708C45.5097 42.1937 46.774 41.5852 47.8353 40.6997C49.4294 39.4034 51.0144 38.1413 52.5126 36.9293C53.141 36.4068 53.892 36.0529 54.695 35.9007C57.7505 35.5826 60.831 35.308 63.8999 35.2136C64.8343 35.1367 65.774 35.2727 66.6482 35.6115C67.5225 35.9503 68.3086 36.483 68.9471 37.1695C69.5857 37.856 70.0601 38.6784 70.3349 39.5748C70.6096 40.4712 70.6775 41.4183 70.5333 42.3446C69.4085 42.2999 68.2928 42.221 67.1931 42.2197C60.4224 42.304 53.7507 43.8567 47.6387 46.7707C43.5779 48.6072 40.0526 51.4487 37.3957 55.0268C35.9013 56.8895 34.9784 59.1452 34.7387 61.5213C34.4991 63.8973 34.9528 66.292 36.0451 68.4157C37.5745 71.898 40.0104 74.9061 43.0986 77.1261C45.7702 79.1987 48.4693 81.1687 51.1843 83.2162L53.2383 84.72C45.7981 92.7455 39.2174 101.527 33.6034 110.921C32.6982 110.179 31.6817 109.585 30.5914 109.16C29.0655 109.053 27.5403 109.379 26.1919 110.101C24.8434 110.823 23.7266 111.912 22.9705 113.242L24.0996 113.545C22.166 117.269 21.4659 121.511 22.1001 125.66C24.5337 123.449 27.6268 122.1 30.9026 121.821C30.3857 122.929 29.7569 124.044 29.3701 125.077C28.9833 126.11 29.9211 126.032 30.617 126.035C31.1197 128.433 30.8982 130.926 29.981 133.198L37.3187 133.184C34.2554 140.101 33.4501 147.622 29.8785 154.109C28.7184 152.973 27.3364 152.089 25.8189 151.512C24.3014 150.935 22.6811 150.677 21.0595 150.756L21.0991 151.976C18.8676 152.409 16.682 153.051 14.5713 153.894L17.0243 155.688C18.2689 156.774 19.7209 157.597 21.2925 158.106C22.8641 158.616 24.5225 158.801 26.1678 158.651C26.6686 158.677 27.1585 158.808 27.6048 159.036C28.0964 159.303 28.647 159.441 29.2061 159.438C29.7651 159.436 30.3146 159.292 30.8036 159.022C31.2927 158.751 31.7056 158.361 32.0045 157.889C32.3033 157.416 32.4783 156.876 32.5135 156.318C32.6792 155.29 32.9495 154.281 33.3202 153.307C34.5308 150.295 35.8348 147.344 37.002 144.357C38.4185 140.849 39.7916 137.367 41.037 133.814C41.2562 132.962 41.7301 132.198 42.3954 131.622C43.0606 131.047 43.8855 130.688 44.7599 130.594L43.7504 133.404C48.2656 131.607 52.9121 130.689 53.6512 125.056L57.7244 126.551C55.8399 130.3 58.451 133.42 58.8918 136.838C59.4656 135.928 60.0143 134.975 60.8349 133.692C61.0044 134.826 61.482 135.892 62.2155 136.774C62.9491 137.656 63.9106 138.32 64.9952 138.693C65.2266 138.765 65.4416 138.881 65.6279 139.036C65.8142 139.19 65.9682 139.38 66.0811 139.594C66.194 139.808 66.2636 140.043 66.2859 140.284C66.3081 140.525 66.2827 140.768 66.2109 140.999C65.7745 143.449 65.5183 145.911 65.1845 148.388C64.5927 152.923 64.0351 157.467 63.4434 162.002C63.3249 162.581 63.1719 163.152 62.985 163.713C62.6038 163.586 62.2154 163.482 61.8218 163.401C60.1795 162.961 57.9695 164.092 58.4772 165.072L60.3931 165.585C60.2009 165.945 60.0868 166.341 60.0579 166.748C60.0291 167.155 60.0862 167.563 60.2256 167.947C60.3651 168.33 60.5837 168.679 60.8673 168.973C61.1508 169.266 61.493 169.496 61.8714 169.648C65.0995 171.594 68.8116 172.589 72.5802 172.518C72.5802 172.518 72.8771 172.231 73.0781 172.028L70.381 168.408L72.3491 167.359C70.8231 165.116 68.0572 165.585 66.2977 163.941C67.5323 157.964 68.7761 151.954 70.0633 145.918C70.1733 145.508 70.2925 145.063 70.4025 144.652C72.1089 144.853 72.28 144.899 72.8702 143.517C73.7805 141.6 75.2438 140 77.0716 138.922C78.4001 138.056 79.3758 136.744 79.8231 135.223C79.9226 134.724 80.0543 134.233 80.2173 133.752C80.3988 134.296 80.6107 134.831 80.8519 135.352C80.9747 135.715 81.1751 136.062 81.3822 136.52C82.8909 134.175 82.8574 133.616 80.9736 127.097L82.7527 127.574C82.5163 126.814 82.5011 126.186 82.1981 125.812C81.8951 125.437 80.6849 124.343 79.967 123.601C79.3186 123.112 78.7589 122.515 78.3126 121.837C77.5744 120.502 77.1923 118.999 77.2029 117.474C77.2135 115.948 77.6165 114.451 78.3732 113.126C79.6749 113.409 81.0328 113.267 82.248 112.721C83.4632 112.176 84.4718 111.256 85.1258 110.095C86.6997 108.061 87.7754 105.687 88.2668 103.163C88.3112 102.764 88.4544 102.383 88.6835 102.054C88.9126 101.725 89.2203 101.458 89.5787 101.278C91.1909 100.337 92.7109 99.2465 94.1185 98.0206C95.9309 95.105 96.9851 91.7822 97.1851 88.355L92.7083 90.419L92.0351 88.5518L94.1425 87.3931C96.5253 86.172 98.6216 84.459 100.293 82.3673ZM69.6433 30.8855C68.4935 28.3694 68.0475 25.5886 68.3525 22.8391C68.4061 22.0844 68.6802 21.3621 69.1409 20.7619C69.6017 20.1617 70.2286 19.7101 70.9438 19.4632C73.6176 18.534 76.3381 17.7452 79.0943 17.1002C83.4989 16.2636 87.9828 15.815 92.4876 15.1519L95.9844 19.7558C93.089 19.75 90.4514 19.74 87.8322 19.6615C83.5602 19.6615 79.3179 20.3712 75.2785 21.7615C73.9658 22.0522 72.8194 22.8461 72.0856 23.9727C71.3518 25.0993 71.089 26.4687 71.3537 27.7869C71.6044 29.4859 71.949 31.1696 72.3859 32.8304C72.7786 34.5124 73.2581 36.1443 73.4957 37.8581C73.5085 38.7225 73.4248 39.5856 73.2462 40.4314L72.8356 40.3214C72.7128 39.9585 72.5467 39.6206 72.4331 39.2235C71.4893 36.5871 70.6531 33.6862 69.6433 30.8855ZM26.492 121.996C25.3165 122.414 24.207 122.997 22.908 123.603C22.901 119.934 22.3464 116.118 25.8976 113.403L25.0662 112.263C26.2078 111.121 27.6934 110.385 29.2942 110.169C31.3276 109.834 32.0148 111.375 32.9916 113.067C33.5721 112.269 34.0633 111.667 34.452 111.038C39.6741 102.73 45.475 94.8005 51.8115 87.3078C52.0572 87.0162 52.3261 86.7449 52.6156 86.4966C52.8486 88.6153 52.6726 90.7591 52.097 92.8114C52.0095 93.0918 51.8408 93.3401 51.6124 93.5249C47.9502 96.1495 44.7562 99.372 42.1643 103.057C39.884 105.82 37.8064 108.783 35.6195 111.608C35.0642 112.168 34.6646 112.864 34.4604 113.626C34.2563 114.388 34.2545 115.19 34.4553 115.953C34.6604 116.66 34.6681 117.41 34.4774 118.122C34.2868 118.834 33.905 119.48 33.3736 119.99L32.3851 118.478C31.0817 120.879 28.6696 121.259 26.4737 122.064L26.492 121.996ZM46.6732 110.316C42.5859 110.475 38.6723 112.01 35.5679 114.674C35.8999 111.793 47.1398 97.9001 51.2867 95.0144C50.7188 100.383 49.1476 105.596 46.6549 110.384L46.6732 110.316ZM30.7721 158.712C29.2203 156.976 27.7937 157.51 26.4611 157.557C24.6241 157.792 22.7576 157.591 21.0126 156.97C19.2677 156.35 17.6933 155.327 16.4171 153.985C19.2746 153.174 21.6465 152.123 24.3188 153.646C24.4563 153.132 22.9649 152.403 22.635 151.581C25.3923 152.323 28.0272 153.461 30.457 154.96C34.4191 148.248 35.4003 140.481 38.1906 132.941L40.8038 132.358C37.5759 141.394 33.2723 149.518 30.7537 158.78L30.7721 158.712ZM65.2242 164.936L68.563 166.161C67.9691 166.735 67.7722 167.196 68.5768 167.888C69.5689 168.803 70.4094 169.87 71.0669 171.049C68.0709 171.089 65.1222 170.299 62.5478 168.766C61.0772 167.822 61.0797 167.676 61.8118 166.039C61.8848 165.826 61.943 165.609 61.986 165.389L60.7556 163.959L64.2594 164.568C65.3006 156.303 66.3325 148.072 67.3193 139.463C68.9701 140.418 69.9616 141.234 69.5509 143.178C68.7259 146.257 68.3364 149.489 67.7075 152.658C66.9496 156.855 66.1189 160.776 65.3769 165.051L65.2242 164.936ZM76.5196 119.633C76.7376 120.727 77.1857 121.761 77.8341 122.668C78.4824 123.576 79.3163 124.334 80.2803 124.895L79.2911 125.986C80.5745 127.986 81.3475 130.271 81.542 132.64L79.5234 132.099C79.3859 132.612 79.2759 133.023 79.1567 133.467C79.016 134.462 78.6654 135.415 78.1282 136.263C77.591 137.112 76.8795 137.837 76.0409 138.389C74.4921 139.638 73.0725 141.039 71.8035 142.571C71.5048 142.338 71.2456 142.058 71.0356 141.742C70.123 140.068 68.6234 138.791 66.8257 138.157C66.1757 137.983 65.5714 137.638 64.9923 137.336C64.2527 137.061 63.5933 136.606 63.0737 136.012C62.5541 135.418 62.1908 134.704 62.0165 133.935C61.8054 133.341 61.5419 132.768 61.2291 132.221L59.1896 133.948C58.4982 132.728 58.1302 131.352 58.1207 129.95C58.1112 128.549 58.4604 127.168 59.1352 125.939C57.4951 124.982 55.6284 124.482 53.7294 124.491C53.0794 124.316 52.5039 124.822 52.3523 125.662C52.0654 127.14 51.3151 128.488 50.2102 129.51C49.1054 130.533 47.7035 131.177 46.2079 131.349L45.6955 128.608C43.7624 130.145 41.5293 131.261 39.1395 131.883C36.7497 132.506 34.2562 132.622 31.8189 132.224C31.7831 129.757 31.779 127.446 31.7749 125.135C31.7928 124.787 31.7218 124.44 31.5684 124.126C31.4713 124.009 31.4036 123.87 31.3712 123.721C31.3387 123.572 31.3423 123.417 31.3818 123.27C31.4213 123.122 31.4955 122.987 31.5981 122.874C31.7007 122.761 31.8289 122.674 31.9718 122.621C33.0267 122.069 33.939 121.279 34.6366 120.314C35.3342 119.35 35.7982 118.236 35.9918 117.061C36.3162 116.075 36.9441 115.216 37.7858 114.608C39.8074 112.898 42.2768 111.804 44.9014 111.455C45.509 111.261 46.1624 111.265 46.7674 111.467C47.3724 111.669 47.8977 112.057 48.2677 112.577C50.0847 114.591 52.3648 116.133 54.9111 117.07C60.5973 119.695 66.8615 120.818 73.1054 120.332C74.251 120.162 75.3465 119.906 76.5013 119.702L76.5196 119.633ZM75.5513 118.457C73.1218 119.158 70.5737 119.349 68.0669 119.018C62.2881 118.597 56.6828 116.857 51.6817 113.931C50.2581 113.241 49.1069 112.093 48.4114 110.672C51.6555 102.618 53.7976 94.1632 54.7797 85.5364C61.8717 89.2388 69.7443 91.1974 77.7444 91.2497C78.4934 100.401 77.7464 109.614 75.533 118.526L75.5513 118.457ZM79.379 96.2346C81.2394 97.7545 82.8886 99.5159 84.2828 101.472C84.4914 101.854 84.5425 102.302 84.4251 102.72C84.0217 104.226 83.6184 105.731 83.215 107.236C83.0533 107.898 82.6906 108.493 82.1769 108.939C81.6632 109.386 81.0237 109.663 80.3463 109.731C79.5111 109.838 79.0462 109.383 79.0242 108.644C79.0023 107.904 79.2138 106.568 79.2401 105.511C79.2886 103.141 79.2687 100.752 79.3287 98.2013C79.2493 97.8133 79.3184 97.2818 79.3606 96.3031L79.379 96.2346ZM92.0893 90.9498L95.9966 90.0533C96.0472 92.2668 95.4339 94.4446 94.2358 96.3064C93.0376 98.1682 91.3094 99.6285 89.2738 100.499C88.7216 100.691 88.24 101.044 87.8918 101.513C87.5436 101.983 87.3451 102.546 87.3222 103.13C86.8183 105.873 85.5516 108.418 83.6675 110.475C83.1731 111.045 82.5629 111.503 81.8775 111.819C81.1922 112.135 80.4475 112.301 79.6929 112.306C78.7642 112.351 78.256 111.921 78.6452 110.742L79.891 110.746C80.6424 110.788 81.3905 110.619 82.0509 110.258C82.7113 109.897 83.2576 109.359 83.6284 108.704C84.783 106.605 85.412 104.257 85.4619 101.861C85.385 101.036 85.021 100.264 84.4333 99.679C83.3871 98.4163 82.2621 97.2208 81.0652 96.0998C80.0335 95.3882 79.3071 94.3149 79.03 93.0927C78.753 91.8705 78.9455 90.5888 79.5695 89.5019C79.6887 89.0572 79.9697 88.6925 80.2533 88.1817C81.3373 88.9132 82.4753 89.5613 83.6575 90.1206C83.6575 90.1206 83.6574 90.1206 83.9018 89.8927C85.2832 87.8638 86.5355 85.7499 87.6512 83.5636L92.0893 90.9498ZM91.227 87.0519L87.867 82.4847C85.9831 84.6278 84.532 87.1154 83.5939 89.8102C82.3314 88.6356 80.9953 87.5427 79.5936 86.5382L78.1636 89.8219C76.8836 89.809 75.4827 89.837 74.075 89.7531C65.1828 89.1449 56.6582 85.9691 49.5356 80.611C47.6001 79.2123 45.7264 77.7202 43.8527 76.2281C41.4646 74.2679 39.5326 71.8106 38.1914 69.0275C37.1254 67.1059 36.6505 64.9123 36.8264 62.7219C37.0024 60.5315 37.8212 58.4418 39.1803 56.715C42.1031 52.9715 45.968 50.0716 50.3794 48.3118C55.4478 46.2117 60.8168 44.9276 66.2869 44.507C67.7746 44.3769 69.2731 44.4455 70.7427 44.7109C71.6677 44.9832 72.5469 45.3918 73.3514 45.9233L74.365 45.4248C74.2917 45.6985 74.5196 45.9429 74.4738 46.114C73.769 48.4169 73.7605 50.8768 74.4493 53.1845L74.9637 54.2758L76.0336 52.4723L77.0601 52.7474L80.2442 55.5073C80.4917 54.5836 80.8737 53.8426 81.3222 52.716C81.7156 53.6347 82.299 54.4598 83.0339 55.137C83.7688 55.8142 84.6387 56.3283 85.5864 56.6454L85.9715 55.2085C88.4095 55.8085 90.6112 57.1266 92.2916 58.9921C92.8795 57.7562 93.3164 56.8099 93.8584 55.745C99.5364 60.42 103.226 65.8089 102.439 73.2619C102.043 76.3882 100.781 79.3417 98.7972 81.7901C96.8131 84.2384 94.185 86.0844 91.2087 87.1203L91.227 87.0519Z" fill="#162D54"/>
<path d="M85.9954 36.0916L87.9666 34.9562C87.1166 35.0178 86.3409 35.2077 85.9954 36.0916Z" fill="#162D54"/>
<path d="M63.4541 74.914C64.135 76.1975 65.0791 77.3234 66.2249 78.2183C67.3707 79.1131 68.6924 79.7569 70.1038 80.1074C71.5151 80.4579 72.9843 80.5074 74.4156 80.2526C75.8469 79.9978 77.208 79.4444 78.4101 78.6286C73.0803 79.3603 67.7939 80.067 63.4541 74.914Z" fill="#162D54"/>
<path d="M83.4094 94.4599L86.9022 97.7098L92.2533 94.8461L92.0213 94.3432L87.5575 96.0856L87.6762 93.1789L90.3066 92.1206L90.1406 91.7823L87.748 92.5003L87.5355 89.8722L87.2276 89.7897C86.998 90.6464 86.9737 91.5582 86.81 92.5795L84.6939 91.7187C86.9259 94.3369 86.9259 94.3369 86.4785 95.8699C85.5389 95.5447 84.9749 94.3651 83.4094 94.4599Z" fill="#162D54"/>
<path d="M70.5462 124.81C69.0418 127.414 65.7896 128.192 64.2712 131.122L70.6108 126.074C71.1422 128.196 71.5417 129.99 71.9961 131.579C69.8244 132.754 67.9976 134.476 66.6969 136.575C68.3626 135 70.2283 133.651 72.246 132.562L71.7309 141.738L72.2441 141.875L72.9969 132.36L76.3979 134.995C75.8568 134.087 75.1505 133.288 74.3153 132.64C73.6885 132.105 72.7855 131.643 72.5558 130.995C72.0179 129.362 71.5952 127.692 71.2909 125.999C73.2709 126.264 75.1361 127.082 76.6727 128.358C75.9403 127.388 75.0208 126.573 73.9685 125.964C72.9163 125.355 71.7526 124.962 70.5462 124.81Z" fill="#162D54"/>
<path d="M45.8847 119.27C45.8847 119.27 45.666 118.991 45.6226 119.016C45.152 119.217 44.6667 119.381 44.171 119.507C43.5936 119.609 42.8518 119.777 42.4871 119.496C41.1058 118.356 39.4763 118.689 37.8425 118.765L42.9745 120.14L38.6585 123.384C37.7048 122.94 36.6704 122.696 35.6189 122.667C34.5675 122.637 33.5211 122.823 32.5439 123.212C34.5283 123.744 36.387 122.555 37.8843 123.946C36.182 126.057 33.7869 127.469 33.0401 129.982C33.9218 129.155 34.6508 128.213 35.439 127.325C36.2272 126.436 37.2207 125.602 38.1458 124.75L38.6247 124.878L38.79 129.873C39.4734 128.481 39.6136 126.884 39.1831 125.394C39.0202 124.772 39.1053 124.112 39.4204 123.551C40.6258 122.6 41.8795 121.712 43.1768 120.891L44.1076 124.807C44.3892 125.946 44.4288 127.167 45.523 128.01L43.8067 120.73L45.8847 119.27Z" fill="#162D54"/>
<path d="M81.7588 43.006C80.1306 44.2925 77.9251 43.6282 76.6293 45.5904L80.1674 44.1558C80.164 44.7539 79.9977 45.3397 79.6864 45.8504C79.3752 46.3612 78.9306 46.7775 78.4005 47.0547C77.5697 47.6029 76.7813 48.2126 76.0417 48.8786L76.2854 49.2005L78.9864 47.4682C79.0597 49.2474 78.3095 50.9524 79.1654 52.6847C79.2974 50.9606 79.3878 49.6652 79.4898 48.1896L80.9421 49.2019C78.7041 46.8794 81.0446 45.1239 81.7588 43.006Z" fill="#162D54"/>
<path d="M87.3148 49.0874C87.1112 49.835 86.9914 50.6029 86.9579 51.377L87.2317 51.4504C87.4794 50.5259 87.7362 49.5673 87.8679 48.3915L89.4593 49.295C90.1501 48.0856 91.1016 49.7351 92.1387 48.8753C90.7388 48.5976 89.435 47.9613 88.3545 47.0286C87.274 46.0959 86.4538 44.8986 85.9739 43.5538L84.537 43.1688L86.3297 45.3739C87.3094 46.3703 88.0381 47.483 87.3148 49.0874Z" fill="#162D54"/>
<path d="M95.1553 44.0592C94.6746 42.9795 94.3328 42.3393 94.0777 41.6492C93.8225 40.9591 92.9012 40.5659 93.6203 39.6614L96.2935 40.0851C94.7654 39.4928 93.3221 38.4477 91.4351 39.3319C93.5698 40.1234 92.9934 42.8216 95.1553 44.0592Z" fill="#162D54"/>
<path d="M90.9537 44.4167L91.1022 43.8623L86.133 43.3849C87.5275 44.6126 89.3422 43.7249 90.9537 44.4167Z" fill="#162D54"/>
<path d="M91.0506 53.0881C90.7898 51.7348 90.6934 50.3155 89.5241 49.3422C89.5858 50.7295 90.125 52.0529 91.0506 53.0881Z" fill="#162D54"/>
<path d="M83.63 48.8838L83.8353 48.9388L85.0213 46.1549L84.5766 46.0358L83.63 48.8838Z" fill="#162D54"/>
<path d="M32.5065 113.628L30.1656 113.88C29.2674 115.727 27.5881 115.973 25.7333 115.915L27.2613 116.508C27.1331 116.986 27.0141 117.43 26.605 118.273L30.5457 114.787L31.1885 117.999C32.4582 116.545 30.5458 114.787 32.5065 113.628Z" fill="#162D54"/>
<path d="M27.8128 113.632C28.3602 113.779 28.7708 113.889 29.1813 113.999C29.5182 114.017 29.8563 113.995 30.1887 113.934C29.003 113.022 29.0029 113.022 27.8128 113.632Z" fill="#162D54"/>
<path d="M62.9057 63.0159C63.7573 63.2393 64.6773 62.5449 64.9606 61.465C65.244 60.385 64.7833 59.3285 63.9317 59.1051C63.0802 58.8817 62.1603 59.5761 61.8769 60.656C61.5936 61.736 62.0542 62.7925 62.9057 63.0159Z" fill="#162D54"/>
<path d="M84.0459 68.5629C84.8975 68.7862 85.8174 68.0918 86.1007 67.0119C86.384 65.9319 85.9235 64.8754 85.072 64.652C84.2204 64.4286 83.3004 65.123 83.0171 66.2029C82.7338 67.2829 83.1944 68.3395 84.0459 68.5629Z" fill="#162D54"/>
<defs>
<radialGradient id="paint0_radial_112:103797" cx="0" cy="0" r="1" gradientUnits="userSpaceOnUse" gradientTransform="translate(18409.7 5216.57) rotate(3.68032) scale(528.658 348.704)">
<stop offset="0.29" stop-color="#F4D11D"/>
<stop offset="0.64" stop-color="#F4D01D" stop-opacity="0.99"/>
<stop offset="0.77" stop-color="#F5CE1F" stop-opacity="0.97"/>
<stop offset="0.86" stop-color="#F7C922" stop-opacity="0.93"/>
<stop offset="0.94" stop-color="#FAC325" stop-opacity="0.87"/>
<stop offset="1" stop-color="#FDBB2A" stop-opacity="0.8"/>
</radialGradient>
<linearGradient id="paint1_linear_112:103797" x1="4940.18" y1="2998.46" x2="4817.67" y2="3262.74" gradientUnits="userSpaceOnUse">
<stop stop-color="#597836"/>
<stop offset="0.09" stop-color="#688437"/>
<stop offset="0.27" stop-color="#7E9639"/>
<stop offset="0.47" stop-color="#8EA33A"/>
<stop offset="0.69" stop-color="#97AB3B"/>
<stop offset="1" stop-color="#9AAD3B"/>
</linearGradient>
<linearGradient id="paint2_linear_112:103797" x1="3472.15" y1="3279.53" x2="3311.92" y2="3494.56" gradientUnits="userSpaceOnUse">
<stop stop-color="#597836"/>
<stop offset="0.09" stop-color="#688437"/>
<stop offset="0.27" stop-color="#7E9639"/>
<stop offset="0.47" stop-color="#8EA33A"/>
<stop offset="0.69" stop-color="#97AB3B"/>
<stop offset="1" stop-color="#9AAD3B"/>
</linearGradient>
</defs>
</svg>
