<svg width="210" height="313" viewBox="0 0 210 313" fill="none" xmlns="http://www.w3.org/2000/svg">
<path d="M50.9365 56.4869C52.0346 55.4951 51.2199 54.7157 50.6886 53.9364C49.2629 51.9886 48.2907 49.7467 47.8434 47.3746C47.396 45.0026 47.4847 42.5605 48.1029 40.2272C49.5905 34.7364 51.149 29.2456 52.7783 23.7902C53.593 21.0626 54.6202 18.4057 55.6474 15.3947C54.7383 14.9961 53.788 14.6991 52.8138 14.5091C50.1219 14.5091 47.3945 14.5091 44.7025 14.5091C40.0003 14.913 35.3352 15.6708 30.7469 16.7762C25.6914 17.9213 20.8252 19.7821 16.2955 22.3024C15.3915 22.8912 14.5384 23.5548 13.7452 24.2862L19.8729 29.9187C24.3713 27.0847 28.5155 24.357 32.7305 21.8065C35.2888 20.3473 38.1496 19.4987 41.0897 19.3268C41.9168 19.2527 42.7462 19.4424 43.4588 19.8688C44.1715 20.2952 44.7309 20.9363 45.0567 21.7002C45.9395 23.7162 46.1747 25.9566 45.7297 28.112C45.4464 31.8316 44.9151 35.5511 44.5609 39.3061C44.4369 40.3415 44.4369 41.388 44.5609 42.4235C45.0398 45.7763 46.0564 49.0299 47.5716 52.0589C48.2599 53.819 49.4252 55.3524 50.9365 56.4869Z" fill="#BF7F2A"/>
<path d="M105.696 78.0075C106.192 78.0075 106.936 77.654 107.042 77.053C107.148 76.4521 107.042 75.5683 106.334 75.6036C105.673 75.855 105.053 76.2003 104.492 76.6288C104.492 76.6288 104.952 78.0429 105.696 78.0075Z" fill="white"/>
<path d="M70.7366 80.945C71.5159 80.3456 71.3388 79.5347 71.02 78.5827C69.7271 78.9779 68.4148 79.3074 67.0883 79.57C68.1155 80.2399 69.6386 81.756 70.7366 80.945Z" fill="white"/>
<path d="M96.204 101.71C97.6791 101.909 99.1802 101.681 100.53 101.053C101.879 100.426 103.021 99.4247 103.819 98.1688C104.695 96.765 105.034 95.0924 104.776 93.4584C100.118 94.4242 95.3615 94.8285 90.6077 94.6625H88.6595C89.1108 96.436 90.0616 98.0427 91.3989 99.292C92.7362 100.541 94.4039 101.381 96.204 101.71Z" fill="#EE4844"/>
<path d="M102.19 92.252L100.277 87.9653C99.2143 89.2761 98.4351 90.2681 97.3725 91.5081C96.6287 90.5869 95.9557 89.8075 95.3536 89.0281C94.7515 88.2487 94.1139 87.9299 93.193 88.4259C91.4959 89.435 90.2338 91.0383 89.6511 92.9252C93.8426 93.1569 98.0469 92.9311 102.19 92.252Z" fill="#EE4844"/>
<path d="M40.4531 81.028L39.9927 78.6545L32.4127 82.197C32.1755 84.193 32.4942 86.2158 33.3337 88.0421C35.7021 93.4579 39.8176 97.9232 45.0223 100.724C52.1844 104.715 59.9117 107.594 67.9392 109.262C74.6009 110.804 81.4786 111.188 88.2705 110.395C92.3517 109.831 96.3878 108.978 100.349 107.845C107.02 106.107 112.948 102.254 117.244 96.8629C119.425 94.1648 120.956 91.0007 121.718 87.6159C122.479 84.231 122.451 80.7162 121.636 77.3438C120.783 74.1485 119.47 71.0938 117.74 68.2751C115.601 64.4376 112.303 61.375 108.318 59.5251C101.138 56.0088 93.3159 53.9957 85.3306 53.6092C76.1184 52.8228 66.84 53.7232 57.9508 56.2661L50.8667 58.427C52.6092 58.6559 54.2583 59.3487 55.6415 60.433C57.0248 61.5173 58.0915 62.9533 58.73 64.5909C59.5056 66.1451 59.7524 67.9102 59.4327 69.6176C59.113 71.3249 58.2444 72.8811 56.959 74.0493L56.1443 71.0028C53.0908 74.3675 49.2602 76.9337 44.9869 78.4774V75.2537C43.6341 77.2978 42.1179 79.2289 40.4531 81.028ZM112.746 69.9046C113.761 70.1235 114.688 70.6368 115.413 71.3803C116.137 72.1238 116.627 73.0645 116.819 74.0847C116.182 73.4117 115.473 72.8094 114.871 72.1009C114.384 71.4276 113.699 70.9227 112.912 70.6561C112.125 70.3895 111.275 70.3744 110.479 70.6131C108.743 71.1091 106.937 71.6758 105.378 72.2072C106.252 71.152 107.413 70.3729 108.721 69.9642C110.029 69.5555 111.427 69.5348 112.746 69.9046ZM105.343 74.4036C106.572 73.8424 107.906 73.552 109.257 73.552C110.608 73.552 111.942 73.8424 113.171 74.4036C115.048 75.2892 117.032 75.9622 119.157 76.8479C118.731 77.2104 118.205 77.435 117.648 77.4919C117.091 77.5489 116.531 77.4354 116.04 77.1667C114.623 76.6353 113.277 75.9622 111.86 75.5371C110.693 75.2805 109.51 75.103 108.318 75.0058C108.318 75.9622 108.318 76.6353 108.318 77.273C108.242 77.7614 108.006 78.2108 107.647 78.5506C107.288 78.8904 106.827 79.1014 106.335 79.1505C105.889 79.2654 105.416 79.2092 105.01 78.9928C104.603 78.7764 104.292 78.4156 104.139 77.9815C103.82 77.273 103.643 76.4228 102.297 77.1667C102.56 76.5044 102.972 75.9111 103.5 75.4322C104.028 74.9533 104.658 74.6014 105.343 74.4036ZM88.3059 93.037C88.8018 92.0805 89.156 91.1949 89.6519 90.3801C90.0804 89.5787 90.6167 88.8397 91.2458 88.1838C93.0522 86.448 95.5671 86.2354 96.7005 88.6443C96.7005 88.8214 96.9839 88.9631 97.2318 89.1757L99.2862 87.5107C99.424 87.3493 99.6021 87.2271 99.8023 87.1567C100.003 87.0862 100.218 87.07 100.426 87.1095C100.635 87.1491 100.829 87.2431 100.99 87.3819C101.15 87.5208 101.271 87.6997 101.341 87.9004C102.049 89.2111 102.687 90.5573 103.466 92.1159L109.452 91.4429C108.85 92.7182 107.929 92.7536 107.079 92.9307L106.158 93.1433C106.416 95.4241 105.823 97.7199 104.493 99.5906C103.09 101.263 101.232 102.494 99.1445 103.133C95.1066 104.019 89.9352 102.495 87.385 94.7728C85.0118 94.3477 82.7803 93.9935 80.6197 93.4975C79.5396 93.1849 78.5295 92.6678 77.6444 91.9742C79.4231 91.8607 81.208 92.0524 82.922 92.541L88.3059 93.037ZM79.38 71.4987C77.2092 70.777 74.8861 70.6426 72.6465 71.1093C70.407 71.5759 68.3308 72.6269 66.6287 74.1556C67.9796 72.1269 70.0741 70.7111 72.46 70.214C74.8459 69.7168 77.3315 70.1783 79.38 71.4987ZM62.272 78.5837C65.8058 78.569 69.2741 77.6285 72.3314 75.856C73.852 75.0846 75.4409 74.4561 77.0777 73.9784C78.104 73.7465 79.1678 73.7338 80.1993 73.9414C81.2309 74.149 82.2069 74.572 83.0637 75.1829C83.3471 75.1829 83.4533 75.7497 83.6304 76.2811C81.8193 75.472 79.8262 75.1573 77.8539 75.3688C75.8816 75.5804 74.0006 76.3107 72.4022 77.4855C72.721 80.6737 72.0834 82.2324 70.4187 82.3741C69.7435 82.4287 69.0696 82.254 68.506 81.8782C67.8315 81.1869 67.3016 80.3679 66.9475 79.4693C64.8871 79.9655 62.7385 79.9655 60.6781 79.4693V78.9025C61.2024 78.7919 61.7362 78.7325 62.272 78.7254V78.5837Z" fill="url(#paint0_radial_112:103754)"/>
<path d="M98.5045 248.158C97.3356 249.185 97.7252 251.169 96.4147 251.948C94.927 249.858 93.6519 247.875 92.1288 246.033C90.6661 244.057 88.6954 242.515 86.4261 241.569C86.4261 242.845 86.7095 244.049 86.7449 245.112C87.0285 254.722 86.7091 264.34 85.7886 273.91C85.2573 278.763 84.5843 283.616 84.3009 288.504C83.747 292.52 83.6875 296.588 84.1238 300.618C84.4426 302.389 84.3718 304.16 84.6905 305.967C84.8958 306.755 85.2841 307.483 85.824 308.092C87.2127 309.367 88.953 310.194 90.8182 310.466C91.0293 310.501 91.2447 310.501 91.4558 310.466L91.0308 308.624C94.1263 309.517 97.382 309.711 100.562 309.19C103.741 308.669 106.765 307.447 109.414 305.613C105.97 303.022 101.819 301.539 97.5127 301.362C96.9105 301.362 96.0605 301.362 96.1313 300.335L98.2211 299.378V298.918C96.698 299.272 95.1749 299.591 93.7227 300.051C92.2704 300.512 91.0662 300.299 90.9954 298.21C90.9604 297.762 90.9604 297.312 90.9954 296.864C91.1725 294.242 91.3141 291.621 91.5266 289C91.8518 283.52 92.7178 278.086 94.1123 272.776C96.5563 264.027 99.3191 255.384 101.976 246.706C101.976 246.21 102.259 245.749 102.365 245.253L102.011 244.97L98.5045 248.158Z" fill="url(#paint1_linear_112:103754)"/>
<path d="M73.7829 235.751C73.2718 235.066 73.026 234.218 73.0911 233.365C73.1562 232.513 73.5278 231.713 74.1371 231.112C79.5451 223.605 86.0666 216.966 93.4766 211.424C94.433 210.716 95.4956 210.149 96.5936 209.476C96.2941 202.031 95.105 194.649 93.0516 187.486C90.9467 187.938 88.9573 188.818 87.2072 190.071C75.8655 197.237 65.976 206.475 58.0563 217.302C56.9583 218.896 56.0019 220.56 54.8331 222.401C54.6847 222.01 54.6458 221.585 54.7207 221.174C54.7956 220.762 54.9814 220.378 55.2581 220.064C57.8438 216.523 60.2878 212.982 63.086 209.441C68.8423 202.887 75.3991 197.081 82.6026 192.16C85.6841 189.929 89.0491 188.124 92.662 185.893C92.1307 184.087 91.4577 181.891 90.8201 179.696L88.4824 171.055C87.9857 170.453 87.5357 169.814 87.1364 169.143C86.4634 167.939 85.8613 166.629 84.9758 164.823C86.5343 166.523 88.1282 166.027 89.6158 166.098C93.6559 166.378 97.6498 167.127 101.517 168.329C106.027 169.645 110.357 171.513 114.41 173.888L119.581 169.958L112.993 168.045C113.985 166.169 115.862 166.027 117.633 165.036C114.727 164.258 111.747 163.784 108.743 163.619C107.02 163.53 105.294 163.53 103.571 163.619C102.609 163.717 101.666 163.955 100.773 164.327C98.2232 165.428 95.4748 165.994 92.6974 165.992C91.2697 166.032 89.8506 165.758 88.5407 165.189C87.2308 164.62 86.0621 163.769 85.1174 162.698C84.6924 162.274 84.3027 161.813 83.984 161.424C82.3834 162.559 80.7024 163.577 78.9543 164.469C77.4661 165.171 75.8522 165.569 74.208 165.638C69.4971 165.638 64.7862 165.638 60.0398 165.638C58.1631 165.523 56.3357 164.991 54.6914 164.079C52.9325 163.271 51.0919 162.654 49.2012 162.238C45.6671 161.18 41.9748 160.748 38.2918 160.963C37.9318 161.022 37.5845 161.142 37.2646 161.317C39.647 162.036 41.8054 163.352 43.534 165.142C41.2988 165.553 39.0877 166.084 36.9104 166.735C34.8206 167.444 32.837 168.506 30.641 169.497C31.4923 170.661 32.7623 171.448 34.183 171.693C39.1972 172.183 44.1003 173.474 48.7054 175.517C50.2993 176.296 51.7869 177.323 53.5225 178.35C58.1955 175.443 63.2337 173.168 68.5053 171.587H68.6824C70.2055 170.914 71.5869 169.781 73.4287 170.135C74.4559 168.718 76.1561 168.895 77.4666 168.152L77.6791 168.612L73.4287 170.135C72.5737 170.523 71.6988 170.866 70.8076 171.162C70.1072 171.341 69.3978 171.482 68.6824 171.587H68.4699C67.7442 172.132 66.9602 172.595 66.1321 172.968C61.6724 174.562 57.444 176.741 53.5579 179.448V179.731C53.983 182.812 54.408 185.928 54.7622 189.009C54.9393 190.638 54.9393 192.302 54.9748 193.931C54.9083 199.907 54.1114 205.853 52.6016 211.636C52.5449 211.791 52.4554 211.931 52.3392 212.047C52.2229 212.163 52.0829 212.253 51.9286 212.309C52.3891 209.618 52.7787 206.891 53.3454 204.2C54.5139 197.09 54.6213 189.847 53.6642 182.706C53.6642 181.679 53.6642 180.687 53.6642 179.66V179.377C50.9014 181.006 48.0678 182.564 45.3404 184.228C44.8342 184.591 44.4907 185.138 44.3841 185.751C44.3476 187.27 43.8737 188.745 43.0193 190.002C42.1649 191.258 40.9662 192.241 39.5669 192.833L39.0002 191.275C38.3647 191.719 37.8679 192.334 37.567 193.048C37.2661 193.762 37.1736 194.547 37.3 195.312C38.159 199.984 38.3261 204.756 37.7959 209.476L37.3709 212.061H36.9458C36.9458 209.051 37.3709 206.077 37.2646 203.102C37.1583 200.128 36.7333 197.118 36.4499 193.966L28.4449 196.941C28.2132 197.45 27.9155 197.926 27.5594 198.357C24.5487 201.367 21.4671 204.306 18.421 207.281C17.4292 208.272 16.5083 209.37 15.3394 210.822C18.797 205.453 23.2445 200.79 28.4449 197.082L28.8346 196.48C24.9198 196.158 21.1466 194.869 17.8542 192.727C20.1211 191.381 22.8485 190.886 23.8049 188.371C24.186 186.887 24.4233 185.369 24.5133 183.839L21.963 184.193C21.7505 182.776 22.6714 181.997 23.5924 181.289C24.5609 180.637 25.6756 180.234 26.8374 180.117C27.9991 180 29.1719 180.171 30.2513 180.616C31.246 180.869 32.272 180.976 33.2975 180.935C32.64 179.751 31.6566 178.78 30.4639 178.138L25.1509 175.446C20.5908 178.79 16.5965 182.843 13.3204 187.451L18.1022 186.53C17.8213 187.268 17.4527 187.969 17.0042 188.619C14.684 191.43 13.4855 194.999 13.6393 198.641C13.3913 202.819 13.2142 207.033 12.86 211.211C12.6215 213.167 12.2667 215.106 11.7974 217.019C14.7373 216.594 17.7126 216.311 20.5816 215.673C23.4507 215.036 26.2488 214.009 29.0825 213.159L29.4367 213.549C28.4449 215.355 27.4177 217.09 26.2843 219.073C31.9515 219.073 36.6625 215.957 42.188 214.894C42.7825 219.305 44.8701 223.379 48.1032 226.438C48.3866 224.986 48.6345 223.641 48.8825 222.295H49.3429C49.8559 223 50.329 223.733 50.7597 224.491C51.9316 226.521 53.6661 228.169 55.754 229.236C59.3065 231.361 63.1654 232.925 67.1948 233.874C69.4246 234.375 71.6241 235.002 73.7829 235.751Z" fill="url(#paint2_linear_112:103754)"/>
<path d="M39.8858 180.344C40.8151 180.607 41.6809 181.057 42.4301 181.667C43.1793 182.277 43.7961 183.034 44.2426 183.892L52.3184 178.677C46.9699 174.384 40.5943 173.639 33.8644 172.255C34.4666 173.036 34.6791 173.391 34.9624 173.674C36.7034 175.237 38.0817 177.162 39.0003 179.315C39.1509 179.76 39.4685 180.129 39.8858 180.344Z" fill="#9AAD3B"/>
<path d="M129.143 189.3C128.637 189.614 128.088 189.852 127.514 190.008C126.932 190.122 126.403 190.421 126.006 190.862C125.61 191.303 125.368 191.862 125.318 192.452C124.999 195.215 124.468 197.943 124.078 200.67C123.901 201.839 123.795 202.973 123.653 204.213C123.083 199.902 123.494 195.518 124.857 191.39H121.315C122.272 190.044 124.007 189.902 124.609 188.485H116.817C114.904 188.485 112.956 188.131 111.539 190.079C111.886 184.879 112.91 179.747 114.585 174.812C106.11 170.064 96.6582 167.326 86.9577 166.807L88.7287 171.411C88.9767 171.624 89.2955 171.801 89.4017 172.085C89.933 173.572 90.358 175.095 90.8539 176.583C91.9519 180.125 93.05 183.668 94.0772 186.749C100.557 188.402 106.703 191.158 112.248 194.897C116.959 197.801 124.184 206.94 124.609 210.128C123.582 208.711 122.803 207.542 121.953 206.586C119.68 203.046 116.899 199.859 113.7 197.128C108.176 193.104 102.041 189.994 95.5294 187.918C95.1536 187.863 94.7717 187.863 94.3959 187.918C95.1043 191.461 95.919 194.684 96.4149 198.014C96.9108 201.343 97.1587 204.886 97.4775 208.322C97.4821 208.657 97.6057 208.98 97.8262 209.233C98.0468 209.486 98.35 209.653 98.6818 209.703C99.6936 209.959 100.653 210.391 101.515 210.978C105.888 213.912 109.524 217.815 112.141 222.384C113.346 224.58 114.373 226.812 115.436 229.044C115.719 229.646 115.931 230.283 116.179 230.921H115.754C114.621 228.831 113.346 226.777 112.389 224.616C110.209 220.054 107.025 216.046 103.074 212.891C101.641 211.467 99.8369 210.472 97.8671 210.022C97.8671 210.234 97.69 210.341 97.69 210.482C97.69 215.973 97.69 221.463 97.69 226.954C97.7701 227.749 97.9363 228.533 98.1859 229.292C98.8482 229.381 99.4807 229.622 100.034 229.997C100.587 230.372 101.046 230.87 101.374 231.452C102.861 233.471 104.101 235.703 105.447 237.864C105.487 238.181 105.487 238.503 105.447 238.82C105.061 238.484 104.716 238.104 104.42 237.687C103.031 234.537 100.89 231.776 98.1859 229.646C98.1859 229.646 98.1859 229.433 98.1859 229.292C97.7994 230.038 97.5249 230.838 97.3713 231.665C97.0879 236.27 96.8753 240.839 96.6628 245.409C96.6628 246.046 96.6628 246.649 96.4503 247.711C96.0961 247.144 95.919 246.967 95.919 246.79C95.7065 244.382 96.3795 229.823 96.7337 227.52C96.7698 227.215 96.7698 226.905 96.7337 226.6C96.7337 221.959 96.7337 217.283 96.7337 212.643C96.7337 212.076 96.7337 211.51 96.4858 210.553C87.3382 216.802 79.4645 224.737 73.2856 233.932C77.8251 235.123 82.1345 237.063 86.0368 239.67C90.0566 242.074 93.4924 245.341 96.0961 249.234C96.7424 248.345 97.4526 247.505 98.2213 246.719C100.64 244.355 103.34 242.296 106.262 240.591C107.336 239.924 108.377 239.203 109.379 238.431L111.256 237.085L110.725 241.052C111.456 240.653 112.165 240.216 112.85 239.741C114.479 238.289 116.002 236.766 117.667 235.349C118.708 234.606 119.585 233.656 120.243 232.559C120.901 231.462 121.327 230.241 121.492 228.973C121.622 228.472 121.851 228.002 122.165 227.591L122.838 227.379L123.972 229.717C125.701 226.298 126.634 222.531 126.699 218.7C126.699 217 126.699 215.158 126.699 213.529C126.699 211.899 127.408 211.758 128.612 212.076C129.816 212.395 130.135 212.643 130.985 212.962C131.693 209.668 132.331 206.55 132.968 203.398C133.306 204.04 133.394 204.784 133.216 205.488C132.898 207.259 132.508 209.03 132.189 210.766C131.693 213.387 131.693 213.387 133.889 214.768C135.452 215.635 136.797 216.847 137.821 218.311C138.125 218.721 138.469 219.101 138.848 219.444C137.147 209.786 134.132 200.407 129.887 191.567C132.703 196.112 134.94 200.99 136.546 206.09C138.28 211.289 139.467 216.655 140.088 222.101C141.543 217.991 142.157 213.63 141.894 209.278C141.901 207.434 141.411 205.622 140.476 204.033C139.541 202.444 138.196 201.135 136.581 200.245C136.171 199.941 135.791 199.597 135.448 199.218C137.021 199.616 138.478 200.38 139.698 201.45C140.932 202.085 142.241 202.561 143.594 202.867C143.613 202.678 143.613 202.488 143.594 202.3C142.658 197.307 139.939 192.825 135.944 189.689C135.001 188.907 133.831 188.446 132.607 188.376C131.384 188.306 130.17 188.63 129.143 189.3ZM87.7015 238.891L87.3474 238.643C88.6368 235.504 90.7398 232.765 93.4396 230.709L87.7015 238.891Z" fill="#9AAD3B"/>
<path d="M150.114 141.994L143.88 140.046V139.408C150.771 139.226 157.597 138.033 164.14 135.866C177.813 131.262 181.426 129.703 183.303 127.613C179.29 127.749 175.275 127.44 171.331 126.692C172.284 125.248 173.733 124.202 175.404 123.752C180.62 121.629 185.491 118.74 189.856 115.181C195.098 111.036 200.198 106.751 205.44 102.465C205.112 102.282 204.768 102.128 204.413 102.004C197.963 100.573 191.708 98.3729 185.782 95.4514C184.647 94.9554 183.557 94.3628 182.524 93.6803C180.717 92.476 180.788 91.4134 182.524 90.1383L185.145 88.6152C180.469 86.9504 176.254 85.5336 172.075 83.9042C167.774 82.5292 163.789 80.3139 160.35 77.3868C159.713 76.7847 159.359 76.2179 159.855 75.4741C161.098 73.2323 162.785 71.2677 164.813 69.7005C167.447 67.7846 170.272 66.1465 173.243 64.8125L168.568 64.1041C169.005 63.387 169.49 62.7006 170.02 62.0497C171.791 60.2078 173.562 58.5076 175.404 56.5949C176.78 54.8998 178.49 53.5061 180.428 52.5006C182.366 51.4951 184.49 50.8994 186.668 50.7505C181.461 42.4266 173.952 37.0427 166.549 31.5879C158.999 26.167 150.154 22.8317 140.905 21.918C143.293 20.1847 145.984 18.9115 148.839 18.1634C148.364 17.972 147.879 17.8065 147.387 17.6676C142.421 16.1324 137.247 15.3796 132.05 15.436C124.087 15.1157 116.128 16.1824 108.531 18.5885C107.574 18.9427 106.441 19.6865 105.626 18.5885C104.812 17.4904 105.626 16.5341 106.228 15.684C106.965 14.5934 107.757 13.5413 108.602 12.5316C103.93 12.4658 99.2889 13.2954 94.9293 14.9756C94.6744 14.4766 94.5414 13.9243 94.5414 13.3639C94.5414 12.8036 94.6744 12.2513 94.9293 11.7523C95.6909 9.13807 96.8884 6.67119 98.4713 4.45563C98.7838 3.91606 99.0675 3.36036 99.3214 2.79086H98.1525C91.5289 4.98695 84.7991 6.97051 78.2818 9.44995C69.4107 12.6842 61.5531 18.2077 55.5066 25.4601C53.9983 27.1369 52.7991 29.0676 51.9645 31.1628C50.7925 34.6348 49.8693 38.1859 49.2018 41.789C48.8059 43.9887 48.9193 46.2499 49.5333 48.3989C50.1473 50.548 51.2456 52.5277 52.7438 54.1863C52.2141 52.1077 52.4013 49.9112 53.2751 47.9522C54.5228 44.7883 56.5591 41.996 59.1902 39.8409C61.1862 38.0918 62.5339 35.7208 63.0156 33.111C63.3235 31.9395 63.2795 30.7033 62.8889 29.5568C62.4983 28.4103 61.7786 27.4043 60.8196 26.6644C60.6367 26.4481 60.4089 26.2743 60.152 26.1551C59.895 26.0358 59.6152 25.9741 59.332 25.9741C59.0487 25.9741 58.7689 26.0358 58.512 26.1551C58.255 26.2743 58.0272 26.4481 57.8443 26.6644C56.8119 27.7569 56.0474 29.0742 55.611 30.5125C55.1746 31.9508 55.0782 33.4709 55.3294 34.9528C55.4357 35.2304 55.5787 35.4925 55.7545 35.7321C55.8666 35.9076 56.021 36.0521 56.2037 36.1522C56.3863 36.2522 56.5912 36.3047 56.7994 36.3047C57.0077 36.3047 57.2125 36.2522 57.3951 36.1522C57.5777 36.0521 57.7322 35.9076 57.8443 35.7321C58.0689 35.5392 58.2491 35.3001 58.3727 35.0311C58.4962 34.7621 58.5602 34.4696 58.5602 34.1736C58.5602 33.8776 58.4962 33.585 58.3727 33.3161C58.2491 33.0471 58.0689 32.8079 57.8443 32.6151C56.9942 31.6587 57.5609 31.4462 58.2339 31.0566C58.6414 31.355 58.9804 31.737 59.2281 32.1772C59.4758 32.6174 59.6266 33.1054 59.6702 33.6086C59.7138 34.1118 59.6493 34.6185 59.481 35.0947C59.3127 35.5709 59.0445 36.0056 58.6944 36.3697C58.4661 36.6912 58.1568 36.9466 57.7978 37.1097C57.4388 37.2728 57.043 37.3379 56.6506 37.2983C56.2583 37.2587 55.8834 37.1159 55.5642 36.8843C55.2451 36.6527 54.9929 36.3407 54.8336 35.98C54.4851 35.3114 54.2914 34.573 54.2668 33.8194C54.1359 31.4123 54.7547 29.0239 56.0378 26.9832C56.2954 26.4197 56.6963 25.9336 57.2004 25.5735C57.7046 25.2134 58.2944 24.9918 58.9109 24.9308C59.5275 24.8699 60.1492 24.9717 60.7141 25.2262C61.279 25.4807 61.7672 25.8789 62.1301 26.381C63.2073 27.6093 63.8992 29.1274 64.1196 30.7461C64.34 32.3648 64.0793 34.0126 63.3699 35.4841L62.5198 37.574C63.3344 37.574 63.8657 37.326 64.3616 37.2906C68.1516 36.901 70.0289 38.8491 69.6393 42.6037C69.3594 44.6213 68.5256 46.5217 67.2307 48.0939C66.438 49.0613 65.3389 49.729 64.1151 49.9867C62.8913 50.2443 61.6162 50.0764 60.5008 49.5107C59.0486 48.7669 58.3756 47.7397 58.9777 46.7125C59.6043 45.796 60.383 44.9934 61.2801 44.3393C61.5634 44.0914 62.1302 44.3393 62.5552 44.3393C62.1641 44.9484 61.6731 45.4872 61.103 45.9333C60.6425 46.3937 60.2529 46.925 59.8632 47.3855C60.1187 47.8267 60.4664 48.2076 60.8825 48.5022C61.2987 48.7967 61.7735 48.9979 62.2745 49.0921C62.7756 49.1863 63.2911 49.1711 63.7858 49.0478C64.2805 48.9244 64.7427 48.6957 65.1409 48.3773C66.1392 47.7307 66.977 46.8651 67.5907 45.8463C68.2045 44.8275 68.578 43.6822 68.6829 42.4974C69.0725 39.7701 67.6203 38.3532 64.8575 38.672C63.7549 38.8232 62.6944 39.1967 61.7405 39.77C58.5738 41.8064 56.1027 44.7594 54.6565 48.2356C54.1478 49.2592 53.8832 50.3867 53.8832 51.5297C53.8832 52.6727 54.1478 53.8002 54.6565 54.8238C59.6658 52.683 64.9887 51.3672 70.4185 50.9276C78.4887 49.9791 86.6594 50.35 94.6105 52.0256C99.7035 53.306 104.662 55.0734 109.416 57.3033C113.181 59.0351 116.358 61.8299 118.555 65.3438C121.695 69.7805 123.679 74.9301 124.328 80.3267C124.74 84.6848 123.943 89.072 122.026 93.0073C118.348 100.272 112.001 105.832 104.316 108.522C101.482 109.62 98.4359 110.257 95.496 111.107C88.2708 112.992 80.7346 113.365 73.3583 112.205C68.8245 111.603 64.397 110.399 59.9341 109.478C59.084 109.301 58.1985 108.663 57.3838 109.478C56.7104 110.044 56.1042 110.686 55.5774 111.391C54.1612 113.559 53.1306 115.955 52.5313 118.475C51.1841 123.012 50.4106 127.701 50.2289 132.431C50.1822 133.242 50.393 134.048 50.8311 134.733C51.2354 135.373 51.7718 135.919 52.4045 136.335C53.0371 136.751 53.7513 137.027 54.4992 137.144C55.2472 137.262 56.0116 137.218 56.7412 137.016C57.4708 136.814 58.1488 136.458 58.7298 135.973C59.7216 135.3 60.6425 134.52 61.5634 133.777C68.4704 128.074 81.08 129.526 85.7554 136.716C85.7554 136.716 86.1097 136.964 86.2514 137.071C87.0304 135.824 88.0643 134.757 89.2853 133.939C90.5062 133.121 91.8865 132.571 93.3354 132.324C100.632 130.943 103.572 132.324 106.512 137.85C108.235 141.002 110.659 143.716 113.596 145.784C114.026 146.091 114.418 146.448 114.765 146.847C115.419 147.578 116.241 148.14 117.16 148.486C118.079 148.831 119.068 148.949 120.042 148.83C124.799 148.81 129.543 148.335 134.21 147.413C139.701 146.219 145.036 144.4 150.114 141.994Z" fill="url(#paint3_radial_112:103754)"/>
<path d="M116.111 149.559C114.269 147.93 112.569 146.017 110.762 144.459C110.086 143.865 109.376 143.309 108.637 142.795C108.849 144.388 109.097 145.486 109.133 146.619C109.224 147.825 109.768 148.951 110.656 149.771C112.725 151.816 115.118 153.504 117.74 154.764C124.416 157.175 130.307 161.362 134.777 166.876C135.178 167.417 135.45 168.043 135.572 168.706C135.694 169.368 135.664 170.05 135.483 170.699C135.302 171.348 134.975 171.947 134.527 172.45C134.08 172.954 133.523 173.348 132.9 173.604C130.434 171.303 127.339 169.786 124.009 169.248C124.009 170.523 125.674 170.665 125.461 171.904C125.261 171.929 125.059 171.929 124.859 171.904C123.969 171.492 123.004 171.269 122.023 171.249C121.043 171.23 120.069 171.414 119.163 171.79C118.258 172.166 117.44 172.726 116.762 173.435C116.084 174.143 115.561 174.985 115.225 175.906C114.481 178.42 113.808 180.97 113.242 183.52C112.711 184.839 112.636 186.297 113.029 187.663C117.655 187.9 122.293 187.579 126.843 186.707L125.32 189.682C126.994 189.238 128.554 188.439 129.892 187.339C131.231 186.239 132.317 184.864 133.077 183.307C133.731 182.242 134.078 181.016 134.078 179.766C134.078 178.516 133.731 177.29 133.077 176.225C134.706 174.419 136.264 172.684 137.717 171.09C138.176 170.715 138.546 170.242 138.8 169.706C139.055 169.17 139.186 168.584 139.186 167.991C139.186 167.398 139.055 166.812 138.8 166.277C138.546 165.741 138.176 165.268 137.717 164.893C135.965 163.041 134.044 161.357 131.979 159.864C127.587 156.712 123.053 153.773 118.519 150.798C117.692 150.435 116.887 150.021 116.111 149.559ZM128.366 176.721C126.914 176.933 126.489 177.783 126.311 179.164C126.036 180.926 125.634 182.666 125.107 184.37C124.95 184.811 124.635 185.177 124.222 185.397C124.788 183.095 125.391 180.793 125.957 178.314C124.647 177.889 123.584 177.429 122.415 177.181C121.339 176.949 120.251 176.772 119.157 176.65V176.154C120.534 176.156 121.904 176.347 123.23 176.721C124.007 177.095 124.883 177.212 125.731 177.052C126.579 176.893 127.353 176.467 127.941 175.835L125.816 174.596L126.347 174.065L128.685 176.154C128.685 176.154 128.543 176.721 128.366 176.721ZM129.535 180.651V177.96H129.712L129.535 180.651Z" fill="#F4D11D"/>
<path d="M131.66 187.528C135.804 188.131 135.804 188.131 136.583 187.528L133.927 184.517L131.66 187.528Z" fill="#9AAD3B"/>
<path d="M82.7783 302.167C82.2751 296.268 82.4057 290.332 83.1679 284.461C83.6284 279.397 84.5493 274.333 84.7618 269.269C85.2223 259.885 85.2931 250.501 85.5057 240.939C85.5057 240.939 85.5056 240.691 85.2577 240.373C82.3886 239.133 79.9801 236.548 76.5089 236.159L76.9693 238.815L76.5443 239.133C71.9399 236.383 66.876 234.487 61.5969 233.538C61.639 234.051 61.7219 234.561 61.8448 235.061C64.1826 241.718 66.5557 248.34 68.9289 254.998C70.6645 259.885 72.4709 264.736 74.0294 269.659C75.6159 274.662 76.6261 279.831 77.0402 285.063C77.4298 289.702 77.6424 294.341 77.8903 298.98C77.8749 299.555 77.7916 300.125 77.6423 300.68C71.2312 297.776 68.5039 297.139 66.6266 298.024C67.76 298.838 69.8498 298.236 70.1686 300.361C69.9322 300.467 69.6817 300.539 69.4248 300.574C65.5014 300.768 61.6789 301.885 58.2674 303.832C56.8142 304.734 55.4813 305.817 54.3003 307.054C53.976 307.27 53.7224 307.576 53.5713 307.935C53.4201 308.294 53.378 308.69 53.4502 309.073C57.6652 309.073 61.774 308.825 65.8828 308.648C68.7426 308.673 71.5844 308.194 74.2774 307.231C74.8796 306.983 75.4817 305.886 76.1547 306.735C76.8277 307.585 75.9776 308.081 75.8713 308.754C75.861 308.943 75.861 309.132 75.8713 309.321C77.784 308.789 79.4134 308.506 80.9365 307.939C83.4513 306.948 83.8409 305.992 83.2034 303.371C83.0318 302.981 82.8897 302.579 82.7783 302.167Z" fill="url(#paint4_linear_112:103754)"/>
<path d="M35.6706 180.808C35.6877 180.937 35.6877 181.068 35.6706 181.198C34.8864 182.906 34.7114 184.831 35.1747 186.653C35.4526 187.299 35.5435 188.01 35.4371 188.705C35.3306 189.4 35.0311 190.051 34.5726 190.585C34.5726 189.168 34.3955 188.034 34.2892 186.405C32.5908 189.458 30.0107 191.927 26.8864 193.489C28.3386 191.647 30.7827 190.691 31.3494 188.14C33.758 186.688 33.8997 184.173 34.6081 182.048C32.9079 181.764 31.4556 181.446 30.0034 181.304C27.9136 181.304 25.7529 180.418 23.9465 182.189L26.0363 183.217C25.7831 183.999 25.6167 184.807 25.5404 185.625C25.612 186.754 25.3804 187.881 24.8697 188.89C24.359 189.899 23.5878 190.753 22.636 191.364C21.9734 191.853 21.2748 192.291 20.5462 192.675C23.1705 193.977 26.0475 194.69 28.9762 194.765C31.5286 194.74 34.0079 193.909 36.0603 192.391C36.8229 191.988 37.4819 191.413 37.9857 190.713C38.4896 190.012 38.8247 189.204 38.9647 188.353C38.9647 188.353 39.2127 188.176 39.5669 187.928C40.0274 188.884 40.5232 189.805 41.0545 190.868C41.6567 190.23 42.1526 189.77 42.5776 189.239C43.1691 188.622 43.5772 187.852 43.7562 187.017C43.9353 186.181 43.8783 185.312 43.5916 184.507C43.3048 183.701 42.7997 182.992 42.1327 182.458C41.4657 181.923 40.6631 181.585 39.8149 181.481C39.3544 181.391 38.9219 181.193 38.5525 180.904C38.1832 180.614 37.8875 180.242 37.6896 179.816C35.2785 175.813 32.0277 172.381 28.1615 169.756C27.4531 169.225 26.6385 168.835 25.8946 168.304C25.3392 167.977 24.9281 167.452 24.7441 166.834C24.5601 166.216 24.6169 165.552 24.9029 164.974C26.1053 161.032 27.8966 157.294 30.2159 153.887C32.5613 150.455 35.8269 147.754 39.6377 146.094C44.1007 144.358 45.3758 144.323 48.2095 148.503C49.2012 149.955 50.0159 151.584 51.0785 153.391C55.7894 151.478 60.217 149.353 61.4921 143.579C62.5547 144.429 63.5465 145.208 64.5736 145.952C67.0176 147.652 67.8323 147.511 69.4617 144.96C69.7804 144.464 69.9575 143.862 70.2763 143.366C70.5394 142.951 70.8231 142.549 71.1264 142.162C72.4724 143.65 73.6413 145.102 74.9518 146.413C76.2624 147.723 76.9353 147.44 78.0688 146.413C79.7756 144.909 80.9551 142.898 81.4338 140.674C81.5854 140.142 81.7748 139.621 82.0004 139.116H82.4255C83.1694 141.17 83.8777 143.189 84.657 145.385C86.5697 143.189 86.7822 142.552 85.8967 140.568C83.1339 134.192 79.4856 132.456 72.9328 131.854C70.7349 131.692 68.5275 131.993 66.4532 132.738C64.3788 133.482 62.4837 134.653 60.8899 136.176C60.3379 136.683 59.7456 137.145 59.1189 137.557C57.9954 138.333 56.6526 138.727 55.2881 138.683C53.9235 138.638 52.6094 138.157 51.539 137.309C51.1857 136.97 50.7591 136.717 50.2922 136.57C49.8254 136.422 49.3309 136.384 48.847 136.459C48.198 131.467 48.5594 126.396 49.9096 121.546C50.7051 116.541 52.7656 111.823 55.8957 107.838L51.4681 106.421C49.6692 109.036 48.2612 111.9 47.2885 114.922C45.0699 120.122 44.2988 125.826 45.0571 131.429C45.0589 132.994 45.31 134.548 45.8008 136.034C45.978 136.424 45.8008 137.061 45.8008 137.592H45.305C45.0503 137.322 44.8248 137.025 44.632 136.707C44.3563 136.192 43.9782 135.739 43.5209 135.375C43.0637 135.011 42.5369 134.745 41.973 134.592C41.409 134.44 40.8198 134.404 40.2416 134.488C39.6634 134.571 39.1083 134.772 38.6105 135.077C37.4548 135.761 36.3948 136.595 35.4581 137.557C34.2029 138.935 33.0206 140.377 31.9161 141.879C28.082 146.413 25.0187 151.547 22.8485 157.075C21.7504 160.263 20.8295 163.557 19.519 166.639C17.9605 170.181 18.8106 170.181 21.6088 171.704L22.636 172.2C25.5404 173.617 28.4449 174.999 31.3139 176.486C33.1199 177.52 34.6224 179.01 35.6706 180.808Z" fill="url(#paint5_radial_112:103754)"/>
<path d="M37.5821 133.08C39.4984 132.582 41.5101 132.582 43.4265 133.08C41.2658 122.812 44.8079 114.066 50.0147 105.497C42.2322 102.798 35.7473 97.2754 31.844 90.0236C30.8522 91.5462 29.9667 92.7147 29.2228 93.9894C27.2747 97.5302 25.2911 101.071 23.5555 104.612C22.9732 105.562 22.6078 106.629 22.4854 107.737C22.3629 108.845 22.4864 109.966 22.8471 111.021C24.1223 109.782 24.3348 107.763 26.3892 107.055C26.3892 107.515 26.708 107.728 26.6371 107.905C26.1063 110.02 26.1063 112.234 26.6371 114.349C27.6032 118.341 28.7856 122.277 30.1792 126.14C30.9855 128.649 32.5434 130.849 34.6422 132.443C35.0554 132.758 35.533 132.979 36.0411 133.089C36.5492 133.199 37.0753 133.196 37.5821 133.08Z" fill="url(#paint6_radial_112:103754)"/>
<path d="M40.4518 77.2988L41.3727 78.7507L44.9147 73.0847L46.5086 76.6259C50.4804 74.9106 53.9709 72.2478 56.6742 68.8706L57.8076 71.5619C58.4015 70.3307 58.6801 68.9714 58.6185 67.6059C58.5569 66.2404 58.1569 64.9116 57.4546 63.7389C56.7522 62.5662 55.7694 61.5863 54.5946 60.8873C53.4197 60.1883 52.0895 59.792 50.7236 59.7341C49.4613 59.6643 48.196 59.6643 46.9337 59.7341C45.6911 60.0058 44.3917 59.7898 43.3039 59.1307C42.2162 58.4716 41.4234 57.4198 41.0894 56.1928C40.6289 55.2013 39.9913 54.2452 39.46 53.3244C38.8225 53.5369 38.2557 53.9264 37.9724 53.7848C35.6725 53.0231 33.1882 53.0231 30.8883 53.7848L31.1717 54.8826C27.2401 57.0073 25.8587 58.955 25.9649 62.213L26.9921 62.4255C26.9046 64.1552 27.1947 65.8832 27.8422 67.4895L29.8611 66.1438C31.088 71.06 31.221 76.1855 30.2507 81.1588C31.5241 80.9331 32.7791 80.6135 34.0053 80.2026C36.1305 79.4944 38.2557 78.3612 40.4518 77.2988ZM54.6198 66.675L50.2986 64.5502C51.1429 64.5461 51.9765 64.7393 52.7329 65.1143C53.4893 65.4894 54.1476 66.0359 54.6552 66.7104L54.6198 66.675ZM49.1652 73.7575C49.7831 72.2507 50.0801 70.6318 50.0374 69.0038C49.9947 67.3759 49.6132 65.7747 48.9172 64.3023C50.0152 65.6266 50.6395 67.2796 50.6908 68.9989C50.7421 70.7183 50.2176 72.4055 49.2006 73.7929L49.1652 73.7575ZM41.8686 72.4118C41.656 70.3579 41.4081 68.3394 41.1956 66.1084C42.1808 68.0573 42.4201 70.2989 41.8686 72.4118ZM28.1964 61.2214C28.7692 60.1947 29.5671 59.3109 30.5302 58.6363C31.4932 57.9617 32.5965 57.5138 33.7574 57.3261C33.7574 57.0782 33.7574 56.8303 33.7574 56.5824V55.9804C33.9699 55.9804 34.1824 55.9804 34.2178 55.9804C34.5002 56.3687 34.8667 56.6882 35.2899 56.9151C35.7131 57.142 36.1821 57.2704 36.6618 57.2906C39.0962 57.5658 41.3299 58.7712 42.8958 60.6548C35.1742 56.8657 33.1198 56.9719 28.1964 61.3631V61.2214ZM33.6157 63.6649L34.6075 59.7341C34.9561 60.4071 35.0619 61.1797 34.907 61.9215C34.7521 62.6634 34.3461 63.3292 33.7574 63.8066L33.6157 63.6649ZM31.9864 77.83L35.7763 70.4642L34.1824 70.11C34.1824 70.11 34.1824 69.7205 34.4304 69.7205C35.1771 69.7758 35.9221 69.5931 36.5585 69.1986C37.1949 68.8042 37.6899 68.2182 37.9724 67.5249C38.5052 66.7242 39.0847 65.9556 39.7079 65.2231L37.2994 65.3293C39.8142 65.7189 41.0894 63.7712 42.9666 62.7088C40.9477 65.3647 38.8933 67.9853 37.016 70.4287C37.5119 72.3056 37.9015 73.97 38.3265 75.4219L37.7599 75.599L36.6264 71.5974C34.572 73.6867 34.1116 76.5197 32.3406 78.432L31.9864 77.83Z" fill="#9AAD3B"/>
<path d="M86.2131 145.76C84.7254 146.892 84.1587 146.751 83.3086 145.087C82.9544 144.415 82.6711 143.707 82.3169 143.035C81.0063 144.627 79.8729 146.114 78.5977 147.423C77.3226 148.733 76.0829 148.91 74.4536 147.423C73.784 146.831 73.1567 146.192 72.5763 145.512C72.1513 145.017 71.6908 144.592 71.1949 144.096C70.6282 144.91 70.1677 145.618 69.6364 146.255C67.7592 148.556 66.484 148.626 64.1817 146.751L62.021 145.017C60.3917 150.573 55.8225 152.484 51.395 154.678L53.6619 161.19L63.1545 159.562C63.5549 160.279 64.0559 160.934 64.6422 161.509C67.2667 163.262 70.3971 164.102 73.5479 163.897C76.6986 163.692 79.6938 162.455 82.0689 160.376C84.0372 158.3 85.5139 155.808 86.3902 153.086C87.2227 150.494 87.4529 147.746 87.0632 145.052L86.2131 145.76Z" fill="url(#paint7_linear_112:103754)"/>
<path d="M98.3977 142.404C95.8121 145.59 92.9785 147.467 88.7637 145.13C89.2214 150.272 87.8547 155.411 84.903 159.647C85.4811 160.705 86.2694 161.634 87.2195 162.377C88.1697 163.12 89.2616 163.661 90.4284 163.967C92.7945 164.383 95.2226 164.281 97.5459 163.67C99.8692 163.059 102.033 161.952 103.888 160.426C104.239 160.14 104.549 159.807 104.809 159.435C106.193 157.38 107.102 155.043 107.469 152.593C107.837 150.143 107.654 147.642 106.934 145.272C102.79 148.458 101.054 146.263 98.3977 142.404Z" fill="url(#paint8_linear_112:103754)"/>
<path d="M54.5868 162.735C57.8304 164.498 61.5806 165.098 65.2129 164.434C63.3356 163.832 62.6626 161.426 60.3603 161.532C58.3658 161.45 56.3822 161.863 54.5868 162.735Z" fill="#F4D11D"/>
<path d="M102.931 135.607C102.244 134.835 101.364 134.261 100.381 133.943C97.9445 133.229 95.3482 133.273 92.9375 134.07C90.5269 134.867 88.416 136.379 86.8858 138.405C87.2754 139.68 87.5942 140.99 88.0901 142.194C88.4051 142.953 88.9042 143.623 89.5423 144.142C90.0104 144.523 90.5523 144.805 91.134 144.968C91.7158 145.131 92.3249 145.172 92.9233 145.089C93.5217 145.006 94.0965 144.8 94.6118 144.485C95.1271 144.169 95.5718 143.751 95.9181 143.256C96.8987 142.124 97.8208 140.942 98.6809 139.715C98.89 140.389 99.1628 141.041 99.4955 141.663C100.182 142.801 100.964 143.879 101.833 144.885C102.231 145.304 102.769 145.561 103.344 145.607C103.92 145.653 104.492 145.484 104.95 145.133C105.564 144.802 106.042 144.267 106.301 143.619C106.56 142.972 106.583 142.255 106.367 141.592C105.707 139.355 104.53 137.305 102.931 135.607Z" fill="url(#paint9_radial_112:103754)"/>
<path d="M66.9467 79.4993C67.3009 80.3973 67.8307 81.2157 68.5052 81.9066C69.0688 82.2822 69.7427 82.4568 70.4179 82.4022C72.0827 82.4022 72.7202 80.7029 72.4015 77.5168C73.9999 76.3428 75.8809 75.6129 77.8531 75.4015C79.8254 75.1901 81.8185 75.5046 83.6297 76.3131C83.4526 75.7821 83.3463 75.3573 83.0629 75.2157C82.2062 74.6052 81.2301 74.1824 80.1986 73.975C79.167 73.7676 78.1032 73.7802 77.0769 74.012C75.4401 74.4894 73.8512 75.1175 72.3306 75.8883C69.2733 77.6597 65.8051 78.5996 62.2713 78.6143C61.72 78.6539 61.1742 78.7488 60.6419 78.8975V79.4993C62.7135 80.0009 64.8751 80.0009 66.9467 79.4993ZM71.0201 78.4726C71.3389 79.4285 71.516 80.2427 70.7367 80.8446C69.9575 81.4464 68.1156 80.1365 67.1947 79.4639C68.4836 79.2318 69.7602 78.9364 71.0201 78.5789V78.4726Z" fill="#162D54"/>
<path d="M103.997 78.0703C104.151 78.5028 104.462 78.8622 104.868 79.0778C105.275 79.2933 105.747 79.3494 106.193 79.2349C106.685 79.186 107.147 78.9758 107.506 78.6373C107.865 78.2988 108.101 77.8511 108.177 77.3645C108.177 76.7293 108.177 76.0588 108.177 75.106C109.368 75.2028 110.552 75.3797 111.719 75.6353C113.136 76.0588 114.482 76.7293 115.899 77.2586C116.389 77.5264 116.95 77.6394 117.507 77.5826C118.063 77.5259 118.589 77.3022 119.016 76.941C116.89 76.0588 114.907 75.3883 113.03 74.5061C111.801 73.9471 110.466 73.6578 109.116 73.6578C107.765 73.6578 106.43 73.9471 105.202 74.5061C104.48 74.6945 103.814 75.0524 103.259 75.5497C102.705 76.0469 102.278 76.6692 102.014 77.3645C103.501 76.5176 103.679 77.3645 103.997 78.0703ZM106.335 75.6001C107.15 75.6001 107.114 76.6587 107.043 77.0469C106.973 77.4351 106.193 77.9644 105.697 77.9997C105.202 78.035 104.493 76.6234 104.493 76.6234C105.054 76.1957 105.675 75.851 106.335 75.6001Z" fill="#162D54"/>
<path d="M195.382 98.0628C190.983 96.6398 186.773 94.6894 182.843 92.2543C184.935 90.7415 187.368 89.7683 189.927 89.421C189.927 88.146 189.219 88.0397 188.581 87.8626C186.775 87.3314 185.039 86.9064 183.162 86.3397C177.111 84.4904 171.194 82.2302 165.452 79.575C163.88 78.933 162.519 77.866 161.52 76.4937C162.991 73.5385 165.293 71.0767 168.143 69.4103C170.921 67.6881 174.017 66.5437 177.246 66.0457C176.184 62.8227 173.138 64.204 171.331 63.0352C171.408 62.8092 171.515 62.5947 171.65 62.3977C173.988 60.131 176.255 57.8289 178.734 55.7038C179.98 54.5129 181.454 53.5855 183.067 52.9769C184.679 52.3684 186.398 52.0913 188.121 52.1621C188.485 52.1349 188.844 52.0512 189.183 51.9142C188.895 51.2099 188.564 50.5239 188.191 49.86C186.739 47.8412 185.322 45.787 183.693 43.9099C180.342 40.3658 176.679 37.1299 172.748 34.241C166.547 28.9841 159.305 25.0977 151.496 22.8367L145.474 21.2429V20.9596L154.967 18.9762V18.4804C139.668 12.9921 123.018 12.5207 107.433 17.1345L111.683 11.7511C111.183 11.4855 110.646 11.2946 110.09 11.1845C107.983 11.112 105.874 11.2187 103.785 11.5032C101.341 11.8928 98.9322 12.7074 96.3111 13.3803C97.3733 8.57963 99.8392 4.20315 103.395 0.807239C102.545 -0.0427733 102.545 -0.078194 102.049 0.0634746C101.553 0.205143 100.03 0.630149 99.0384 0.948904C96.1693 1.90517 93.3712 2.93227 90.5021 3.78228C82.9565 5.68777 75.6755 8.51902 68.8249 12.2116C64.0082 14.8659 59.6928 18.3419 56.0736 22.4825C55.2943 23.4388 54.6213 24.5013 53.9129 25.5284C53.9504 24.6288 54.1421 23.7423 54.4797 22.9075C55.1172 20.995 55.8256 19.0825 56.4277 17.1345C56.5989 16.7858 56.6858 16.4018 56.6813 16.0134C56.6768 15.6249 56.581 15.243 56.4018 14.8984C56.2226 14.5537 55.9648 14.256 55.6494 14.0292C55.334 13.8025 54.9697 13.653 54.5859 13.5928C53.4307 13.2751 52.2415 13.0968 51.0439 13.0616C43.0801 12.901 35.1348 13.891 27.4539 16.0012C22.9357 17.1673 18.6315 19.0442 14.7026 21.5617C13.4589 22.1502 12.4575 23.1514 11.869 24.3951C12.5312 25.2038 13.2408 25.9726 13.9942 26.6972C15.7652 28.291 17.5363 29.8493 19.449 31.4077C19.5674 31.5265 19.7082 31.6208 19.8632 31.6852C20.0182 31.7495 20.1843 31.7827 20.3521 31.7827C20.52 31.7827 20.6862 31.7495 20.8412 31.6852C20.9962 31.6208 21.1369 31.5265 21.2554 31.4077C22.7076 30.2389 24.2307 29.1764 25.6475 27.8659C28.6978 25.41 32.101 23.428 35.7423 21.9867C37.3563 21.3651 39.0492 20.9717 40.772 20.8179C41.1596 20.7133 41.5663 20.7005 41.9599 20.7803C42.3534 20.8602 42.7229 21.0306 43.0391 21.2781C43.3553 21.5255 43.6095 21.8432 43.7816 22.206C43.9537 22.5687 44.039 22.9666 44.0306 23.368C44.1548 24.711 44.1548 26.0625 44.0306 27.4055C43.7118 30.9472 43.4993 34.3119 42.9326 37.7119C42.4924 40.8575 42.9979 44.0629 44.3848 46.9204C45.1995 48.7975 45.8017 50.71 46.6517 52.9767C43.3644 50.5858 39.5268 49.0631 35.4944 48.5496C34.218 48.3487 33.0282 47.779 32.0716 46.9106C31.115 46.0422 30.4333 44.913 30.1105 43.662C29.9849 43.33 29.9354 42.974 29.9656 42.6204C29.9959 42.2667 30.1051 41.9243 30.2852 41.6185C30.4654 41.3126 30.7119 41.051 31.0065 40.853C31.3012 40.6551 31.6365 40.5257 31.9877 40.4745C32.9217 40.5469 33.7889 40.9863 34.3996 41.6965C35.0103 42.4067 35.3148 43.3299 35.2464 44.2641L32.6607 43.7683C33.44 45.2912 34.2192 45.6808 35.2818 45.2204C35.54 45.0978 35.7697 44.9228 35.9564 44.7064C36.143 44.49 36.2825 44.2371 36.3658 43.9637C36.4492 43.6904 36.4745 43.4027 36.4404 43.119C36.4062 42.8353 36.3132 42.5619 36.1673 42.3162C35.8116 41.5217 35.2558 40.8332 34.5542 40.318C33.8526 39.8027 33.0294 39.4783 32.1648 39.3765C31.5314 39.2186 30.8617 39.3061 30.2902 39.6214C29.7186 39.9367 29.2874 40.4566 29.0832 41.0766C28.6959 41.9828 28.5834 42.983 28.7597 43.9527C28.936 44.9223 29.3934 45.8188 30.0751 46.5308C30.8543 47.4162 31.5273 48.3725 32.2357 49.2579L31.7752 49.5058C29.9536 49.9997 28.275 50.9185 26.8774 52.1868C25.4797 53.4551 24.4027 55.0367 23.7348 56.8018C23.3573 57.7101 22.9071 58.5866 22.3888 59.4226C21.915 60.3197 21.1581 61.0352 20.2357 61.4579C19.3134 61.8806 18.2773 61.9869 17.2883 61.7602C12.4003 61.1581 7.72481 53.8621 8.57489 49.1162C8.67612 48.2885 8.98598 47.5 9.47543 46.8247C9.96487 46.1495 10.6178 45.6096 11.3731 45.2558C12.363 44.8482 13.4302 44.6623 14.4997 44.7112C15.5692 44.76 16.6149 45.0425 17.5635 45.5387C18.5121 46.0349 19.3406 46.7328 19.9906 47.5834C20.6407 48.434 21.0966 49.4165 21.3262 50.4621C21.395 50.8146 21.3839 51.1779 21.2941 51.5256C21.2042 51.8733 21.0377 52.1964 20.8068 52.4714C20.5759 52.7465 20.2865 52.9664 19.9596 53.1151C19.6327 53.2638 19.2767 53.3375 18.9176 53.3309C17.9881 53.1257 17.1314 52.6729 16.4382 52.0205C15.6916 51.2978 15.0046 50.5161 14.3838 49.6829C14.3838 50.7454 14.2067 51.3121 14.3838 51.6663C14.8596 52.4321 15.4309 53.1343 16.084 53.7559C16.7499 54.3807 17.6126 54.7542 18.5239 54.8124C19.4352 54.8706 20.3383 54.6097 21.0783 54.0747C21.8405 53.573 22.3939 52.811 22.6351 51.9311C22.8763 51.0511 22.7887 50.1134 22.3888 49.2933C21.8476 47.759 20.905 46.3978 19.6591 45.3513C18.4132 44.3049 16.9096 43.6115 15.3047 43.3433C14.3039 43.0668 13.2517 43.0322 12.2348 43.2422C11.2179 43.4522 10.2655 43.9008 9.45608 44.5511C8.64663 45.2014 8.0033 46.0347 7.57913 46.9823C7.15496 47.93 6.96208 48.9649 7.01639 50.0017C7.21819 52.0909 7.57336 54.1625 8.07901 56.1997H6.83928C5.67174 56.0568 4.48772 56.2511 3.42701 56.7594C2.36631 57.2677 1.47326 58.069 0.853288 59.0685C0.223739 60.1632 -0.0684161 61.4196 0.0135033 62.6797C0.0954227 63.9399 0.54773 65.1478 1.31372 66.1519C2.78843 68.6187 5.00859 70.5534 7.65399 71.677C9.44874 72.5398 11.5128 72.6545 13.3921 71.9957C14.1997 71.6665 14.8942 71.1095 15.391 70.3926C15.8879 69.6758 16.1655 68.83 16.1902 67.9582C16.2881 67.266 16.1788 66.5603 15.8763 65.93C15.5737 65.2998 15.0914 64.7731 14.4901 64.4165C13.5804 63.9652 12.5611 63.7821 11.5512 63.8887C10.5414 63.9954 9.58274 64.3872 8.78741 65.0186C8.49204 65.3427 8.30618 65.7516 8.25612 66.1873C8.34675 66.929 8.66959 67.623 9.17855 68.1701C9.6875 68.7172 10.3565 69.0893 11.0898 69.2332C11.579 69.273 12.068 69.153 12.4832 68.8911C12.8983 68.6293 13.2173 68.2397 13.3921 67.7811C13.4605 67.626 13.4964 67.4584 13.4976 67.2889C13.4987 67.1193 13.465 66.9513 13.3986 66.7953C13.3322 66.6393 13.2345 66.4985 13.1115 66.3818C12.9885 66.265 12.8429 66.1747 12.6837 66.1165C12.2976 66.0419 11.9008 66.0419 11.5148 66.1165L12.0815 67.6748C9.88547 68.2415 9.4604 67.9228 9.17703 65.5852C9.77918 65.5852 10.4167 65.2311 11.0543 65.1248C11.7141 64.9258 12.4217 64.9538 13.0638 65.2042C13.7059 65.4546 14.2454 65.913 14.5963 66.5061C14.7585 67.1402 14.7417 67.8069 14.5479 68.4321C14.3541 69.0573 13.9908 69.6166 13.4983 70.0478C13.1234 70.3477 12.6915 70.5683 12.2288 70.6962C11.766 70.824 11.2821 70.8565 10.8064 70.7916C8.76584 70.4295 6.85421 69.544 5.25856 68.2216C3.66292 66.8993 2.43789 65.1854 1.70334 63.2477C1.46144 62.4125 1.46292 61.5256 1.70761 60.6912C1.95231 59.8568 2.43006 59.1096 3.08473 58.5372C4.24645 57.7797 5.63298 57.4438 7.01261 57.5856C8.39224 57.7274 9.6814 58.3384 10.6647 59.3164C11.6744 60.4954 12.871 61.5005 14.2067 62.2914C15.0125 62.8672 15.9384 63.2528 16.9147 63.4193C17.891 63.5859 18.8923 63.5289 19.8435 63.2528C20.7946 62.9767 21.6708 62.4886 22.4061 61.8252C23.1414 61.1618 23.7168 60.3404 24.089 59.4226C24.408 58.8259 24.6919 58.2109 24.9391 57.581C25.7559 55.3855 27.2578 53.5113 29.2225 52.2356C31.1873 50.9599 33.5105 50.3505 35.8485 50.4975L36.6278 52.3746C34.4317 52.658 32.2002 52.7996 30.0396 53.2955C28.9416 53.5434 27.4893 54.0038 27.879 55.8455C27.879 56.0934 27.5248 56.4476 27.2768 56.7309C25.4605 59.0533 24.4976 61.9292 24.5494 64.8769C24.5494 65.0894 24.8328 65.3019 24.9745 65.5498L26.1788 64.2748C26.533 66.0811 26.8164 67.8165 27.1352 69.4103L29.1187 68.0644C29.6511 69.25 29.9115 70.5395 29.8808 71.8387C29.8502 73.1379 29.5293 74.4138 28.9416 75.5729L30.2167 75.9625C30.2167 76.7416 29.9688 77.5562 29.8625 78.3354C29.8625 79.8938 28.5874 81.4875 30.2167 82.9042C30.4292 82.9042 30.2167 83.6126 30.2167 84.0022C30.3383 85.1973 30.5514 86.3813 30.8543 87.5439C30.9899 87.9292 31.0253 88.3426 30.9571 88.7453C30.889 89.148 30.7195 89.5268 30.4647 89.846C29.2604 91.6523 27.9853 93.3877 26.9227 95.3357C25.1871 98.3815 23.3806 101.463 21.9284 104.65C20.7379 107.371 20.6742 110.453 21.7513 113.221C22.0296 113.835 22.374 114.417 22.7784 114.957L24.4786 110.778C25.5523 116.827 27.2131 122.758 29.4375 128.486C29.6268 129.059 29.9278 129.589 30.323 130.044C31.8106 131.744 33.3337 133.586 34.7859 135.003C32.4836 137.907 30.075 140.882 27.7019 143.928C22.0228 151.278 18.3601 159.982 17.0758 169.18C16.9169 169.723 16.9541 170.304 17.1807 170.822C17.4074 171.34 17.8091 171.762 18.3155 172.014L21.6804 173.785L24.5494 175.237C19.8614 177.769 15.8708 181.418 12.9316 185.862C12.294 186.747 11.444 187.633 11.6919 188.872L15.5881 187.774C14.6412 189.199 13.8459 190.718 13.2149 192.308C12.6712 194.566 12.3041 196.863 12.1169 199.179C11.5148 205.412 12.1169 211.787 9.85003 218.127C12.6525 218.298 15.4651 218.083 18.2092 217.489C20.9771 217.041 23.7198 216.45 26.4267 215.719C26.0017 217.844 23.5223 218.481 23.3098 220.606C29.5548 220.321 35.6819 218.805 41.3387 216.144C41.6461 218.671 42.495 221.103 43.8276 223.273C45.1601 225.442 46.945 227.299 49.0604 228.717V225.175L49.5208 224.927C51.7168 229.496 56.109 231.16 60.1469 233.25C60.4657 234.49 60.6428 235.694 61.0324 236.792C63.5472 244.123 66.0267 251.419 68.6124 258.715C70.9709 264.727 72.8771 270.907 74.315 277.203C75.6847 284.498 76.5134 291.885 76.7944 299.303C74.4987 297.935 71.9094 297.134 69.2418 296.967C66.5742 296.801 63.9055 297.274 61.4575 298.347C62.3784 299.657 63.5118 298.559 64.4328 298.914C65.3537 299.268 66.4517 299.516 67.5143 299.834C64.9995 300.614 62.5909 301.216 60.4303 302.03C57.7729 302.926 55.4179 304.545 53.6296 306.705C53.0586 307.33 52.668 308.099 52.4996 308.928C52.3312 309.758 52.3912 310.618 52.6732 311.416C58.9072 309.503 65.2828 311.416 71.5522 309.787L70.348 312.018C75.1067 311.779 79.7527 310.484 83.9494 308.228C85.2425 309.742 86.8879 310.915 88.7408 311.644C90.5937 312.373 92.5974 312.635 94.5755 312.407V310.814C103.041 311.805 110.231 308.653 112.038 305.218L101.907 300.472L103.006 299.161C99.6618 297.883 95.9511 297.959 92.6628 299.374C92.6301 298.76 92.6301 298.146 92.6628 297.532C92.6628 295.266 92.9107 292.999 93.1941 290.768C93.6734 285.687 94.442 280.638 95.4964 275.644C98.1175 265.303 101.199 255.102 104.139 244.867C104.255 244.293 104.553 243.771 104.989 243.379C106.406 242.352 107.929 241.467 109.452 240.511C109.912 241.679 108.141 242.388 109.452 243.521C114.927 240.617 119.406 236.139 122.31 230.665L123.089 233.25H123.726C124.824 229.956 125.993 226.698 127.268 223.475C128.544 220.252 127.587 216.392 128.189 212.85C131.108 213.738 133.737 215.388 135.805 217.631C137.572 220.118 139.169 222.721 140.586 225.423C143.121 219.151 144.023 212.34 143.208 205.625L144.554 207.36C144.872 206.793 145.191 206.475 145.156 206.156C145.174 204.592 145.068 203.028 144.837 201.481C144.135 197.12 141.884 193.159 138.497 190.324L142.039 189.899C141.047 188.235 139.347 187.916 138.213 186.889L134.884 183.772C135.195 182.456 135.408 181.118 135.521 179.77C135.425 178.446 135.223 177.131 134.919 175.839L135.309 176.299C136.69 174.706 138.142 173.147 139.418 171.518C140.212 170.639 140.651 169.497 140.651 168.313C140.651 167.128 140.212 165.986 139.418 165.107C137.487 162.528 135.083 160.341 132.334 158.662C128.792 156.218 125.249 153.845 121.459 151.578C121.07 151.295 120.751 150.976 120.149 150.445C121.814 150.445 123.089 150.445 124.364 150.232C126.737 150.055 129.146 149.984 131.448 149.595C138.094 148.462 144.553 146.424 150.646 143.538C152.06 143.148 153.305 142.301 154.188 141.13L150.646 140.209L153.479 139.713C154.967 139.465 156.455 139.324 157.942 139.005C163.806 137.7 169.561 135.948 175.157 133.763C179.253 132.297 183.155 130.334 186.775 127.919C187.448 127.494 188.262 127.14 188.121 125.794C186.031 125.971 183.976 126.184 181.887 126.255C179.797 126.326 177.813 126.255 175.794 126.255C177.091 125.325 178.48 124.53 179.938 123.882C186.878 120.118 193.336 115.528 199.172 110.211C201.97 107.873 204.91 105.642 207.743 103.127C208.202 102.712 208.628 102.262 209.019 101.782C204.095 100.754 199.668 99.5503 195.382 98.0628ZM44.5974 42.3516C44.4734 41.3164 44.4734 40.2701 44.5974 39.2349C44.9516 35.4806 45.4829 31.7618 45.7662 28.043C46.2112 25.8881 45.976 23.6481 45.0932 21.6325C44.7674 20.8688 44.208 20.2278 43.4953 19.8015C42.7827 19.3752 41.9533 19.1855 41.1262 19.2596C38.1861 19.4315 35.3253 20.2799 32.767 21.7388C28.552 24.2888 24.4078 27.0159 19.9094 29.8493L13.7817 24.2888C14.5749 23.5576 15.4279 22.8942 16.332 22.3055C20.8617 19.7857 25.7279 17.9252 30.7835 16.7804C35.3717 15.6752 40.0368 14.9175 44.7391 14.5137C47.431 14.5137 50.1584 14.5137 52.8503 14.5137C53.8245 14.7037 54.7748 15.0007 55.6839 15.3991C54.6568 18.4096 53.6296 21.0659 52.8149 23.793C51.1856 29.2472 49.6271 34.7369 48.1394 40.2265C47.5212 42.5594 47.4325 45.001 47.8799 47.3726C48.3273 49.7441 49.2994 51.9856 50.7251 53.933C51.2564 54.7122 52.0711 55.4913 50.973 56.483C49.4642 55.3247 48.3106 53.7663 47.6435 51.985C46.1161 48.9588 45.0875 45.7057 44.5974 42.3516ZM56.2507 70.6853L57.0653 73.7312C58.3507 72.5632 59.2194 71.0074 59.5391 69.3004C59.8588 67.5934 59.612 65.8287 58.8364 64.2748C58.1775 62.664 57.102 61.2575 55.7202 60.1994C54.3384 59.1414 52.7 58.4699 50.973 58.2539L58.0571 56.0934C66.9464 53.5511 76.2248 52.651 85.437 53.4371C93.4224 53.8236 101.245 55.8362 108.425 59.3518C112.41 61.2013 115.707 64.2632 117.847 68.0998C119.577 70.918 120.889 73.972 121.743 77.1666C122.558 80.5383 122.586 84.0524 121.824 87.4365C121.062 90.8206 119.532 93.984 117.351 96.6815C113.054 102.157 107.082 106.075 100.349 107.838C96.3906 109.007 92.3544 109.895 88.2706 110.494C81.4787 111.287 74.6011 110.903 67.9394 109.361C59.9078 107.672 52.1803 104.77 45.0224 100.754C39.8176 97.9541 35.7021 93.4898 33.3337 88.0751C32.4943 86.2492 32.1755 84.2269 32.4128 82.2313L39.9927 78.6896L40.4532 81.0625C42.1546 79.2679 43.7065 77.3371 45.0932 75.2895V78.3354C49.3702 76.7819 53.2011 74.2039 56.2507 70.827V70.6853ZM39.3198 50.5329C42.7563 51.8275 45.882 53.8307 48.4936 56.4122C47.4374 57.1403 46.3372 57.8027 45.1995 58.3955C44.9164 58.4985 44.6146 58.5401 44.3142 58.5176C44.0138 58.4951 43.7216 58.409 43.457 58.265C43.1924 58.121 42.9614 57.9224 42.7794 57.6823C42.5974 57.4423 42.4685 57.1663 42.4013 56.8726C41.3877 54.2412 39.6117 51.9721 37.3008 50.3559C37.9837 50.3848 38.6611 50.4917 39.3198 50.6746V50.5329ZM30.2167 81.4167C31.187 76.4428 31.054 71.3167 29.8271 66.3998L27.8082 67.7457C27.1606 66.1391 26.8705 64.4109 26.9581 62.681L25.9308 62.4685C25.9308 59.2101 27.206 57.2622 31.1376 55.1372L30.8543 54.0392C33.1542 53.2774 35.6384 53.2774 37.9383 54.0392C38.2217 54.0392 38.7885 53.7913 39.426 53.5788C39.9573 54.4997 40.5949 55.4559 41.0553 56.4476C41.3894 57.6748 42.1822 58.7267 43.27 59.3858C44.3577 60.045 45.6572 60.2611 46.8997 59.9893C48.1621 59.9195 49.4273 59.9195 50.6897 59.9893C52.0556 60.0472 53.3858 60.4435 54.5606 61.1427C55.7355 61.8418 56.7183 62.8218 57.4206 63.9946C58.123 65.1675 58.523 66.4964 58.5846 67.8621C58.6462 69.2277 58.3676 70.5873 57.7737 71.8187L56.6403 69.1269C53.9381 72.4004 50.4878 74.9757 46.5809 76.6354L44.987 73.0937L41.445 78.7604L40.524 77.3083C38.328 78.3708 36.2028 79.5042 34.0421 80.4604C32.7928 80.8748 31.5141 81.1944 30.2167 81.4167ZM34.8214 132.134C32.6701 130.561 31.061 128.358 30.2167 125.83C28.8232 121.966 27.6407 118.028 26.6747 114.036C26.1439 111.92 26.1439 109.706 26.6747 107.59C26.6747 107.59 26.6747 107.2 26.4267 106.74C24.4078 107.448 24.1952 109.467 22.8847 110.707C22.524 109.652 22.4005 108.53 22.5229 107.422C22.6454 106.314 23.0108 105.247 23.5931 104.296C25.3287 100.754 27.1351 97.2128 29.2604 93.671C30.0042 92.396 30.8897 91.2273 31.8815 89.7043C35.7848 96.9578 42.2697 102.481 50.0521 105.182C44.8453 113.753 41.3033 122.501 43.4639 132.772C41.5476 132.274 39.5358 132.274 37.6196 132.772C37.1345 132.866 36.6349 132.859 36.153 132.749C35.6711 132.639 35.2175 132.43 34.8214 132.134ZM21.1491 171.589C18.3509 170.066 17.6071 170.208 19.0593 166.524C20.3699 163.443 21.2908 160.149 22.3888 156.962C24.559 151.435 27.6223 146.302 31.4565 141.768C32.561 140.266 33.7433 138.824 34.9985 137.447C35.9351 136.485 36.9952 135.651 38.1509 134.967C38.6487 134.662 39.2038 134.461 39.782 134.378C40.3602 134.294 40.9493 134.33 41.5133 134.482C42.0772 134.635 42.604 134.901 43.0612 135.265C43.5185 135.628 43.8966 136.082 44.1723 136.597C44.3651 136.915 44.5906 137.211 44.8453 137.482H45.3412C45.3412 136.951 45.6954 136.313 45.3412 135.924C44.8504 134.438 44.5993 132.884 44.5974 131.319C43.8391 125.717 44.6102 120.015 46.8289 114.815C47.954 111.804 49.5175 108.976 51.4689 106.421L56.0736 107.873C52.949 111.848 50.8888 116.553 50.0875 121.544C48.7373 126.393 48.3759 131.464 49.0249 136.455C49.5088 136.38 50.0033 136.418 50.4701 136.566C50.937 136.713 51.3636 136.966 51.7169 137.305C52.7873 138.152 54.1014 138.634 55.466 138.678C56.8305 138.723 58.1733 138.329 59.2968 137.553C59.9235 137.141 60.5158 136.679 61.0679 136.172C62.6604 134.661 64.5512 133.499 66.6189 132.761C68.6867 132.023 70.8858 131.725 73.0753 131.886C79.6281 132.488 83.2764 134.224 86.0391 140.599C86.9247 142.582 86.7122 143.22 84.7995 145.416C84.0202 143.22 83.3118 141.201 82.568 139.147H82.1429C81.9173 139.652 81.7279 140.173 81.5762 140.705C81.0976 142.928 79.9181 144.939 78.2113 146.443C77.0778 147.541 76.2277 147.611 75.0943 146.443C73.9608 145.274 72.6148 143.68 71.2689 142.193C70.9655 142.579 70.6819 142.981 70.4188 143.397C70.1 143.893 69.9229 144.495 69.6041 144.991C67.9748 147.541 67.1601 147.682 64.7161 145.982C63.689 145.238 62.6971 144.459 61.6345 143.609C60.3594 149.382 55.9319 151.507 51.2209 153.42C50.1583 151.614 49.3437 149.878 48.3519 148.532C45.5183 144.353 44.2432 144.388 39.7802 146.124C35.9219 147.751 32.6054 150.441 30.2167 153.88C27.826 157.263 25.9629 160.989 24.6912 164.93C24.4051 165.508 24.3484 166.172 24.5324 166.79C24.7164 167.408 25.1275 167.933 25.6829 168.26C26.4267 168.791 27.2414 169.18 27.9498 169.712C31.7671 172.396 34.9573 175.876 37.3008 179.912C37.4987 180.337 37.7944 180.71 38.1637 180.999C38.533 181.288 38.9656 181.486 39.426 181.576C40.2743 181.681 41.0768 182.019 41.7438 182.553C42.4108 183.087 42.916 183.797 43.2027 184.602C43.4895 185.407 43.5465 186.276 43.3674 187.111C43.1883 187.947 42.7803 188.716 42.1888 189.333C41.7638 189.864 41.2678 190.324 40.6657 190.962C40.1344 189.899 39.6385 188.979 39.1781 188.022C38.8239 188.27 38.6113 188.341 38.5759 188.447C38.4358 189.299 38.1008 190.106 37.597 190.807C37.0931 191.507 36.4341 192.081 35.6714 192.485C33.6191 194.002 31.1398 194.833 28.5874 194.858C25.6587 194.783 22.7817 194.07 20.1574 192.768C20.886 192.385 21.5846 191.947 22.2471 191.458C23.199 190.847 23.9702 189.993 24.4809 188.985C24.9916 187.976 25.2232 186.849 25.1516 185.72C25.228 184.902 25.3943 184.094 25.6475 183.312L23.5577 182.285C25.3641 180.514 27.5248 181.222 29.6146 181.399C31.0668 181.399 32.5191 181.86 34.2192 182.143C33.5108 184.268 33.3692 186.783 30.9606 188.235C30.3938 190.785 27.9498 191.777 26.4976 193.583C29.6219 192.02 32.2019 189.552 33.9004 186.499C33.9004 188.129 34.0775 189.262 34.1838 190.679C34.6423 190.146 34.9418 189.494 35.0483 188.799C35.1547 188.104 35.0638 187.393 34.7859 186.747C34.3226 184.926 34.4976 183.001 35.2818 181.293C35.2989 181.164 35.2989 181.033 35.2818 180.904C34.1227 179.006 32.4536 177.472 30.4647 176.476C27.5956 174.989 24.6911 173.608 21.7867 172.191L21.1491 171.589ZM120.326 164.505C119.671 164.153 118.966 163.903 118.236 163.762C114.012 162.714 109.644 162.367 105.308 162.735C104.931 162.773 104.551 162.773 104.174 162.735C105.936 161.147 107.325 159.191 108.243 157.006C109.162 154.82 109.586 152.459 109.487 150.091C111.754 151.791 113.773 153.632 116.005 154.978C118.236 156.324 120.114 157.103 122.168 158.166C126.203 160.23 129.809 163.043 132.794 166.453C133.262 166.78 133.644 167.214 133.907 167.72C134.171 168.225 134.309 168.787 134.309 169.358C134.309 169.928 134.171 170.49 133.907 170.995C133.644 171.501 133.262 171.935 132.794 172.262C131.196 170.773 129.308 169.631 127.248 168.905C125.188 168.18 123 167.888 120.822 168.047V169.287L115.226 167.658C116.91 166.509 118.89 165.87 120.928 165.816C120.68 165.285 120.609 164.789 120.326 164.505ZM104.883 159.299C104.624 159.671 104.314 160.005 103.962 160.291C102.107 161.817 99.9433 162.924 97.6199 163.536C95.2966 164.147 92.8684 164.248 90.5021 163.832C89.3225 163.535 88.2168 162.998 87.2539 162.255C86.291 161.511 85.4917 160.578 84.9057 159.512C87.8575 155.274 89.2243 150.134 88.7665 144.991C92.9815 147.328 95.8506 145.451 98.4009 142.263C101.093 146.124 102.793 148.32 107.008 145.097C107.751 147.488 107.945 150.016 107.577 152.493C107.209 154.97 106.288 157.333 104.883 159.405V159.299ZM104.883 145.132C104.424 145.483 103.852 145.652 103.277 145.606C102.701 145.56 102.163 145.303 101.766 144.884C100.896 143.878 100.114 142.8 99.428 141.661C99.0953 141.039 98.8225 140.387 98.6134 139.713C97.7533 140.94 96.8312 142.122 95.8506 143.255C95.5043 143.75 95.0596 144.168 94.5443 144.484C94.029 144.799 93.4542 145.005 92.8558 145.088C92.2574 145.171 91.6483 145.13 91.0666 144.967C90.4849 144.804 89.943 144.522 89.4749 144.141C88.8368 143.622 88.3378 142.952 88.0227 142.193C87.5268 140.988 87.208 139.678 86.8184 138.403C88.3411 136.397 90.434 134.898 92.823 134.102C95.212 133.306 97.7857 133.25 100.207 133.94C101.19 134.259 102.071 134.833 102.758 135.605C104.424 137.353 105.64 139.48 106.3 141.803C106.496 142.427 106.48 143.099 106.256 143.713C106.032 144.328 105.612 144.851 105.06 145.203L104.883 145.132ZM86.0746 153.207C85.1983 155.932 83.7216 158.425 81.7533 160.503C79.3782 162.583 76.383 163.822 73.2322 164.027C70.0815 164.232 66.9511 163.392 64.3265 161.637C63.7402 161.062 63.2393 160.406 62.8389 159.689L53.3462 161.318L51.0793 154.801C55.6485 152.605 60.2177 150.693 61.7054 145.132L63.866 146.868C66.1684 148.745 67.408 148.674 69.3207 146.372C69.8521 145.734 70.3125 145.026 70.8792 144.211C71.3751 144.707 71.8356 145.132 72.2606 145.628C72.841 146.309 73.4683 146.948 74.1379 147.541C75.7672 148.851 76.8299 148.851 78.2821 147.541C79.7344 146.23 80.6907 144.743 82.0012 143.149C82.3554 143.822 82.6388 144.53 82.993 145.203C83.8431 146.868 84.4098 147.009 85.8975 145.876L86.6059 145.345C87.0826 147.982 86.9616 150.693 86.2517 153.278L86.0746 153.207ZM65.1766 164.505C61.5443 165.17 57.794 164.57 54.5505 162.805C56.3352 161.939 58.306 161.525 60.2886 161.601C62.6263 161.424 63.2993 163.832 65.1766 164.505ZM51.8939 161.778C45.1995 159.759 38.8593 158.449 31.9877 161.53C35.1916 162.303 38.3208 163.358 41.3387 164.682C37.2784 165.398 33.394 166.889 29.8979 169.074L26.7455 167.516C26.5731 167.448 26.417 167.344 26.2877 167.212C26.1583 167.079 26.0585 166.92 25.9949 166.746C25.9313 166.572 25.9053 166.387 25.9187 166.202C25.9321 166.017 25.9845 165.837 26.0725 165.674C28.1589 158.546 32.6689 152.371 38.8238 148.213C39.6006 147.759 40.419 147.379 41.2678 147.08C42.2136 146.688 43.2717 146.663 44.2348 147.011C45.1979 147.358 45.9966 148.052 46.4746 148.957C47.6789 151.189 48.8832 153.455 50.0167 155.793C51.1501 158.13 51.1501 159.476 51.8939 161.707V161.778ZM33.865 172.403C40.5949 173.785 46.9706 174.528 52.319 178.814L44.3848 183.985C43.9384 183.129 43.3216 182.373 42.5724 181.764C41.8232 181.155 40.9574 180.705 40.0282 180.443C39.6369 180.263 39.3228 179.949 39.1427 179.558C38.224 177.408 36.8457 175.486 35.1047 173.926C34.6797 173.537 34.4672 173.183 33.7588 172.403H33.865ZM55.7902 229.071C53.7023 228.004 51.9678 226.356 50.7959 224.325C50.3652 223.567 49.8922 222.834 49.3791 222.129H48.9186C48.6707 223.475 48.4228 224.821 48.1394 226.273C44.9063 223.213 42.8187 219.138 42.2242 214.727C36.6986 215.789 31.9877 219.012 26.3205 218.906C27.4539 216.958 28.4811 215.364 29.4729 213.381L29.1187 212.991C26.2851 213.841 23.5223 214.869 20.6178 215.506C17.7133 216.144 14.7734 216.427 11.8336 216.852C12.3028 214.939 12.6577 212.999 12.8962 211.044C13.2504 206.864 13.4275 202.65 13.6754 198.47C13.5217 194.829 14.7202 191.259 17.0404 188.447C17.4888 187.797 17.8575 187.096 18.1384 186.358L13.3567 187.279C16.6209 182.619 20.6157 178.517 25.187 175.131L30.5001 177.822C31.6928 178.465 32.6762 179.436 33.3337 180.62C32.3083 180.662 31.2822 180.554 30.2876 180.301C29.2081 179.856 28.0354 179.685 26.8736 179.802C25.7118 179.919 24.597 180.322 23.6285 180.974C22.7076 181.683 21.7867 182.462 21.9992 183.879L24.5494 183.524C24.4594 185.055 24.2222 186.573 23.841 188.058C22.8847 190.572 20.299 191.068 17.8905 192.414C21.1828 194.556 24.956 195.846 28.8707 196.168L28.4811 196.77L36.4861 193.795C36.7695 196.947 37.2299 199.923 37.3008 202.933C37.3716 205.943 37.0883 208.883 36.982 211.894H37.3008L37.7258 209.308C38.256 204.587 38.0889 199.814 37.2299 195.141C37.0927 194.374 37.1763 193.584 37.471 192.863C37.7658 192.142 38.2595 191.519 38.8947 191.068L39.4614 192.627C40.8488 192.065 42.0481 191.122 42.9197 189.905C43.7914 188.689 44.2995 187.25 44.3848 185.756C44.4109 185.432 44.5028 185.118 44.6551 184.832C44.8074 184.545 45.0168 184.293 45.2704 184.091C47.9977 182.426 50.8314 180.868 53.5942 179.239C57.4803 176.532 61.7086 174.352 66.1683 172.758C66.9963 172.385 67.7804 171.922 68.5061 171.376C63.2432 172.984 58.2168 175.282 53.5587 178.212C51.8231 177.185 50.3354 176.158 48.7415 175.378C44.1365 173.335 39.2334 172.044 34.2192 171.553C32.7985 171.308 31.5286 170.521 30.6772 169.358C32.8733 168.366 34.8568 167.303 36.9466 166.595C39.1239 165.944 41.3351 165.412 43.5702 165.001C41.8217 163.276 39.6649 162.021 37.3008 161.353C37.6207 161.178 37.968 161.058 38.3279 160.999C42.011 160.784 45.7033 161.215 49.2374 162.274C51.1281 162.69 52.9687 163.307 54.7276 164.116C56.3719 165.027 58.1993 165.56 60.076 165.674C64.7869 165.674 69.4978 165.674 74.2442 165.674C75.8884 165.605 77.5023 165.208 78.9905 164.505C80.7387 163.613 82.4196 162.595 84.0202 161.46C84.339 161.849 84.7286 162.31 85.1536 162.735C86.0983 163.806 87.267 164.656 88.5769 165.225C89.8868 165.794 91.3059 166.069 92.7336 166.028C95.511 166.031 98.2594 165.464 100.809 164.364C101.702 163.991 102.645 163.753 103.608 163.655C105.33 163.567 107.056 163.567 108.779 163.655C111.783 163.82 114.763 164.295 117.67 165.072C115.899 166.064 114.128 166.205 113.029 168.083L119.83 170.101L114.659 174.033C110.606 171.656 106.276 169.789 101.766 168.472C97.8985 167.27 93.9047 166.521 89.8645 166.241C88.3769 166.241 86.783 166.666 85.2245 164.966C86.11 166.772 86.7122 168.083 87.3851 169.287C87.7845 169.958 88.2344 170.597 88.7311 171.199L91.0688 179.841C91.7064 182.037 92.3794 184.233 92.9107 186.039C89.3687 188.27 85.8266 190.077 82.8513 192.308C75.6479 197.229 69.0911 203.036 63.3348 209.591C60.5365 212.921 58.0925 216.675 55.5068 220.217C55.2301 220.531 55.0443 220.914 54.9694 221.326C54.8945 221.738 54.9334 222.163 55.0818 222.554C56.2507 220.712 57.207 219.012 58.305 217.454C66.2247 206.625 76.1143 197.385 87.456 190.218C89.2061 188.965 91.1955 188.085 93.3003 187.633C95.3537 194.797 96.5428 202.18 96.8424 209.627C95.7443 210.3 94.6817 210.866 93.7253 211.575C86.3153 217.118 79.7939 223.758 74.3859 231.267C73.7765 231.867 73.405 232.667 73.3399 233.52C73.2747 234.373 73.5205 235.221 74.0317 235.906C71.8896 235.074 69.7018 234.365 67.4789 233.781C63.3555 232.812 59.4107 231.199 55.7902 229V229.071ZM80.7616 308.122C79.2385 308.689 77.6091 308.972 75.6964 309.503C75.6861 309.315 75.6861 309.125 75.6964 308.937C75.6964 308.264 76.2631 307.307 75.9798 306.918C75.6964 306.528 74.7047 307.166 74.1025 307.414C71.4095 308.376 68.5677 308.856 65.7079 308.83C61.5992 308.83 57.4904 309.114 53.2753 309.255C53.2031 308.873 53.2452 308.477 53.3964 308.118C53.5476 307.759 53.8011 307.452 54.1254 307.237C55.3064 305.999 56.6394 304.916 58.0925 304.014C61.5041 302.066 65.3265 300.95 69.2499 300.755C69.5068 300.721 69.7573 300.649 69.9937 300.543C69.675 298.418 67.5852 299.02 66.4517 298.205C68.329 297.284 71.0564 297.957 77.4674 300.861C77.6167 300.307 77.7 299.736 77.7154 299.161C77.4675 294.522 77.2549 289.882 76.8653 285.242C76.4512 280.009 75.4411 274.84 73.8546 269.836C72.2607 264.913 70.3126 260.061 68.7541 255.173C66.4163 248.515 64.0432 241.892 61.67 235.233C61.5471 234.733 61.4641 234.224 61.422 233.711C66.7011 234.66 71.7651 236.555 76.3694 239.306L76.7944 238.988L76.334 236.331C79.876 236.721 82.2138 239.306 85.0828 240.546C85.0828 240.865 85.3307 240.971 85.3307 241.113C85.1182 250.498 85.0474 259.884 84.587 269.446C84.3744 274.511 83.4535 279.576 82.993 284.64C82.2308 290.512 82.1002 296.449 82.6034 302.349C82.6517 302.792 82.7346 303.23 82.8513 303.659C83.666 306.174 83.3472 307.059 80.7616 308.051V308.122ZM102.014 246.85C99.3572 255.527 96.5944 264.169 94.1504 272.917C92.756 278.226 91.8899 283.659 91.5648 289.138C91.3522 291.759 91.2105 294.38 91.0334 297.001C90.9984 297.449 90.9984 297.899 91.0334 298.347C91.0334 300.436 91.7773 300.826 93.7608 300.189C95.7443 299.551 96.7361 299.409 98.2592 299.055V299.516L96.1694 300.472C96.1694 301.676 96.9486 301.534 97.5508 301.499C101.857 301.676 106.008 303.158 109.452 305.749C106.803 307.583 103.779 308.805 100.6 309.326C97.4201 309.846 94.1644 309.653 91.0688 308.759L91.4939 310.601C91.2828 310.636 91.0674 310.636 90.8563 310.601C88.991 310.33 87.2508 309.503 85.8621 308.228C85.3223 307.619 84.9339 306.891 84.7286 306.103C84.4098 304.332 84.4807 302.561 84.1619 300.755C83.7256 296.726 83.7851 292.658 84.339 288.643C84.6223 283.755 85.2953 278.903 85.8266 274.051C86.7472 264.482 87.0666 254.865 86.783 245.257C86.783 244.088 86.5705 242.884 86.4642 241.715C88.6956 242.606 90.651 244.072 92.1314 245.965C93.6545 247.807 94.9297 249.79 96.4173 251.88C97.7279 251.1 97.3382 249.117 98.5071 248.09L102.049 244.973L102.403 245.257C102.155 245.965 102.014 246.284 101.872 246.779L102.014 246.85ZM143.951 202.295C143.969 202.484 143.969 202.674 143.951 202.862C142.598 202.557 141.289 202.081 140.055 201.445C138.834 200.376 137.378 199.612 135.805 199.214C136.148 199.593 136.528 199.937 136.938 200.241C138.553 201.131 139.898 202.44 140.833 204.029C141.768 205.618 142.258 207.429 142.251 209.273C142.514 213.624 141.9 217.984 140.445 222.094C139.824 216.649 138.637 211.284 136.903 206.085C135.297 200.986 133.06 196.108 130.244 191.564C134.489 200.403 137.504 209.781 139.205 219.437C138.826 219.094 138.482 218.715 138.178 218.304C137.153 216.84 135.809 215.629 134.246 214.762C132.05 213.381 132.05 213.381 132.546 210.76C132.865 208.989 133.254 207.218 133.573 205.483C133.751 204.78 133.663 204.036 133.325 203.393C132.688 206.546 132.05 209.662 131.342 212.956C130.492 212.637 129.748 212.283 128.969 212.071C128.189 211.858 127.127 212.248 127.056 213.523C126.985 214.798 127.056 217.064 127.056 218.694C126.991 222.524 126.058 226.29 124.329 229.708L123.195 227.371L122.522 227.583C122.207 227.994 121.979 228.464 121.849 228.965C121.683 230.233 121.258 231.454 120.6 232.55C119.942 233.647 119.065 234.597 118.024 235.34C116.359 236.756 114.836 238.279 113.207 239.731C112.522 240.206 111.813 240.643 111.081 241.042L111.613 237.075L109.735 238.421C108.733 239.193 107.693 239.914 106.618 240.581C103.697 242.286 100.997 244.344 98.578 246.709C97.8093 247.494 97.0989 248.334 96.4527 249.223C93.849 245.33 90.4132 242.064 86.3934 239.661C82.4911 237.053 78.1816 235.114 73.642 233.923C79.821 224.729 87.6948 216.796 96.8424 210.548C96.8424 211.504 97.0903 212.071 97.0903 212.637C97.0903 217.277 97.0903 221.952 97.0903 226.592C97.1264 226.898 97.1264 227.207 97.0903 227.513C96.7361 229.815 96.0631 244.371 96.2756 246.779C96.2756 246.779 96.4528 247.134 96.807 247.7C96.807 246.638 96.984 246.036 97.0195 245.398C97.232 240.829 97.4445 236.261 97.7279 231.656C97.8815 230.83 98.156 230.03 98.5425 229.283C98.2929 228.524 98.1267 227.741 98.0466 226.946C98.0466 221.456 98.0466 215.967 98.0466 210.477C98.0466 210.477 98.0466 210.229 98.2237 210.016C100.194 210.467 101.997 211.461 103.431 212.885C107.381 216.039 110.566 220.047 112.746 224.608C113.702 226.769 114.978 228.823 116.111 230.913H116.536C116.288 230.275 116.076 229.638 115.792 229.035C114.73 226.804 113.702 224.573 112.498 222.377C109.881 217.809 106.244 213.906 101.872 210.973C101.009 210.385 100.05 209.954 99.0384 209.698C98.7066 209.647 98.4034 209.481 98.1828 209.228C97.9623 208.975 97.8387 208.652 97.8341 208.316C97.5153 204.775 97.3028 201.233 96.7715 198.01C96.2402 194.787 95.461 191.422 94.7526 187.916C95.1283 187.86 95.5102 187.86 95.886 187.916C102.397 189.992 108.532 193.101 114.057 197.125C117.256 199.855 120.037 203.042 122.31 206.581C123.16 207.714 123.939 208.883 124.966 210.123C124.541 206.935 117.315 197.798 112.604 194.893C107.06 191.156 100.913 188.4 94.4338 186.747C93.4066 183.56 92.3086 180.089 91.2105 176.583C90.7147 175.095 90.2896 173.572 89.7583 172.085C89.7583 171.801 89.3332 171.624 89.0853 171.412L87.3143 166.807C97.0148 167.326 106.467 170.065 114.942 174.812C113.267 179.746 112.243 184.877 111.896 190.077C113.313 188.129 115.261 188.447 117.174 188.483H124.966C124.364 189.899 122.628 190.041 121.672 191.387H125.214C123.851 195.515 123.439 199.898 124.01 204.208C124.01 203.039 124.258 201.906 124.435 200.666C124.824 197.939 125.356 195.212 125.674 192.45C125.725 191.859 125.967 191.301 126.363 190.86C126.759 190.419 127.289 190.119 127.871 190.006C128.445 189.85 128.994 189.611 129.5 189.297C130.538 188.539 131.8 188.152 133.085 188.197C134.369 188.242 135.602 188.717 136.584 189.545C140.436 192.768 143 197.268 143.81 202.225L143.951 202.295ZM136.867 187.527C136.088 188.199 136.088 188.199 131.944 187.527L134.211 184.445L136.867 187.527ZM132.404 160.078C134.47 161.572 136.391 163.256 138.142 165.107C138.602 165.483 138.972 165.956 139.226 166.492C139.48 167.028 139.612 167.613 139.612 168.206C139.612 168.8 139.48 169.385 139.226 169.921C138.972 170.457 138.602 170.93 138.142 171.305C136.69 173.005 135.132 174.635 133.502 176.441C134.157 177.506 134.504 178.732 134.504 179.983C134.504 181.233 134.157 182.459 133.502 183.524C132.742 185.081 131.656 186.456 130.318 187.556C128.979 188.656 127.42 189.455 125.745 189.899L127.268 186.924C122.719 187.797 118.081 188.118 113.454 187.881C113.061 186.514 113.136 185.056 113.667 183.737C114.234 181.187 114.907 178.637 115.651 176.122C115.994 175.212 116.521 174.382 117.2 173.684C117.878 172.986 118.693 172.436 119.594 172.067C120.495 171.698 121.462 171.518 122.435 171.54C123.408 171.561 124.366 171.783 125.249 172.191C125.449 172.215 125.652 172.215 125.852 172.191C126.064 170.951 124.329 170.81 124.399 169.535C127.573 170.058 130.533 171.47 132.936 173.608C133.559 173.352 134.116 172.957 134.563 172.453C135.011 171.95 135.338 171.351 135.519 170.702C135.7 170.053 135.73 169.371 135.608 168.708C135.486 168.046 135.214 167.42 134.813 166.878C130.343 161.364 124.452 157.176 117.776 154.766C115.154 153.505 112.76 151.817 110.692 149.772C109.804 148.951 109.26 147.825 109.169 146.62C109.169 145.486 108.885 144.388 108.673 142.795C109.412 143.309 110.122 143.865 110.798 144.459C112.604 146.159 114.34 148.001 116.146 149.559C116.965 150.075 117.817 150.537 118.697 150.941C123.195 153.88 127.729 156.855 132.121 160.007L132.404 160.078ZM190.21 115.417C185.744 118.979 180.764 121.845 175.44 123.917C173.769 124.367 172.32 125.412 171.367 126.857C175.311 127.604 179.326 127.913 183.339 127.778C181.462 129.867 177.849 131.319 164.176 136.03C157.633 138.196 150.806 139.39 143.916 139.572V140.209L150.15 142.157C145.113 144.516 139.825 146.299 134.388 147.47C129.721 148.391 124.977 148.866 120.22 148.886C119.245 149.005 118.257 148.887 117.338 148.542C116.419 148.197 115.597 147.634 114.942 146.903C114.596 146.504 114.203 146.148 113.773 145.841C110.836 143.773 108.413 141.059 106.689 137.907C103.749 132.205 100.809 130.824 93.5128 132.382C92.064 132.628 90.6837 133.179 89.4628 133.997C88.2418 134.815 87.2078 135.882 86.4288 137.128C86.4288 137.128 86.0391 137.128 85.9329 136.774C81.2574 129.69 68.6478 128.132 61.7408 133.834C60.8199 134.578 59.899 135.357 58.9072 136.03C58.3262 136.515 57.6482 136.871 56.9186 137.073C56.189 137.275 55.4246 137.319 54.6766 137.202C53.9287 137.084 53.2145 136.808 52.5819 136.393C51.9492 135.977 51.4128 135.43 51.0084 134.79C50.5703 134.106 50.3596 133.3 50.4063 132.488C50.5879 127.759 51.3614 123.071 52.7086 118.534C53.308 116.015 54.3386 113.618 55.7548 111.45C56.2816 110.746 56.8877 110.104 57.5612 109.538C58.3759 108.723 59.2614 109.361 60.1115 109.538C64.5745 110.459 69.002 111.663 73.5358 112.265C80.912 113.425 88.4482 113.051 95.6735 111.167C98.6134 110.317 101.66 109.68 104.493 108.582C112.179 105.892 118.525 100.333 122.203 93.069C124.12 89.134 124.917 84.7473 124.506 80.3896C123.815 74.9527 121.769 69.7766 118.555 65.3373C116.285 61.8315 113.033 59.0721 109.204 57.4039C104.449 55.1742 99.4914 53.407 94.3983 52.1267C86.4472 50.4512 78.2765 50.0804 70.2063 51.0288C64.7764 51.4684 59.4535 52.784 54.4442 54.9247C53.9356 53.9012 53.671 52.7738 53.671 51.6309C53.671 50.488 53.9356 49.3606 54.4442 48.3371C55.8904 44.8613 58.3615 41.9086 61.5283 39.8724C62.4822 39.2991 63.5427 38.9256 64.6453 38.7744C67.4081 38.4557 68.8603 39.8724 68.4707 42.5995C68.3658 43.7841 67.9922 44.9293 67.3785 45.948C66.7648 46.9667 65.927 47.8322 64.9287 48.4787C64.5305 48.7971 64.0682 49.0258 63.5735 49.1492C63.0788 49.2725 62.5634 49.2877 62.0623 49.1935C61.5613 49.0993 61.0864 48.8981 60.6703 48.6036C60.2541 48.3091 59.9064 47.9283 59.651 47.4871C60.0406 47.0266 60.4303 46.4954 60.8907 46.035C61.4609 45.589 61.9518 45.0502 62.343 44.4412C61.9179 44.4412 61.3512 44.4412 61.0679 44.4412C60.1708 45.0952 59.3921 45.8977 58.7655 46.8141C58.1634 47.8412 58.7655 48.8683 60.2886 49.6121C61.404 50.1777 62.679 50.3456 63.9028 50.088C65.1266 49.8304 66.2258 49.1627 67.0184 48.1954C68.3134 46.6234 69.1472 44.7231 69.4271 42.7057C69.8167 38.9515 67.9394 37.0036 64.1494 37.3932C63.6535 37.3932 63.1222 37.3932 62.3075 37.6765L63.1576 35.5869C63.8671 34.1155 64.1278 32.4678 63.9074 30.8493C63.6869 29.2307 62.995 27.7128 61.9179 26.4847C61.555 25.9826 61.0668 25.5844 60.5019 25.33C59.937 25.0755 59.3153 24.9737 58.6987 25.0346C58.0821 25.0955 57.4924 25.3171 56.9882 25.6772C56.4841 26.0373 56.0832 26.5233 55.8256 27.0868C54.5424 29.1273 53.9237 31.5155 54.0546 33.9223C54.0792 34.6758 54.2729 35.4142 54.6213 36.0827C54.7807 36.4434 55.0328 36.7554 55.352 36.9869C55.6712 37.2185 56.046 37.3613 56.4383 37.4009C56.8307 37.4405 57.2265 37.3754 57.5855 37.2123C57.9446 37.0492 58.2539 36.7939 58.4821 36.4723C58.8322 36.1083 59.1004 35.6736 59.2687 35.1975C59.437 34.7213 59.5016 34.2147 59.458 33.7115C59.4143 33.2084 59.2636 32.7204 59.0159 32.2803C58.7682 31.8402 58.4292 31.4581 58.0217 31.1597C57.3487 31.5493 56.782 31.7618 57.6321 32.7181C57.8566 32.911 58.0368 33.15 58.1604 33.419C58.2839 33.688 58.3479 33.9805 58.3479 34.2765C58.3479 34.5724 58.2839 34.8649 58.1604 35.1339C58.0368 35.4029 57.8566 35.642 57.6321 35.8348C57.52 36.0103 57.3655 36.1548 57.1829 36.2548C57.0003 36.3549 56.7954 36.4073 56.5872 36.4073C56.3789 36.4073 56.174 36.3549 55.9914 36.2548C55.8088 36.1548 55.6543 36.0103 55.5422 35.8348C55.3664 35.5952 55.2235 35.3332 55.1172 35.0556C54.8659 33.5738 54.9623 32.054 55.3987 30.6158C55.8352 29.1776 56.5997 27.8604 57.6321 26.768C57.815 26.5517 58.0428 26.3779 58.2997 26.2587C58.5567 26.1395 58.8365 26.0778 59.1197 26.0778C59.403 26.0778 59.6828 26.1395 59.9397 26.2587C60.1967 26.3779 60.4245 26.5517 60.6074 26.768C61.5664 27.5078 62.2861 28.5137 62.6767 29.6601C63.0672 30.8065 63.1113 32.0426 62.8034 33.2139C62.3217 35.8235 60.9739 38.1943 58.978 39.9432C56.3468 42.0981 54.3106 44.8901 53.0628 48.0537C52.1891 50.0125 52.0019 52.2088 52.5315 54.2872C51.0333 52.6288 49.935 50.6492 49.321 48.5004C48.707 46.3516 48.5936 44.0906 48.9895 41.8912C49.657 38.2883 50.5803 34.7376 51.7523 31.266C52.5869 29.171 53.7861 27.2404 55.2943 25.5638C61.3409 18.3122 69.1984 12.7892 78.0696 9.55528C84.5869 7.07607 91.3168 5.09272 97.9404 2.89685H99.1093C98.8554 3.4663 98.5717 4.02194 98.2592 4.56146C96.6763 6.77679 95.4788 9.24343 94.7172 11.8574C94.4622 12.3563 94.3293 12.9086 94.3293 13.4689C94.3293 14.0291 94.4622 14.5814 94.7172 15.0804C99.0767 13.4004 103.718 12.5709 108.389 12.6366C107.545 13.6462 106.753 14.6983 106.016 15.7887C105.52 16.6387 104.67 17.7012 105.414 18.6929C106.158 19.6846 107.362 19.0117 108.319 18.6929C115.916 16.2871 123.874 15.2205 131.838 15.5408C137.035 15.4843 142.209 16.2371 147.175 17.7721C147.667 17.911 148.152 18.0765 148.627 18.2679C145.772 19.0159 143.081 20.289 140.693 22.0221C149.942 22.9357 158.787 26.2707 166.337 31.691C173.74 37.1452 181.249 42.5287 186.456 50.8517C184.329 51.0202 182.257 51.615 180.365 52.6007C178.472 53.5864 176.797 54.9429 175.44 56.5893C173.598 58.3247 171.898 60.131 170.056 62.0435C169.526 62.6943 169.041 63.3807 168.604 64.0977L173.279 64.806C170.296 66.1377 167.459 67.7757 164.814 69.6936C162.768 71.3467 161.091 73.4097 159.891 75.75C159.395 76.4937 159.891 77.0604 160.386 77.6625C163.825 80.5893 167.81 82.8043 172.111 84.1792C176.29 85.8084 180.505 87.2251 185.181 88.8897L182.56 90.4127C180.718 91.5106 180.647 92.5731 182.56 93.9544C183.613 94.6648 184.727 95.2811 185.889 95.7961C191.815 98.7173 198.07 100.917 204.52 102.348C204.875 102.472 205.219 102.626 205.547 102.809C200.234 106.917 195.169 111.38 189.927 115.346L190.21 115.417Z" fill="#162D54"/>
<path d="M53.3802 204.239C52.8135 206.93 52.4239 209.657 51.9634 212.348C52.1177 212.292 52.2578 212.202 52.374 212.086C52.4902 211.97 52.5798 211.83 52.6364 211.676C54.1462 205.892 54.9432 199.946 55.0096 193.969C55.0096 192.34 55.0096 190.676 54.7971 189.047C54.4429 185.966 54.0178 182.85 53.5928 179.769C53.5928 180.796 53.5928 181.787 53.5928 182.814C54.5781 189.927 54.5064 197.147 53.3802 204.239Z" fill="#162D54"/>
<path d="M15.1594 210.795C16.3282 209.485 17.2491 208.387 18.2409 207.254C21.2869 204.278 24.3684 201.339 27.3791 198.328C27.7351 197.897 28.0328 197.42 28.2646 196.911C23.0509 200.661 18.6026 205.374 15.1594 210.795Z" fill="#162D54"/>
<path d="M77.7146 168.044C76.4041 168.792 74.7039 168.614 73.6767 170.039L77.9271 168.507L77.7146 168.044Z" fill="#162D54"/>
<path d="M73.5709 169.993C71.729 169.637 70.3476 170.777 68.8245 171.453C69.5399 171.349 70.2493 171.206 70.9498 171.026C71.8409 170.728 72.7159 170.383 73.5709 169.993Z" fill="#162D54"/>
<path d="M77.6449 91.9713C78.5301 92.665 79.5401 93.1823 80.6202 93.495C82.7809 93.9911 85.0124 94.3455 87.3855 94.7707C89.9358 102.496 95.1072 104.02 99.1451 103.134C101.233 102.494 103.09 101.263 104.494 99.59C105.824 97.7188 106.416 95.4222 106.158 93.1407L107.079 92.9281C107.929 92.9281 108.85 92.7154 109.452 91.4397L103.466 92.113C102.687 90.5538 102.05 89.2073 101.341 87.8961C101.272 87.6954 101.151 87.5165 100.99 87.3775C100.83 87.2386 100.636 87.1446 100.427 87.105C100.218 87.0654 100.003 87.0817 99.8029 87.1522C99.6027 87.2227 99.4246 87.3448 99.2868 87.5063L97.2324 89.1718C96.9844 88.9592 96.7719 88.8175 96.7011 88.6403C95.5676 86.2307 93.159 86.4433 91.2463 88.1796C90.6173 88.8357 90.081 89.575 89.6524 90.3767C89.1565 91.1917 88.8023 92.0776 88.3064 93.0344L82.9226 92.5383C81.2086 92.0494 79.4236 91.8577 77.6449 91.9713ZM93.1945 88.4277C94.1154 87.9316 94.753 88.4277 95.3551 89.0301C95.9573 89.6325 96.6303 90.5893 97.3741 91.5106C98.4367 90.1286 99.2159 89.1364 100.279 87.967L102.191 92.2548C98.1002 92.9712 93.9438 93.2445 89.7941 93.0698C90.3415 91.2052 91.5507 89.6049 93.1945 88.5694V88.4277ZM90.4317 94.629C95.1855 94.795 99.9422 94.3905 104.6 93.4242C104.859 95.0591 104.519 96.7326 103.643 98.1371C102.845 99.3937 101.703 100.395 100.354 101.023C99.0043 101.651 97.5032 101.879 96.0281 101.681C94.217 101.354 92.5385 100.512 91.194 99.2548C89.8495 97.9977 88.8961 96.3792 88.4482 94.5935L90.4317 94.629Z" fill="#162D54"/>
<path d="M79.3821 71.5061C77.3336 70.181 74.8479 69.7179 72.462 70.2167C70.0762 70.7156 67.9816 72.1364 66.6307 74.1723C68.3328 72.6382 70.409 71.5835 72.6486 71.1152C74.8881 70.6469 77.2112 70.7818 79.3821 71.5061Z" fill="#162D54"/>
<path d="M114.872 72.104C115.474 72.8133 116.182 73.4163 116.82 74.0901C116.627 73.0687 116.138 72.127 115.413 71.3826C114.689 70.6382 113.761 70.1243 112.746 69.9052C111.427 69.535 110.029 69.5557 108.721 69.9648C107.414 70.374 106.253 71.154 105.379 72.2104C107.079 71.6784 108.744 71.111 110.479 70.6145C111.275 70.3755 112.126 70.3906 112.913 70.6575C113.7 70.9244 114.385 71.43 114.872 72.104Z" fill="#162D54"/>
<path d="M98.2924 229.46C101.023 231.578 103.189 234.336 104.598 237.489C104.894 237.905 105.239 238.285 105.625 238.621C105.665 238.304 105.665 237.983 105.625 237.666C104.279 235.508 103.039 233.28 101.551 231.264C101.223 230.682 100.764 230.185 100.211 229.811C99.6581 229.436 99.0256 229.195 98.3633 229.106C98.3633 229.106 98.2216 229.424 98.2924 229.46Z" fill="#162D54"/>
<path d="M87.3493 238.891L87.7034 239.139L93.4415 230.95C90.7417 233.008 88.6387 235.749 87.3493 238.891Z" fill="#162D54"/>
<path d="M37.899 75.4166L38.4657 75.2396C38.0407 73.6823 37.6511 72.1249 37.1552 70.249C39.0325 67.8067 41.0868 65.1875 43.1058 62.5329C41.2285 63.5948 39.9533 65.5415 37.4385 65.1521L39.67 65.3999C39.0468 66.1321 38.4672 66.9003 37.9344 67.7006C37.6519 68.3935 37.157 68.9792 36.5206 69.3734C35.8842 69.7677 35.1391 69.9503 34.3924 69.895C34.3924 69.895 34.3924 70.1074 34.1444 70.2844L35.7383 70.6383L31.9484 78.0004L32.4443 78.2482C34.2153 76.3369 34.6757 73.5053 36.7301 71.417L37.899 75.4166Z" fill="#162D54"/>
<path d="M42.7895 60.683C41.2235 58.8028 38.9898 57.5995 36.5555 57.3248C36.0757 57.3046 35.6067 57.1765 35.1835 56.95C34.7603 56.7235 34.3939 56.4045 34.1115 56.0169C34.1115 56.0169 33.8635 56.0169 33.651 56.0169V56.6179C33.651 56.8653 33.651 57.1127 33.651 57.3602C32.4518 57.5426 31.3117 58.0018 30.3217 58.7014C29.3317 59.401 28.519 60.3217 27.9483 61.39C33.1197 56.9713 35.1741 56.8653 42.7895 60.683Z" fill="#162D54"/>
<path d="M49.1994 73.803C50.2128 72.4222 50.7383 70.7437 50.6934 69.0315C50.6486 67.3193 50.0357 65.6706 48.9514 64.3448C49.6475 65.8176 50.029 67.4193 50.0717 69.0478C50.1144 70.6762 49.8173 72.2957 49.1994 73.803Z" fill="#162D54"/>
<path d="M41.868 72.4106C42.4195 70.2994 42.1802 68.0598 41.1949 66.1125C41.4075 68.4831 41.6554 70.4999 41.868 72.4106Z" fill="#162D54"/>
<path d="M34.6071 59.881L33.7573 63.8019C34.3132 63.3338 34.698 62.6952 34.8517 61.9859C35.0054 61.2765 34.9194 60.5364 34.6071 59.881Z" fill="#162D54"/>
<path d="M50.3347 64.591L54.6559 66.6998C54.1482 66.0416 53.4939 65.5088 52.7443 65.143C51.9947 64.7772 51.17 64.5883 50.3347 64.591Z" fill="#162D54"/>
<path d="M125.853 174.776L127.978 176.017C127.39 176.649 126.616 177.077 125.768 177.236C124.92 177.396 124.044 177.279 123.267 176.904C121.941 176.529 120.571 176.339 119.193 176.336V176.833C120.288 176.956 121.376 177.133 122.452 177.365C123.515 177.613 124.577 178.074 125.994 178.5C125.427 180.805 124.825 183.111 124.259 185.594C124.671 185.373 124.987 185.006 125.144 184.565C125.671 182.858 126.073 181.116 126.348 179.351C126.526 177.968 126.951 177.117 128.403 176.904C128.403 176.904 128.722 176.656 128.899 176.514L126.561 174.421L125.853 174.776Z" fill="#162D54"/>
<path d="M129.391 180.688V177.894H129.214L129.391 180.688Z" fill="#162D54"/>
<defs>
<radialGradient id="paint0_radial_112:103754" cx="0" cy="0" r="1" gradientUnits="userSpaceOnUse" gradientTransform="translate(18580.6 3336.27) rotate(1.77023) scale(1307.62 835.507)">
<stop offset="0.29" stop-color="#F4D11D"/>
<stop offset="0.64" stop-color="#F4D01D" stop-opacity="0.99"/>
<stop offset="0.77" stop-color="#F5CE1F" stop-opacity="0.97"/>
<stop offset="0.86" stop-color="#F7C922" stop-opacity="0.93"/>
<stop offset="0.94" stop-color="#FAC325" stop-opacity="0.87"/>
<stop offset="1" stop-color="#FDBB2A" stop-opacity="0.8"/>
</radialGradient>
<linearGradient id="paint1_linear_112:103754" x1="5478.5" y1="6847.88" x2="5325.07" y2="8286.73" gradientUnits="userSpaceOnUse">
<stop stop-color="#597836"/>
<stop offset="0.09" stop-color="#688437"/>
<stop offset="0.27" stop-color="#7E9639"/>
<stop offset="0.47" stop-color="#8EA33A"/>
<stop offset="0.69" stop-color="#97AB3B"/>
<stop offset="1" stop-color="#9AAD3B"/>
</linearGradient>
<linearGradient id="paint2_linear_112:103754" x1="21722.1" y1="5680.21" x2="21902.1" y2="7752.82" gradientUnits="userSpaceOnUse">
<stop stop-color="#9AAD3B"/>
<stop offset="0.31" stop-color="#97AB3B"/>
<stop offset="0.53" stop-color="#8EA33A"/>
<stop offset="0.73" stop-color="#7E9639"/>
<stop offset="0.91" stop-color="#688437"/>
<stop offset="1" stop-color="#597836"/>
</linearGradient>
<radialGradient id="paint3_radial_112:103754" cx="0" cy="0" r="1" gradientUnits="userSpaceOnUse" gradientTransform="translate(31626.4 6410.88) rotate(0.390005) scale(6546.7 6112.17)">
<stop stop-color="#9AAD3B"/>
<stop offset="0.18" stop-color="#AEBE4F"/>
<stop offset="0.4" stop-color="#BECC5F"/>
<stop offset="0.66" stop-color="#C7D468"/>
<stop offset="1" stop-color="#CAD66B"/>
</radialGradient>
<linearGradient id="paint4_linear_112:103754" x1="6575.25" y1="7478.42" x2="6425.73" y2="9064.23" gradientUnits="userSpaceOnUse">
<stop stop-color="#597836"/>
<stop offset="0.09" stop-color="#688437"/>
<stop offset="0.27" stop-color="#7E9639"/>
<stop offset="0.47" stop-color="#8EA33A"/>
<stop offset="0.69" stop-color="#97AB3B"/>
<stop offset="1" stop-color="#9AAD3B"/>
</linearGradient>
<radialGradient id="paint5_radial_112:103754" cx="0" cy="0" r="1" gradientUnits="userSpaceOnUse" gradientTransform="translate(13539.6 5265.61) rotate(0.390025) scale(1731.89 2261.6)">
<stop stop-color="#F4D11D"/>
<stop offset="0.13" stop-color="#F4D11E"/>
<stop offset="0.51" stop-color="#F5CD20"/>
<stop offset="0.85" stop-color="#FAC326"/>
<stop offset="1" stop-color="#FDBB2A"/>
</radialGradient>
<radialGradient id="paint6_radial_112:103754" cx="0" cy="0" r="1" gradientUnits="userSpaceOnUse" gradientTransform="translate(5430.76 2340.1) rotate(0.389867) scale(434.033 679.117)">
<stop stop-color="#9AAD3B"/>
<stop offset="0.18" stop-color="#AEBE4F"/>
<stop offset="0.4" stop-color="#BECC5F"/>
<stop offset="0.66" stop-color="#C7D468"/>
<stop offset="1" stop-color="#CAD66B"/>
</radialGradient>
<linearGradient id="paint7_linear_112:103754" x1="7347.38" y1="1580.65" x2="7352.52" y2="1741.61" gradientUnits="userSpaceOnUse">
<stop stop-color="#9AAD3B"/>
<stop offset="0.31" stop-color="#97AB3B"/>
<stop offset="0.53" stop-color="#8EA33A"/>
<stop offset="0.73" stop-color="#7E9639"/>
<stop offset="0.91" stop-color="#688437"/>
<stop offset="1" stop-color="#597836"/>
</linearGradient>
<linearGradient id="paint8_linear_112:103754" x1="4900.43" y1="1647.2" x2="4885.66" y2="1787.49" gradientUnits="userSpaceOnUse">
<stop stop-color="#9AAD3B"/>
<stop offset="0.31" stop-color="#97AB3B"/>
<stop offset="0.53" stop-color="#8EA33A"/>
<stop offset="0.73" stop-color="#7E9639"/>
<stop offset="0.91" stop-color="#688437"/>
<stop offset="1" stop-color="#597836"/>
</linearGradient>
<radialGradient id="paint9_radial_112:103754" cx="0" cy="0" r="1" gradientUnits="userSpaceOnUse" gradientTransform="translate(99.229 127.373) rotate(0.38991) scale(24.6174 24.6117)">
<stop offset="0.13" stop-color="#F4D11E"/>
<stop offset="0.51" stop-color="#F5CD20"/>
<stop offset="0.85" stop-color="#FAC326"/>
<stop offset="1" stop-color="#FDBB2A"/>
</radialGradient>
</defs>
</svg>
