<svg width="267" height="139" viewBox="0 0 267 139" fill="none" xmlns="http://www.w3.org/2000/svg">
<path d="M254.761 31.0428C256.72 33.456 258.369 36.1063 259.649 38.9121C260.283 40.3027 260.823 41.7343 261.272 43.1903C261.493 43.9143 261.743 44.6546 261.878 45.399C262.025 46.1802 262.037 46.9941 262.074 47.7835C262.111 48.5401 261.093 48.6956 260.884 47.9675C260.675 47.2272 260.401 46.5033 260.193 45.763C260 45.1004 259.865 44.4173 259.677 43.7507C259.272 42.3191 258.757 40.9162 258.164 39.5461C256.986 36.8262 255.46 34.2699 253.62 31.9181C253.056 31.1982 254.18 30.3271 254.761 31.0428Z" fill="#162D54"/>
<path d="M253.092 22.1801C256.544 25.4276 259.481 29.1087 261.829 33.1865C264.156 37.2234 266.086 41.7184 266.659 46.3361C266.761 47.1786 265.391 47.6694 265.117 46.7778C263.78 42.4628 262.409 38.2173 260.205 34.2335C257.996 30.2498 255.145 26.6178 251.828 23.4439C251.1 22.7445 252.348 21.4807 253.092 22.1801Z" fill="#162D54"/>
<path d="M4.3513 84.3239C4.40447 84.1521 4.46173 83.9844 4.51491 83.8126C4.55172 83.7022 4.61307 83.604 4.71941 83.5386C4.81348 83.4813 4.95663 83.4527 5.06707 83.4813C5.18159 83.514 5.29202 83.5795 5.34928 83.6817C5.41063 83.7881 5.42699 83.8944 5.40654 84.0171C5.37791 84.193 5.34928 84.3689 5.32065 84.5447C5.30429 84.6593 5.20204 84.7861 5.09979 84.8433C4.99753 84.9088 4.84211 84.9374 4.7235 84.9047C4.6008 84.8719 4.47809 84.8024 4.41265 84.6879C4.3513 84.5815 4.3104 84.4466 4.3513 84.3239Z" fill="#162D54"/>
<path d="M9.31675 90.3172C9.9548 91.5483 10.5888 92.7794 11.2268 94.0146C11.5377 94.6118 11.8444 95.2089 12.1512 95.8061C12.3229 96.1333 12.5152 96.4564 12.6502 96.8C12.7769 97.1272 12.8833 97.4625 13.0019 97.7938C13.1982 98.346 12.3843 98.6814 12.0653 98.2069C11.8771 97.9288 11.6849 97.6548 11.5008 97.3726C11.3209 97.0904 11.1859 96.7795 11.0387 96.4768C10.7278 95.8551 10.4211 95.2335 10.1143 94.6118L8.29423 90.9348C8.15108 90.6485 8.18789 90.309 8.48646 90.129C8.74414 89.9736 9.1695 90.035 9.31675 90.3172Z" fill="#162D54"/>
<path d="M2.34491 85.9321C3.94822 89.3187 5.73558 92.6194 7.71109 95.8138C9.6825 99.0081 11.9198 102.035 13.9075 105.217C14.4761 106.129 13.1672 107.262 12.3738 106.432C9.69068 103.626 7.55567 100.403 5.54744 97.1185C3.53104 93.8219 1.72731 90.4149 0.0953753 86.926C-0.485415 85.6908 1.75185 84.6847 2.34491 85.9321Z" fill="#162D54"/>
<path d="M257.631 80.7141C254.894 86.4647 253.267 92.518 248.236 97.9415C248.236 97.9415 248.236 97.9456 248.232 97.9456L246.273 100.866L245.279 103.623L245.463 106.506L245.467 106.522C245.63 107.721 245.909 108.854 246.097 110.011L246.273 110.968L246.24 111.103C246.252 111.251 246.301 111.386 246.301 111.533C246.33 114.846 248.15 117.848 248.907 121.046C249.336 122.866 249.819 124.727 249.868 126.576C249.909 128.192 250.338 129.521 250.661 131.091C250.988 132.691 251.524 134.572 251.798 136.294C251.753 136.282 251.745 136.249 251.696 136.241C249.782 135.955 248.363 134.449 246.808 133.631C244.767 132.552 242.469 131.766 240.166 131.051C235.274 129.533 230.583 127.774 225.323 127.059C219 126.196 212.476 125.93 205.957 125.885C206.018 125.868 206.079 125.848 206.141 125.832C204.82 125.701 199.511 125.198 196.439 125.353C192.918 125.533 186.811 125.864 186.811 125.864L179.621 127.026L179.404 126.997C177.523 127.345 175.682 127.742 173.788 128.069C169.077 128.875 143.878 128.392 138.884 128.511C136.286 128.572 114.22 128.732 111.615 128.65C108.752 128.564 105.909 128.151 103.059 127.967C100.294 127.783 97.353 127.59 94.6536 127.259C91.5778 126.879 81.6103 125.443 78.8045 124.715C74.2523 123.533 69.156 122.825 64.8492 121.447C59.9452 119.877 56.0187 117.774 52.125 115.639C50.2272 114.596 48.268 113.594 46.1617 112.662C43.8753 111.647 41.0286 110.649 39.3271 109.357C38.2883 108.572 37.8465 107.631 36.6522 106.886C35.9528 106.449 35.0612 106.158 34.2514 105.778C32.8076 105.103 32.4681 104.338 31.7482 103.467C30.8362 102.363 29.1224 101.594 27.9486 100.563C26.4966 99.2871 25.5068 97.876 24.3575 96.5304C21.9934 93.7696 20.5783 90.9065 18.7255 88.0598C17.163 85.6467 17.024 83.1231 15.0239 80.7836C12.5699 77.9206 12.4676 56.1655 13.437 53.102C13.846 51.8014 14.664 50.5539 15.1794 49.2655C15.707 47.9444 15.7642 46.6151 16.435 45.3063C17.0894 44.0261 16.6232 42.8155 17.0567 41.5394C17.4575 40.3737 18.0833 39.1303 18.8318 38.0096C20.5128 35.4697 22.6192 33.0279 24.3411 30.4962C26.2757 27.6413 30.0509 25.0523 32.9671 22.4265C35.4825 20.1606 39.3108 17.776 43.2127 16.05C47.0288 14.3649 52.6076 13.9355 55.8388 11.9068C57.6752 10.7534 59.1885 9.76769 61.5608 8.8556C63.6958 8.03759 65.6917 7.13777 67.8227 6.31566C72.8657 4.3647 78.2606 3.85753 84.367 3.26447C90.3263 2.68777 96.0237 1.28897 102.093 1.01493C108.147 0.736808 133.951 0.945403 140.033 0.969943C152.013 1.02311 181.416 4.0334 192.492 5.93938C197.916 6.87191 202.169 8.81061 206.832 10.4712C211.826 12.2504 216.317 14.3527 221.033 16.3118C230.002 20.0338 240.669 23.4572 246.964 28.5166C249.782 30.7825 250.277 33.5801 252.138 36.0464C254.224 38.8031 254.735 41.5353 255.639 44.427C256.53 47.2941 258.796 49.8381 258.678 52.7871C258.563 55.7565 259.005 77.8183 257.631 80.7141Z" fill="white"/>
<path d="M258.311 52.9205C258.429 49.9716 256.163 47.4276 255.268 44.5563C254.364 41.6647 253.853 38.9325 251.763 36.1717C249.902 33.7054 249.407 30.9037 246.589 28.6378C240.294 23.5784 229.619 20.1509 220.645 16.4248C215.925 14.4657 211.434 12.3593 206.436 10.5801C201.774 8.92364 197.512 6.98086 192.088 6.04832C181.008 4.14235 151.589 1.12796 139.605 1.07888C133.519 1.05025 107.698 0.84575 101.645 1.11978C95.5709 1.39791 89.8693 2.79263 83.906 3.37342C77.7955 3.96648 72.3966 4.47364 67.3535 6.4246C65.2226 7.24671 63.2266 8.15062 61.0916 8.96454C58.7153 9.87663 57.2019 10.8664 55.3655 12.0198C52.1343 14.0526 46.5473 14.478 42.7313 16.1672C38.8293 17.8932 34.9969 20.2777 32.4774 22.5436C29.5612 25.1735 25.7861 27.7625 23.8474 30.6174C22.1255 33.1491 20.0191 35.595 18.3381 38.1349C17.5896 39.2556 16.9638 40.499 16.563 41.6647C16.1253 42.9408 16.5957 44.1555 15.9413 45.4357C15.2705 46.7486 15.2132 48.0779 14.6815 49.399C14.1662 50.6874 13.3482 51.9348 12.9392 53.2355C11.9698 56.303 12.0721 78.0663 14.5261 80.9334C16.5303 83.273 16.6693 85.8006 18.2317 88.2138C20.0845 91.0605 21.5038 93.9235 23.8678 96.6884C25.0131 98.034 26.007 99.4451 27.4589 100.721C28.6328 101.752 30.3465 102.521 31.2627 103.629C31.9785 104.5 32.322 105.265 33.7658 105.94C34.5757 106.321 35.4673 106.611 36.1708 107.049C37.361 107.793 37.8068 108.734 38.8416 109.523C40.5431 110.816 43.3939 111.813 45.6802 112.828C47.7907 113.76 49.7498 114.762 51.6476 115.805C55.5455 117.94 59.4719 120.047 64.38 121.617C68.6909 122.996 73.7872 123.703 78.3394 124.885C81.1493 125.613 91.125 127.053 94.1966 127.429C96.9002 127.765 99.8409 127.957 102.61 128.137C105.461 128.325 108.303 128.738 111.17 128.824C113.78 128.906 135.854 128.746 138.451 128.685C143.449 128.566 168.66 129.045 173.376 128.239C175.27 127.916 177.115 127.519 178.992 127.172L179.213 127.2L186.403 126.035C186.403 126.035 192.514 125.703 196.039 125.523C199.111 125.368 204.424 125.871 205.745 126.002C205.68 126.018 205.622 126.043 205.561 126.059C212.081 126.1 218.608 126.366 224.94 127.233C230.2 127.949 234.895 129.708 239.787 131.225C242.094 131.945 244.392 132.726 246.433 133.806C247.987 134.628 249.407 136.133 251.325 136.419C251.374 136.428 251.382 136.46 251.427 136.468C251.153 134.751 250.617 132.865 250.29 131.27C249.963 129.695 249.533 128.366 249.497 126.75C249.444 124.898 248.965 123.041 248.531 121.217C247.775 118.014 245.955 115.012 245.926 111.699C245.926 111.548 245.877 111.413 245.865 111.265L245.897 111.135L245.722 110.177C245.533 109.02 245.255 107.883 245.092 106.685L245.088 106.668L244.904 103.785L245.897 101.024L247.861 98.1036L247.865 98.0995C252.896 92.676 254.523 86.6186 257.26 80.8639C258.638 77.9681 258.192 55.8899 258.311 52.9205ZM258.315 83.547C256.949 86.8109 256.258 90.2302 254.376 93.4368C252.576 96.5084 250.806 99.2774 247.771 102.1C247.48 102.374 247.214 102.656 246.936 102.934C246.679 104.23 246.605 105.564 246.916 106.775C247.317 108.337 247.803 110.407 247.848 111.985C247.951 115.278 249.464 118.321 249.922 121.564C250.184 123.417 250.593 127.609 250.646 129.078C250.716 130.984 252.662 137.344 251.734 137.536L251.73 137.532C251.509 137.728 251.243 138.493 250.83 138.448C249.227 138.276 247.484 137.593 246.241 136.894C244.135 135.712 241.631 134.62 239.169 133.908C234.318 132.501 230.224 130.971 225.103 130.17C219.512 129.294 213.467 128.918 207.774 128.734C204.236 128.62 200.804 128.595 197.283 128.906C193.487 129.237 190.076 129.691 186.354 130.448C183.348 131.065 180.325 131.671 177.237 132.178C174.947 132.554 152.922 133.119 150.533 133.254C144.836 133.577 119.285 133.131 113.522 133.225C109.616 133.29 93.849 132.35 92.2498 132.1C89.853 131.724 88.0124 130.796 85.6893 130.337C83.1943 129.847 80.544 129.642 78.0777 129.09C75.4805 128.513 73.1696 127.712 70.7155 127C65.9465 125.622 61.6642 124.517 57.6559 122.55C53.3 120.411 49.5699 117.961 45.173 115.85C42.9194 114.771 40.4449 113.818 38.2649 112.697C36.5307 111.805 35.7372 110.877 34.5429 109.801C33.1646 108.558 30.6042 107.993 29.4099 106.672C28.9314 106.136 28.7187 105.527 28.1788 105.008C27.5448 104.406 26.5264 103.956 25.7738 103.4C22.6735 101.126 20.6531 98.0054 18.9802 95.3837C17.2174 92.6351 14.9474 89.5799 14.1744 86.7209C13.7327 85.089 13.2623 83.6738 12.0066 82.1441C11.1886 81.1502 10.5301 80.2013 10.2847 79.1215C9.66712 76.3812 10.1825 54.6506 11.3809 51.9716C12.0803 50.397 12.2398 48.8264 12.7797 47.2558C13.0701 46.4214 13.7408 45.6361 13.8267 44.7813C13.884 44.2128 13.6508 43.6443 13.7326 43.0757C14.0885 40.6053 16.0926 37.9141 17.88 35.64C20.0354 32.8915 21.6674 30.0284 24.6777 27.4885C30.0398 22.9689 35.3732 17.2469 45.1035 14.7724C48.3715 13.9422 51.5535 13.4432 53.8154 11.8644C55.0751 10.981 56.1672 10.257 57.8604 9.56579C62.2 7.79069 66.3719 5.70476 71.3945 4.42865C76.4416 3.14846 82.1718 2.96031 87.4726 2.06459C93.3295 1.07888 98.5198 0.219968 104.741 0.170887C111.391 0.117716 137.768 -0.221757 144.378 0.236331C149.981 0.628978 174.657 1.9378 179.888 2.9685C182.755 3.52884 185.593 4.12599 188.444 4.71496C190.796 5.20168 193.348 5.47162 195.553 6.13012C198.158 6.90315 200.453 7.99519 202.948 8.86638C205.058 9.60259 207.181 10.3265 209.209 11.12C214.33 13.1201 219.136 15.3328 224.216 17.3615C229.059 19.292 234.024 21.1039 238.437 23.3043C242.368 25.2594 246.527 27.4394 248.744 30.0448C249.865 31.3659 250.392 32.7279 251.165 34.1021C251.971 35.5255 253.272 36.8547 254.196 38.2617C256.163 41.2557 255.894 44.4827 257.845 47.4807C259.759 50.4215 260.495 71.8699 260.626 74.9742C260.757 78.1072 259.603 80.4631 258.315 83.547Z" fill="#162D54"/>
</svg>
