<svg width="46" height="51" viewBox="0 0 46 51" fill="none" xmlns="http://www.w3.org/2000/svg">
<path fill-rule="evenodd" clip-rule="evenodd" d="M3.49382 43.6039C3.11962 43.4092 2.55471 43.0536 2.55471 41.9915C2.55471 40.5905 3.5421 40.1844 4.57778 40.1844C5.67864 40.1844 6.10112 40.6386 6.60327 40.6386C7.00643 40.6386 7.25027 40.3478 7.25027 40.0258C7.25027 39.1223 5.29237 38.9276 4.48121 38.9276C2.47262 38.9276 1.21001 40.1219 1.21001 42.0683C1.21001 44.9231 3.8994 44.9423 5.43722 45.7474C5.8428 45.9564 6.35944 46.3265 6.35944 47.3718C6.35944 48.631 5.63036 49.3591 4.19151 49.3591C2.92649 49.3591 2.22879 48.792 1.77734 48.792C1.45143 48.792 1.19312 49.0972 1.19312 49.4216C1.19312 50.2891 3.13894 50.6135 4.1722 50.6135C6.21217 50.6135 7.72103 49.3879 7.72103 47.2589C7.72103 44.4401 5.04854 44.4089 3.49382 43.6039Z" fill="#162D54"/>
<path fill-rule="evenodd" clip-rule="evenodd" d="M13.6817 47.183C15.6082 47.183 16.417 46.2818 16.417 44.7968C16.417 43.2012 15.5285 42.1703 13.73 42.1703C11.8035 42.1703 10.7654 43.3478 10.7654 44.8929V47.9087C10.7654 49.4274 11.8204 50.5856 13.6503 50.5856C14.5242 50.5856 16.2721 50.3285 16.2721 49.5355C16.2721 49.2471 16.0307 48.9732 15.7072 48.9732C15.5913 48.9732 15.5116 49.0044 15.4803 49.0213C14.9129 49.2784 14.476 49.473 13.7952 49.473C12.6291 49.473 12.0304 48.8915 12.0304 47.988V47.0388C12.5977 47.1349 13.1964 47.183 13.6817 47.183ZM12.0304 44.78C12.0304 43.8788 12.646 43.3189 13.6986 43.3189C14.6377 43.3189 15.1737 43.7491 15.1737 44.7968C15.1737 45.4576 14.9612 46.1208 13.73 46.1208C13.4065 46.1208 12.6291 46.0872 12.0304 46.0079V44.78Z" fill="#162D54"/>
<path fill-rule="evenodd" clip-rule="evenodd" d="M30.681 49.44C30.6158 49.44 30.6013 49.4569 30.553 49.4569C30.3575 49.4569 30.2609 49.2911 30.2609 48.9715V45.4246C30.2609 43.2955 29.4522 42.1733 27.4267 42.1733C26.3089 42.1733 25.0946 42.4785 25.1598 43.2186C25.1767 43.4589 25.3046 43.7521 25.6112 43.7521C25.7899 43.7521 25.983 43.6368 26.0337 43.6199C26.3886 43.4277 26.6976 43.2811 27.2625 43.2811C28.431 43.2811 28.9959 43.8314 28.9959 45.0041V45.9244C28.4962 45.7803 27.9433 45.6986 27.3615 45.6986C25.4519 45.6986 24.5104 46.5036 24.5104 48.0871V48.1496C24.5104 49.601 25.3215 50.5839 26.9873 50.5839C27.8637 50.5839 28.5927 50.2907 29.2083 49.7284C29.4522 50.2282 29.8867 50.5358 30.4227 50.5358C30.7776 50.5358 31.1518 50.3916 31.1518 49.9879C31.1518 49.7116 30.9876 49.44 30.681 49.44ZM28.9959 48.7456C28.431 49.2286 27.8806 49.4569 27.1829 49.4569C26.0989 49.4569 25.7585 48.9234 25.7585 48.1664V48.0992C25.7585 47.3759 26.0192 46.7655 27.3446 46.7655C27.8299 46.7655 28.4624 46.8448 28.9959 47.0034V48.7456Z" fill="#162D54"/>
<path fill-rule="evenodd" clip-rule="evenodd" d="M38.7602 42.2189C38.5163 42.2189 38.2725 42.3943 38.1928 42.6394L36.3315 48.7142L34.4364 42.6394C34.3398 42.3655 34.1129 42.2189 33.8715 42.2189C33.4973 42.2189 33.1255 42.5697 33.2558 42.9614L35.5059 49.8436C35.6845 50.3579 35.8945 50.5813 36.3315 50.5813C36.754 50.5813 36.9785 50.3579 37.1571 49.8292L39.3589 43.0095C39.4723 42.5865 39.1488 42.2189 38.7602 42.2189Z" fill="#162D54"/>
<path fill-rule="evenodd" clip-rule="evenodd" d="M43.374 42.2189C43.0191 42.2189 42.7439 42.5096 42.7439 42.8485V49.9566C42.7439 50.3074 43.0191 50.5813 43.374 50.5813C43.7289 50.5813 44.0041 50.3074 44.0041 49.9566V42.8485C44.0041 42.5096 43.7289 42.2189 43.374 42.2189Z" fill="#162D54"/>
<path fill-rule="evenodd" clip-rule="evenodd" d="M44.6722 38.7203C44.3801 38.7203 44.3004 38.8813 44.0735 39.0904L42.8108 40.3952C42.7457 40.4769 42.7288 40.5586 42.7288 40.6379C42.7288 40.9744 42.9726 41.2002 43.2647 41.2002C43.4723 41.2002 43.5882 41.0897 43.7813 40.9119L45.0946 39.5253C45.1574 39.446 45.1743 39.3307 45.1743 39.2538C45.1743 38.9462 44.8991 38.7203 44.6722 38.7203Z" fill="#162D54"/>
<path fill-rule="evenodd" clip-rule="evenodd" d="M13.0439 9.67636C12.8822 9.66194 12.7156 9.68837 12.5635 9.74604C12.4524 9.7893 12.3559 9.85658 12.2569 9.92387C12.0034 9.80852 11.7427 9.70759 11.4578 9.68837C11.1391 9.65233 10.777 9.82054 10.6925 10.1233C10.8446 9.84697 11.1705 9.78449 11.4288 9.8686C11.6968 9.94069 11.9382 10.1017 12.1651 10.2747L12.1676 10.2771L12.2979 10.3708L12.3969 10.2435C12.5466 10.0584 12.788 9.88782 13.0463 9.85898C13.3119 9.81813 13.5968 9.93588 13.8237 10.1233C13.6402 9.89743 13.3746 9.69798 13.0439 9.67636Z" fill="#162D54"/>
<path fill-rule="evenodd" clip-rule="evenodd" d="M15.3459 10.989C15.2348 11.0323 15.1407 11.0995 15.0417 11.1668C14.7882 11.0515 14.5275 10.9481 14.2402 10.9313C13.9215 10.8929 13.5594 11.0611 13.4773 11.3639C13.627 11.0899 13.9529 11.0274 14.2136 11.1091C14.4792 11.1836 14.723 11.3446 14.9475 11.5153L14.9499 11.5177L15.0827 11.6114L15.1817 11.4864C15.329 11.3014 15.5704 11.1308 15.8287 11.0995C16.0967 11.0587 16.3791 11.1788 16.6061 11.3639C16.425 11.138 16.157 10.9409 15.8263 10.9193C15.6645 10.9025 15.5004 10.9313 15.3459 10.989Z" fill="#162D54"/>
<path fill-rule="evenodd" clip-rule="evenodd" d="M16.3383 8.55843C16.2417 8.54402 16.1379 8.55363 16.0438 8.58487C15.9882 8.60169 15.9375 8.63773 15.8868 8.66417C15.7516 8.61611 15.614 8.56324 15.4619 8.56324C15.2736 8.55363 15.0636 8.67138 15.0322 8.8468C15.1312 8.70021 15.3074 8.6906 15.4378 8.74587C15.573 8.79874 15.6937 8.89726 15.8096 8.99818V9.00059L15.9569 9.13035L16.0389 8.96935C16.0607 8.9285 16.1138 8.86842 16.1645 8.82997C16.2176 8.78912 16.2755 8.75788 16.3407 8.74106C16.4735 8.70502 16.6377 8.75308 16.7728 8.8468C16.6811 8.71223 16.5387 8.58487 16.3383 8.55843Z" fill="#162D54"/>
<path fill-rule="evenodd" clip-rule="evenodd" d="M11.2273 33.9315C11.2466 33.9555 11.2732 33.97 11.3021 33.97C11.3215 33.97 11.3408 33.9652 11.3552 33.9531C23.4961 25.6964 36.8368 28.8948 36.9696 28.9261C37.0203 28.9381 37.0686 28.9116 37.0806 28.8612C37.0927 28.8131 37.0637 28.765 37.013 28.7506C36.8803 28.7194 23.4623 25.497 11.2514 33.7994C11.208 33.833 11.2007 33.8859 11.2273 33.9315Z" fill="#162D54"/>
<path fill-rule="evenodd" clip-rule="evenodd" d="M12.8976 34.5458C12.8541 34.5722 12.8372 34.6251 12.8662 34.6683C12.8807 34.6972 12.9145 34.7116 12.9435 34.7116C12.9604 34.7116 12.9748 34.7092 12.9893 34.702C24.0317 28.137 35.0524 30.5159 35.1635 30.54C35.2069 30.5448 35.26 30.5208 35.2697 30.4727C35.2818 30.4222 35.2528 30.3742 35.2021 30.3622C35.0911 30.3405 24.0028 27.9399 12.8976 34.5458Z" fill="#162D54"/>
<path fill-rule="evenodd" clip-rule="evenodd" d="M14.6707 35.427C14.6876 35.4607 14.7189 35.4799 14.7527 35.4799C14.7672 35.4799 14.7817 35.4775 14.7938 35.4727C24.3008 30.9094 32.5862 32.058 32.6707 32.0724C32.719 32.0772 32.7673 32.0412 32.7745 31.9907C32.7793 31.9427 32.7455 31.8946 32.6949 31.8874C32.6128 31.8778 24.2766 30.7219 14.7141 35.3069C14.6682 35.3285 14.6489 35.3838 14.6707 35.427Z" fill="#162D54"/>
<path fill-rule="evenodd" clip-rule="evenodd" d="M37.8921 2.06659C37.8872 2.05217 37.8848 2.03775 37.8776 2.02333L37.8631 1.96326L37.8414 1.96086C36.8395 0.19945 25.3553 0 20.2879 0C15.1216 0 3.28976 0.206659 2.68622 2.06419L2.67656 2.09783C2.4279 2.97493 -3.30575 23.6648 2.81175 29.7517C8.13258 35.0527 17.4151 37.5759 19.6699 38.1286V48.9373C19.6699 50.3863 20.2879 50.581 20.6911 50.581C21.0146 50.581 21.2729 50.3238 21.2729 50.0018C21.2729 49.8745 21.2077 49.7591 21.1619 49.6967C20.9663 49.502 20.9349 49.2905 20.9349 48.9373V39.3949C20.9349 39.3901 20.9325 39.3829 20.9325 39.3757V38.1214C23.2356 37.5566 32.4674 35.0263 37.7641 29.7517C43.8792 23.6648 38.1455 2.97493 37.8993 2.09783L37.8921 2.06659ZM20.2879 1.05732C28.9572 1.05732 34.4422 1.64126 36.277 2.14589C35.2799 2.45107 33.0975 2.90524 28.5637 3.16476C26.7217 3.26569 24.5972 3.33538 22.1855 3.36181C22.0527 3.36421 21.9247 3.36662 21.792 3.36662C21.466 3.36902 21.1281 3.36902 20.7925 3.36902C20.6235 3.36902 20.4593 3.37142 20.2879 3.37142C20.1286 3.37142 19.9765 3.36902 19.822 3.36902C19.455 3.36902 19.0857 3.36902 18.7308 3.36662C18.6487 3.36662 18.5715 3.36421 18.4918 3.36421C14.8947 3.32817 11.9156 3.18879 9.59074 3.00617C6.56579 2.74424 5.01589 2.40301 4.2506 2.16031C6.0395 1.65087 11.5438 1.05732 20.2879 1.05732ZM1.12425 21.0071C3.08938 20.6971 10.414 20.0507 16.6136 26.0943C16.4156 26.1808 16.2176 26.2553 16.0221 26.3442C10.0011 21.245 3.29942 21.6968 1.17495 22.0092C1.1508 21.6824 1.13632 21.3435 1.12425 21.0071ZM3.31631 17.578L3.36701 17.6477L3.49979 17.5852C3.70017 17.4915 3.8933 17.6333 3.92227 17.8255L2.7007 18.5777C2.61862 18.4936 2.56309 18.3878 2.56309 18.2605C2.56309 18.1499 2.61379 18.0514 2.6838 17.9673L3.31631 17.578ZM2.73691 17.703C2.73691 17.5372 2.87211 17.4026 3.03627 17.4026C3.11111 17.4026 3.16905 17.4507 3.22458 17.4987L2.74898 17.7919L2.74416 17.7703C2.73933 17.7438 2.73691 17.7246 2.73691 17.703ZM3.88847 17.9865C3.86916 18.0226 3.87157 18.0658 3.83777 18.0947L3.70258 18.2148L3.82329 18.347C3.88364 18.4119 3.90537 18.5008 3.91744 18.5873L3.25355 19.0006C3.18595 18.9549 3.11835 18.9021 3.08455 18.8252L3.04593 18.7411L2.95419 18.7267C2.89866 18.7146 2.86245 18.6714 2.81417 18.645L3.88847 17.9865ZM3.90296 18.7339C3.85709 18.9309 3.705 19.0895 3.49255 19.0895C3.45151 19.0895 3.4153 19.0751 3.37667 19.0631L3.90296 18.7339ZM6.03225 14.1754L6.00328 14.0408L7.97808 12.8273C8.05533 12.8897 8.14465 12.9378 8.20742 13.0243L8.27985 13.1228L5.60736 14.7665C5.68944 14.5959 5.78601 14.4277 5.9212 14.2883L6.03225 14.1754ZM5.96466 13.7476C5.96466 13.0652 6.52233 12.5125 7.20554 12.5125C7.41316 12.5125 7.61354 12.5701 7.78977 12.6639L5.96949 13.7861C5.96949 13.7741 5.96466 13.7596 5.96466 13.7476ZM8.83752 13.0556C8.92926 13.0339 9.02341 12.9907 9.11515 12.9907C9.27931 12.9907 9.43141 13.0291 9.57384 13.0844L5.43113 15.6316C5.42871 15.5955 5.41423 15.5643 5.41423 15.5307C5.41423 15.3841 5.46251 15.2495 5.49631 15.1125L8.83752 13.0556ZM9.80077 13.2214C9.9239 13.3007 10.0277 13.3944 10.1146 13.5097L5.60253 16.2852C5.54218 16.1578 5.50597 16.0233 5.477 15.8815L9.80077 13.2214ZM10.2474 13.7044C10.3102 13.8317 10.344 13.9711 10.3609 14.1177L5.9888 16.8067C5.88499 16.7105 5.79808 16.6072 5.72324 16.4871L10.2474 13.7044ZM10.3584 14.394C10.3295 14.6415 10.2233 14.8674 10.0615 15.0597L6.63097 17.1695C6.47646 17.1094 6.3123 17.0614 6.17952 16.9677L10.3584 14.394ZM9.80801 15.4922L9.92872 15.6244C9.98184 15.6844 10.0156 15.7565 10.0567 15.8238L7.20554 17.5756C7.17899 17.53 7.12829 17.5035 7.10656 17.4555L7.04138 17.3137L6.89411 17.2849L9.80801 15.4922ZM10.1798 16.0233C10.2353 16.1506 10.2788 16.2852 10.3077 16.4246L7.62078 18.0778C7.51214 17.9913 7.44696 17.864 7.35763 17.7582L10.1798 16.0233ZM10.356 16.6721C10.356 16.7033 10.3729 16.7322 10.3729 16.7634C10.3729 16.9196 10.3222 17.0542 10.2836 17.1959L8.34503 18.3902C8.19777 18.3614 8.04326 18.3542 7.90806 18.2869C7.87668 18.2725 7.85495 18.2437 7.82598 18.2292L10.356 16.6721ZM10.1508 17.5564C9.86354 18.0875 9.32035 18.4575 8.67577 18.4623L10.1508 17.5564ZM13.6852 17.8952L13.7552 17.9913L13.9773 17.888C14.1535 17.8039 14.3298 17.8231 14.4891 17.8832L12.0797 19.3635C12.0773 19.3394 12.0677 19.3202 12.0677 19.2938C12.0677 19.1111 12.1329 18.9477 12.2246 18.7939L13.6852 17.8952ZM12.4129 18.1812C12.4129 17.8183 12.7098 17.5203 13.0768 17.5203C13.2482 17.5203 13.4003 17.5996 13.5234 17.7198L12.4419 18.383L12.4298 18.3254C12.4177 18.2749 12.4129 18.2268 12.4129 18.1812ZM14.716 18.0178C14.8198 18.1139 14.8874 18.234 14.9164 18.3758L12.3332 19.9642C12.2415 19.8633 12.1691 19.7431 12.1232 19.611L14.716 18.0178ZM14.8657 18.6834C14.8295 18.7963 14.8126 18.9237 14.716 19.0102L14.4891 19.2049L14.605 19.3322L13.043 20.3078L12.8982 20.2814C12.7581 20.255 12.6374 20.1973 12.524 20.1252L14.8657 18.6834ZM14.7498 19.5197C14.8319 19.635 14.885 19.76 14.9092 19.8993L13.4486 20.7981C13.3375 20.7139 13.2361 20.625 13.1685 20.5049L14.7498 19.5197ZM14.9212 20.1661C14.8657 20.6419 14.477 21.0167 13.9869 21.0167C13.8735 21.0167 13.7697 20.9783 13.6634 20.9398L14.9212 20.1661ZM1.22806 22.6484C3.18595 22.3552 9.55694 21.8794 15.3534 26.6229C15.2496 26.671 15.1482 26.7191 15.0443 26.7695C14.9188 26.8296 14.7981 26.9089 14.6726 26.9714C9.16826 23.0857 3.45875 23.3645 1.35118 23.648C1.3029 23.3212 1.26186 22.9896 1.22806 22.6484ZM1.45982 24.28C3.45392 24.0109 8.81338 23.7369 14.0497 27.3078C13.789 27.4448 13.5283 27.5818 13.2699 27.7307C8.48022 24.9456 3.79191 25.0298 1.66985 25.2701C1.58777 24.9505 1.52259 24.6188 1.45982 24.28ZM1.85574 25.8924C3.88606 25.6738 8.17604 25.6281 12.6157 28.084C12.5988 28.096 12.5819 28.1008 12.5626 28.1128C12.4805 28.1633 12.3984 28.2161 12.3163 28.2666C12.1425 28.3747 11.9759 28.5093 11.8045 28.6174C7.91772 26.8032 4.27233 26.7143 2.21062 26.8777C2.07785 26.5677 1.96197 26.2361 1.85574 25.8924ZM2.50757 27.4976C4.46546 27.3631 7.71252 27.4928 11.201 29.0356C10.8968 29.2398 10.595 29.4393 10.2957 29.658C7.51697 28.6487 4.97726 28.4444 3.16422 28.4973C2.9228 28.1921 2.7007 27.8629 2.50757 27.4976ZM3.69051 29.1269C5.30076 29.1221 7.39143 29.3359 9.67524 30.1025C9.38312 30.3308 9.10308 30.6071 8.81579 30.8498C7.39385 30.4654 6.0733 30.2731 4.90484 30.2034C4.48236 29.8574 4.07436 29.5018 3.69051 29.1269ZM5.80291 30.9123C6.5682 30.9964 7.3866 31.1358 8.24363 31.3449C7.9829 31.5731 7.71493 31.7822 7.45903 32.0249C6.89411 31.6717 6.33644 31.304 5.80291 30.9123ZM20.2879 37.189C20.0586 37.1361 19.5757 37.0184 18.9118 36.8381C21.623 35.9082 24.293 35.3723 26.77 35.1488C23.5881 36.3864 20.9349 37.0376 20.2879 37.189ZM29.8818 33.7719C29.8843 33.7623 29.8963 33.7647 29.8987 33.7575C29.8987 33.707 29.8577 33.6638 29.8094 33.6614C29.7394 33.659 22.9652 33.4259 17.1833 36.0692C17.1374 36.0908 17.1181 36.1437 17.1398 36.1893C17.1543 36.223 17.1881 36.2422 17.2219 36.2422C17.234 36.2422 17.2461 36.2398 17.2606 36.2326C22.7311 33.7335 29.0972 33.8248 29.7346 33.844C29.37 34.0146 29.0031 34.2093 28.6385 34.3703C25.348 34.5096 21.6085 35.108 17.8255 36.5258C17.3547 36.3864 16.8381 36.223 16.2804 36.0379C21.565 33.6638 26.9003 33.0774 31.1251 33.1712C30.7099 33.3922 30.2971 33.5725 29.8818 33.7719ZM32.1922 32.5848C27.5956 32.3589 21.4685 32.8804 15.433 35.752C15.0299 35.6078 14.6122 35.4588 14.1849 35.293C21.3767 31.3473 28.9162 31.0685 33.8821 31.5275C33.3293 31.9 32.7668 32.2556 32.1922 32.5848ZM34.7053 30.958C29.568 30.3861 21.1932 30.4606 13.3496 34.9662C13.0285 34.8388 12.705 34.7043 12.3743 34.5625C21.157 28.8746 30.9248 29.2134 35.9824 29.9511C35.5744 30.302 35.1471 30.636 34.7053 30.958ZM37.0133 29.0067C36.8805 29.1413 36.7308 29.2639 36.5932 29.3936C31.5235 28.591 21.0025 28.0239 11.6742 34.2573C11.3748 34.1203 11.0755 33.9786 10.7761 33.8368C20.8963 26.2745 32.8802 27.5121 37.4937 28.3892C37.3368 28.5982 37.1944 28.8265 37.0133 29.0067ZM38.1624 27.2982C38.1504 27.2862 38.1576 27.2646 38.1383 27.2573C38.1021 27.2477 34.2949 26.1664 28.9138 26.3658C23.9478 26.5436 16.587 27.8653 9.72593 33.1639C9.68489 33.1952 9.67765 33.2529 9.70662 33.2913C9.72593 33.3153 9.75249 33.3273 9.77905 33.3273C9.79836 33.3273 9.82009 33.3201 9.83457 33.3081C16.6594 28.0431 23.9744 26.7239 28.9138 26.5461C34.2636 26.3586 38.0514 27.4232 38.0876 27.4328C38.0948 27.4352 38.0948 27.4232 38.1021 27.4256C38.0369 27.5529 37.9838 27.6947 37.9138 27.8148C33.3703 26.9161 20.708 25.4551 10.1388 33.5268C9.89734 33.4066 9.65834 33.2817 9.41933 33.1567C20.5752 23.7345 34.5967 25.9213 38.4183 26.7671C38.3411 26.9546 38.2469 27.1228 38.1624 27.2982ZM38.6404 26.1568C34.8671 25.3085 20.3193 22.9415 8.81338 32.8227C8.67336 32.7482 8.53333 32.6641 8.39331 32.5848C8.41021 32.6016 8.43194 32.6137 8.45608 32.6137C8.47781 32.6137 8.49954 32.604 8.51644 32.5896C15.3992 26.5485 23.2549 24.9889 28.6289 24.7414C34.4591 24.4747 38.7201 25.6545 38.7612 25.669C38.7756 25.6714 38.778 25.6521 38.7925 25.6497C38.7394 25.8179 38.696 25.9934 38.6404 26.1568ZM38.8287 25.5248C38.8191 25.5152 38.8263 25.4959 38.8118 25.4935C38.7684 25.4791 34.4977 24.2944 28.6289 24.5612C23.2187 24.8039 15.3172 26.3754 8.39573 32.4551C8.3571 32.4863 8.35227 32.5464 8.38848 32.5824C8.26778 32.5127 8.14465 32.4502 8.02636 32.3758C19.8751 21.2738 35.7724 24.2704 38.9784 25.0249C38.9374 25.2004 38.8794 25.3566 38.8287 25.5248ZM19.921 24.1647C19.9644 24.1166 20.0296 24.0806 20.0369 24.0109C20.1793 23.9724 20.3217 23.9436 20.4642 23.9051C20.51 23.97 20.5776 24.0061 20.6501 24.0229L20.7973 24.6501C20.7442 24.6645 20.6911 24.6765 20.638 24.6909C20.172 24.8135 19.6989 24.9841 19.2281 25.1331L18.9915 24.4386C19.0326 24.3906 19.0929 24.3545 19.1026 24.2896C19.245 24.244 19.3923 24.1959 19.5347 24.1551C19.5806 24.2103 19.6385 24.244 19.7037 24.2632L19.9113 24.9048L20.1382 24.8351L19.921 24.1647ZM19.0036 25.2028C18.796 25.2725 18.5884 25.3277 18.3783 25.3998L18.0983 24.6933C18.1248 24.6477 18.1779 24.6236 18.1828 24.5684C18.3276 24.5227 18.4701 24.4819 18.6149 24.4362C18.6584 24.4867 18.7163 24.5203 18.7767 24.5371L19.0036 25.2028ZM20.8649 23.9075C20.8963 23.8619 20.9567 23.8403 20.9663 23.7826C21.1087 23.7465 21.2536 23.7057 21.396 23.6745C21.4419 23.7417 21.5095 23.7802 21.5819 23.7994L21.7244 24.4434C21.4926 24.4963 21.2633 24.5395 21.0291 24.5972L20.8649 23.9075ZM21.7992 23.6913C21.8378 23.6432 21.9006 23.6192 21.9102 23.5543C22.0527 23.5255 22.1927 23.5014 22.3327 23.4726C22.3714 23.5327 22.4269 23.5711 22.4872 23.5976L22.6297 24.2392C22.4052 24.2848 22.1806 24.3401 21.9561 24.3906L21.7992 23.6913ZM22.7118 23.5231C22.7649 23.475 22.8325 23.4438 22.8445 23.3717C22.9918 23.3428 23.1391 23.314 23.2815 23.2876C23.3274 23.3573 23.3853 23.3981 23.465 23.4149L23.5953 24.0397C23.5374 24.0493 23.4795 24.0541 23.4191 24.0661C23.366 24.0758 23.3129 24.0878 23.2598 24.0974C23.1294 24.1214 22.9918 24.1599 22.859 24.1887L22.7118 23.5231ZM23.6967 23.3621C23.7523 23.3188 23.7836 23.2659 23.7957 23.1963C23.943 23.1722 24.0854 23.1554 24.2303 23.1338C24.2713 23.2011 24.3268 23.2419 24.4017 23.2611L24.5272 23.9027C24.293 23.9388 24.0637 23.9652 23.8295 24.0061L23.6967 23.3621ZM24.6358 23.2131C24.689 23.1722 24.7203 23.1242 24.7372 23.0569C24.8869 23.0377 25.0366 23.0112 25.1839 22.992C25.2201 23.0521 25.2635 23.0929 25.3311 23.1146L25.4349 23.7706C25.2128 23.797 24.9835 23.8379 24.759 23.8691L24.6358 23.2131ZM25.5677 23.0929C25.6329 23.0545 25.6739 23.004 25.6981 22.9319C25.8478 22.9127 25.995 22.8983 26.1471 22.8839C26.1857 22.9463 26.2389 22.9848 26.3113 23.0064L26.4078 23.6576C26.3137 23.6672 26.2244 23.6696 26.1302 23.6793C26.0047 23.6937 25.8743 23.7105 25.7464 23.7249C25.7198 23.7273 25.6933 23.7345 25.6691 23.7369L25.5677 23.0929ZM26.5455 22.9656C26.5962 22.9319 26.6275 22.8911 26.6493 22.8334C26.8014 22.819 26.9631 22.7974 27.1128 22.7853C27.1538 22.855 27.2118 22.8959 27.2914 22.9175L27.3566 23.5855C27.12 23.6 26.8859 23.6168 26.6468 23.6384L26.5455 22.9656ZM27.5232 22.8743C27.5691 22.843 27.5956 22.8046 27.6173 22.7517C27.7719 22.7421 27.9264 22.7349 28.0785 22.7253C28.1147 22.7781 28.1557 22.8094 28.2161 22.8358L28.2595 23.5159C28.245 23.5159 28.2305 23.5159 28.2136 23.5183C28.0109 23.5279 27.7984 23.5519 27.5908 23.5639L27.5232 22.8743ZM29.1866 23.4846C29.0272 23.4894 28.8751 23.487 28.7134 23.4942C28.641 23.4966 28.5661 23.499 28.4937 23.5038L28.4526 22.819C28.5106 22.7877 28.5468 22.7493 28.5734 22.694C28.7327 22.6868 28.8848 22.682 29.0417 22.6748C29.0707 22.7277 29.1093 22.7589 29.1648 22.7853L29.1866 23.4822C28.9958 23.487 28.8148 23.487 28.6216 23.4942C28.8148 23.487 28.9958 23.4894 29.1866 23.4846ZM29.4207 23.475L29.4014 22.7829C29.4618 22.7565 29.5028 22.7205 29.5318 22.6628C29.6863 22.658 29.8456 22.6532 29.9953 22.6508C30.0291 22.706 30.0726 22.7397 30.1329 22.7661L30.145 23.4606C29.9108 23.4606 29.6646 23.4702 29.4207 23.475ZM30.145 23.4678V23.4702C29.9084 23.4702 29.6646 23.475 29.4231 23.4798C29.6646 23.475 29.9084 23.4678 30.145 23.4678ZM30.384 23.4606L30.3719 22.7541C30.4226 22.7253 30.4564 22.694 30.483 22.646C30.6471 22.646 30.8016 22.6484 30.961 22.6484C30.9875 22.6964 31.0213 22.7277 31.0696 22.7541V23.475C30.8861 23.4702 30.7099 23.463 30.5216 23.463C30.4757 23.463 30.4274 23.4654 30.384 23.4654V23.463H30.4226C30.4105 23.463 30.3961 23.4606 30.384 23.4606ZM31.3038 23.4822V22.7685C31.3666 22.7445 31.4124 22.7108 31.4462 22.6556C31.6056 22.658 31.7673 22.6604 31.9242 22.6652C31.9532 22.7229 31.9966 22.7589 32.057 22.7853L32.0039 23.5014C31.8832 23.4966 31.7673 23.4942 31.6466 23.4894C31.5331 23.487 31.4172 23.4846 31.3038 23.4822ZM32.2381 23.5111L32.2912 22.7829C32.3419 22.7613 32.3781 22.7325 32.4095 22.6868C32.5688 22.6916 32.7354 22.6964 32.8875 22.706C32.9116 22.7541 32.9406 22.7853 32.984 22.8166L32.9358 23.5471C32.8126 23.5399 32.6968 23.5303 32.5712 23.5231C32.4626 23.5183 32.3491 23.5159 32.2381 23.5111ZM33.1723 23.5639L33.2158 22.8526C33.2882 22.8334 33.3413 22.7974 33.3824 22.7373C33.5393 22.7445 33.6914 22.7565 33.8411 22.7685C33.8676 22.8334 33.9111 22.8767 33.9763 22.9103L33.8966 23.6192C33.8073 23.612 33.7228 23.6024 33.6335 23.5952C33.4838 23.5855 33.3244 23.5759 33.1723 23.5639ZM34.1332 23.6384L34.2129 22.9175C34.2708 22.8935 34.307 22.8574 34.3408 22.807C34.5026 22.8214 34.6474 22.8382 34.7995 22.8526C34.8236 22.9175 34.8599 22.9608 34.9154 22.9944L34.8357 23.7081C34.6981 23.6937 34.5653 23.6769 34.4205 23.6624C34.3287 23.6528 34.2273 23.6456 34.1332 23.6384ZM35.0723 23.7369L35.152 23.0232C35.2196 23.0016 35.2678 22.9632 35.3041 22.9031C35.4682 22.9223 35.6058 22.9415 35.7555 22.9608C35.7772 23.0304 35.8448 23.0569 35.8979 23.1001L35.8014 23.8234C35.6662 23.8042 35.5334 23.7874 35.391 23.7706C35.2896 23.7586 35.1785 23.7465 35.0723 23.7369ZM36.0356 23.8523L36.1297 23.1578C36.1876 23.129 36.2383 23.0881 36.2721 23.028C36.4315 23.0497 36.5691 23.0713 36.7067 23.0929C36.7188 23.165 36.7888 23.1963 36.8419 23.2443L36.7429 23.9556C36.516 23.922 36.2818 23.8883 36.0356 23.8523ZM36.9771 23.9941L37.0712 23.3164C37.134 23.29 37.1919 23.2443 37.2282 23.1794C37.402 23.2083 37.5444 23.2347 37.6506 23.2563C37.6579 23.3284 37.7279 23.3573 37.7738 23.4077L37.653 24.1118C37.5541 24.095 37.4647 24.0758 37.3633 24.0589C37.2378 24.0373 37.1099 24.0157 36.9771 23.9941ZM39.0919 24.405C38.8891 24.3569 38.6549 24.304 38.3676 24.2464C38.2856 24.232 38.2107 24.2127 38.1238 24.1959C38.0514 24.1839 37.9645 24.1671 37.8848 24.1527L37.9959 23.499C38.1069 23.4726 38.2035 23.4077 38.23 23.29C38.2638 23.1242 38.1576 22.9656 37.9934 22.9295C37.8872 22.9055 37.7931 22.956 37.7231 23.0304C37.6072 23.0064 37.4454 22.98 37.2451 22.9439C37.2088 22.8478 37.1437 22.7661 37.035 22.7469C36.924 22.7277 36.8322 22.7829 36.7646 22.8646C36.6174 22.843 36.4701 22.819 36.2963 22.7926C36.2601 22.6916 36.1901 22.6027 36.0718 22.5835C35.9511 22.5667 35.8569 22.634 35.7941 22.7277C35.6396 22.7084 35.4996 22.6916 35.333 22.6724C35.2968 22.5619 35.222 22.4705 35.0989 22.4561C34.9733 22.4417 34.8768 22.5162 34.8188 22.6195C34.6691 22.6051 34.5267 22.5883 34.3674 22.5739C34.3312 22.4633 34.2539 22.3696 34.1308 22.3576C34.0028 22.3432 33.9038 22.4273 33.8483 22.5354C33.7059 22.5234 33.561 22.5138 33.4138 22.5018C33.3751 22.3864 33.2906 22.2927 33.1627 22.2831C33.0347 22.2735 32.9382 22.36 32.8875 22.4705C32.7426 22.4633 32.5881 22.4585 32.4409 22.4513C32.4046 22.3336 32.3129 22.2351 32.1801 22.2302C32.0522 22.2278 31.958 22.3168 31.9122 22.4297C31.7673 22.4249 31.6176 22.4249 31.4704 22.4201C31.4293 22.3047 31.34 22.2086 31.2096 22.2086C31.0769 22.2062 30.9851 22.2975 30.9417 22.4153C30.7944 22.4129 30.652 22.4105 30.5023 22.4105C30.4588 22.2951 30.3647 22.2038 30.2343 22.2038C30.1039 22.2062 30.0146 22.2999 29.9736 22.4177C29.8311 22.4201 29.6863 22.4249 29.5414 22.4273C29.4932 22.3168 29.4014 22.2278 29.2711 22.2302C29.1455 22.2351 29.0586 22.3264 29.0176 22.4417C28.8703 22.4465 28.723 22.4513 28.5734 22.4585C28.5202 22.348 28.4285 22.2639 28.2981 22.2735C28.1726 22.2831 28.0881 22.3768 28.0519 22.4922C27.9046 22.4994 27.7574 22.5066 27.6077 22.5186C27.5546 22.4129 27.4604 22.336 27.3349 22.3432C27.2118 22.3552 27.1345 22.4441 27.0935 22.5498C26.9438 22.5619 26.7845 22.5835 26.6299 22.5979C26.572 22.4946 26.4754 22.4201 26.3499 22.4345C26.2268 22.4465 26.1519 22.5402 26.1157 22.6484C25.9661 22.6676 25.8164 22.6796 25.6643 22.6964C25.6015 22.6027 25.5074 22.5354 25.3891 22.5474C25.2684 22.5619 25.1959 22.6508 25.1597 22.7589C25.0052 22.7781 24.8483 22.8046 24.6914 22.8262C24.6286 22.7397 24.5369 22.6772 24.4234 22.694C24.3099 22.7108 24.2399 22.7974 24.2037 22.8983C24.0492 22.9223 23.8971 22.9415 23.7402 22.9656C23.6726 22.8839 23.5809 22.8262 23.4674 22.8454C23.3588 22.867 23.2912 22.9512 23.2574 23.0521C23.1004 23.0785 22.9435 23.1146 22.7866 23.1434C22.719 23.0617 22.6248 23.004 22.5114 23.0256C22.3979 23.0473 22.3327 23.1362 22.3013 23.2395C22.1468 23.2707 21.9972 23.2948 21.8427 23.3284C21.7702 23.2491 21.6737 23.1939 21.5626 23.2203C21.4491 23.2467 21.3864 23.338 21.3574 23.4414C21.2053 23.475 21.0508 23.5183 20.8963 23.5543C20.8239 23.4774 20.7273 23.4245 20.6163 23.451C20.5052 23.4798 20.4448 23.5711 20.4159 23.6745C20.2638 23.7129 20.1141 23.7441 19.962 23.7874C19.8872 23.7081 19.7858 23.6576 19.6747 23.6913C19.5613 23.7225 19.5033 23.8186 19.4792 23.9244C19.3295 23.9676 19.1774 24.0181 19.0277 24.0637C18.9505 23.9868 18.8515 23.9364 18.738 23.97C18.6246 24.0037 18.569 24.0998 18.5521 24.2103C18.4 24.256 18.2504 24.2992 18.0983 24.3473C18.021 24.2728 17.9172 24.2247 17.8062 24.2632C17.6444 24.3161 17.5599 24.4891 17.6154 24.6453C17.6565 24.7702 17.7748 24.8279 17.9003 24.8303L18.1538 25.4719C18.1441 25.4743 18.1369 25.4767 18.1272 25.4815C18.0307 25.5128 17.9341 25.5464 17.8375 25.5824C17.6468 25.6521 17.4561 25.7434 17.2654 25.8203C16.2128 24.7726 15.1288 23.9268 14.0425 23.2227V21.591C14.8657 21.5598 15.532 20.8918 15.532 20.0627C15.532 19.981 15.4789 19.9113 15.4644 19.832L15.4861 19.82L15.4379 19.7407C15.3992 19.5725 15.3872 19.3947 15.2954 19.2457C15.4523 19.0294 15.5417 18.7699 15.5417 18.5008C15.5417 17.8015 14.9719 17.2344 14.2694 17.2344C14.1559 17.2344 14.0473 17.2464 13.9362 17.2776C13.7045 17.059 13.3979 16.934 13.0768 16.934C12.3839 16.934 11.8214 17.4939 11.8214 18.1812C11.8214 18.222 11.8238 18.2605 11.8287 18.3013C11.6017 18.5825 11.4786 18.9285 11.4786 19.2938C11.4786 20.0147 11.959 20.6346 12.6447 20.8245C12.7968 21.0888 13.0237 21.3051 13.2989 21.4421C13.3472 21.4637 13.4027 21.4565 13.4534 21.4757V22.8406C11.7876 21.8458 10.1315 21.221 8.5792 20.8173V19.0342C8.61059 19.0342 8.63473 19.0535 8.66611 19.0535C9.93114 19.0535 10.9644 18.0274 10.9644 16.7634C10.9644 16.29 10.8147 15.8286 10.5395 15.4465C10.822 15.1125 10.9813 14.692 10.9813 14.2571C10.9813 13.2358 10.1436 12.4019 9.11515 12.4019C8.92202 12.4019 8.72647 12.4356 8.53575 12.4981C8.19294 12.1352 7.7101 11.9237 7.20554 11.9237C6.19642 11.9237 5.3756 12.7408 5.3756 13.7476C5.3756 13.8269 5.38043 13.9086 5.3925 13.9927C5.02313 14.4229 4.82276 14.9611 4.82276 15.5307C4.82276 16.6288 5.57598 17.5732 6.63338 17.8327C6.86031 18.2533 7.21278 18.5969 7.64251 18.8132C7.73907 18.8612 7.85254 18.8516 7.95393 18.8853L7.96359 18.9021L7.98049 18.8925C7.9829 18.8925 7.98773 18.8925 7.99015 18.8949V20.6635C6.3123 20.2814 4.78413 20.1709 3.55049 20.1805V19.4331C3.96573 19.3995 4.29647 19.0655 4.29647 18.645C4.29647 18.5008 4.25543 18.359 4.18059 18.2364C4.25784 18.1283 4.3013 17.9961 4.3013 17.864C4.3013 17.4435 3.88847 17.119 3.47806 17.22C3.35736 17.1118 3.20043 17.0494 3.03627 17.0494C2.67656 17.0494 2.38203 17.3425 2.38203 17.703C2.38203 17.7222 2.38203 17.739 2.38444 17.7534C2.27098 17.8976 2.20821 18.0778 2.20821 18.2605C2.20821 18.6305 2.45446 18.9477 2.8021 19.0511C2.83831 19.1111 2.90349 19.14 2.95177 19.188L2.94695 19.1928L3.00971 19.2914L3.0411 19.2721C3.07731 19.2962 3.09662 19.3394 3.13525 19.3586C3.15456 19.3707 3.17629 19.3659 3.19561 19.3731V20.1853C2.28064 20.2093 1.57811 20.291 1.10493 20.3631C0.981812 13.4136 3.00006 5.06074 3.52152 3.04221C5.56873 3.9145 10.863 4.24612 15.3678 4.36627C15.5537 4.37108 15.7445 4.37588 15.9376 4.38069C15.9738 4.38069 16.0076 4.38069 16.0438 4.38309C16.5846 4.39511 17.1471 4.40472 17.7313 4.41433C17.8593 4.41433 17.9896 4.41673 18.1152 4.41914H18.3952C19.0881 4.42634 19.7278 4.42875 20.2879 4.42875C24.7397 4.42875 34.1573 4.27736 37.0519 3.04221C37.6917 5.51731 40.4945 17.1335 39.0919 24.405Z" fill="#162D54"/>
</svg>
