<svg width="59" height="66" viewBox="0 0 59 66" fill="none" xmlns="http://www.w3.org/2000/svg">
<path fill-rule="evenodd" clip-rule="evenodd" d="M4.49472 56.0862C4.0134 55.8358 3.28677 55.3784 3.28677 54.0122C3.28677 52.2102 4.55682 51.6878 5.88898 51.6878C7.30498 51.6878 7.8484 52.272 8.49429 52.272C9.01287 52.272 9.32651 51.898 9.32651 51.4838C9.32651 50.3217 6.80814 50.0713 5.76477 50.0713C3.18119 50.0713 1.55714 51.6075 1.55714 54.1111C1.55714 57.7831 5.0164 57.8078 6.99445 58.8433C7.51614 59.1122 8.18066 59.5882 8.18066 60.9327C8.18066 62.5524 7.24287 63.4889 5.39214 63.4889C3.76498 63.4889 2.86756 62.7595 2.28687 62.7595C1.86766 62.7595 1.5354 63.152 1.5354 63.5693C1.5354 64.6851 4.03824 65.1024 5.36729 65.1024C7.99124 65.1024 9.93203 63.526 9.93203 60.7875C9.93203 57.1618 6.49451 57.1217 4.49472 56.0862Z" fill="white"/>
<path fill-rule="evenodd" clip-rule="evenodd" d="M17.5988 60.6898C20.0768 60.6898 21.1171 59.5307 21.1171 57.6205C21.1171 55.5682 19.9743 54.2422 17.6609 54.2422C15.1829 54.2422 13.8477 55.7567 13.8477 57.7442V61.6233C13.8477 63.5767 15.2047 65.0665 17.5584 65.0665C18.6826 65.0665 20.9308 64.7358 20.9308 63.7158C20.9308 63.3449 20.6202 62.9925 20.2041 62.9925C20.0551 62.9925 19.9526 63.0327 19.9122 63.0544C19.1825 63.3851 18.6204 63.6355 17.7448 63.6355C16.2449 63.6355 15.4748 62.8875 15.4748 61.7253V60.5044C16.2046 60.628 16.9747 60.6898 17.5988 60.6898ZM15.4748 57.5989C15.4748 56.4398 16.2667 55.7196 17.6206 55.7196C18.8285 55.7196 19.5179 56.2729 19.5179 57.6205C19.5179 58.4705 19.2446 59.3236 17.6609 59.3236C17.2448 59.3236 16.2449 59.2804 15.4748 59.1784V57.5989Z" fill="white"/>
<path fill-rule="evenodd" clip-rule="evenodd" d="M39.4644 63.593C39.3806 63.593 39.3619 63.6146 39.2998 63.6146C39.0483 63.6146 38.9241 63.4014 38.9241 62.9903V58.4281C38.9241 55.6896 37.8838 54.2461 35.2785 54.2461C33.8408 54.2461 32.2788 54.6386 32.3627 55.5906C32.3844 55.8997 32.549 56.2768 32.9433 56.2768C33.1731 56.2768 33.4216 56.1285 33.4868 56.1068C33.9432 55.8595 34.3407 55.671 35.0673 55.671C36.5703 55.671 37.2969 56.3788 37.2969 57.8872V59.071C36.6541 58.8856 35.943 58.7805 35.1947 58.7805C32.7384 58.7805 31.5273 59.8159 31.5273 61.8528V61.9332C31.5273 63.8001 32.5707 65.0643 34.7133 65.0643C35.8406 65.0643 36.7783 64.6872 37.5702 63.9639C37.8838 64.6068 38.4428 65.0025 39.1321 65.0025C39.5886 65.0025 40.0699 64.817 40.0699 64.2977C40.0699 63.9423 39.8588 63.593 39.4644 63.593ZM37.2969 62.6997C36.5703 63.321 35.8623 63.6146 34.9649 63.6146C33.5706 63.6146 33.1328 62.9285 33.1328 61.9548V61.8683C33.1328 60.9379 33.4681 60.1528 35.1729 60.1528C35.7971 60.1528 36.6107 60.2548 37.2969 60.4588V62.6997Z" fill="white"/>
<path fill-rule="evenodd" clip-rule="evenodd" d="M49.8564 54.3047C49.5428 54.3047 49.2291 54.5303 49.1267 54.8456L46.7325 62.6594L44.2949 54.8456C44.1707 54.4932 43.8788 54.3047 43.5682 54.3047C43.0869 54.3047 42.6087 54.756 42.7764 55.2598L45.6705 64.1121C45.9003 64.7736 46.1705 65.061 46.7325 65.061C47.2759 65.061 47.5647 64.7736 47.7945 64.0936L50.6265 55.3216C50.7725 54.7776 50.3564 54.3047 49.8564 54.3047Z" fill="white"/>
<path fill-rule="evenodd" clip-rule="evenodd" d="M55.7909 54.3047C55.3345 54.3047 54.9805 54.6787 54.9805 55.1145V64.2574C54.9805 64.7087 55.3345 65.061 55.7909 65.061C56.2474 65.061 56.6014 64.7087 56.6014 64.2574V55.1145C56.6014 54.6787 56.2474 54.3047 55.7909 54.3047Z" fill="white"/>
<path fill-rule="evenodd" clip-rule="evenodd" d="M57.4607 49.8047C57.0849 49.8047 56.9825 50.0118 56.6906 50.2807L55.0665 51.9591C54.9827 52.0641 54.9609 52.1692 54.9609 52.2712C54.9609 52.704 55.2746 52.9945 55.6503 52.9945C55.9174 52.9945 56.0664 52.8523 56.3148 52.6236L58.0041 50.8401C58.0848 50.7381 58.1066 50.5898 58.1066 50.4909C58.1066 50.0952 57.7526 49.8047 57.4607 49.8047Z" fill="white"/>
<path fill-rule="evenodd" clip-rule="evenodd" d="M16.7784 12.4464C16.5704 12.4278 16.3561 12.4618 16.1605 12.536C16.0176 12.5917 15.8934 12.6782 15.7661 12.7647C15.4401 12.6164 15.1047 12.4866 14.7383 12.4618C14.3284 12.4155 13.8626 12.6318 13.7539 13.0213C13.9495 12.6658 14.3687 12.5855 14.701 12.6937C15.0457 12.7864 15.3562 12.9935 15.6481 13.216L15.6512 13.2191L15.8189 13.3397L15.9462 13.1758C16.1387 12.9378 16.4493 12.7184 16.7815 12.6813C17.1231 12.6287 17.4895 12.7802 17.7814 13.0213C17.5454 12.7307 17.2039 12.4742 16.7784 12.4464Z" fill="white"/>
<path fill-rule="evenodd" clip-rule="evenodd" d="M19.7394 14.1348C19.5966 14.1905 19.4755 14.277 19.3481 14.3635C19.0221 14.2152 18.6867 14.0823 18.3172 14.0606C17.9073 14.0112 17.4415 14.2275 17.3359 14.617C17.5285 14.2646 17.9477 14.1843 18.283 14.2894C18.6246 14.3852 18.9383 14.5923 19.227 14.8117L19.2301 14.8148L19.4009 14.9354L19.5283 14.7746C19.7177 14.5366 20.0282 14.3172 20.3605 14.277C20.7051 14.2245 21.0685 14.379 21.3604 14.617C21.1275 14.3265 20.7828 14.073 20.3574 14.0452C20.1493 14.0235 19.9381 14.0606 19.7394 14.1348Z" fill="white"/>
<path fill-rule="evenodd" clip-rule="evenodd" d="M21.0159 11.0084C20.8917 10.9899 20.7581 11.0022 20.637 11.0424C20.5656 11.0641 20.5004 11.1104 20.4352 11.1444C20.2613 11.0826 20.0843 11.0146 19.8887 11.0146C19.6465 11.0022 19.3763 11.1537 19.3359 11.3793C19.4633 11.1908 19.6899 11.1784 19.8576 11.2495C20.0315 11.3175 20.1868 11.4442 20.3358 11.5741V11.5772L20.5253 11.7441L20.6308 11.537C20.6588 11.4844 20.7271 11.4072 20.7923 11.3577C20.8606 11.3052 20.9352 11.265 21.019 11.2433C21.1898 11.197 21.4009 11.2588 21.5748 11.3793C21.4568 11.2062 21.2736 11.0424 21.0159 11.0084Z" fill="white"/>
<path fill-rule="evenodd" clip-rule="evenodd" d="M14.4418 43.6449C14.4667 43.6758 14.5008 43.6944 14.5381 43.6944C14.5629 43.6944 14.5878 43.6882 14.6064 43.6727C30.2228 33.0524 47.3825 37.1664 47.5532 37.2066C47.6185 37.222 47.6806 37.188 47.6961 37.1231C47.7116 37.0613 47.6744 36.9995 47.6091 36.9809C47.4384 36.9407 30.1793 32.7958 14.4729 43.4749C14.417 43.5182 14.4077 43.5862 14.4418 43.6449Z" fill="white"/>
<path fill-rule="evenodd" clip-rule="evenodd" d="M16.5901 44.4351C16.5342 44.4691 16.5125 44.5371 16.5498 44.5927C16.5684 44.6298 16.6119 44.6484 16.6491 44.6484C16.6709 44.6484 16.6895 44.6453 16.7081 44.636C30.9116 36.1917 45.0871 39.2517 45.23 39.2826C45.2859 39.2887 45.3542 39.2578 45.3666 39.196C45.3821 39.1311 45.3449 39.0693 45.2797 39.0538C45.1368 39.026 30.8744 35.9382 16.5901 44.4351Z" fill="white"/>
<path fill-rule="evenodd" clip-rule="evenodd" d="M18.8708 45.5685C18.8926 45.6118 18.9329 45.6365 18.9764 45.6365C18.9951 45.6365 19.0137 45.6334 19.0292 45.6273C31.2577 39.7576 41.915 41.2351 42.0237 41.2536C42.0858 41.2598 42.1479 41.2134 42.1572 41.1485C42.1634 41.0867 42.12 41.0249 42.0547 41.0156C41.9492 41.0033 31.2267 39.5165 18.9267 45.414C18.8677 45.4418 18.8429 45.5129 18.8708 45.5685Z" fill="white"/>
<path fill-rule="evenodd" clip-rule="evenodd" d="M48.7392 2.65818C48.733 2.63964 48.7299 2.62109 48.7206 2.60255L48.702 2.52527L48.674 2.52218C47.3853 0.256545 32.6136 0 26.0957 0C19.4504 0 4.2315 0.265818 3.45519 2.65509L3.44277 2.69836C3.12292 3.82655 -4.25208 30.4393 3.61666 38.2685C10.4607 45.0871 22.4004 48.3325 25.3007 49.0435V62.9464C25.3007 64.8102 26.0957 65.0605 26.6142 65.0605C27.0303 65.0605 27.3626 64.7298 27.3626 64.3156C27.3626 64.1518 27.2788 64.0035 27.2198 63.9231C26.9682 63.6727 26.9279 63.4007 26.9279 62.9464V50.6724C26.9279 50.6662 26.9248 50.6569 26.9248 50.6476V49.0342C29.8872 48.3078 41.7617 45.0531 48.5747 38.2685C56.4403 30.4393 49.0653 3.82655 48.7486 2.69836L48.7392 2.65818ZM26.0957 1.36C37.2467 1.36 44.3018 2.11109 46.6618 2.76018C45.3793 3.15273 42.5722 3.73691 36.7405 4.07073C34.3712 4.20055 31.6386 4.29018 28.5364 4.32418C28.3656 4.32727 28.201 4.33036 28.0302 4.33036C27.611 4.33345 27.1763 4.33345 26.7447 4.33345C26.5273 4.33345 26.3161 4.33655 26.0957 4.33655C25.8907 4.33655 25.6951 4.33345 25.4963 4.33345C25.0243 4.33345 24.5492 4.33345 24.0928 4.33036C23.9872 4.33036 23.8878 4.32727 23.7853 4.32727C19.1585 4.28091 15.3266 4.10164 12.3362 3.86673C8.44535 3.52982 6.45177 3.09091 5.4674 2.77873C7.7684 2.12345 14.8484 1.36 26.0957 1.36ZM1.44608 27.0207C3.97377 26.622 13.3951 25.7905 21.3694 33.5642C21.1148 33.6755 20.8602 33.7713 20.6087 33.8856C12.8641 27.3267 4.24392 27.9078 1.51129 28.3096C1.48024 27.8893 1.46161 27.4535 1.44608 27.0207ZM4.26566 22.61L4.33087 22.6996L4.50166 22.6193C4.7594 22.4987 5.00782 22.6811 5.04508 22.9284L3.47382 23.8958C3.36824 23.7876 3.29682 23.6516 3.29682 23.4878C3.29682 23.3456 3.36203 23.2189 3.45208 23.1107L4.26566 22.61ZM3.5204 22.7707C3.5204 22.5575 3.69429 22.3844 3.90545 22.3844C4.00171 22.3844 4.07624 22.4462 4.14766 22.508L3.53592 22.8851L3.52971 22.8573C3.5235 22.8233 3.5204 22.7985 3.5204 22.7707ZM5.00161 23.1355C4.97677 23.1818 4.97987 23.2375 4.9364 23.2745L4.7625 23.4291L4.91777 23.5991C4.9954 23.6825 5.02334 23.7969 5.03887 23.9082L4.18492 24.4398C4.09798 24.3811 4.01103 24.3131 3.96756 24.2142L3.91787 24.106L3.79987 24.0875C3.72845 24.072 3.68187 24.0164 3.61977 23.9824L5.00161 23.1355ZM5.02024 24.0967C4.96124 24.3502 4.76561 24.5542 4.49234 24.5542C4.43956 24.5542 4.39298 24.5356 4.34329 24.5202L5.02024 24.0967ZM7.75908 18.2333L7.72182 18.0602L10.2619 16.4993C10.3613 16.5796 10.4762 16.6415 10.5569 16.7527L10.6501 16.8795L7.21256 18.9936C7.31813 18.7742 7.44234 18.5578 7.61624 18.3785L7.75908 18.2333ZM7.67213 17.6831C7.67213 16.8053 8.38945 16.0944 9.26824 16.0944C9.53529 16.0944 9.79303 16.1685 10.0197 16.2891L7.67835 17.7325C7.67835 17.7171 7.67213 17.6985 7.67213 17.6831ZM11.3674 16.7929C11.4854 16.7651 11.6065 16.7095 11.7245 16.7095C11.9357 16.7095 12.1313 16.7589 12.3145 16.83L6.98587 20.1064C6.98277 20.06 6.96413 20.0198 6.96413 19.9765C6.96413 19.788 7.02624 19.6149 7.06971 19.4387L11.3674 16.7929ZM12.6064 17.0062C12.7648 17.1082 12.8983 17.2287 13.0101 17.3771L7.20635 20.9471C7.12871 20.7833 7.08213 20.6102 7.04487 20.4278L12.6064 17.0062ZM13.1809 17.6275C13.2616 17.7913 13.3051 17.9705 13.3268 18.1591L7.70319 21.6178C7.56966 21.4942 7.45787 21.3613 7.36161 21.2067L13.1809 17.6275ZM13.3237 18.5145C13.2864 18.8329 13.1498 19.1235 12.9418 19.3707L8.52919 22.0845C8.33045 22.0073 8.11929 21.9455 7.9485 21.8249L13.3237 18.5145ZM12.6157 19.9271L12.771 20.0971C12.8393 20.1744 12.8828 20.2671 12.9356 20.3536L9.26824 22.6069C9.23408 22.5482 9.16887 22.5142 9.14092 22.4524L9.05708 22.27L8.86766 22.2329L12.6157 19.9271ZM13.0939 20.6102C13.1653 20.774 13.2212 20.9471 13.2585 21.1264L9.80235 23.2529C9.66261 23.1416 9.57877 22.9778 9.46387 22.8418L13.0939 20.6102ZM13.3206 21.4447C13.3206 21.4849 13.3423 21.522 13.3423 21.5622C13.3423 21.7631 13.2771 21.9362 13.2274 22.1185L10.7339 23.6547C10.5445 23.6176 10.3458 23.6084 10.1719 23.5218C10.1315 23.5033 10.1036 23.4662 10.0663 23.4476L13.3206 21.4447ZM13.0567 22.5822C12.6871 23.2653 11.9885 23.7413 11.1593 23.7475L13.0567 22.5822ZM17.6028 23.018L17.6928 23.1416L17.9785 23.0087C18.2052 22.9005 18.4319 22.9253 18.6368 23.0025L15.5378 24.9065C15.5347 24.8756 15.5222 24.8509 15.5222 24.8169C15.5222 24.582 15.6061 24.3718 15.7241 24.174L17.6028 23.018ZM15.9663 23.3858C15.9663 22.9191 16.3482 22.5358 16.8202 22.5358C17.0407 22.5358 17.2363 22.6378 17.3947 22.7924L16.0036 23.6455L15.988 23.5713C15.9725 23.5064 15.9663 23.4445 15.9663 23.3858ZM18.9287 23.1756C19.0622 23.2993 19.1492 23.4538 19.1864 23.6362L15.8638 25.6793C15.7458 25.5495 15.6527 25.3949 15.5937 25.2249L18.9287 23.1756ZM19.1212 24.0318C19.0747 24.1771 19.0529 24.3409 18.9287 24.4522L18.6368 24.7025L18.7859 24.8664L16.7768 26.1213L16.5905 26.0873C16.4103 26.0533 16.2551 25.9791 16.1091 25.8864L19.1212 24.0318ZM18.9722 25.1075C19.0778 25.2558 19.1461 25.4165 19.1771 25.5958L17.2985 26.7518C17.1556 26.6436 17.0252 26.5293 16.9382 26.3747L18.9722 25.1075ZM19.1927 25.9389C19.1212 26.5509 18.6213 27.0331 17.9909 27.0331C17.845 27.0331 17.7115 26.9836 17.5748 26.9342L19.1927 25.9389ZM1.57961 29.1318C4.09798 28.7547 12.2928 28.1427 19.7485 34.2442C19.615 34.306 19.4846 34.3678 19.351 34.4327C19.1896 34.51 19.0343 34.612 18.8728 34.6924C11.7928 29.6944 4.44887 30.0529 1.73798 30.4176C1.67587 29.9973 1.62308 29.5707 1.57961 29.1318ZM1.87771 31.2305C4.44266 30.8844 11.3363 30.532 18.0717 35.1251C17.7363 35.3013 17.4009 35.4775 17.0687 35.6691C10.9078 32.0867 4.8774 32.1949 2.14787 32.504C2.04229 32.0929 1.95845 31.6664 1.87771 31.2305ZM2.38698 33.3045C4.9985 33.0233 10.5166 32.9645 16.2271 36.1235C16.2054 36.1389 16.1837 36.1451 16.1588 36.1605C16.0532 36.2255 15.9477 36.2935 15.8421 36.3584C15.6185 36.4975 15.4042 36.6705 15.1838 36.8096C10.1843 34.476 5.49535 34.3616 2.84345 34.5718C2.67266 34.1731 2.52361 33.7465 2.38698 33.3045ZM3.2254 35.3693C5.74377 35.1962 9.92034 35.3631 14.4074 37.3475C14.0162 37.6102 13.628 37.8667 13.243 38.148C9.66882 36.8498 6.40208 36.5871 4.07003 36.6551C3.7595 36.2625 3.47382 35.8391 3.2254 35.3693ZM4.74698 37.4649C6.81819 37.4587 9.50734 37.7338 12.4449 38.7198C12.0692 39.0135 11.709 39.3689 11.3395 39.6811C9.51045 39.1866 7.81187 38.9393 6.30892 38.8496C5.7655 38.4045 5.24071 37.9471 4.74698 37.4649ZM7.46408 39.7615C8.44845 39.8696 9.50113 40.0489 10.6035 40.3178C10.2681 40.6115 9.92345 40.8804 9.59429 41.1925C8.86766 40.7382 8.15035 40.2653 7.46408 39.7615ZM26.0957 47.8349C25.8007 47.7669 25.1796 47.6155 24.3257 47.3836C27.8129 46.1875 31.2473 45.4982 34.4333 45.2107C30.3406 46.8025 26.9279 47.6402 26.0957 47.8349ZM38.436 43.4396C38.4391 43.4273 38.4546 43.4304 38.4577 43.4211C38.4577 43.3562 38.4049 43.3005 38.3428 43.2975C38.2528 43.2944 29.5394 42.9945 22.1023 46.3946C22.0433 46.4224 22.0184 46.4904 22.0464 46.5491C22.065 46.5924 22.1085 46.6171 22.152 46.6171C22.1675 46.6171 22.183 46.614 22.2017 46.6047C29.2382 43.3902 37.4268 43.5076 38.2466 43.5324C37.7777 43.7518 37.3057 44.0022 36.8368 44.2093C32.6043 44.3885 27.7942 45.1582 22.9283 46.9818C22.3228 46.8025 21.6582 46.5924 20.9409 46.3544C27.7383 43.3005 34.601 42.5464 40.0352 42.6669C39.5011 42.9513 38.9701 43.1831 38.436 43.4396ZM41.4077 41.9127C35.4953 41.6222 27.6141 42.2929 19.851 45.9865C19.3324 45.8011 18.7952 45.6095 18.2456 45.3962C27.4961 40.3209 37.1939 39.9624 43.5814 40.5527C42.8703 41.0318 42.1468 41.4893 41.4077 41.9127ZM44.6403 39.8202C38.0323 39.0845 27.2601 39.1804 17.1711 44.9758C16.7581 44.812 16.342 44.6389 15.9166 44.4566C27.2136 37.1404 39.7775 37.5762 46.283 38.5251C45.7582 38.9764 45.2086 39.406 44.6403 39.8202ZM47.6089 37.3104C47.4381 37.4835 47.2456 37.6411 47.0686 37.808C40.5476 36.7756 27.0148 36.0462 15.0161 44.064C14.631 43.8878 14.246 43.7055 13.8609 43.5231C26.8782 33.796 42.2927 35.3878 48.2269 36.516C48.025 36.7849 47.8418 37.0785 47.6089 37.3104ZM49.087 35.1127C49.0715 35.0973 49.0808 35.0695 49.056 35.0602C49.0094 35.0478 44.1124 33.6569 37.1908 33.9135C30.8032 34.1422 21.3353 35.8422 12.5101 42.6576C12.4573 42.6978 12.448 42.772 12.4853 42.8215C12.5101 42.8524 12.5443 42.8678 12.5785 42.8678C12.6033 42.8678 12.6312 42.8585 12.6499 42.8431C21.4284 36.0709 30.8374 34.374 37.1908 34.1453C44.072 33.9042 48.9442 35.2735 48.9908 35.2858C49.0001 35.2889 49.0001 35.2735 49.0094 35.2765C48.9256 35.4404 48.8572 35.6227 48.7672 35.7773C42.9231 34.6213 26.636 32.742 13.0411 43.1244C12.7306 42.9698 12.4232 42.8091 12.1158 42.6484C26.4652 30.5289 44.5006 33.3416 49.4162 34.4296C49.3168 34.6707 49.1957 34.8871 49.087 35.1127ZM49.7019 33.6445C44.8483 32.5535 26.136 29.5089 11.3363 42.2187C11.1562 42.1229 10.9761 42.0147 10.796 41.9127C10.8178 41.9344 10.8457 41.9498 10.8768 41.9498C10.9047 41.9498 10.9327 41.9375 10.9544 41.9189C19.8075 34.1484 29.912 32.1424 36.8243 31.824C44.3236 31.4809 49.8043 32.9985 49.8571 33.0171C49.8758 33.0202 49.8789 32.9955 49.8975 32.9924C49.8292 33.2087 49.7733 33.4344 49.7019 33.6445ZM49.9441 32.8316C49.9317 32.8193 49.941 32.7945 49.9223 32.7915C49.8665 32.7729 44.3732 31.2491 36.8243 31.5922C29.8655 31.9044 19.7019 33.9258 10.7991 41.7458C10.7495 41.786 10.7432 41.8633 10.7898 41.9096C10.6346 41.82 10.4762 41.7396 10.324 41.6438C25.5647 27.3638 46.0128 31.2182 50.1366 32.1887C50.0838 32.4144 50.0093 32.6153 49.9441 32.8316ZM25.6237 31.0822C25.6796 31.0204 25.7634 30.974 25.7727 30.8844C25.9559 30.8349 26.1391 30.7978 26.3223 30.7484C26.3813 30.8318 26.4683 30.8782 26.5615 30.8998L26.7509 31.7065C26.6826 31.7251 26.6142 31.7405 26.5459 31.7591C25.9466 31.9167 25.338 32.1362 24.7325 32.3278L24.4281 31.4345C24.4809 31.3727 24.5586 31.3264 24.571 31.2429C24.7542 31.1842 24.9436 31.1224 25.1268 31.0698C25.1858 31.1409 25.2603 31.1842 25.3442 31.2089L25.6112 32.0342L25.9031 31.9445L25.6237 31.0822ZM24.4437 32.4175C24.1766 32.5071 23.9096 32.5782 23.6394 32.6709L23.2792 31.7622C23.3133 31.7035 23.3817 31.6725 23.3879 31.6015C23.5742 31.5427 23.7574 31.4902 23.9437 31.4315C23.9996 31.4964 24.0741 31.5396 24.1518 31.5613L24.4437 32.4175ZM26.8378 30.7515C26.8782 30.6927 26.9558 30.6649 26.9682 30.5907C27.1515 30.5444 27.3378 30.4918 27.521 30.4516C27.58 30.5382 27.6669 30.5876 27.7601 30.6124L27.9433 31.4407C27.6452 31.5087 27.3502 31.5644 27.049 31.6385L26.8378 30.7515ZM28.0396 30.4733C28.0892 30.4115 28.17 30.3805 28.1824 30.2971C28.3656 30.26 28.5457 30.2291 28.7258 30.192C28.7755 30.2693 28.8469 30.3187 28.9246 30.3527L29.1078 31.178C28.819 31.2367 28.5302 31.3078 28.2414 31.3727L28.0396 30.4733ZM29.2133 30.2569C29.2817 30.1951 29.3686 30.1549 29.3841 30.0622C29.5736 30.0251 29.763 29.988 29.9462 29.954C30.0052 30.0436 30.0797 30.0962 30.1822 30.1178L30.3499 30.9215C30.2753 30.9338 30.2008 30.94 30.1232 30.9555C30.0549 30.9678 29.9866 30.9833 29.9182 30.9956C29.7506 31.0265 29.5736 31.076 29.4028 31.1131L29.2133 30.2569ZM30.4803 30.0498C30.5517 29.9942 30.5921 29.9262 30.6076 29.8365C30.797 29.8056 30.9802 29.784 31.1666 29.7562C31.2193 29.8427 31.2908 29.8953 31.387 29.92L31.5485 30.7453C31.2473 30.7916 30.9523 30.8256 30.6511 30.8782L30.4803 30.0498ZM31.6882 29.8582C31.7566 29.8056 31.7969 29.7438 31.8187 29.6573C32.0112 29.6325 32.2037 29.5985 32.3931 29.5738C32.4397 29.6511 32.4956 29.7036 32.5826 29.7315L32.7161 30.5753C32.4304 30.6093 32.1354 30.6618 31.8466 30.702L31.6882 29.8582ZM32.8869 29.7036C32.9707 29.6542 33.0235 29.5893 33.0546 29.4965C33.2471 29.4718 33.4365 29.4533 33.6321 29.4347C33.6818 29.5151 33.7501 29.5645 33.8433 29.5924L33.9675 30.43C33.8464 30.4424 33.7315 30.4455 33.6104 30.4578C33.4489 30.4764 33.2812 30.498 33.1167 30.5165C33.0825 30.5196 33.0483 30.5289 33.0173 30.532L32.8869 29.7036ZM34.1445 29.5398C34.2097 29.4965 34.2501 29.444 34.278 29.3698C34.4737 29.3513 34.6817 29.3235 34.8742 29.308C34.927 29.3976 35.0016 29.4502 35.104 29.478L35.1879 30.3373C34.8836 30.3558 34.5823 30.3775 34.2749 30.4053L34.1445 29.5398ZM35.4021 29.4224C35.4611 29.3822 35.4953 29.3327 35.5232 29.2647C35.722 29.2524 35.9207 29.2431 36.1163 29.2307C36.1629 29.2987 36.2157 29.3389 36.2933 29.3729L36.3492 30.2476C36.3306 30.2476 36.312 30.2476 36.2902 30.2507C36.0294 30.2631 35.7561 30.294 35.4891 30.3095L35.4021 29.4224ZM37.5417 30.2075C37.3367 30.2136 37.1411 30.2105 36.933 30.2198C36.8399 30.2229 36.7436 30.226 36.6505 30.2322L36.5977 29.3513C36.6722 29.3111 36.7188 29.2616 36.7529 29.1905C36.9579 29.1813 37.1535 29.1751 37.3553 29.1658C37.3926 29.2338 37.4423 29.274 37.5137 29.308L37.5417 30.2044C37.2963 30.2105 37.0634 30.2105 36.815 30.2198C37.0634 30.2105 37.2963 30.2136 37.5417 30.2075ZM37.8429 30.1951L37.818 29.3049C37.8957 29.2709 37.9485 29.2245 37.9857 29.1504C38.1845 29.1442 38.3894 29.138 38.5819 29.1349C38.6254 29.206 38.6813 29.2493 38.7589 29.2833L38.7745 30.1765C38.4732 30.1765 38.1565 30.1889 37.8429 30.1951ZM38.7745 30.1858V30.1889C38.4701 30.1889 38.1565 30.1951 37.846 30.2013C38.1565 30.1951 38.4701 30.1858 38.7745 30.1858ZM39.0819 30.1765L39.0663 29.2678C39.1316 29.2307 39.175 29.1905 39.2092 29.1287C39.4203 29.1287 39.6191 29.1318 39.824 29.1318C39.8582 29.1936 39.9017 29.2338 39.9638 29.2678V30.1951C39.7278 30.1889 39.5011 30.1796 39.2589 30.1796C39.1999 30.1796 39.1378 30.1827 39.0819 30.1827V30.1796H39.1316C39.116 30.1796 39.0974 30.1765 39.0819 30.1765ZM40.265 30.2044V29.2864C40.3457 29.2555 40.4047 29.2122 40.4482 29.1411C40.6531 29.1442 40.8612 29.1473 41.063 29.1535C41.1003 29.2276 41.1562 29.274 41.2338 29.308L41.1655 30.2291C41.0102 30.2229 40.8612 30.2198 40.7059 30.2136C40.56 30.2105 40.4109 30.2075 40.265 30.2044ZM41.4667 30.2415L41.535 29.3049C41.6002 29.2771 41.6468 29.24 41.6872 29.1813C41.8921 29.1875 42.1064 29.1936 42.302 29.206C42.3331 29.2678 42.3703 29.308 42.4262 29.3482L42.3641 30.2878C42.2058 30.2785 42.0567 30.2662 41.8952 30.2569C41.7555 30.2507 41.6096 30.2476 41.4667 30.2415ZM42.6684 30.3095L42.7243 29.3945C42.8175 29.3698 42.8858 29.3235 42.9386 29.2462C43.1404 29.2555 43.3361 29.2709 43.5286 29.2864C43.5628 29.3698 43.6187 29.4255 43.7025 29.4687L43.6 30.3805C43.4851 30.3713 43.3764 30.3589 43.2616 30.3496C43.069 30.3373 42.8641 30.3249 42.6684 30.3095ZM43.9043 30.4053L44.0068 29.478C44.0813 29.4471 44.1279 29.4007 44.1714 29.3358C44.3795 29.3544 44.5658 29.376 44.7614 29.3945C44.7924 29.478 44.839 29.5336 44.9104 29.5769L44.808 30.4949C44.631 30.4764 44.4602 30.4547 44.2739 30.4362C44.1559 30.4238 44.0255 30.4145 43.9043 30.4053ZM45.1123 30.532L45.2148 29.614C45.3017 29.5862 45.3638 29.5367 45.4104 29.4595C45.6216 29.4842 45.7986 29.5089 45.9911 29.5336C46.019 29.6233 46.106 29.6573 46.1743 29.7129L46.0501 30.6433C45.8762 30.6185 45.7054 30.5969 45.5222 30.5753C45.3918 30.5598 45.2489 30.5444 45.1123 30.532ZM46.3513 30.6804L46.4724 29.7871C46.5469 29.75 46.6121 29.6975 46.6556 29.6202C46.8606 29.648 47.0376 29.6758 47.2146 29.7036C47.2301 29.7964 47.3201 29.8365 47.3885 29.8984L47.2611 30.8133C46.9692 30.77 46.668 30.7267 46.3513 30.6804ZM47.5623 30.8627L47.6835 29.9911C47.7642 29.9571 47.8387 29.8984 47.8853 29.8149C48.1089 29.852 48.2921 29.886 48.4287 29.9138C48.438 30.0065 48.5281 30.0436 48.5871 30.1085L48.4318 31.0142C48.3045 30.9925 48.1896 30.9678 48.0592 30.9462C47.8977 30.9184 47.7331 30.8905 47.5623 30.8627ZM50.2826 31.3913C50.0217 31.3295 49.7205 31.2615 49.351 31.1873C49.2454 31.1687 49.1491 31.144 49.0373 31.1224C48.9442 31.1069 48.8324 31.0853 48.7299 31.0667L48.8728 30.226C49.0156 30.192 49.1398 30.1085 49.174 29.9571C49.2175 29.7438 49.0808 29.5398 48.8697 29.4935C48.733 29.4625 48.6119 29.5275 48.5219 29.6233C48.3728 29.5924 48.1648 29.5584 47.907 29.512C47.8605 29.3884 47.7766 29.2833 47.6369 29.2585C47.494 29.2338 47.376 29.3049 47.2891 29.41C47.0997 29.3822 46.9102 29.3513 46.6867 29.3173C46.6401 29.1875 46.55 29.0731 46.3979 29.0484C46.2426 29.0267 46.1215 29.1133 46.0408 29.2338C45.842 29.2091 45.6619 29.1875 45.4477 29.1627C45.4011 29.0205 45.3048 28.9031 45.1465 28.8845C44.985 28.866 44.8608 28.9618 44.7862 29.0947C44.5937 29.0762 44.4105 29.0545 44.2056 29.036C44.159 28.8938 44.0596 28.7733 43.9012 28.7578C43.7367 28.7393 43.6093 28.8475 43.5379 28.9865C43.3547 28.9711 43.1684 28.9587 42.979 28.9433C42.9293 28.7949 42.8206 28.6744 42.656 28.662C42.4915 28.6496 42.3672 28.7609 42.302 28.9031C42.1157 28.8938 41.917 28.8876 41.7276 28.8784C41.681 28.7269 41.563 28.6002 41.3922 28.594C41.2276 28.5909 41.1065 28.7053 41.0475 28.8505C40.8612 28.8444 40.6687 28.8444 40.4792 28.8382C40.4265 28.6898 40.3116 28.5662 40.1439 28.5662C39.9731 28.5631 39.8551 28.6805 39.7992 28.832C39.6098 28.8289 39.4266 28.8258 39.234 28.8258C39.1781 28.6775 39.057 28.56 38.8893 28.56C38.7217 28.5631 38.6068 28.6836 38.554 28.8351C38.3708 28.8382 38.1845 28.8444 37.9981 28.8475C37.936 28.7053 37.818 28.5909 37.6503 28.594C37.4889 28.6002 37.3771 28.7176 37.3243 28.866C37.1349 28.8722 36.9455 28.8784 36.7529 28.8876C36.6846 28.7455 36.5666 28.6373 36.3989 28.6496C36.2374 28.662 36.1288 28.7825 36.0822 28.9309C35.8928 28.9402 35.7033 28.9495 35.5108 28.9649C35.4425 28.8289 35.3214 28.73 35.1599 28.7393C35.0016 28.7547 34.9022 28.8691 34.8494 29.0051C34.6569 29.0205 34.4519 29.0484 34.2532 29.0669C34.1787 28.934 34.0545 28.8382 33.893 28.8567C33.7346 28.8722 33.6383 28.9927 33.5918 29.1318C33.3992 29.1565 33.2067 29.172 33.0111 29.1936C32.9303 29.0731 32.8092 28.9865 32.6571 29.002C32.5018 29.0205 32.4087 29.1349 32.3621 29.274C32.1633 29.2987 31.9615 29.3327 31.7597 29.3605C31.6789 29.2493 31.5609 29.1689 31.415 29.1905C31.269 29.2122 31.179 29.3235 31.1324 29.4533C30.9337 29.4842 30.738 29.5089 30.5362 29.5398C30.4492 29.4347 30.3312 29.3605 30.1853 29.3853C30.0456 29.4131 29.9586 29.5213 29.9151 29.6511C29.7133 29.6851 29.5115 29.7315 29.3096 29.7685C29.2227 29.6635 29.1016 29.5893 28.9556 29.6171C28.8097 29.6449 28.7258 29.7593 28.6855 29.8922C28.4867 29.9324 28.2942 29.9633 28.0955 30.0065C28.0023 29.9045 27.8781 29.8335 27.7352 29.8675C27.5893 29.9015 27.5086 30.0189 27.4713 30.1518C27.2757 30.1951 27.0769 30.2507 26.8782 30.2971C26.785 30.1982 26.6608 30.1302 26.518 30.1642C26.3751 30.2013 26.2975 30.3187 26.2602 30.4516C26.0646 30.5011 25.8721 30.5413 25.6765 30.5969C25.5802 30.4949 25.4498 30.43 25.3069 30.4733C25.161 30.5135 25.0865 30.6371 25.0554 30.7731C24.8629 30.8287 24.6672 30.8936 24.4747 30.9524C24.3753 30.8535 24.248 30.7885 24.1021 30.8318C23.9561 30.8751 23.8847 30.9987 23.863 31.1409C23.6673 31.1996 23.4748 31.2553 23.2792 31.3171C23.1798 31.2213 23.0463 31.1595 22.9035 31.2089C22.6954 31.2769 22.5867 31.4995 22.6581 31.7004C22.7109 31.8611 22.8631 31.9353 23.0246 31.9384L23.3506 32.7636C23.3382 32.7667 23.3289 32.7698 23.3165 32.776C23.1922 32.8162 23.068 32.8595 22.9438 32.9058C22.6985 32.9955 22.4532 33.1129 22.2079 33.2118C20.854 31.8642 19.4597 30.7762 18.0623 29.8705V27.7718C19.1212 27.7316 19.9783 26.8724 19.9783 25.806C19.9783 25.7009 19.91 25.6113 19.8913 25.5093L19.9193 25.4938L19.8572 25.3918C19.8075 25.1755 19.792 24.9467 19.674 24.7551C19.8758 24.4769 19.9907 24.1431 19.9907 23.7969C19.9907 22.8975 19.2579 22.168 18.3542 22.168C18.2083 22.168 18.0686 22.1835 17.9257 22.2236C17.6276 21.9424 17.2332 21.7816 16.8202 21.7816C15.929 21.7816 15.2055 22.5018 15.2055 23.3858C15.2055 23.4384 15.2086 23.4878 15.2148 23.5404C14.9229 23.902 14.7646 24.3471 14.7646 24.8169C14.7646 25.7442 15.3825 26.5416 16.2644 26.7858C16.46 27.1258 16.7519 27.404 17.1059 27.5802C17.168 27.608 17.2395 27.5987 17.3047 27.6235V29.3791C15.162 28.0995 13.0318 27.2958 11.0351 26.7765V24.4831C11.0755 24.4831 11.1066 24.5078 11.1469 24.5078C12.7741 24.5078 14.1031 23.188 14.1031 21.5622C14.1031 20.9533 13.9106 20.3598 13.5566 19.8684C13.9199 19.4387 14.1249 18.8978 14.1249 18.3384C14.1249 17.0247 13.0473 15.9522 11.7245 15.9522C11.4761 15.9522 11.2246 15.9955 10.9792 16.0758C10.5383 15.6091 9.91724 15.3371 9.26824 15.3371C7.97024 15.3371 6.91445 16.388 6.91445 17.6831C6.91445 17.7851 6.92066 17.8902 6.93619 17.9984C6.46108 18.5516 6.20334 19.244 6.20334 19.9765C6.20334 21.3891 7.17219 22.6038 8.53229 22.9376C8.82419 23.4785 9.27756 23.9205 9.83029 24.1987C9.9545 24.2605 10.1005 24.2482 10.2309 24.2915L10.2433 24.3131L10.265 24.3007C10.2681 24.3007 10.2743 24.3007 10.2775 24.3038V26.5787C8.11929 26.0873 6.15366 25.9451 4.56687 25.9575V24.9962C5.10098 24.9529 5.5264 24.5233 5.5264 23.9824C5.5264 23.7969 5.47361 23.6145 5.37735 23.4569C5.47671 23.3178 5.53261 23.1478 5.53261 22.9778C5.53261 22.4369 5.00161 22.0196 4.47371 22.1495C4.31845 22.0104 4.11661 21.93 3.90545 21.93C3.44277 21.93 3.06392 22.3071 3.06392 22.7707C3.06392 22.7955 3.06392 22.8171 3.06703 22.8356C2.92108 23.0211 2.84034 23.2529 2.84034 23.4878C2.84034 23.9638 3.15708 24.3718 3.60424 24.5047C3.65082 24.582 3.73466 24.6191 3.79677 24.6809L3.79056 24.6871L3.87129 24.8138L3.91166 24.7891C3.95824 24.82 3.98308 24.8756 4.03277 24.9004C4.05761 24.9158 4.08556 24.9096 4.1104 24.9189V25.9636C2.9335 25.9945 2.02987 26.0996 1.42124 26.1924C1.26287 17.2535 3.85887 6.50945 4.52961 3.91309C7.16287 5.03509 13.9727 5.46164 19.7671 5.61618C20.0062 5.62236 20.2516 5.62855 20.5 5.63473C20.5466 5.63473 20.59 5.63473 20.6366 5.63782C21.3322 5.65327 22.0557 5.66564 22.8072 5.678C22.9718 5.678 23.1395 5.68109 23.3009 5.68418H23.6611C24.5523 5.69345 25.3752 5.69655 26.0957 5.69655C31.8218 5.69655 43.9354 5.50182 47.6586 3.91309C48.4815 7.09673 52.0867 22.0382 50.2826 31.3913Z" fill="white"/>
</svg>
