<svg width="107" height="94" viewBox="0 0 107 94" fill="none" xmlns="http://www.w3.org/2000/svg">
<circle cx="56" cy="46" r="46" fill="white"/>
<path d="M30.1731 27.5575L32.5651 18.6302L35.312 19.3662C36.0968 19.5765 36.7502 19.9422 37.2721 20.4632C37.7992 20.9812 38.1489 21.6137 38.3211 22.3609C38.4944 23.1039 38.4699 23.8903 38.2475 24.7201L38.1374 25.1309C37.9151 25.9606 37.5457 26.6524 37.0293 27.2063C36.517 27.7612 35.9025 28.1332 35.1859 28.3224C34.4693 28.5115 33.7201 28.5035 32.9383 28.2984L30.1731 27.5575ZM34.0053 20.613L32.4084 26.5727L33.2975 26.8109C34.0169 27.0037 34.6296 26.916 35.1357 26.5477C35.6418 26.1795 36.0162 25.5591 36.2587 24.6866L36.3852 24.2145C36.6284 23.307 36.6243 22.5699 36.3731 22.0032C36.123 21.4324 35.6362 21.05 34.9127 20.8562L34.0053 20.613ZM38.8529 26.2623C39.0292 25.6042 39.3131 25.0516 39.7045 24.6044C40.096 24.1573 40.5665 23.8563 41.1163 23.7013C41.6701 23.5474 42.2617 23.5548 42.8912 23.7234C43.7864 23.9633 44.4427 24.4327 44.86 25.1315C45.2814 25.8315 45.3988 26.6603 45.2123 27.618L45.103 28.075C44.8303 29.0928 44.3272 29.8342 43.5936 30.2992C42.8611 30.7601 42.0167 30.8624 41.0602 30.6061C40.1037 30.3498 39.4214 29.8384 39.0135 29.072C38.6096 28.3066 38.5489 27.3966 38.8315 26.342L38.8529 26.2623ZM40.5903 26.8658C40.4217 27.4953 40.411 28.0094 40.5582 28.4081C40.7066 28.8028 41.0015 29.0592 41.443 29.1775C41.8722 29.2925 42.2511 29.2188 42.5799 28.9564C42.9098 28.6899 43.1717 28.195 43.3656 27.4715C43.5309 26.8542 43.5385 26.3437 43.3882 25.9398C43.238 25.5359 42.9442 25.2754 42.5068 25.1582C42.0735 25.0421 41.6929 25.1219 41.3649 25.3976C41.038 25.6693 40.7798 26.1587 40.5903 26.8658ZM50.3839 27.6434C50.1515 27.5461 49.9433 27.4728 49.7594 27.4235C49.089 27.2439 48.5888 27.353 48.2588 27.7509L47.0956 32.0919L45.3237 31.6171L47.1013 24.9829L48.7751 25.4314L48.6123 26.2355C49.1311 25.7218 49.7052 25.5492 50.3347 25.7179C50.5309 25.7705 50.7077 25.8463 50.8652 25.9455L50.3839 27.6434ZM54.0638 33.2361C53.484 33.6503 52.8079 33.7539 52.0353 33.5469C51.3241 33.3563 50.8352 33.0063 50.5687 32.4967C50.3062 31.9883 50.2766 31.3386 50.4798 30.5475L51.6446 26.2003L53.4166 26.6751L52.2682 30.9609C52.0831 31.6517 52.3053 32.0815 52.9348 32.2501C53.5357 32.4112 54.0044 32.3133 54.3409 31.9566L55.5993 27.26L57.3774 27.7364L55.5998 34.3706L53.9321 33.9237L54.0638 33.2361ZM60.0455 34.162C60.3725 34.2497 60.6623 34.2309 60.9149 34.1058C61.1675 33.9807 61.3378 33.7701 61.4259 33.4739L63.0875 33.9191C62.963 34.3677 62.7297 34.7476 62.3878 35.0591C62.047 35.3664 61.6381 35.5679 61.1612 35.6636C60.6895 35.7562 60.2002 35.7347 59.6934 35.5989C58.7451 35.3448 58.0775 34.8439 57.6908 34.0962C57.3052 33.3445 57.2547 32.4373 57.5395 31.3745L57.5707 31.258C57.8445 30.2361 58.3349 29.4935 59.0417 29.0301C59.7485 28.5667 60.5761 28.4621 61.5244 28.7162C62.3542 28.9385 62.9549 29.3536 63.3266 29.9614C63.7034 30.5661 63.7907 31.262 63.5886 32.0491L61.927 31.6038C62.0108 31.2583 61.979 30.9518 61.8316 30.6845C61.6853 30.4131 61.4445 30.2325 61.1094 30.1427C60.6965 30.0321 60.3433 30.0995 60.0497 30.3451C59.7613 30.5876 59.5267 31.0461 59.346 31.7205L59.2967 31.9045C59.1138 32.5871 59.0866 33.1055 59.2151 33.4598C59.3436 33.814 59.6204 34.0481 60.0455 34.162ZM61.8202 26.8765L62.9503 26.2396L64.4648 26.6454L64.4467 26.7129L62.1334 27.9396L61.0114 27.639L59.6246 25.4076L59.6394 25.3524L61.1539 25.7582L61.8202 26.8765ZM66.5053 37.4241C65.5325 37.1634 64.8194 36.6526 64.3662 35.8915C63.9171 35.1315 63.8256 34.2549 64.0917 33.2616L64.1377 33.0899C64.3163 32.4236 64.6044 31.8634 65.0021 31.4092C65.4009 30.9509 65.8731 30.6437 66.4188 30.4876C66.9696 30.3285 67.5475 30.3301 68.1525 30.4921C69.0599 30.7353 69.6965 31.2126 70.0623 31.9239C70.4322 32.6364 70.4764 33.5178 70.1949 34.5684L70.001 35.2919L65.7765 34.1599C65.7176 34.6085 65.7962 35.002 66.0122 35.3402C66.2324 35.6796 66.5632 35.9084 67.0046 36.0267C67.6872 36.2096 68.2869 36.1053 68.8037 35.7136L69.4131 36.9218C69.0467 37.2267 68.6081 37.4246 68.0974 37.5156C67.5879 37.6025 67.0572 37.572 66.5053 37.4241ZM67.7619 31.9252C67.4104 31.8311 67.0925 31.8729 66.8082 32.0509C66.528 32.2299 66.2982 32.5319 66.1186 32.9569L68.5834 33.6174L68.6211 33.4764C68.7181 33.0818 68.6929 32.7508 68.5455 32.4835C68.3991 32.2121 68.1379 32.026 67.7619 31.9252ZM73.6869 32.1065L73.5367 32.8877C74.1697 32.4221 74.8847 32.296 75.6818 32.5096C76.3848 32.698 76.8527 33.0446 77.0855 33.5495C77.3182 34.0543 77.3286 34.7186 77.1166 35.5424L75.9682 39.8283L74.1963 39.3535L75.3331 35.1106C75.4339 34.7345 75.425 34.4408 75.3064 34.2294C75.1889 34.0139 74.9401 33.8552 74.5599 33.7533C74.0612 33.6197 73.6303 33.7321 73.267 34.0904L72.0135 38.7686L70.2415 38.2938L72.0191 31.6597L73.6869 32.1065ZM79.1872 40.6908L77.4091 40.2143L79.1867 33.5802L80.9648 34.0566L79.1872 40.6908ZM79.5425 31.8355C79.6137 31.5698 79.7602 31.3747 79.9819 31.2501C80.2078 31.1266 80.474 31.1059 80.7806 31.1881C81.083 31.2691 81.3012 31.4196 81.4351 31.6394C81.5689 31.8593 81.6002 32.1021 81.529 32.3678C81.4568 32.6376 81.3056 32.8337 81.0757 32.956C80.8498 33.0795 80.5877 33.1013 80.2893 33.0213C79.9909 32.9414 79.7728 32.7909 79.6348 32.57C79.501 32.3501 79.4702 32.1053 79.5425 31.8355ZM83.6732 42.0242C82.7003 41.7635 81.9873 41.2527 81.534 40.4916C81.0849 39.7316 80.9934 38.855 81.2596 37.8617L81.3056 37.69C81.4841 37.0238 81.7722 36.4635 82.1699 36.0093C82.5687 35.551 83.0409 35.2438 83.5866 35.0877C84.1374 34.9286 84.7153 34.9302 85.3203 35.0923C86.2277 35.3354 86.8643 35.8127 87.2301 36.524C87.6 37.2365 87.6442 38.1179 87.3627 39.1685L87.1688 39.892L82.9443 38.76C82.8855 39.2086 82.964 39.6021 83.1801 39.9403C83.4002 40.2797 83.731 40.5085 84.1724 40.6268C84.8551 40.8097 85.4548 40.7054 85.9715 40.3137L86.581 41.5219C86.2145 41.8268 85.7759 42.0247 85.2653 42.1157C84.7557 42.2026 84.225 42.1721 83.6732 42.0242ZM84.9297 36.5254C84.5782 36.4312 84.2603 36.473 83.976 36.651C83.6959 36.83 83.466 37.132 83.2864 37.5571L85.7512 38.2175L85.789 38.0765C85.8859 37.6819 85.8607 37.3509 85.7133 37.0836C85.567 36.8122 85.3058 36.6261 84.9297 36.5254ZM22.3941 40.5003C22.6712 39.4661 23.1228 38.7044 23.749 38.215C24.3793 37.7267 25.0971 37.5905 25.9023 37.8062C26.5481 37.9793 27.017 38.3634 27.3087 38.9585L28.2156 35.574L29.9937 36.0505L27.4702 45.4682L25.8699 45.0394L25.973 44.3113C25.3837 44.7449 24.7416 44.8685 24.0467 44.6823C23.266 44.4731 22.7207 43.9984 22.4108 43.2583C22.1061 42.5151 22.1006 41.5958 22.3941 40.5003ZM24.1316 41.1038C23.9651 41.7252 23.9458 42.2304 24.0737 42.6195C24.2016 43.0087 24.472 43.2585 24.8849 43.3692C25.4326 43.5159 25.8808 43.3885 26.2294 42.9868L26.9309 40.3687C26.8339 39.8477 26.5136 39.5143 25.97 39.3687C25.1156 39.1398 24.5028 39.7182 24.1316 41.1038ZM29.473 42.3839C29.6493 41.7258 29.9332 41.1732 30.3246 40.7261C30.7161 40.279 31.1866 39.9779 31.7364 39.8229C32.2902 39.669 32.8818 39.6764 33.5113 39.8451C34.4065 40.0849 35.0628 40.5543 35.4801 41.2532C35.9015 41.9532 36.0189 42.782 35.8324 43.7396L35.7231 44.1966C35.4504 45.2145 34.9473 45.9559 34.2137 46.4208C33.4812 46.8817 32.6368 46.984 31.6803 46.7277C30.7238 46.4714 30.0415 45.9601 29.6336 45.1936C29.2297 44.4282 29.169 43.5182 29.4516 42.4636L29.473 42.3839ZM31.2104 42.9875C31.0418 43.617 31.0311 44.1311 31.1783 44.5298C31.3267 44.9244 31.6216 45.1808 32.0631 45.2991C32.4923 45.4141 32.8713 45.3404 33.2 45.0781C33.5299 44.8116 33.7918 44.3166 33.9857 43.5931C34.151 42.9759 34.1586 42.4653 34.0083 42.0614C33.8581 41.6575 33.5643 41.397 33.1269 41.2798C32.6936 41.1637 32.313 41.2435 31.985 41.5193C31.6581 41.7909 31.3999 42.2803 31.2104 42.9875ZM45.1163 50.1965L38.9972 48.5569L39.3225 47.3429L43.0351 45.0387C43.5477 44.7117 43.9413 44.4119 44.2158 44.1393C44.4945 43.8679 44.6727 43.5871 44.7504 43.2969C44.8567 42.9004 44.8398 42.5629 44.6997 42.2844C44.5607 42.0018 44.3053 41.8107 43.9333 41.711C43.5327 41.6037 43.1787 41.6578 42.8712 41.8733C42.5689 42.0858 42.3576 42.4169 42.2371 42.8666L40.459 42.3901C40.6047 41.8465 40.8665 41.3843 41.2445 41.0037C41.6266 40.6242 42.0886 40.3712 42.6307 40.2448C43.1739 40.1144 43.7459 40.1296 44.3468 40.2906C45.2665 40.5371 45.9206 40.9489 46.3092 41.5262C46.7018 42.1046 46.7903 42.7964 46.5745 43.6016C46.4562 44.0431 46.2213 44.462 45.8697 44.8585C45.5181 45.255 44.9828 45.6833 44.2637 46.1434L41.6609 47.7394L45.4991 48.7679L45.1163 50.1965ZM52.3503 48.5336L53.362 48.8047L52.9792 50.2333L51.9675 49.9622L51.45 51.8936L49.678 51.4188L50.1955 49.4874L46.5351 48.5066L46.7544 47.3693L52.0517 42.4866L53.842 42.9663L52.3503 48.5336ZM48.604 47.5298L50.5783 48.0588L51.4228 44.9073L51.2521 45.0784L48.604 47.5298ZM53.8443 53.3566L52.5261 53.0034L58.4099 44.1903L59.7282 44.5435L53.8443 53.3566ZM64.2574 51.7241L65.2691 51.9952L64.8863 53.4238L63.8746 53.1527L63.3571 55.0841L61.5851 54.6093L62.1026 52.6779L58.4422 51.6971L58.6615 50.5598L63.9588 45.6771L65.7492 46.1568L64.2574 51.7241ZM60.5111 50.7203L62.4854 51.2493L63.3299 48.0978L63.1592 48.2689L60.5111 50.7203ZM72.9002 50.6161C72.7841 51.0494 72.5728 51.4046 72.2664 51.6818C71.9599 51.9589 71.5898 52.1467 71.156 52.2451C71.5334 52.5697 71.7995 52.9498 71.9544 53.3856C72.1103 53.8173 72.1221 54.2805 71.9895 54.7751C71.777 55.5681 71.3391 56.1232 70.6758 56.4405C70.0136 56.7538 69.2185 56.7861 68.2907 56.5375C67.3628 56.2888 66.6889 55.8607 66.269 55.2532C65.8491 54.6456 65.7449 53.9474 65.9563 53.1585C66.0888 52.6639 66.3311 52.2666 66.6831 51.9666C67.0351 51.6666 67.453 51.472 67.937 51.3826C67.6105 51.0804 67.3839 50.7327 67.257 50.3395C67.1343 49.9474 67.131 49.5347 67.2471 49.1014C67.4508 48.3411 67.8663 47.804 68.4937 47.4902C69.1221 47.1723 69.8716 47.13 70.7423 47.3633C71.6089 47.5955 72.2353 48.0043 72.6217 48.5898C73.0133 49.1722 73.1061 49.8477 72.9002 50.6161ZM70.2459 54.1699C70.35 53.7816 70.3208 53.4408 70.1584 53.1476C69.996 52.8543 69.7248 52.6568 69.3446 52.5549C68.9686 52.4542 68.6369 52.4901 68.3497 52.6629C68.0635 52.8316 67.8679 53.1121 67.7627 53.5045C67.6609 53.8847 67.6891 54.2208 67.8474 54.5129C68.0057 54.8051 68.281 55.0037 68.6734 55.1089C69.0577 55.2118 69.3882 55.1799 69.6651 55.0131C69.9461 54.8475 70.1397 54.5664 70.2459 54.1699ZM71.1052 50.2272C71.1983 49.8797 71.1808 49.5771 71.0527 49.3194C70.9258 49.0575 70.6947 48.8817 70.3595 48.7919C70.0284 48.7032 69.7435 48.7364 69.5048 48.8915C69.2661 49.0466 69.0986 49.304 69.0022 49.6637C68.9069 50.0193 68.9222 50.3301 69.0481 50.596C69.174 50.8619 69.4045 51.0398 69.7397 51.1296C70.0749 51.2194 70.3614 51.1801 70.5993 51.0116C70.8413 50.8443 71.0099 50.5828 71.1052 50.2272ZM79.0491 52.9538C79.6703 52.5156 80.3366 52.3918 81.0478 52.5824C82.4866 52.968 82.9923 53.9994 82.5648 55.6767L81.4262 59.9257L79.6543 59.4509L80.7797 55.2509C80.8815 54.8708 80.8748 54.5689 80.7595 54.3452C80.6453 54.1175 80.3981 53.9526 80.0179 53.8508C79.4988 53.7117 79.0691 53.8112 78.7288 54.1494L77.4654 58.8644L75.6934 58.3896L78.2169 48.9718L79.9889 49.4466L79.0491 52.9538ZM83.0881 59.4378C83.1637 59.1558 83.3191 58.9521 83.5542 58.8267C83.7934 58.7024 84.0561 58.6786 84.3422 58.7553C84.6324 58.833 84.848 58.985 84.9889 59.2111C85.1339 59.4384 85.1687 59.693 85.0931 59.9751C85.0186 60.253 84.8638 60.4547 84.6287 60.5801C84.3947 60.7014 84.1305 60.7226 83.8362 60.6437C83.546 60.566 83.3298 60.4161 83.1878 60.194C83.0469 59.9678 83.0137 59.7158 83.0881 59.4378Z" fill="#4F8709"/>
<path fill-rule="evenodd" clip-rule="evenodd" d="M45.7096 65.9954C45.621 65.963 45.5237 65.9528 45.4297 65.9623C45.3609 65.9699 45.2966 65.9931 45.231 66.016C45.1062 65.9132 44.9751 65.8174 44.8182 65.7638C44.6449 65.6957 44.4166 65.7356 44.3237 65.8927C44.4505 65.7606 44.6427 65.7745 44.7749 65.8605C44.9144 65.9412 45.0256 66.0678 45.1268 66.1989L45.1278 66.2007L45.1869 66.2728L45.2615 66.2163C45.3733 66.135 45.5343 66.0756 45.6835 66.0982C45.8386 66.1152 45.9807 66.2241 46.0798 66.3633C46.0108 66.209 45.8918 66.0573 45.7096 65.9954Z" fill="#4F8709"/>
<path fill-rule="evenodd" clip-rule="evenodd" d="M46.8034 67.0776C46.7346 67.0851 46.6717 67.1087 46.6061 67.1316C46.4812 67.0288 46.3505 66.9317 46.1919 66.8791C46.019 66.8096 45.7906 66.8495 45.6991 67.007C45.8242 66.8759 46.0164 66.8898 46.1503 66.9748C46.2881 67.0565 46.4006 67.1834 46.5009 67.3128L46.5019 67.3146L46.5623 67.3871L46.6366 67.3319C46.747 67.2502 46.908 67.1908 47.0576 67.2121C47.214 67.2295 47.3543 67.3393 47.4538 67.4772C47.3862 67.3233 47.2655 67.1725 47.0833 67.1107C46.9951 67.0769 46.8987 67.0684 46.8034 67.0776Z" fill="#4F8709"/>
<path fill-rule="evenodd" clip-rule="evenodd" d="M47.7252 65.8636C47.6732 65.841 47.6135 65.8308 47.556 65.8342C47.5223 65.8353 47.4885 65.8479 47.4561 65.8551C47.3875 65.8078 47.3183 65.7575 47.233 65.7346C47.1288 65.701 46.9933 65.7354 46.9493 65.8291C47.0269 65.7618 47.1272 65.7829 47.192 65.8334C47.2598 65.8834 47.3127 65.9568 47.3626 66.0308L47.3622 66.0322L47.4253 66.1271L47.4955 66.0491C47.5138 66.0295 47.5527 66.0038 47.5869 65.9898C47.6228 65.9749 47.66 65.9661 47.6991 65.9664C47.779 65.9662 47.8638 66.0178 47.9255 66.0907C47.8943 66.0014 47.8336 65.9086 47.7252 65.8636Z" fill="#4F8709"/>
<path fill-rule="evenodd" clip-rule="evenodd" d="M41.0458 79.3255C41.0531 79.3419 41.0658 79.354 41.082 79.3583C41.0929 79.3612 41.1044 79.3615 41.1143 79.3569C49.1642 76.5507 56.1656 80.3493 56.2353 80.3867C56.262 80.4011 56.293 80.3935 56.3074 80.367C56.3214 80.3419 56.3123 80.3106 56.2861 80.2949C56.2163 80.2574 49.1752 76.4337 41.0792 79.255C41.0498 79.2674 41.0378 79.2959 41.0458 79.3255Z" fill="#4F8709"/>
<path fill-rule="evenodd" clip-rule="evenodd" d="M41.8902 79.9212C41.8619 79.9295 41.8444 79.9566 41.8542 79.9852C41.858 80.0036 41.8748 80.0168 41.891 80.0211C41.9005 80.0237 41.909 80.0245 41.9182 80.0226C49.0978 78.0001 54.9211 80.9905 54.9798 81.0206C55.0034 81.0299 55.0368 81.0244 55.0494 80.9989C55.0638 80.9724 55.0548 80.9411 55.0282 80.9267C54.9691 80.8979 49.1111 77.8852 41.8902 79.9212Z" fill="#4F8709"/>
<path fill-rule="evenodd" clip-rule="evenodd" d="M42.7522 80.6819C42.7566 80.7033 42.7713 80.7188 42.7903 80.7239C42.7984 80.7261 42.8069 80.7269 42.8144 80.726C48.832 79.5954 53.3062 81.4847 53.3514 81.5055C53.3778 81.5155 53.4103 81.5025 53.4219 81.4753C53.4318 81.4491 53.4201 81.417 53.3928 81.4054C53.3482 81.3876 48.8466 79.4867 42.7946 80.6211C42.7656 80.6263 42.7465 80.6544 42.7522 80.6819Z" fill="#4F8709"/>
<path fill-rule="evenodd" clip-rule="evenodd" d="M60.7889 65.4617C60.7884 65.4529 60.7892 65.4444 60.7873 65.4353L60.7882 65.3994L60.7764 65.3948C60.4792 64.2564 54.0684 62.4187 51.2264 61.6572C48.3289 60.8808 41.6621 59.2187 41.0445 60.1698L41.034 60.1872C40.7627 60.6417 34.4379 71.3838 36.9541 75.7168C39.1416 79.4895 43.9684 82.2995 45.15 82.9483L43.5257 89.0103C43.3079 89.823 43.6253 90.025 43.8514 90.0856C44.0328 90.1342 44.2163 90.0288 44.2647 89.8482C44.2839 89.7768 44.2646 89.7023 44.2483 89.6604C44.1679 89.5218 44.1821 89.3985 44.2351 89.2004L45.6691 83.8487C45.6699 83.846 45.6696 83.8416 45.6707 83.8375L45.8592 83.134C47.2357 83.1634 52.7935 83.1316 56.5568 80.9694C60.9011 78.4746 60.7946 66.0092 60.7883 65.4803L60.7889 65.4617ZM51.0675 62.2502C55.9296 63.553 58.918 64.7047 59.8712 65.2635C59.2662 65.2848 57.9739 65.2115 55.3922 64.6758C54.344 64.4556 53.142 64.1754 51.7854 63.8278C51.7106 63.8092 51.6385 63.7913 51.564 63.7713C51.3809 63.7237 51.1913 63.6729 51.0031 63.6225C50.9083 63.5971 50.8159 63.5738 50.7198 63.548C50.6304 63.5241 50.5455 63.4999 50.4588 63.4767C50.253 63.4215 50.0459 63.366 49.8472 63.3113C49.8011 63.299 49.7582 63.286 49.7135 63.2741C47.7015 62.7133 46.0517 62.1874 44.7753 61.7356C43.1181 61.1342 42.3001 60.7099 41.9074 60.4587C42.9872 60.4419 46.1635 60.9361 51.0675 62.2502ZM37.3218 70.559C38.4705 70.6804 42.6756 71.4186 45.2443 75.7397C45.1203 75.7585 44.9981 75.7705 44.8751 75.791C42.2646 72.0264 38.4381 71.2726 37.1996 71.1286C37.2352 70.9417 37.278 70.7495 37.3218 70.559ZM39.0665 68.9652L39.0845 69.0119L39.1683 68.9968C39.2948 68.9744 39.3818 69.0829 39.3692 69.1951L38.571 69.4333C38.5376 69.3738 38.5224 69.3062 38.5415 69.2348C38.5581 69.1728 38.6014 69.1251 38.6533 69.0885L39.0665 68.9652ZM38.7228 68.9482C38.7477 68.8552 38.8437 68.8001 38.9358 68.8247C38.9778 68.836 39.003 68.8716 39.027 68.9069L38.7162 68.9999L38.7167 68.987C38.718 68.9715 38.7195 68.9603 38.7228 68.9482ZM39.326 69.2803C39.3098 69.2976 39.3046 69.3222 39.2813 69.3333L39.1874 69.3804L39.2353 69.4727C39.2594 69.5181 39.2582 69.5712 39.252 69.6216L38.8175 69.7536C38.7865 69.7179 38.7565 69.678 38.7491 69.6298L38.7401 69.5769L38.6908 69.555C38.6615 69.5399 38.6476 69.5102 38.6245 69.4881L39.326 69.2803ZM39.2218 69.7016C39.1665 69.8052 39.0573 69.8713 38.9382 69.8394C38.9152 69.8332 38.897 69.8197 38.8772 69.8072L39.2218 69.7016ZM41.101 67.465L41.105 67.3852L42.3949 67.0014C42.4289 67.048 42.4717 67.0884 42.4939 67.1463L42.5198 67.2125L40.7739 67.7327C40.8456 67.6493 40.925 67.5695 41.0218 67.5117L41.101 67.465ZM41.1274 67.215C41.23 66.8322 41.6258 66.606 42.009 66.7087C42.1254 66.7399 42.2291 66.8024 42.3139 66.8814L41.1243 67.2372C41.1262 67.2305 41.1256 67.2217 41.1274 67.215ZM42.8426 67.2585C42.8973 67.2602 42.9566 67.2501 43.0081 67.2639C43.1002 67.2885 43.1797 67.333 43.2513 67.3854L40.5451 68.1914C40.5491 68.1708 40.5457 68.1511 40.5508 68.1322C40.5728 68.05 40.6201 67.9818 40.6596 67.9101L42.8426 67.2585ZM43.3579 67.4963C43.4151 67.5593 43.4592 67.6274 43.4906 67.7052L40.543 68.5837C40.5283 68.5032 40.5282 68.4223 40.5332 68.3384L43.3579 67.4963ZM43.5358 67.8343C43.5519 67.9152 43.5499 67.9984 43.5374 68.0831L40.6813 68.9342C40.6375 68.8647 40.6043 68.7937 40.5803 68.7151L43.5358 67.8343ZM43.4945 68.2378C43.441 68.3722 43.3475 68.4829 43.2279 68.5665L40.9869 69.2342C40.9093 69.1773 40.8244 69.1257 40.764 69.0532L43.4945 68.2378ZM43.0208 68.771L43.0686 68.8632C43.0893 68.9049 43.0975 68.9504 43.1104 68.9943L41.2481 69.5483C41.2401 69.5187 41.2156 69.4963 41.2106 69.4661L41.1954 69.3767L41.1171 69.3384L43.0208 68.771ZM43.1495 69.1247C43.1615 69.2044 43.1656 69.2864 43.1609 69.369L41.4055 69.8924C41.3576 69.8275 41.3402 69.7463 41.3059 69.6736L43.1495 69.1247ZM43.1508 69.515C43.1461 69.5325 43.1512 69.5513 43.1465 69.5688C43.1231 69.6564 43.0744 69.7242 43.0315 69.7979L41.7647 70.1764C41.6865 70.1381 41.6009 70.1109 41.5352 70.0528C41.5198 70.04 41.5119 70.0206 41.4978 70.0081L43.1508 69.515ZM42.9028 69.9801C42.6619 70.2348 42.3016 70.3607 41.9394 70.2666L42.9028 69.9801ZM44.8341 70.7013L44.8589 70.7657L44.999 70.7412C45.1105 70.7205 45.2064 70.7577 45.2868 70.8154L43.7131 71.2835C43.7153 71.2696 43.7128 71.2574 43.7168 71.2426C43.7442 71.1402 43.8053 71.0583 43.8799 70.9859L44.8341 70.7013ZM44.0776 70.6705C44.1321 70.467 44.3434 70.3445 44.5492 70.3996C44.6454 70.4254 44.7187 70.4927 44.7697 70.5786L44.0635 70.788L44.0654 70.7539C44.0662 70.7238 44.0707 70.6961 44.0776 70.6705ZM45.3938 70.9249C45.4376 70.9945 45.4575 71.072 45.4524 71.1559L43.765 71.6585C43.7287 71.5881 43.7061 71.5098 43.7002 71.4288L45.3938 70.9249ZM45.3777 71.3208C45.3405 71.3787 45.3118 71.4475 45.2447 71.4815L45.0882 71.5566L45.134 71.6454L44.1114 71.9579L44.0341 71.9213C43.9596 71.8854 43.9005 71.8349 43.8477 71.7775L45.3777 71.3208ZM45.1871 71.7723C45.2158 71.8494 45.2268 71.9274 45.2194 72.0092L44.2652 72.2938C44.2155 72.2299 44.172 72.1648 44.1522 72.0873L45.1871 71.7723ZM45.1861 72.1606C45.0834 72.4191 44.8091 72.571 44.5343 72.4973C44.4706 72.4803 44.4182 72.4431 44.3644 72.4056L45.1861 72.1606ZM37.1334 71.495C38.2755 71.6248 41.9201 72.3154 44.4581 75.8468C44.3927 75.8582 44.3286 75.8699 44.2628 75.8826C44.1833 75.8974 44.1037 75.9238 44.0239 75.94C41.5208 72.9336 38.2768 72.2319 37.0522 72.0742C37.0742 71.8836 37.101 71.6915 37.1334 71.495ZM37.0182 72.445C38.177 72.5937 41.2239 73.2454 43.6241 76.035C43.4572 76.0727 43.2904 76.1103 43.1232 76.155C40.8554 73.8733 38.2134 73.2159 36.9872 73.0318C36.9892 72.8402 37.0024 72.6444 37.0182 72.445ZM36.9979 73.4088C38.1694 73.5912 40.5823 74.2103 42.7032 76.2548C42.6919 76.259 42.6817 76.2592 42.669 76.263C42.6154 76.279 42.5614 76.2963 42.5078 76.3123C42.3941 76.3468 42.2804 76.3972 42.1681 76.4321C40.2608 74.8305 38.2297 74.2328 37.0489 74.0147C37.021 73.8209 37.0058 73.6175 36.9979 73.4088ZM37.1222 74.407C38.2405 74.6257 40.0421 75.1865 41.7667 76.5759C41.5654 76.6448 41.3662 76.7113 41.1655 76.7889C39.7587 75.8053 38.3651 75.3091 37.3403 75.0663C37.2508 74.8589 37.1757 74.6409 37.1222 74.407ZM37.5408 75.4985C38.4447 75.7378 39.585 76.1719 40.7507 76.945C40.5526 77.0292 40.354 77.1421 40.1564 77.235C39.4167 76.8057 38.705 76.4994 38.0601 76.2848C37.8752 76.0272 37.6998 75.7664 37.5408 75.4985ZM38.4573 76.8173C38.8738 76.9795 39.3119 77.1806 39.7611 77.4267C39.5806 77.5155 39.3989 77.5925 39.2189 77.6901C38.9551 77.4071 38.6976 77.1171 38.4573 76.8173ZM45.6378 82.5142C45.5171 82.4501 45.264 82.3115 44.9187 82.1107C46.579 81.9965 48.157 82.0973 49.5798 82.3441C47.6093 82.56 46.0234 82.5266 45.6378 82.5142ZM51.5319 82.0395C51.5347 82.0345 51.5411 82.0377 51.5436 82.034C51.5512 82.0057 51.5346 81.9753 51.5079 81.9667C51.469 81.9548 47.7048 80.8061 44.0649 81.4197C44.0359 81.4249 44.0171 81.4516 44.0224 81.4805C44.0255 81.5016 44.0416 81.5174 44.0605 81.5225C44.0673 81.5243 44.0744 81.5248 44.0836 81.5229C47.5273 80.9434 51.084 81.9513 51.4385 82.0578C51.2084 82.0988 50.9734 82.1528 50.7447 82.1883C48.8783 81.772 46.6911 81.5456 44.3564 81.7722C44.1133 81.6233 43.8481 81.454 43.5632 81.2665C46.8838 80.7291 49.9642 81.202 52.3195 81.8895C52.0534 81.951 51.7948 81.9901 51.5319 82.0395ZM53.0061 81.721C50.4621 80.9035 46.9474 80.2752 43.1309 80.9787C42.9265 80.8373 42.7146 80.691 42.4999 80.5338C47.1263 79.4016 51.3966 80.3783 54.1127 81.3819C53.7467 81.5078 53.3778 81.6227 53.0061 81.721ZM54.66 81.1862C51.8647 80.0935 47.1566 78.8767 42.0805 80.225C41.9196 80.1053 41.7584 79.9812 41.5942 79.852C47.3747 77.9818 52.8019 79.6397 55.5276 80.8135C55.246 80.9489 54.9562 81.072 54.66 81.1862ZM56.2476 80.4387C56.1529 80.4943 56.0506 80.5405 55.9539 80.5926C53.2312 79.3806 47.4159 77.4815 41.2474 79.5756C41.1001 79.4538 40.9535 79.3293 40.8069 79.2048C47.6192 76.4844 54.1543 78.9794 56.6099 80.1646C56.4904 80.2582 56.3763 80.3649 56.2476 80.4387ZM57.1489 79.6532C57.1439 79.6447 57.1512 79.6336 57.1415 79.6267C57.1226 79.6158 55.1499 78.4373 52.102 77.7404C49.2901 77.0939 44.9633 76.729 40.3191 78.6696C40.2914 78.681 40.2786 78.7122 40.2891 78.7381C40.2963 78.7545 40.3094 78.7653 40.3243 78.7692C40.3351 78.7722 40.3484 78.7714 40.3583 78.7668C44.9772 76.8396 49.2779 77.199 52.0749 77.8415C55.1034 78.5404 57.0678 79.7066 57.0867 79.7174C57.0904 79.7199 57.0922 79.7131 57.0959 79.7156C57.0402 79.7772 56.9891 79.8487 56.9318 79.9056C54.5187 78.7188 47.6367 75.9965 40.4961 78.9352C40.3787 78.8315 40.2635 78.7255 40.1482 78.6195C47.8208 75.0116 55.356 78.3451 57.3722 79.3938C57.3007 79.4873 57.2226 79.5675 57.1489 79.6532ZM57.5885 79.0849C55.5997 78.0421 47.7964 74.5284 39.8586 78.3411C39.7912 78.2783 39.7253 78.2101 39.6587 78.1446C39.6657 78.1565 39.676 78.1665 39.6896 78.1702C39.7018 78.1734 39.7154 78.1713 39.727 78.1658C44.495 75.812 49.1352 76.1178 52.1863 76.7866C55.4962 77.5131 57.7086 78.8152 57.7295 78.8294C57.7372 78.833 57.7415 78.8226 57.75 78.8234C57.6949 78.9097 57.6442 79.0016 57.5885 79.0849ZM57.7891 78.7587C57.7851 78.7519 57.792 78.7422 57.7843 78.7387C57.7621 78.7241 55.5449 77.4179 52.2134 76.6855C49.1427 76.0086 44.475 75.7026 39.6796 78.0722C39.6532 78.0839 39.6415 78.1168 39.6564 78.1425C39.5991 78.0853 39.5395 78.0317 39.4843 77.9722C47.7979 73.5264 56.2635 77.5959 57.9481 78.5009C57.8987 78.5931 57.8428 78.672 57.7891 78.7587ZM47.3892 75.1546C47.4208 75.1341 47.4628 75.1237 47.4773 75.0857C47.563 75.0856 47.6472 75.0908 47.7329 75.0906C47.7488 75.1339 47.7813 75.1643 47.8194 75.1846L47.8078 75.5585C47.7758 75.5586 47.7442 75.5573 47.7123 75.5574C47.4325 75.5562 47.1415 75.5807 46.8551 75.5936L46.8268 75.1685C46.857 75.1477 46.8963 75.1366 46.9115 75.1016C46.9982 75.0974 47.088 75.0926 47.174 75.0911C47.1915 75.129 47.2189 75.1566 47.2526 75.1772L47.2726 75.5682L47.4103 75.5632L47.3892 75.1546ZM46.7187 75.5989C46.5918 75.6068 46.4671 75.6066 46.3384 75.6154L46.2875 75.1771C46.3093 75.1555 46.3427 75.15 46.3537 75.1198C46.4418 75.1159 46.5278 75.1144 46.6159 75.1106C46.6327 75.1454 46.6602 75.173 46.6915 75.1915L46.7187 75.5989ZM47.9573 75.1522C47.9817 75.1313 48.0188 75.1282 48.0329 75.0974C48.1182 75.0985 48.2056 75.0974 48.2902 75.1013C48.3058 75.1459 48.3379 75.1776 48.3756 75.1993L48.3587 75.5819C48.2208 75.5767 48.0857 75.5665 47.9457 75.5637L47.9573 75.1522ZM48.5138 75.1713C48.5426 75.1502 48.5815 75.1461 48.5966 75.1112C48.6808 75.1164 48.763 75.124 48.8458 75.1288C48.8585 75.1683 48.8838 75.1982 48.9137 75.2221L48.8972 75.6034C48.7644 75.5952 48.6302 75.5925 48.4967 75.5871L48.5138 75.1713ZM49.0508 75.2141C49.0878 75.1951 49.1304 75.1878 49.148 75.1491C49.235 75.1551 49.3219 75.1611 49.4058 75.1676C49.421 75.2136 49.4474 75.2452 49.4895 75.2666L49.4687 75.6366C49.4348 75.6333 49.4016 75.6273 49.3659 75.625C49.3347 75.6224 49.3031 75.6211 49.2719 75.6186C49.1951 75.6124 49.1122 75.6133 49.0334 75.6095L49.0508 75.2141ZM49.6274 75.2718C49.6651 75.2559 49.6906 75.231 49.7079 75.1937C49.7941 75.2024 49.8765 75.2143 49.961 75.224C49.9739 75.2679 49.9989 75.2991 50.038 75.3212L50.012 75.6999C49.8752 75.6849 49.7426 75.6652 49.6051 75.653L49.6274 75.2718ZM50.1765 75.3294C50.2124 75.3145 50.2373 75.2922 50.2569 75.257C50.3437 75.2687 50.4316 75.2764 50.5171 75.2878C50.5284 75.3269 50.5466 75.3563 50.5813 75.3786L50.5409 75.7621C50.4124 75.7436 50.2776 75.732 50.147 75.7158L50.1765 75.3294ZM50.7172 75.402C50.7595 75.3903 50.7901 75.3681 50.8145 75.3313C50.9013 75.3431 50.9861 75.3571 51.0736 75.3719C51.0858 75.4127 51.1099 75.4423 51.1472 75.4653L51.1035 75.845C51.0493 75.8363 50.9988 75.8242 50.9446 75.8154C50.872 75.8046 50.7963 75.7945 50.7224 75.7833C50.7072 75.7807 50.6912 75.7807 50.6773 75.7785L50.7172 75.402ZM51.2847 75.4775C51.3182 75.4663 51.3419 75.4481 51.3628 75.419C51.4502 75.4338 51.5442 75.446 51.63 75.4617C51.6425 75.507 51.6689 75.5386 51.7103 75.5627L51.6465 75.9472C51.5116 75.9197 51.3777 75.8939 51.2405 75.8701L51.2847 75.4775ZM51.8468 75.5733C51.8772 75.5626 51.8979 75.5451 51.918 75.5187C52.0061 75.5365 52.0938 75.5557 52.1806 75.5732C52.1929 75.6082 52.2113 75.6319 52.2411 75.6558L52.1633 76.0438C52.1552 76.0416 52.1471 76.0394 52.1372 76.0382C52.0221 76.0131 51.8993 75.9947 51.781 75.9702L51.8468 75.5733ZM52.6879 76.1655C52.5978 76.1443 52.5129 76.1201 52.4211 76.0998C52.3801 76.0903 52.3378 76.0804 52.2965 76.0722L52.3764 75.6819C52.4135 75.6731 52.4396 75.657 52.4628 75.63C52.5533 75.6499 52.6393 75.6701 52.7284 75.6896C52.7367 75.7236 52.7537 75.7469 52.7808 75.7701L52.6883 76.1642C52.5806 76.1382 52.4791 76.111 52.3697 76.086C52.4791 76.111 52.5802 76.1396 52.6879 76.1655ZM52.8207 76.1953L52.9139 75.8043C52.9517 75.7986 52.9801 75.7845 53.005 75.7565C53.0924 75.777 53.1825 75.7983 53.2668 75.8194C53.2775 75.8555 53.2968 75.8809 53.3267 75.9048L53.2291 76.2961C53.0977 76.2609 52.9582 76.2293 52.8207 76.1953ZM53.228 76.3001L53.2276 76.3015C53.0949 76.2659 52.9575 76.232 52.8213 76.1984C52.9575 76.232 53.0953 76.2646 53.228 76.3001ZM53.3631 76.332L53.4625 75.934C53.4953 75.9254 53.5189 75.913 53.541 75.89C53.6331 75.9147 53.7194 75.9393 53.8088 75.9632C53.8164 75.9941 53.8307 76.0167 53.8538 76.0388L53.7455 76.4431C53.6433 76.4129 53.5455 76.3823 53.4399 76.354C53.4142 76.3472 53.3868 76.3412 53.3624 76.3347L53.3627 76.3334L53.3844 76.3392C53.3776 76.3374 53.3699 76.3338 53.3631 76.332ZM53.8757 76.4824L53.983 76.0821C54.0218 76.0781 54.0526 76.0661 54.0798 76.0402C54.1688 76.0655 54.2592 76.0911 54.3465 76.1174C54.354 76.1541 54.373 76.1808 54.4029 76.2047L54.2655 76.5984C54.1985 76.5775 54.1339 76.5588 54.0669 76.5379C54.0036 76.5195 53.939 76.5008 53.8757 76.4824ZM54.3954 76.6389L54.5346 76.2386C54.5663 76.2341 54.5909 76.2233 54.6154 76.2024C54.704 76.2291 54.7967 76.2568 54.8806 76.2851C54.8869 76.3156 54.8984 76.3375 54.9181 76.3616L54.7812 76.764C54.7133 76.7415 54.6497 76.7187 54.5804 76.6957C54.5202 76.6767 54.4569 76.6583 54.3954 76.6389ZM54.9114 76.809L55.0427 76.4166C55.0862 76.4167 55.1214 76.4045 55.1534 76.3769C55.2403 76.4046 55.3238 76.4342 55.406 76.4634C55.4111 76.5038 55.429 76.5346 55.4605 76.5632L55.3093 76.9488C55.2603 76.9314 55.2143 76.9133 55.1653 76.8958C55.0828 76.8679 54.9949 76.8386 54.9114 76.809ZM55.4391 76.9952L55.5921 76.6028C55.6282 76.5981 55.6539 76.5833 55.6805 76.5601C55.769 76.5925 55.8477 76.6237 55.9309 76.6546C55.9347 76.6946 55.9485 76.7243 55.9745 76.7515L55.8226 77.1398C55.7476 77.1111 55.6757 77.0817 55.5966 77.0518C55.5466 77.0326 55.4908 77.0134 55.4391 76.9952ZM55.951 77.1915L56.1029 76.8033C56.1441 76.8013 56.1769 76.787 56.2063 76.7587C56.2954 76.7942 56.3697 76.8256 56.4508 76.8589C56.4525 76.9013 56.4864 76.9262 56.5097 76.9585L56.3469 77.3496C56.2739 77.3185 56.202 77.2891 56.1246 77.2583C56.0696 77.2363 56.0091 77.2129 55.951 77.1915ZM56.4739 77.401L56.631 77.0257C56.6679 77.0182 56.7024 77.0029 56.7304 76.9743C56.8165 77.0104 56.8905 77.0432 56.9644 77.076C56.9603 77.1182 56.9949 77.1463 57.0175 77.1812L56.8551 77.5652C56.7328 77.5123 56.6066 77.4582 56.4739 77.401ZM56.9806 77.622L57.1352 77.2561C57.1744 77.2507 57.2138 77.2338 57.2438 77.2029C57.337 77.2451 57.4129 77.2814 57.4692 77.3095C57.4625 77.351 57.4974 77.3777 57.5155 77.4129L57.342 77.7896C57.289 77.7653 57.2418 77.7411 57.1875 77.7164C57.1203 77.6854 57.0518 77.6541 56.9806 77.622ZM58.1049 78.1703C57.9984 78.1128 57.875 78.048 57.7226 77.9725C57.6787 77.9521 57.6396 77.93 57.5934 77.9075C57.5546 77.8899 57.5084 77.8674 57.4659 77.8474L57.6264 77.4975C57.6926 77.4993 57.7565 77.4775 57.7891 77.4154C57.833 77.3275 57.7973 77.2226 57.7106 77.1777C57.6546 77.1483 57.5942 77.1624 57.5438 77.1937C57.4824 77.1628 57.3957 77.1236 57.2887 77.0733C57.2828 77.014 57.2586 76.9584 57.2005 76.9312C57.1411 76.9038 57.0814 76.921 57.0312 76.9566C56.9518 76.9224 56.8729 76.8868 56.7793 76.8458C56.7742 76.7838 56.7483 76.7234 56.6848 76.6948C56.6197 76.6673 56.5568 76.6909 56.5075 76.734C56.4237 76.7 56.3477 76.6695 56.2572 76.6337C56.2535 76.5663 56.2252 76.5038 56.1583 76.4772C56.0901 76.4503 56.0247 76.4775 55.9767 76.5268C55.8949 76.4962 55.8176 76.4654 55.7304 76.4333C55.7267 76.3659 55.6975 76.3017 55.6302 76.2765C55.5606 76.2492 55.4925 76.2815 55.4451 76.3338C55.367 76.3056 55.2872 76.2785 55.2064 76.2496C55.2021 76.1791 55.1688 76.1138 55.0985 76.0892C55.0281 76.0646 54.961 76.0986 54.9159 76.153C54.8358 76.1272 54.7499 76.1013 54.6684 76.0751C54.6657 76.0036 54.6291 75.9346 54.5553 75.9119C54.4839 75.8913 54.4178 75.9271 54.3751 75.9835C54.2946 75.959 54.2106 75.9365 54.1288 75.9117C54.1231 75.8409 54.0874 75.7735 54.0143 75.7539C53.9402 75.7326 53.875 75.7701 53.833 75.8296C53.7507 75.8061 53.6712 75.7833 53.5873 75.7608C53.5802 75.6896 53.5411 75.6243 53.468 75.6047C53.3945 75.5864 53.3304 75.6256 53.2897 75.6854C53.2094 75.6654 53.1275 75.6463 53.0459 75.6259C53.0354 75.5566 52.9973 75.493 52.9238 75.4747C52.8527 75.4586 52.7902 75.4967 52.7499 75.5552C52.6666 75.5358 52.5832 75.5164 52.4982 75.4979C52.485 75.428 52.4462 75.367 52.3717 75.3528C52.2998 75.3393 52.2384 75.3792 52.2007 75.4384C52.117 75.4203 52.0334 75.4023 51.9476 75.3865C51.9337 75.3192 51.8925 75.262 51.821 75.2471C51.7501 75.2354 51.6934 75.2736 51.6545 75.3268C51.5688 75.311 51.4762 75.2992 51.3873 75.284C51.3704 75.2174 51.3274 75.1611 51.2548 75.1503C51.184 75.1386 51.1279 75.1799 51.0914 75.2351C51.0045 75.2234 50.9188 75.2076 50.8309 75.1942C50.8098 75.1322 50.7671 75.0803 50.699 75.0693C50.6291 75.0592 50.5751 75.0982 50.5386 75.1534C50.449 75.141 50.3571 75.1322 50.2658 75.1208C50.2436 75.0628 50.2015 75.014 50.1354 75.0064C50.0692 74.9987 50.0169 75.0367 49.9815 75.0879C49.8912 75.0782 49.803 75.0661 49.7114 75.056C49.6858 75 49.643 74.9539 49.5765 74.9476C49.5123 74.9434 49.4617 74.9804 49.4276 75.0319C49.3356 75.0232 49.2422 75.0198 49.1499 75.0124C49.1242 74.9564 49.0801 74.9099 49.0132 74.905C48.9463 74.9001 48.8964 74.9402 48.8633 74.9934C48.7719 74.9877 48.6844 74.9787 48.5927 74.9743C48.5639 74.919 48.5181 74.8735 48.4518 74.8716C48.3842 74.8694 48.3353 74.9112 48.3035 74.9648C48.2132 74.9608 48.12 74.9618 48.028 74.9588C47.9989 74.9048 47.9527 74.8606 47.8864 74.8588C47.8198 74.8582 47.7722 74.9004 47.7405 74.954C47.6494 74.9527 47.5607 74.9477 47.4689 74.9491C47.4389 74.8934 47.3896 74.8499 47.3223 74.852C47.2539 74.8525 47.207 74.8977 47.1776 74.9534C47.0871 74.9552 46.9942 74.9606 46.9034 74.9637C46.8717 74.909 46.8237 74.8658 46.755 74.8676C46.6863 74.8694 46.6408 74.915 46.6147 74.9745C46.5225 74.9772 46.4321 74.979 46.3395 74.9831C46.3074 74.9297 46.2564 74.8871 46.1884 74.892C46.0897 74.8973 46.0163 74.9817 46.024 75.0776C46.0282 75.1539 46.0859 75.204 46.1559 75.2242L46.2017 75.6221C46.1959 75.622 46.1915 75.6223 46.1853 75.6235C46.1265 75.6265 46.0673 75.6309 46.0077 75.6366C45.8903 75.647 45.7696 75.6696 45.6511 75.684C45.2182 74.9383 44.7374 74.301 44.2339 73.7428L44.4791 72.8278C44.9455 72.934 45.4196 72.6594 45.5442 72.1945C45.5564 72.1486 45.5371 72.1016 45.5409 72.0549L45.5549 72.0515L45.5397 71.9997C45.5434 71.8996 45.5633 71.798 45.5342 71.7007C45.6548 71.603 45.7438 71.4709 45.7843 71.3199C45.8894 70.9277 45.6551 70.524 45.2611 70.4185C45.1974 70.4014 45.1347 70.3918 45.0677 70.3927C44.9706 70.2352 44.8174 70.119 44.6373 70.0708C44.2488 69.9667 43.8491 70.1962 43.7459 70.5816C43.7397 70.6045 43.7353 70.6264 43.7319 70.6501C43.5624 70.7737 43.4413 70.9492 43.3864 71.1541C43.2781 71.5584 43.4543 71.9783 43.8103 72.1878C43.8559 72.3589 43.9507 72.5143 44.0845 72.6325C44.1083 72.6518 44.1405 72.6561 44.1661 72.6745L43.9609 73.44C43.1762 72.6318 42.3413 72.0325 41.5314 71.5728L41.7993 70.5728C41.8169 70.5775 41.8276 70.5919 41.8452 70.5966C42.5546 70.7867 43.2883 70.3666 43.4783 69.6577C43.5494 69.3922 43.5348 69.1109 43.4379 68.8553C43.6465 68.7104 43.799 68.4985 43.8644 68.2545C44.0179 67.6818 43.6733 67.0882 43.0966 66.9337C42.9882 66.9047 42.8735 66.8941 42.7572 66.9005C42.6194 66.6455 42.3804 66.4543 42.0974 66.3785C41.5315 66.2269 40.9484 66.5617 40.797 67.1264C40.7851 67.1709 40.7756 67.2175 40.7697 67.2664C40.4979 67.4522 40.3046 67.7239 40.219 68.0433C40.054 68.6592 40.3345 69.3021 40.8886 69.6065C40.9526 69.8765 41.0987 70.1222 41.3072 70.3081C41.3541 70.3495 41.4192 70.3612 41.471 70.3953L41.4739 70.4062L41.4848 70.4033C41.4862 70.4037 41.4889 70.4044 41.4899 70.4061L41.2241 71.398C40.3405 70.9316 39.5001 70.64 38.8067 70.46L38.9191 70.0408C39.157 70.0844 39.3927 69.9467 39.4559 69.7109C39.4775 69.63 39.4758 69.5443 39.4523 69.4644C39.5119 69.4153 39.5561 69.3477 39.5759 69.2736C39.6391 69.0378 39.4564 68.7938 39.211 68.7887C39.1596 68.7099 39.081 68.6513 38.9889 68.6266C38.7871 68.5726 38.5779 68.6927 38.5237 68.8949C38.5209 68.9057 38.5183 68.9151 38.5175 68.9236C38.4322 68.9874 38.3699 69.079 38.3425 69.1814C38.2869 69.389 38.3773 69.6039 38.5567 69.7141C38.568 69.7532 38.6002 69.7792 38.6201 69.8134L38.6167 69.8154L38.6371 69.88L38.6576 69.874C38.6743 69.8929 38.6786 69.9201 38.6974 69.9366C38.7064 69.9463 38.7193 69.9469 38.729 69.9538L38.607 70.4093C38.0902 70.2853 37.6839 70.2256 37.4077 70.1949C38.383 66.2788 40.7702 61.8975 41.366 60.8438C42.3831 61.6407 45.3025 62.6222 47.8109 63.3666C47.9144 63.3972 48.0207 63.4286 48.1283 63.4603C48.1486 63.4657 48.1675 63.4708 48.1875 63.4776C48.489 63.5656 48.803 63.6555 49.1292 63.7487C49.201 63.768 49.2737 63.7889 49.3438 63.8091L49.5008 63.8512C49.8883 63.9594 50.2468 64.0568 50.5609 64.141C53.0576 64.81 58.3621 66.1404 60.1711 65.8826C60.158 67.3669 59.9843 74.3029 58.1049 78.1703Z" fill="#4F8709"/>
<g filter="url(#filter0_d_147:9)">
<path d="M42 5.63395C48.2483 3.65983 54.7866 4.08489 61.2357 4.00126C64.8139 4.00126 68.8437 3.89493 72.3019 5.63395C80.0055 9.20861 87.258 13.636 92.3594 20.3249C98.7874 28.7533 100.539 38.4058 100.955 50.6819C101.286 60.4487 99.8643 69.5443 93.7993 76.5895C89.8929 81.1273 85.9152 85.85 80.8306 88.3955C74.0291 91.8006 67.1085 92.3395 59.8027 91.8389C46.301 90.9138 33.4368 88.798 22.1007 79.459C17.9158 76.0114 14.377 70.8777 12.1425 65.4941C9.56963 59.2951 9.95441 52.4857 10.1278 45.7355C10.4144 34.5715 14.2831 25.9373 21.4059 18.3795C27.1839 12.2486 34.704 7.93909 42 5.63395Z" stroke="#4F8709" stroke-linecap="square" shape-rendering="crispEdges"/>
</g>
<path d="M5.98242 48.3701C5.18308 50.6452 5.01126 52.8162 5.03101 55.2062C5.04584 57.0007 5.44263 58.7684 5.68878 60.5388C5.80487 61.3737 5.9174 62.2458 6.09401 63.07C6.17842 63.4639 6.18088 63.9961 6.40527 64.3327" stroke="#4F8709" stroke-width="1.5" stroke-linecap="round"/>
<path d="M1.43694 54.3955C1.3321 55.7452 1.33122 57.0842 1.33122 58.4361C1.33122 58.8619 1.30445 59.641 1.54265 59.9983" stroke="#4F8709" stroke-linecap="round"/>
<path d="M99.3867 23.147C102.183 27.7433 103.153 33.0419 104.377 38.2094C105.099 41.2594 105.198 44.252 104.975 47.3597" stroke="#4F8709" stroke-linecap="round"/>
<defs>
<filter id="filter0_d_147:9" x="9.49939" y="3.49976" width="92.0006" height="90.0002" filterUnits="userSpaceOnUse" color-interpolation-filters="sRGB">
<feFlood flood-opacity="0" result="BackgroundImageFix"/>
<feColorMatrix in="SourceAlpha" type="matrix" values="0 0 0 0 0 0 0 0 0 0 0 0 0 0 0 0 0 0 127 0" result="hardAlpha"/>
<feOffset dy="1"/>
<feComposite in2="hardAlpha" operator="out"/>
<feColorMatrix type="matrix" values="0 0 0 0 0.309804 0 0 0 0 0.529412 0 0 0 0 0.0352941 0 0 0 1 0"/>
<feBlend mode="normal" in2="BackgroundImageFix" result="effect1_dropShadow_147:9"/>
<feBlend mode="normal" in="SourceGraphic" in2="effect1_dropShadow_147:9" result="shape"/>
</filter>
</defs>
</svg>
