<svg width="301" height="398" viewBox="0 0 301 398" fill="none" xmlns="http://www.w3.org/2000/svg">
<path d="M99.1166 77.7731C101.682 73.3138 102.762 68.1536 102.198 63.0399C101.974 58.4025 100.551 53.9025 98.0673 49.9793C95.5841 46.0562 92.1258 42.8441 88.03 40.6567C87.7113 40.4797 87.4279 40.1963 87.1091 40.1609C85.1964 39.9484 83.2482 39.6297 81.3001 39.5942C77.9463 39.7523 74.653 40.5455 71.595 41.9317C65.6767 44.1917 60.7468 48.4688 57.6748 54.0087C55.8306 57.1586 54.757 60.6998 54.5416 64.3434C54.3262 67.987 54.975 71.63 56.4351 74.9752C57.672 78.4073 59.7832 81.4573 62.5599 83.8238C65.3367 86.1903 68.6829 87.7914 72.268 88.4689C76.6594 89.3697 81.2033 89.1997 85.5151 87.973C88.3623 87.3005 91.0399 86.0475 93.3804 84.2923C95.7208 82.5372 97.6737 80.3178 99.1166 77.7731Z" fill="url(#paint0_radial_112:101396)"/>
<path d="M60.1542 46.2573L63.0586 43.3894C62.0669 43.3894 61.6065 43.3894 61.146 43.3894C60.5238 43.4413 59.9074 43.548 59.304 43.7081C54.1382 45.1157 49.6198 48.2685 46.5171 52.6304C43.4439 56.7673 41.5579 61.6639 41.0622 66.7928C40.761 69.0075 40.9201 71.2606 41.5296 73.4111C42.1391 75.5616 43.1858 77.5633 44.6043 79.2911C45.1512 80.0572 45.8826 80.673 46.7309 81.0814C47.5791 81.4899 48.5168 81.6779 49.457 81.6279C51.6072 81.5515 53.7131 80.995 55.6202 79.9992L54.8056 78.3705C52.0354 73.176 51.058 67.2127 52.0251 61.4062C52.9922 55.5996 55.8498 50.2745 60.1542 46.2573Z" fill="url(#paint1_radial_112:101396)"/>
<path d="M84.3491 36.7277C84.2994 36.4626 84.2283 36.202 84.1366 35.9484C82.5781 32.9024 80.878 29.9271 79.4613 26.8457C78.728 25.1861 78.2848 23.413 78.1508 21.6036C77.8889 17.4177 78.3808 13.2188 79.603 9.20681C80.3822 6.69203 81.4448 4.28352 82.3656 1.875L73.9715 2.40629C73.7742 2.87882 73.6085 3.36396 73.4756 3.85848C72.6477 8.32891 72.7442 12.9215 73.759 17.3533C74.0713 19.1401 74.5821 20.8865 75.282 22.5599C77.3227 27.7384 80.2334 32.53 83.8886 36.7277C83.8886 36.7277 84.1011 36.7277 84.3491 36.7277Z" fill="#BF7F2A"/>
<path d="M72.9419 111.175C73.7567 112.628 74.4652 114.152 75.2091 115.64C75.4925 116.207 75.8467 116.739 76.1655 117.306L76.5906 117.057C75.2867 112.607 73.1067 108.463 70.1788 104.867C70.3147 106.069 70.5637 107.256 70.9227 108.411C71.5415 109.371 72.2157 110.294 72.9419 111.175Z" fill="#BF7F2A"/>
<path d="M67.2778 104.461C67.7737 103.47 68.1987 102.656 68.73 101.665C66.0469 97.0804 62.4259 93.1129 58.1038 90.0216C56.0862 88.634 53.7431 87.7926 51.303 87.5797C47.3348 87.4178 43.3659 87.8836 39.5433 88.9599C33.1839 90.5629 27.0455 92.9401 21.266 96.0379C19.9502 96.6946 18.6939 97.4643 17.5114 98.3383C17.1385 98.5398 16.8176 98.8254 16.5745 99.1725C16.3313 99.5195 16.1724 99.9185 16.1105 100.338C16.0486 100.757 16.0854 101.184 16.2179 101.587C16.3504 101.989 16.5751 102.355 16.8739 102.656L19.0345 105.77C20.4514 104.921 21.762 104.001 23.1788 103.328C26.7209 101.594 30.4755 100.108 34.0176 98.3029C38.7133 95.861 43.7173 94.0635 48.8943 92.959C49.7529 92.6446 50.6725 92.5321 51.5817 92.6303C52.4908 92.7285 53.3651 93.0347 54.1366 93.5252C57.2891 96.0379 60.4416 98.586 63.5586 101.17C64.8692 102.231 66.1089 103.399 67.2778 104.461Z" fill="#BF7F2A"/>
<path d="M255.961 50.5738L256.989 52.5208C257.98 51.4234 257.555 49.795 258.866 49.264L260.814 53.866L261.912 52.4854C263.47 55.3528 266.659 55.6715 268.748 57.9017C270.117 55.3349 270.88 52.4893 270.98 49.5826L267.225 48.2019C266.977 49.8304 268.217 51.034 267.225 52.5562L266.233 49.0162L265.348 49.2994L264.569 52.0252L264.214 51.742C264.269 50.7683 264.701 49.8541 265.419 49.1932C265.747 48.3599 265.814 47.4468 265.611 46.5745C265.409 45.7023 264.947 44.912 264.285 44.3079C263.86 45.0513 263.4 45.7593 263.045 46.5027C262.748 47.2149 262.392 47.9016 261.983 48.5559C262.302 46.8921 262.443 45.0159 264.285 44.3079L263.541 41.6528L262.124 40.6616L258.37 44.2017L255.82 50.6446L255.961 50.5738Z" fill="#9AAD3B"/>
<path d="M268.602 34.6371C267.86 34.7026 267.146 34.9542 266.527 35.3688C265.908 35.7834 265.403 36.3475 265.06 37.0088L263.289 40.3717L263.679 41.5752L265.025 43.4514L269.488 44.4071V44.8673L265.415 44.0531L266.619 47.3098L274.907 50.1417L275.651 45.5753L277.953 46.3187V43.77C276.617 42.6982 275.124 41.8386 273.526 41.2213L274.659 43.6992C273.947 43.0253 273.338 42.25 272.853 41.3983C272.572 40.9378 272.127 40.6012 271.608 40.4566C271.088 40.3119 270.533 40.3702 270.055 40.6195C270.586 41.5045 271.046 42.2124 271.471 42.9558H271.153L268.815 39.9115C267.469 40.0885 266.088 40.3009 264.706 40.4425C264.706 40.4425 264.706 40.4425 264.423 40.0885L265.84 39.6283C266.09 38.8977 266.504 38.2339 267.05 37.6878C267.597 37.1418 268.261 36.7279 268.992 36.4779C268.213 37.6814 266.796 38.1416 266.76 39.8407L270.975 39.0266C271.206 38.8199 271.419 38.595 271.613 38.354C271.718 38.1924 271.79 38.0121 271.826 37.823L270.232 37.5752C270.232 35.9823 271.861 36.1593 272.428 35.1681C271.294 34.0354 269.913 34.4601 268.602 34.6371Z" fill="#9AAD3B"/>
<path d="M121.434 52.3836C125.897 50.7543 130.395 49.2313 134.822 47.602C142.273 44.8248 149.938 42.6571 157.739 41.1204L165.036 39.8098L165.532 37.1888C157.247 38.5208 149.076 40.4864 141.092 43.0684C128.376 46.5657 116.037 51.3113 104.255 57.236L106.309 59.4674C111.072 56.5524 116.145 54.1765 121.434 52.3836Z" fill="#BF7F2A"/>
<path d="M278.38 41.105C277.955 40.3234 277.352 39.6515 276.62 39.1426C275.889 38.6338 275.048 38.3021 274.165 38.1738L271.084 39.1627C273.177 40.717 275.788 41.4121 278.38 41.105Z" fill="#9AAD3B"/>
<path d="M55.2311 150.307C56.5944 149.342 57.874 148.264 59.0564 147.085C60.2252 146.022 61.217 146.199 61.7483 147.651C62.0348 148.433 62.1672 149.263 62.138 150.095C62.138 151.865 61.7837 153.636 61.5358 155.761C62.5107 155.812 63.4881 155.728 64.4402 155.513C66.0694 154.873 67.6653 154.152 69.222 153.353L70.993 152.574C72.6931 153.99 72.6222 156.115 73.4015 157.708C75.2412 156.952 76.8574 155.739 78.097 154.183C79.3367 152.628 80.1588 150.782 80.4855 148.82C82.221 149.068 81.9022 150.838 82.7877 151.688C83.9264 150.802 84.7267 149.552 85.0547 148.147C86.6988 143.343 86.4196 138.089 84.2754 133.486C83.8178 132.314 82.9661 131.337 81.8668 130.724C80.3692 129.903 78.9151 129.004 77.5102 128.033L77.7227 127.572L81.2647 129.06C82.7878 127.466 83.6379 127.289 85.2672 128.316C86.2943 128.953 87.2152 129.768 88.2424 130.512C88.3431 128.887 88.0438 127.263 87.3707 125.781C86.6976 124.3 85.6713 123.006 84.3817 122.013C80.2131 119.498 75.3965 118.267 70.5325 118.471C68.9787 118.544 67.4217 118.437 65.8925 118.153C64.6841 117.794 63.546 117.231 62.5275 116.488C59.8271 114.663 56.6102 113.756 53.3538 113.903C51.8662 115.426 50.8744 117.728 47.7929 117.798L51.8308 113.726C50.7328 113.726 50.1306 113.726 49.5285 113.726C46.1474 113.948 42.8461 114.851 39.8234 116.382C43.291 113.627 47.5787 112.106 52.0078 112.062C51.3888 111.549 50.7382 111.076 50.0598 110.645L44.6051 107.741C44.2621 107.5 43.942 107.227 43.6488 106.927C47.626 107.503 51.2741 109.459 53.956 112.451C58.8439 112.239 62.6339 115.001 66.6717 117.374C67.4426 115.8 68.0479 114.15 68.4781 112.451C68.726 110.787 69.7532 108.91 68.4781 107.21C67.1321 108.697 66.282 110.751 63.9443 110.751C63.8006 110.337 63.694 109.91 63.6256 109.477C63.4765 107.341 62.783 105.279 61.6111 103.488C60.4393 101.696 58.8282 100.235 56.9312 99.2423C56.4989 99.0694 56.0468 98.9505 55.5853 98.8882C57.6396 103.633 57.6396 103.633 56.1874 104.944C53.7582 103.32 50.8439 102.582 47.9346 102.854C45.0133 102.986 42.215 104.068 39.9651 105.935L42.657 107.529C41.6299 109.654 40.5318 111.53 39.7526 113.514C38.7693 115.524 38.1003 117.674 37.7691 119.888C40.7089 119.888 43.6488 119.604 46.0928 122.119C40.4964 123.571 38.442 127.714 37.3086 133.097L39.8588 131.361C40.6735 130.795 41.5235 130.299 42.3736 131.361C41.7947 132.381 41.3314 133.462 40.9923 134.584C40.833 135.96 40.833 137.351 40.9923 138.727C41.6476 141.666 41.6476 144.713 40.9923 147.651C40.6735 148.537 40.3901 149.457 40.0713 150.307C42.2674 150.732 44.3218 150.98 46.3053 151.547C47.7955 151.988 49.3628 152.105 50.9021 151.891C52.4415 151.678 53.9174 151.137 55.2311 150.307ZM58.5251 112.062L50.414 104.129C52.3076 104.662 54.0395 105.656 55.455 107.021C56.8705 108.387 57.9253 110.082 58.5251 111.955V112.062ZM75.4912 143.933C74.962 144.614 74.2991 145.181 73.5432 145.597L76.2705 142.056H76.5184C76.2082 142.664 75.8653 143.255 75.4912 143.827V143.933ZM74.2161 125.235C75.9871 128.351 77.4748 131.68 79.0687 134.938C79.3694 135.675 79.6179 136.433 79.8125 137.205C81.9731 138.586 84.5587 139.719 85.3025 142.623C83.8518 141.11 82.1943 139.811 80.3792 138.763C81.0744 141.072 81.0744 143.536 80.3792 145.845C80.0759 143.762 79.5413 141.719 78.7853 139.754C77.8289 137.877 76.1287 136.425 74.9953 134.478L78.0415 136.886C76.8786 133.461 75.4456 130.133 73.7557 126.935C72.1481 123.85 69.8291 121.191 66.9905 119.18C70.009 120.296 72.5573 122.407 74.2161 125.164V125.235ZM45.8801 134.974C46.2512 134.717 46.6567 134.514 47.0845 134.372C49.933 133.675 52.8742 133.436 55.7978 133.663C56.6707 133.716 57.5459 133.716 58.4188 133.663C59.1626 132.601 59.9419 131.503 60.6503 130.405C61.3587 129.308 61.9608 128.174 62.7401 126.864C58.3097 125.737 53.6783 125.652 49.2096 126.616C51.6182 124.066 57.3916 123.748 63.3776 125.589C64.1922 124.35 65.0424 123.11 65.857 121.835H66.2466L64.4756 126.404C65.5989 127.17 66.5355 128.179 67.2161 129.356C67.8966 130.532 68.3038 131.847 68.4073 133.203C69.087 134.896 69.087 136.786 68.4073 138.479C67.876 136.425 67.203 134.407 66.7425 132.353C66.3727 130.437 65.3301 128.716 63.8027 127.501L58.9501 135.292C59.5869 136.848 59.8997 138.517 59.8692 140.197C59.8388 141.878 59.4658 143.535 58.773 145.066C57.3562 143.614 58.2417 142.162 58.0646 140.852C57.8875 139.542 57.8876 138.267 57.7813 136.603C54.722 139.713 51.2828 142.426 47.5449 144.677C47.7453 143.661 48.3287 142.76 49.1743 142.162C51.7245 139.896 54.2393 137.594 56.7541 135.292C56.9062 135.067 57.0144 134.814 57.0728 134.549C53.3398 134.279 49.5887 134.398 45.8801 134.903V134.974Z" fill="url(#paint2_linear_112:101396)"/>
<path d="M255.923 50.5302L256.879 46.0382C255.817 45.543 254.896 46.8163 253.727 46.3919L257.446 45.1186L258.438 44.1282V43.0671L253.018 44.4466L252.097 49.0093L253.585 48.1958L255.923 50.5302Z" fill="#9AAD3B"/>
<path d="M255.217 41.7128L254.366 43.163C255.889 43.2798 257.418 43.0178 258.815 42.4005C260.212 41.7833 261.434 40.83 262.371 39.6258C260.99 38.3171 259.892 36.6899 257.696 36.6899L258.829 39.4136C257.679 38.8603 256.374 38.7165 255.13 39.0061C253.887 39.2956 252.78 40.001 251.993 41.0053C253.091 41.3237 254.367 40.6516 255.217 41.7128Z" fill="#9AAD3B"/>
<path d="M95.3302 303.552L85.9789 308.402L85.7664 308.013C89.0075 305.572 92.5872 303.616 96.3928 302.207L99.2266 296.083C95.0469 296.473 91.2213 297.11 87.4312 297.605C91.2567 295.269 95.6844 295.835 99.9704 294.844C99.2072 294.102 98.3035 293.519 97.3121 293.13C96.3207 292.741 95.2615 292.554 94.1967 292.579C90.8994 292.781 87.6113 292.058 84.7038 290.49C84.3142 290.242 83.889 290.065 83.3223 289.782C81.197 292.189 78.3633 293.853 77.4778 297.216L78.7884 297.605C78.2334 299.961 78.4063 302.43 79.2843 304.685C80.347 303.765 80.8429 302.172 82.8265 301.959C82.4834 305.037 83.1152 308.145 84.6329 310.844L85.7309 310.349L91.6464 316.544C92.6736 312.437 93.9488 308.154 95.3302 303.552Z" fill="#9AAD3B"/>
<path d="M198.363 39.238L198.966 41.2327H200.737C200.453 40.1641 199.886 39.1667 198.363 39.238Z" fill="#BF7F2A"/>
<path d="M195.32 37.5716C196.949 36.9344 196.949 36.9344 199.924 37.5716C199.747 35.9433 199.252 34.7043 198.26 34.2441C196.133 32.9688 193.605 32.5392 191.176 33.0406C189.121 33.7132 187.209 34.6335 185.19 35.4477L185.509 37.6424C187.6 38.6822 189.522 40.0306 191.211 41.6424C189.051 41.2884 187.669 39.1999 185.579 38.6335L185.898 43.6246C186.713 44.5804 188.13 44.6866 188.625 45.9609L185.686 44.545C185.438 46.8459 185.19 48.9698 184.942 51.0583H184.481L184.729 44.368L181.648 45.6423V45.3238L185.19 43.66L184.906 38.7751L178.637 42.0317L178.141 41.5008C178.411 41.4558 178.674 41.3723 178.92 41.253L184.836 37.8902C185.154 35.2353 183.702 34.0318 181.294 33.5008C180.762 33.5008 180.266 33.0406 179.735 32.899C176.243 32.0604 172.601 32.0604 169.109 32.899C168.117 33.076 167.303 34.0318 166.169 34.7751L168.188 35.3061C168.074 36.2548 167.872 37.1909 167.586 38.1025C167.178 39.1499 167.178 40.3118 167.586 41.3592C167.993 42.7277 168.718 43.9802 169.704 45.014C170.689 46.0478 171.905 46.8333 173.253 47.3061C178.307 49.1548 182.613 52.6125 185.509 57.1467C186.366 55.731 187.312 54.3713 188.342 53.0759C189.296 51.6859 190.716 50.6817 192.345 50.2441L192.982 53.5361C194.328 52.0848 195.568 50.8105 196.772 49.4653C197.099 49.105 197.351 48.684 197.516 48.2264C198.09 46.9098 198.332 45.4727 198.221 44.0409C198.11 42.6091 197.649 41.2264 196.878 40.014C196.253 39.2725 195.729 38.4512 195.32 37.5716Z" fill="#9AAD3B"/>
<path d="M245.792 51.3683C244.694 50.7656 243.703 50.1629 242.64 49.6665C238.744 47.9647 234.918 46.121 230.987 44.5965C221.813 41.051 212.037 40.3419 202.438 38.5337C202.438 39.4555 202.155 40.3773 202.013 41.4055C204.103 41.6892 206.157 42.0437 208.212 42.221C217.65 43.0286 226.947 45.0422 235.875 48.2129C238.815 49.2411 241.684 50.5529 244.553 51.7584C244.907 52.1129 245.403 52.4674 245.792 51.3683Z" fill="#BF7F2A"/>
<path d="M187.456 63.2166C187.456 61.2333 187.208 59.2854 187.067 57.0542L185.367 59.675C182.781 59.675 183.242 56.8417 181.506 55.8146C181.718 57.4437 181.966 58.8604 182.037 60.277C182.214 64.5978 182.356 68.9186 182.498 73.2394C182.701 75.5119 182.784 77.7936 182.746 80.0748C182.25 87.3352 181.612 94.5601 180.975 101.785C180.593 108.332 179.342 114.799 177.255 121.016C176.36 123.065 175.568 125.157 174.882 127.285C174.419 128.682 173.557 129.913 172.403 130.826C170.88 132.279 169.321 133.66 167.94 135.183C166.47 136.544 165.456 138.325 165.035 140.283C164.317 143.784 163.879 147.337 163.725 150.908C163.787 151.761 163.62 152.615 163.24 153.381C162.86 154.147 162.281 154.797 161.564 155.264C159.297 156.787 156.924 158.133 154.48 159.408C151.24 160.852 148.582 163.348 146.936 166.491C145.678 168.827 144.282 171.085 142.756 173.255C142.46 173.713 142.21 174.199 142.012 174.707C140.575 177.667 139.733 180.88 139.533 184.164C139.475 185 139.259 185.817 138.895 186.572C138.422 187.802 137.548 188.837 136.416 189.511C133.37 191.601 130.465 193.903 127.525 196.134L121.681 200.491C120.371 201.518 119.025 202.474 117.714 203.43C118.033 205.732 119.91 207.326 119.556 209.451C118.777 210.124 118.281 209.77 117.962 209.132C117.289 207.822 116.651 206.511 116.085 205.165C115.777 204.575 115.689 203.894 115.839 203.244C115.988 202.595 116.364 202.021 116.899 201.624C117.927 200.703 119.025 199.818 120.158 198.861C118.255 195.422 117.628 191.42 118.387 187.564C107.289 190.475 95.748 191.304 84.3482 190.007C84.694 190.882 84.8167 191.828 84.7055 192.762C84.5941 193.695 84.2523 194.587 83.7107 195.355C85.092 195.993 86.2964 196.63 87.6069 197.091C89.9092 197.905 92.2115 198.72 94.6909 199.357C98.233 200.313 101.562 201.128 105.034 201.978C106.734 202.403 107.371 202.97 107.619 204.776C107.809 205.948 107.927 207.131 107.974 208.318C108.029 208.798 107.985 209.285 107.845 209.748C107.705 210.211 107.471 210.64 107.159 211.009L105.671 203.926C103.688 203.465 101.81 203.04 99.9331 202.545C94.6294 201.334 89.4481 199.638 84.4545 197.48C80.9124 195.851 77.3704 194.328 74.0054 192.734C70.6405 191.141 66.3547 189.193 62.6001 187.457C59.1396 185.776 55.3875 184.778 51.549 184.518C44.8373 184.373 38.3026 186.677 33.166 190.999C31.4188 192.29 29.919 193.886 28.7384 195.709C24.5342 202.575 22.0325 210.347 21.4419 218.376C21.4048 218.995 21.2177 219.595 20.8969 220.126C20.576 220.657 20.131 221.101 19.6001 221.422C16.6602 223.511 13.7557 225.672 10.9575 227.974C9.70341 229.191 8.52076 230.48 7.4155 231.834C5.29451 233.861 3.70162 236.377 2.77557 239.161C1.84952 241.945 1.61842 244.913 2.10247 247.807C2.58398 252.039 3.78172 256.159 5.64449 259.99C6.14565 260.969 6.92102 261.781 7.87598 262.328C13.0312 265.174 18.8486 266.604 24.736 266.471C28.2781 266.471 31.4304 266.471 34.7954 266.471C37.3102 266.471 39.8249 266.471 42.3398 266.471C45.8818 266.648 49.7073 266.896 53.391 267.25C59.7206 267.68 66.0082 268.591 72.1991 269.977C74.948 270.719 77.6555 271.605 80.3102 272.634C80.7353 272.634 81.0187 273.307 81.1604 273.484C80.3103 276.034 77.6184 277.025 77.0516 279.859L79.5664 278.088C80.7707 278.619 80.4165 279.434 80.4165 280.177C80.287 281.448 80.4182 282.731 80.8018 283.949C81.1855 285.167 81.8137 286.294 82.648 287.261C84.7689 289.431 87.6235 290.732 90.653 290.909C93.2387 290.909 95.8598 291.334 98.5517 291.581C98.0435 288.293 98.3226 284.931 99.3663 281.771C99.3663 281.452 99.5789 281.098 99.6498 280.779C100.11 277.238 99.9685 273.696 96.1077 271.713C95.8952 271.713 95.7889 271.252 95.6473 271.111C95.6473 269.8 96.7807 269.482 97.985 269.127L95.789 267.073C95.0094 266.321 94.0676 265.757 93.036 265.425C92.0044 265.094 90.9104 265.003 89.8383 265.161C88.597 265.361 87.341 265.455 86.0838 265.444C84.5613 265.451 83.046 265.236 81.5854 264.807C79.8426 264.08 78.1607 263.216 76.5557 262.221C74.3242 260.982 72.1636 259.494 69.8259 258.432C64.5837 256.023 59.1999 253.651 53.9222 251.348C49.6364 249.648 45.2443 248.303 40.9584 246.78C39.6833 247.665 38.7624 249.153 36.5309 248.834C36.8277 248.28 37.197 247.768 37.6289 247.311C38.6542 246.631 39.4756 245.685 40.0058 244.575C40.536 243.465 40.7551 242.232 40.6397 241.007C40.6091 240.855 40.6091 240.698 40.6397 240.546L49.8489 237.005C52.9903 235.753 55.7413 233.687 57.8185 231.019C59.0337 229.703 59.9731 228.157 60.5814 226.472C61.1897 224.787 61.4547 222.998 61.3605 221.209C61.2722 220.314 61.2722 219.412 61.3605 218.517C61.496 218.087 61.6992 217.68 61.9626 217.313C63.3086 218.73 63.4503 220.855 62.7418 226.486C63.0986 226.661 63.4652 226.815 63.8399 226.947C66.2108 227.617 68.3934 228.83 70.2156 230.488C75.3176 234.237 79.8201 238.739 83.5689 243.84C88.0221 249.478 91.1676 256.035 92.7782 263.036C96.887 264.948 101.421 268.809 101.74 270.686L98.4808 271.111C99.4622 271.81 100.261 272.735 100.81 273.807C101.358 274.88 101.641 276.069 101.633 277.273C104.077 277.982 106.415 278.619 108.717 279.363C113.558 280.746 118.56 281.484 123.594 281.559C128.461 281.717 133.302 280.785 137.762 278.832C138.966 278.336 140.064 277.663 141.304 277.061C140.135 274.546 141.056 272.138 140.773 269.977L132.626 270.509C131.776 272.952 132.626 275.538 131.245 277.982C129.58 275.573 131.067 273.023 130.324 270.65L122.106 271.642C121.646 270.58 122.106 270.19 122.744 270.013C123.381 269.836 124.94 269.517 126.038 269.34L130.713 268.702C131.06 265.456 131.143 262.187 130.961 258.928C130.62 258.896 130.276 258.896 129.934 258.928L117.997 259.636C117.041 259.636 116.049 259.636 115.058 259.636C120.224 257.901 125.655 257.086 131.103 257.228C131.103 255.386 130.926 253.686 130.784 252.198C130.37 250.5 130.37 248.726 130.784 247.028C131.824 250.31 132.513 253.694 132.838 257.121L144.031 257.688C144.917 257.688 145.377 257.015 145.519 256.13L147.538 243.557C144.988 243.132 142.473 244.442 139.852 243.769C139.905 243.268 140.155 242.807 140.547 242.489C140.938 242.171 141.439 242.02 141.941 242.069C144.936 241.899 147.892 241.315 150.726 240.334C151.26 240.19 151.753 239.922 152.165 239.553C152.577 239.184 152.897 238.724 153.099 238.209C153.984 235.765 155.012 233.392 155.755 230.913C157.456 225.247 158.943 219.509 160.714 213.878C162.055 208.716 164.772 204.015 168.577 200.278C175.527 194.161 180.918 186.476 184.304 177.859C186.262 173.289 187.309 168.381 187.386 163.41C187.321 159.697 187.921 156.003 189.157 152.501C190.113 149.774 190.715 146.87 191.671 144.108C193.566 137.654 194.239 130.904 193.655 124.204C193.336 117.793 192.699 111.383 192.486 104.973C192.069 96.9466 191.098 88.9589 189.582 81.0665C188.466 75.1721 187.756 69.2081 187.456 63.2166ZM89.13 277.132L86.8277 272.492L87.2527 272.209L89.4487 274.971C92.1339 275.299 94.6863 276.325 96.8515 277.946C94.443 278.159 92.6719 276.211 89.98 276.069C91.0072 278.513 91.9636 280.744 92.8845 282.869L96.1785 283.4V283.861H93.4158L94.7972 288.606C92.9199 287.438 92.9199 285.632 91.999 284.25C90.4405 285.773 90.2988 287.792 89.13 289.634C89.0329 287.168 89.9109 284.763 91.574 282.94C91.2906 282.232 90.9717 281.382 90.6175 280.567C90.2633 279.752 89.9092 278.973 89.3779 277.805L86.013 283.542C86.328 281.123 87.4221 278.873 89.13 277.132ZM61.0063 208.743C60.0879 207.221 59.5756 205.49 59.5186 203.713C59.5186 202.58 59.2707 201.482 59.129 200.384C58.5862 197.711 57.2245 195.272 55.2328 193.407C54.1193 191.959 52.6399 190.835 50.947 190.149C50.3558 189.869 49.7975 189.525 49.2822 189.122L49.9552 188.307C59.5895 192.168 62.3168 199.747 61.0063 208.743ZM114.668 245.044C113.631 244.956 112.588 244.956 111.551 245.044C107.753 245.583 103.882 245.219 100.252 243.982C99.5868 243.794 98.9837 243.432 98.5044 242.935C98.0251 242.437 97.687 241.82 97.5245 241.149C96.3669 237.935 95.5361 234.612 95.0451 231.232C95.0125 230.595 95.0125 229.957 95.0451 229.319C96.0014 228.824 96.3557 229.319 96.5682 229.922C96.7807 230.524 97.0995 232.224 97.4183 233.463L99.8623 241.821C103.512 243.186 107.434 243.659 111.303 243.203C112.481 243.097 113.667 243.097 114.845 243.203C115.387 243.323 115.911 243.513 116.403 243.769C116.014 244.867 115.447 245.044 114.668 245.044Z" fill="url(#paint3_radial_112:101396)"/>
<path d="M278.913 44.0204V46.6428C280.259 48.2375 281.392 49.655 282.632 50.9662C285.691 53.9655 287.82 57.7848 288.762 61.9652C289.705 66.1457 289.421 70.5094 287.945 74.5323C287.768 75.0993 287.626 75.7018 287.449 76.3751C287.779 76.4056 288.111 76.4056 288.441 76.3751C290.391 76.1072 292.228 75.3027 293.748 74.0512C295.267 72.7998 296.41 71.1506 297.048 69.2875C297.507 67.8261 297.793 66.3154 297.898 64.7869C298.214 62.5033 298.063 60.1791 297.454 57.9555C296.846 55.732 295.791 53.6555 294.356 51.8521C290.151 47.6935 284.751 44.955 278.913 44.0204Z" fill="url(#paint4_radial_112:101396)"/>
<path d="M276.536 48.6978C276.536 48.6978 276.288 48.6978 276.146 48.6978L275.19 52.2406C273.95 51.4966 273.525 50.0086 272.321 50.0795C271.223 53.3389 270.231 56.4212 269.169 59.6098C268.168 58.6327 267.116 57.7103 266.016 56.8464C264.877 56.1237 263.694 55.473 262.474 54.8978L262.085 56.3149C260.207 55.1104 259.57 53.1972 258.188 51.6738C258.188 52.5241 258.188 53.3389 257.94 54.5081C255.815 53.1263 255.001 50.7881 253.23 49.3709L251.848 51.2841C250.785 50.1149 251.246 48.7686 250.892 47.316C249.085 49.1108 247.958 51.4779 247.704 54.0121C247.025 60.3684 248.142 66.7877 250.927 72.5413C252.214 75.4605 254.085 78.0854 256.424 80.2545C258.763 82.4236 261.521 84.0909 264.529 85.1539C267.254 86.3061 270.277 86.5528 273.152 85.8576C276.028 85.1624 278.605 83.5621 280.503 81.2922C283.959 77.4777 285.932 72.55 286.064 67.4041C286.419 63.9639 285.568 60.5074 283.656 57.6258C281.637 54.4726 278.98 51.7446 276.536 48.6978Z" fill="url(#paint5_radial_112:101396)"/>
<path d="M244.733 57.0902C244.436 57.2549 244.163 57.4571 243.918 57.692C241.418 60.7669 239.725 64.4174 238.995 68.312C238.613 70.4312 238.353 72.5705 238.215 74.7193C238.095 77.6692 238.944 80.5775 240.632 83C242.321 85.4226 244.756 87.2264 247.566 88.1359C249.351 88.8498 251.331 88.9072 253.154 88.2977C254.977 87.6883 256.524 86.4517 257.52 84.8083C248.31 77.8699 245.689 67.958 244.733 57.0902Z" fill="url(#paint6_radial_112:101396)"/>
<path d="M145.91 313.831C144.853 313.153 143.623 312.796 142.368 312.804C142.155 313.441 142.934 314.22 141.978 314.504L137.763 312.272L137.409 312.626C137.87 314.716 138.295 316.841 138.72 318.931C139.676 323.713 140.632 328.53 141.624 333.311C142.474 337.526 143.395 341.777 144.245 345.991C145.095 350.206 145.839 354.527 146.866 358.707C148.389 364.87 152.073 378.79 153.738 384.917C154.037 386.079 154.037 387.298 153.738 388.459C153.553 389.472 153.694 390.518 154.139 391.447C154.584 392.375 155.312 393.139 156.217 393.63L156.642 391.505C159.326 393.613 162.535 394.948 165.922 395.366C169.412 395.387 172.82 394.309 175.662 392.284C174.328 390.838 172.668 389.731 170.82 389.053C168.972 388.376 166.99 388.148 165.036 388.388C164.222 387.149 165.709 386.83 165.922 385.803L159.015 387.432C157.612 385.771 156.715 383.743 156.429 381.588C155.792 377.408 153.206 365.33 152.321 361.186C151.407 357.167 150.721 353.099 150.266 349.002C150.019 346.594 149.593 344.185 149.239 341.918C148.424 336.605 147.574 331.292 146.902 325.98C146.512 321.8 146.264 317.869 145.91 313.831Z" fill="url(#paint7_linear_112:101396)"/>
<path d="M106.342 187.587C112.393 186.839 118.337 185.389 124.052 183.265C132.193 180.509 139.078 174.929 143.463 167.537C145.217 164.457 146.518 161.14 147.323 157.688C148.125 153.913 147.867 149.99 146.58 146.352C145.13 140.549 141.882 135.353 137.299 131.509C136.024 130.552 134.855 129.419 133.757 128.356C128.91 124.004 123.242 120.662 117.088 118.527C110.933 116.392 104.414 115.506 97.9124 115.922C93.1803 116.301 88.5152 117.277 84.0278 118.827C83.5946 119.012 83.1796 119.238 82.7881 119.5C84.174 120.031 85.4396 120.835 86.5103 121.863C87.5809 122.891 88.435 124.123 89.022 125.487C90.167 128.136 90.3792 131.096 89.6241 133.882C88.6324 134.449 88.2427 133.882 87.7469 133.28C86.7197 132.182 85.6571 131.048 84.5591 129.986C84.2517 129.817 83.9151 129.709 83.5673 129.667C83.5673 129.986 83.5673 130.163 83.5673 130.269C86.6671 134.633 87.9383 140.036 87.1093 145.325C86.547 148.641 85.0896 151.74 82.8943 154.287C82.4693 154.819 81.938 155.35 81.1941 154.677C81.8317 152.481 81.8317 152.481 80.8754 151.312C80.1669 153.39 78.9854 155.274 77.4242 156.817C75.8629 158.361 73.9645 159.52 71.8787 160.204C69.8598 158.999 71.7016 156.342 69.8598 155.209L66.3178 156.767C64.2101 157.531 61.9409 157.739 59.7296 157.369C59.0566 157.369 58.2774 157.369 58.2774 156.059C60.3317 154.465 59.6234 152.02 59.8005 149.682C58.2375 151.358 56.2977 152.637 54.1417 153.413C51.9857 154.19 49.6758 154.441 47.4035 154.146C47.4035 154.783 47.4035 155.209 47.4035 155.634C47.4035 156.059 47.4035 156.59 47.4035 157.086C47.0665 160.261 47.4311 163.47 48.4717 166.488C49.5122 169.506 51.2031 172.259 53.4248 174.551C58.2541 179.125 64.0361 182.573 70.3556 184.647C76.2153 186.723 82.351 187.917 88.5616 188.19C94.4936 188.592 100.451 188.39 106.342 187.587ZM127.594 137.744C127.638 137.436 127.769 137.147 127.972 136.911C128.175 136.675 128.441 136.502 128.739 136.412C129.037 136.323 129.355 136.321 129.654 136.406C129.953 136.491 130.222 136.661 130.428 136.894C131.49 137.871 132.147 139.211 132.27 140.649C132.27 142.349 131.987 143.306 131.101 143.589C130.216 143.872 128.87 143.164 128.055 142.066C127.648 141.429 127.401 140.704 127.333 139.952C127.265 139.2 127.379 138.443 127.665 137.744H127.594ZM95.5039 143.518C95.5651 143.221 95.7066 142.946 95.9129 142.723C96.1192 142.5 96.3826 142.338 96.6744 142.254C96.9662 142.17 97.2754 142.168 97.5686 142.247C97.8617 142.326 98.1277 142.484 98.3375 142.703C99.4106 143.672 100.07 145.017 100.179 146.458C100.179 148.159 99.9313 149.08 99.0104 149.399C98.0895 149.718 96.779 148.974 95.9643 147.875C95.5575 147.233 95.3099 146.502 95.2422 145.744C95.1744 144.986 95.2885 144.223 95.5748 143.518H95.5039ZM91.1118 157.688C92.5391 157.981 93.9291 158.432 95.2559 159.034C98.9411 160.519 102.796 161.542 106.732 162.081C107.901 162.081 109.105 162.4 110.274 162.683C112.771 163.391 115.4 163.493 117.944 162.982C120.488 162.471 122.873 161.36 124.903 159.743C127.262 158.243 129.438 156.472 131.384 154.465C132.057 153.685 132.766 152.906 133.439 152.091L137.902 146.848C138.243 146.49 138.656 146.207 139.114 146.017C139.571 145.828 140.063 145.737 140.558 145.75C141.798 145.75 143.038 145.75 144.1 145.537C144.348 145.821 144.596 145.963 144.596 146.14C144.627 146.588 144.627 147.038 144.596 147.486L140.806 147.982C140.352 148.487 140.003 149.077 139.779 149.718C138.505 153.633 136.991 157.466 135.245 161.195C134.82 162.294 134.36 163.392 133.864 164.455C131.73 168.76 128.048 172.101 123.557 173.807C120.714 174.569 117.721 174.569 114.879 173.807C111.726 173.123 108.77 171.729 106.236 169.733C103.225 167.749 100.25 165.659 97.2394 163.604L92.8119 160.451C92.0986 159.725 91.1804 159.234 90.1801 159.044C89.1799 158.854 88.1455 158.974 87.2156 159.389C86.7011 159.587 86.1666 159.73 85.6216 159.814C86.2082 158.919 87.0593 158.23 88.0562 157.843C89.0531 157.456 90.1461 157.389 91.1826 157.653L91.1118 157.688Z" fill="url(#paint8_radial_112:101396)"/>
<path d="M103.508 165.257C104.192 165.853 104.97 166.332 105.81 166.674C107.069 167.038 108.363 167.264 109.671 167.347C111.548 167.595 116.047 167.737 116.755 167.701C120.282 167.315 123.846 167.903 127.062 169.402C129.41 167.666 131.245 165.328 132.375 162.636C133.721 159.342 135.103 156.048 136.484 152.753C136.635 152.326 136.753 151.888 136.838 151.443L136.449 151.23C135.492 152.47 134.536 153.745 133.473 154.772C130.918 157.477 128.039 159.856 124.902 161.857C122.811 163.326 120.431 164.333 117.921 164.81C115.41 165.286 112.827 165.221 110.344 164.62C107.333 163.982 104.252 163.592 101.205 163.061C101.834 163.926 102.614 164.67 103.508 165.257Z" fill="#766529"/>
<path d="M125.153 283.336C120.898 283.327 116.653 282.924 112.473 282.132C108.825 281.476 105.262 280.419 101.847 278.98C100.146 283.5 99.7173 288.4 100.607 293.147C102.024 291.27 102.378 288.968 104.397 287.586L100.855 295.06C102.675 298.394 103.706 302.102 103.866 305.898L100.571 296.618C100.217 296.902 100.005 297.008 99.9338 297.15C99.0128 299.168 98.0211 301.187 97.2064 303.277C97.0926 303.933 97.1663 304.609 97.4189 305.225C97.8794 306.89 98.517 308.519 98.9774 310.184C99.1436 310.554 99.192 310.967 99.116 311.366C99.04 311.765 98.8432 312.131 98.5524 312.415L96.5688 305.331C96.312 305.671 96.0754 306.026 95.8604 306.394C94.3969 310.524 93.3179 314.78 92.6371 319.109C92.684 319.693 92.853 320.26 93.133 320.774C94.1866 319.245 95.3718 317.811 96.6751 316.488C97.9148 315.39 98.6941 313.442 100.89 313.478V316.205C104.645 314.398 106.557 310.927 109.391 307.917C109.745 309.298 110.029 310.29 110.418 311.707L112.827 307.598C113.465 306.429 113.996 305.19 114.704 304.056C117.432 299.877 116.9 300.514 121.788 300.514C124.055 300.514 124.445 301.046 125.012 303.312C125.209 305.109 125.776 306.846 126.676 308.413L128.022 306.429C128.695 306.996 129.12 307.456 129.616 307.811C130.554 308.507 131.563 309.101 132.627 309.581C135.107 310.502 137.621 311.211 140.066 311.99C140.455 311.777 140.774 311.352 141.093 311.388C143.625 311.555 146.068 312.386 148.177 313.796C149.133 311.955 149.913 310.254 150.94 308.519C152.17 306.922 153.029 305.071 153.454 303.1H154.517C155.201 300.389 155.102 297.54 154.234 294.883L156.394 295.308C155.784 293.09 154.776 291.002 153.419 289.145H156.678C153.384 283.726 147.929 281.176 143.572 277.811C141.69 278.981 139.725 280.01 137.692 280.892C133.682 282.414 129.442 283.24 125.153 283.336ZM139.322 289.322C139.782 289.889 140.278 290.455 140.703 291.057C141.128 291.66 141.589 292.297 142.085 293.006C144.918 293.218 148 292.226 150.479 294.635C147.967 294.119 145.376 294.119 142.864 294.635L145.875 300.798C147.929 301.435 150.267 300.479 152.392 302.214L146.441 301.86C147.043 305.083 147.646 308.165 148.248 311.246H147.787C146.942 309.826 146.456 308.221 146.37 306.571C145.945 304.977 145.52 303.383 145.024 301.4C142.73 303.93 141.089 306.981 140.243 310.29C139.038 308.2 141.164 303.525 144.458 300.691L141.447 294.351C138.11 297.925 135.317 301.971 133.158 306.358C132.769 304.942 132.698 304.835 133.158 304.021C134.54 301.683 135.992 299.381 137.515 297.15C138.471 295.768 139.605 294.529 140.845 292.97L138.932 289.428L139.322 289.322Z" fill="#9AAD3B"/>
<path d="M132.342 258.655C132.342 262.199 132.342 265.246 132.342 268.577L141.126 268.046L143.074 259.08L137.761 258.868L132.342 258.655Z" fill="url(#paint9_radial_112:101396)"/>
<path d="M109.426 169.086C111.963 171.106 115.107 172.215 118.352 172.234C120.308 172.541 122.311 172.283 124.125 171.491L125.86 170.501C122.962 169.44 119.874 168.994 116.793 169.192C114.385 169.121 111.905 169.192 109.426 169.086Z" fill="#EE4844"/>
<path d="M98.7638 318.542V316.275C96.6032 318.436 94.0529 320.03 93.2736 323.36L91.8569 321.766C91.8569 323.324 91.6089 324.493 91.5381 325.662C91.1839 330.551 90.8651 335.404 90.4401 340.257C90.1213 344.295 89.5899 348.298 89.2712 352.336C89.0586 355.099 89.0587 357.897 88.8816 360.696C88.6337 365.478 88.3503 370.295 88.0315 375.077C87.8544 377.38 87.571 379.611 87.2876 382.162L79.3536 381.241L80.735 382.977C80.062 383.968 79.1411 383.791 78.3618 383.721C74.4656 383.437 71.7383 385.952 68.1963 387.617C70.3215 388.396 72.0216 389.069 73.7218 389.601C75.988 390.435 78.3918 390.832 80.8058 390.77C83.416 390.8 85.965 389.98 88.0669 388.432C88.9259 387.809 89.8387 387.264 90.7943 386.802L91.5026 388.29C92.1607 387.867 92.7019 387.285 93.0767 386.598C93.4515 385.911 93.6479 385.141 93.6479 384.358C93.6479 383.576 93.4515 382.806 93.0767 382.119C92.7019 381.432 92.1607 380.85 91.5026 380.426C91.5026 379.576 91.5026 378.62 91.7152 377.663C92.211 374.121 92.7778 370.579 93.3446 367.036C94.1238 362.042 94.8321 357.082 95.7176 352.159C96.7448 346.456 97.9491 340.788 99.0117 335.12C100.074 329.453 101.031 323.75 102.022 318.046C102.067 317.777 102.067 317.501 102.022 317.232L98.7638 318.542Z" fill="url(#paint10_linear_112:101396)"/>
<path d="M256.81 38.1232V37.6626C256.123 36.8962 255.496 36.079 254.932 35.2179C253.341 32.1837 251.104 29.5352 248.38 27.4586C247.409 26.7817 246.528 25.984 245.759 25.0848C243.669 22.4983 244.059 21.152 247.034 19.8056C249.642 18.7898 252.417 18.273 255.216 18.2821C259.502 18.0341 263.823 17.7861 268.144 17.3963C269.419 17.3914 270.659 16.982 271.686 16.2271C273.206 14.4538 274.025 12.1853 273.988 9.84961L270.694 10.7708C266.598 12.1679 262.355 13.095 258.049 13.5344C256.101 13.6342 254.16 13.859 252.24 14.2076C248.679 14.6526 245.39 16.3476 242.96 18.9907C241.402 20.8331 241.154 21.5417 242.287 23.6675C243.654 26.1838 245.425 28.4581 247.53 30.3993C250.151 32.8086 252.772 35.2179 255.428 37.4854C255.847 37.7787 256.315 37.9947 256.81 38.1232Z" fill="#BF7F2A"/>
<path d="M19.2818 219.548C19.9548 215.758 20.4507 212.465 21.1946 208.923C22.1225 204.758 23.6497 200.75 25.7284 197.023C27.7453 193.419 30.6308 190.375 34.123 188.169C39.4425 184.346 45.9374 182.515 52.4707 182.998C55.7534 183.299 58.9623 184.149 61.9633 185.513L77.4067 192.596L81.8695 194.721C83.2509 193.411 82.7197 191.852 82.4717 190.152C81.4445 189.94 80.4527 189.692 79.4255 189.515C73.0856 188.471 66.9741 186.338 61.3612 183.211C58.0652 181.522 55.0244 179.375 52.329 176.836C49.6151 174.2 47.5403 170.979 46.2633 167.419C44.9863 163.858 44.5411 160.053 44.9616 156.294C44.9616 155.444 44.9616 154.629 45.2096 153.779C45.2096 153.779 45.2096 153.779 45.2096 153.425C43.2082 152.486 40.9455 152.261 38.7984 152.788C38.1554 152.856 37.5053 152.795 36.8858 152.611C39.3298 148.679 41.3841 144.961 39.4006 140.321C39.1614 140.683 38.9484 141.062 38.763 141.454C38.0681 143.072 37.0544 144.532 35.7826 145.749C34.5107 146.966 33.0067 147.915 31.3602 148.538C30.2211 148.933 29.0241 149.137 27.8182 149.14C26.7281 149.129 25.6675 148.784 24.7804 148.15C23.8933 147.517 23.2226 146.626 22.8592 145.598C22.2925 144.323 21.8321 143.013 21.3362 141.702C21.113 140.806 20.6554 139.986 20.0104 139.325C19.3654 138.664 18.5563 138.186 17.6658 137.941C16.7754 137.696 15.8358 137.692 14.9434 137.93C14.0509 138.167 13.2378 138.638 12.5873 139.294C11.4824 140.039 10.5802 141.048 9.96195 142.229C9.34366 143.41 9.02864 144.726 9.04531 146.058C8.9963 146.815 9.13795 147.572 9.45726 148.26C9.77657 148.948 10.2634 149.545 10.8731 149.996C11.4828 150.447 12.1959 150.738 12.9471 150.842C13.6983 150.946 14.4637 150.86 15.1731 150.592C15.7752 149.104 14.7834 148.006 14.2521 146.767C13.7208 145.527 11.8081 145.811 11.0288 144.713C11.195 144.365 11.4471 144.066 11.7611 143.843C12.0751 143.62 12.4407 143.48 12.8235 143.438C13.2063 143.395 13.5937 143.451 13.949 143.6C14.3043 143.748 14.6159 143.985 14.8543 144.288C16.2961 145.635 17.2335 147.434 17.5108 149.388C17.6199 149.831 17.6214 150.295 17.5152 150.739C17.4089 151.184 17.198 151.596 16.9 151.943C16.602 152.289 16.2255 152.56 15.8019 152.731C15.3783 152.903 14.9198 152.971 14.4646 152.929C12.7173 153.042 10.9904 152.503 9.61681 151.417C8.24324 150.332 7.32047 148.776 7.02643 147.05C5.99924 140.958 12.5874 134.3 18.0776 135.752C18.2885 135.789 18.5041 135.789 18.7151 135.752C18.7151 133.592 18.7151 131.538 18.9276 129.448C19.0039 128.97 19.147 128.505 19.3526 128.067C19.5701 127.241 20.0048 126.488 20.6115 125.887C21.2182 125.286 21.9749 124.859 22.8028 124.649C23.6307 124.44 24.4997 124.455 25.3193 124.695C26.139 124.935 26.8796 125.39 27.4639 126.013C28.8116 127.148 29.896 128.563 30.6422 130.159C31.3884 131.755 31.7785 133.494 31.7852 135.256C31.7911 135.942 31.6269 136.617 31.3074 137.224C30.988 137.83 30.5232 138.347 29.9546 138.73C29.3861 139.112 28.7315 139.348 28.0496 139.415C27.3677 139.483 26.6797 139.38 26.0471 139.117C25.4851 138.891 25.0172 138.48 24.7208 137.952C24.4245 137.423 24.3175 136.81 24.4177 136.213C24.4177 134.76 24.8074 134.265 26.2597 133.804C26.2597 134.76 26.4722 135.681 26.6139 136.638C28.562 137.311 29.5183 136.638 29.412 134.867C29.3879 133.461 29.0587 132.078 28.4472 130.812C27.8356 129.546 26.9562 128.428 25.87 127.536C24.0635 126.013 22.1509 126.615 21.2299 128.881C20.5342 130.953 20.4726 133.185 21.0529 135.292C21.3216 136.369 21.6769 137.423 22.1154 138.444C22.8593 140.392 23.6739 142.34 24.4177 144.288C25.1616 146.236 26.3305 147.369 28.8807 147.121C30.3255 146.915 31.7081 146.397 32.9317 145.602C34.1553 144.806 35.1904 143.754 35.9648 142.517C37.4282 140.305 38.3057 137.758 38.5151 135.115L36.6378 136.39C35.5398 136.39 35.3981 135.646 35.5043 134.725C35.6913 132.356 36.3898 130.056 37.5516 127.984C38.7135 125.911 40.311 124.115 42.2342 122.719C42.2342 122.719 42.2342 122.471 42.4113 122.294C40.509 121.781 38.5047 121.781 36.6023 122.294C35.7168 121.585 36.0711 120.842 36.1773 120.098C36.8122 117.094 37.8739 114.195 39.3298 111.492C39.8257 110.465 40.3924 109.508 40.9591 108.446C39.3652 107.49 37.665 108.446 35.7523 108.056C36.0356 107.49 36.1065 106.923 36.4607 106.64C39.7392 103.295 44.2095 101.384 48.8932 101.327C50.8059 101.327 52.7186 101.717 54.7375 101.894C54.7375 100.017 52.8957 98.9542 51.6914 97.2542L54.1709 96.4751C52.3537 95.4442 50.2054 95.1646 48.1849 95.6959C44.3066 96.5416 40.5473 97.862 36.992 99.6272C33.1666 101.504 29.2703 103.169 25.4095 104.975C23.5041 105.673 21.7923 106.814 20.4153 108.304C19.4944 109.473 18.2192 109.296 17.3337 107.95C16.175 106.295 15.1221 104.568 14.1813 102.779C13.6982 101.601 13.6699 100.286 14.1019 99.0884C14.5338 97.8909 15.3953 96.8964 16.5191 96.298C19.0028 94.7441 21.5686 93.3254 24.2052 92.048C29.8134 89.2913 35.7719 87.3133 41.9154 86.1688C45.3361 85.4435 48.8453 85.2287 52.329 85.5313C54.6938 85.8548 56.9566 86.7018 58.9526 88.0105C63.5717 90.9393 67.4316 94.9201 70.2163 99.6272C72.6603 103.594 74.9272 107.702 77.3004 111.74C77.6192 110.925 77.9025 109.969 78.3275 109.048C78.6553 108.204 79.0708 107.397 79.5672 106.64C80.7676 104.838 81.3571 102.699 81.2486 100.537C81.1402 98.3753 80.3397 96.3056 78.9652 94.6334C78.4103 94.0098 77.7357 93.5039 76.9816 93.1459C76.6337 92.895 76.2258 92.7402 75.799 92.6969C75.3722 92.6536 74.9414 92.7234 74.5502 92.8993C74.1589 93.0751 73.8209 93.3509 73.57 93.6988C73.319 94.0467 73.164 94.4546 73.1207 94.8813C72.9394 95.3661 72.8604 95.8832 72.8885 96.4001C72.9166 96.917 73.0513 97.4224 73.2842 97.8847C73.517 98.3471 73.843 98.7562 74.2415 99.0866C74.6401 99.4169 75.1027 99.6612 75.6002 99.8042C76.9107 98.423 75.6002 97.2896 75.1397 96.2626C76.344 95.3771 77.2295 95.448 77.9025 96.5459C78.0791 96.9253 78.187 97.333 78.2213 97.7501C78.432 98.5331 78.3676 99.3648 78.0388 100.106C77.71 100.847 77.1368 101.453 76.4149 101.823C75.588 102 74.7258 101.897 73.9632 101.532C73.2006 101.167 72.5805 100.559 72.1999 99.8042C71.3648 98.5695 70.9732 97.0882 71.089 95.6022C71.2048 94.1162 71.8212 92.7134 72.8374 91.623C66.393 90.4578 60.6322 86.8877 56.7212 81.6355C54.9953 83.117 52.8291 83.9884 50.558 84.1146C49.2522 84.3042 47.9198 84.1636 46.6824 83.7058C45.4449 83.248 44.3418 82.4875 43.4739 81.4938C41.5445 79.4325 40.1159 76.9545 39.299 74.252C38.482 71.5496 38.2987 68.6953 38.763 65.9105C39.274 61.5264 40.7529 57.3107 43.093 53.5683C45.433 49.8258 48.5757 46.6501 52.2936 44.2709C54.0959 43.0008 56.1315 42.0997 58.2835 41.6195C60.4354 41.1393 62.6611 41.0895 64.8324 41.4729C65.4306 41.5826 66.0481 41.5085 66.6034 41.2604C70.4395 39.2444 74.56 37.8233 78.8234 37.0459C78.8234 37.0459 79.0359 37.0459 79.461 36.6209C79.033 36.3854 78.619 36.1252 78.2213 35.8417L69.6496 29.8209C67.994 28.2848 65.8158 27.4364 63.5573 27.4479C62.1563 27.5383 60.8072 28.0123 59.6577 28.8182C58.5081 29.624 57.6025 30.7306 57.04 32.0167C56.716 32.6427 56.6308 33.3652 56.8002 34.0494C56.9696 34.7337 57.3821 35.3329 57.9608 35.7354C58.5285 36.0259 59.171 36.1374 59.8034 36.0552C60.4358 35.973 61.0283 35.701 61.5028 35.275C61.9279 34.85 62.2467 34.3188 62.7426 33.7167L61.1841 32.5834C61.7154 31.5209 62.4592 31.6625 63.1676 31.9813C63.5382 32.1106 63.8446 32.3781 64.0227 32.7278C64.2009 33.0775 64.2372 33.4825 64.124 33.8584C63.9707 34.5028 63.6747 35.1047 63.2579 35.6196C62.841 36.1345 62.3139 36.5493 61.7154 36.8334C60.8763 37.3506 59.8896 37.5755 58.9092 37.473C57.9289 37.3705 57.01 36.9463 56.296 36.2667C55.5779 35.5345 55.1388 34.574 55.0547 33.552C54.9706 32.5299 55.2469 31.5106 55.8357 30.6709C56.4497 29.5013 57.3147 28.482 58.3689 27.6859C59.423 26.8898 60.6402 26.3365 61.9332 26.0658C63.2262 25.795 64.563 25.8135 65.848 26.1198C67.133 26.4261 68.3344 27.0126 69.3662 27.8375C72.4832 30.0688 75.4231 32.5479 78.3984 34.9209C78.8059 35.3019 79.285 35.5984 79.8079 35.7929C80.3308 35.9875 80.887 36.0763 81.4445 36.0542C78.4704 33.0932 76.1427 29.5477 74.6084 25.6417C72.9508 22.5609 71.9384 19.1746 71.6331 15.6896C71.3257 13.2694 71.1601 10.8333 71.1372 8.39376C71.3342 6.28714 71.7135 4.20156 72.2707 2.16042C72.3319 1.74127 72.5473 1.36006 72.8749 1.09147C73.2025 0.822872 73.6186 0.686241 74.0417 0.708335C77.3004 0.531251 80.5944 0.247917 83.8531 0H85.8721C85.8721 0.602084 85.8721 1.09792 85.447 1.31042C82.4712 4.87667 80.6437 9.25956 80.2048 13.8833C79.4611 17.3144 79.4611 20.8648 80.2048 24.2958C80.3104 24.7709 80.4647 25.2337 80.6653 25.6771C82.2211 29.2485 84.0077 32.7148 86.0138 36.0542C86.0138 36.0542 86.3325 36.3021 86.5096 36.4792C86.6336 36.2938 86.7292 36.0908 86.793 35.8771C86.9438 34.296 87.6826 32.8292 88.8633 31.7667C90.0439 30.7042 91.5803 30.1236 93.1686 30.1396C95.7898 29.8917 98.4463 29.6792 101.032 29.1834C103.678 28.7839 106.184 27.7377 108.329 26.1375C110.035 25.016 111.241 23.277 111.694 21.2854C111.903 20.7145 111.892 20.0861 111.663 19.5228C111.433 18.9596 111.002 18.5021 110.454 18.2396C107.97 16.7507 105.09 16.0585 102.201 16.2563C100.848 16.4404 99.5497 16.9078 98.39 17.628C97.2304 18.3481 96.2357 19.3048 95.4709 20.4354C94.2667 22.1708 95.0813 23.7292 97.1357 23.9771C98.8064 24.1629 100.489 23.7487 101.882 22.8083L104.043 21.6042C104.043 21.8875 104.291 21.9938 104.291 22.1C103.364 23.6701 101.867 24.8224 100.112 25.3171C98.3575 25.8119 96.4794 25.611 94.8689 24.7563C94.4178 24.423 94.0448 23.9954 93.7758 23.5033C93.5068 23.0113 93.3483 22.4665 93.3112 21.907C93.2741 21.3474 93.3594 20.7865 93.5611 20.2633C93.7628 19.74 94.0761 19.267 94.4792 18.8771C95.7385 17.2729 97.4051 16.0358 99.3052 15.2945C101.205 14.5532 103.269 14.335 105.282 14.6625C107.263 15.0572 109.19 15.6874 111.021 16.5396C111.964 16.9478 112.723 17.6921 113.148 18.6281C113.574 19.5641 113.636 20.6248 113.323 21.6042C112.826 23.513 111.75 25.2207 110.241 26.4917C109.71 26.9875 109.179 27.4125 108.683 27.8021C109.902 28.5083 111.084 29.2767 112.225 30.1042C112.774 30.4894 113.172 31.0525 113.353 31.698C113.534 32.3436 113.485 33.0318 113.217 33.6459C112.631 35.5194 111.638 37.2402 110.309 38.6852C108.98 40.1302 107.349 41.2636 105.53 42.0042C104.945 42.2836 104.286 42.369 103.649 42.248C103.012 42.127 102.43 41.8058 101.988 41.3313C101.426 40.8512 101.028 40.2071 100.85 39.4894C100.672 38.7717 100.723 38.0163 100.997 37.3292C101.235 36.5566 101.701 35.8734 102.332 35.3682C102.964 34.863 103.732 34.5591 104.539 34.4959C105.849 34.4959 107.16 34.3188 108.541 34.2125C108.541 35.5229 107.868 35.7354 107.089 35.8417C106.31 35.9479 105.424 35.8417 104.609 36.0542C104.293 36.0809 103.984 36.17 103.702 36.3165C103.42 36.4629 103.17 36.6637 102.966 36.9073C102.761 37.151 102.608 37.4326 102.513 37.736C102.418 38.0394 102.384 38.3585 102.413 38.675C102.392 39.009 102.461 39.3426 102.612 39.6412C102.764 39.9397 102.992 40.1924 103.274 40.373C103.556 40.5536 103.881 40.6556 104.215 40.6684C104.55 40.6812 104.881 40.6044 105.176 40.4459C106.722 39.8201 108.111 38.8607 109.244 37.6363C110.377 36.4119 111.225 34.9526 111.729 33.3625C112.225 32.1229 111.729 31.1313 110.383 30.4584C109.371 29.9237 108.256 29.6123 107.113 29.5451C105.971 29.4779 104.827 29.6564 103.759 30.0688C101.44 30.7396 99.0714 31.2252 96.6753 31.5209C95.4356 31.7334 94.1605 31.5209 92.8853 31.7688C92.2015 31.7547 91.5216 31.8754 90.8845 32.1241C90.2474 32.3728 89.6655 32.7446 89.1721 33.2182C88.6787 33.6918 88.2835 34.258 88.009 34.8843C87.7345 35.5107 87.5861 36.185 87.5723 36.8688C87.3243 38.4979 87.5723 38.7813 89.0245 39.6667C91.6075 41.0407 94.0928 42.5909 96.4628 44.3063C99.1749 46.6396 101.227 49.6439 102.413 53.0188C102.732 53.8688 103.122 54.6834 103.511 55.6042C106.77 53.975 109.958 52.3105 113.252 50.8584C117.456 48.8111 121.773 47.002 126.18 45.4396C135.461 42.5 144.882 39.8438 154.233 37.1521C156.925 36.4084 159.688 35.9125 162.628 35.275C163.074 34.8577 163.488 34.4079 163.868 33.9292C164.926 32.619 166.281 31.5792 167.821 30.8957C169.361 30.2122 171.041 29.9045 172.723 29.9979C174.814 30.0472 176.894 30.3323 178.921 30.8479C180.327 31.258 181.646 31.9178 182.818 32.7959C183.223 33.12 183.715 33.3166 184.232 33.3608C184.749 33.4049 185.268 33.2946 185.722 33.0438C187.44 32.3076 189.203 31.6806 191 31.1667C192.396 30.8317 193.848 30.7975 195.258 31.0661C196.669 31.3348 198.006 31.9002 199.182 32.725C200.422 33.5042 201.13 35.1688 202.44 36.9042L207.753 37.7896C212.323 38.5334 216.892 39.0292 221.39 39.9854C229.316 41.6951 236.953 44.5463 244.059 48.45C244.768 48.8396 245.547 49.1584 246.362 49.5125L250.577 42.4292L249.656 42.0042L251.002 40.0209C249.827 40.1727 248.644 40.2437 247.46 40.2334C244.737 39.9948 242.141 38.9739 239.986 37.2938C238.469 36.1394 237.414 34.4816 237.011 32.6188C236.763 31.5209 236.586 30.4229 236.302 29.325C236.177 28.4603 235.816 27.6465 235.26 26.9722C234.705 26.2978 233.975 25.7887 233.15 25.5C232.361 25.3082 231.533 25.3426 230.763 25.5995C229.992 25.8563 229.309 26.3251 228.793 26.9521C227.797 27.8031 227.116 28.9641 226.859 30.2487C226.602 31.5332 226.784 32.8668 227.376 34.0354C227.872 34.85 228.404 35.5584 229.502 35.4167C229.925 35.3671 230.318 35.1692 230.609 34.8581C230.901 34.5469 231.073 34.1426 231.096 33.7167C231.191 33.47 231.31 33.2328 231.45 33.0084C231.733 34.85 231.45 35.5584 230.635 35.9834C230.062 36.2475 229.415 36.3073 228.802 36.1526C228.19 35.998 227.649 35.6382 227.27 35.1334C226.638 34.1085 226.258 32.9482 226.161 31.7479C226.064 30.5475 226.253 29.3413 226.713 28.2282C227.172 27.1152 227.89 26.1271 228.806 25.345C229.721 24.5629 230.81 24.0091 231.981 23.7292C233.186 23.5697 234.408 23.8365 235.436 24.4833C236.465 25.1301 237.235 26.1162 237.613 27.2709C238.021 28.4227 238.329 29.6077 238.534 30.8125C238.76 32.123 239.309 33.3564 240.132 34.4014C240.954 35.4464 242.024 36.2701 243.245 36.7979C246.214 38.2801 249.596 38.7168 252.844 38.0375C253.021 38.0375 253.162 37.7896 253.517 37.5063C251.887 36.0188 250.293 34.5667 248.664 33.1854C245.768 30.8759 243.278 28.0988 241.297 24.9688C240.908 24.3027 240.553 23.6171 240.234 22.9146C239.892 22.2165 239.766 21.432 239.874 20.662C239.981 19.892 240.316 19.1717 240.836 18.5938C243.228 15.4425 246.718 13.3059 250.612 12.6083C253.339 12.1833 256.138 11.9 258.865 11.4396C261.592 10.9792 264.355 10.4125 267.083 9.77501C269.102 9.31459 271.085 8.57084 273.104 8.07501C274.005 7.91956 274.918 7.84841 275.832 7.8625C275.742 11.0165 274.746 14.078 272.962 16.6813C272.495 17.1821 271.911 17.5593 271.262 17.7792C270.203 18.1427 269.112 18.4037 268.004 18.5583C263.303 19.1546 258.573 19.4975 253.835 19.5854C252.027 19.6779 250.234 19.9628 248.487 20.4354C247.617 20.7552 246.785 21.171 246.007 21.675C246.118 22.3397 246.367 22.9736 246.739 23.5351C247.112 24.0966 247.599 24.5731 248.168 24.9333C251.717 27.3189 254.596 30.5747 256.527 34.3896C256.74 34.8146 257.271 35.0271 257.873 35.5229C258.086 33.8229 258.192 32.4771 258.475 31.1667C258.759 29.8563 259.255 28.5459 259.644 27.2354C259.661 27.0233 259.661 26.8101 259.644 26.5979C259.739 25.9021 259.624 25.1938 259.315 24.5632C259.006 23.9326 258.516 23.408 257.909 23.0563C256.811 22.6667 255.606 23.2688 254.615 24.7208C254.464 24.9135 254.344 25.1286 254.26 25.3584C254.438 27.1292 256.102 26.8458 257.094 27.5542C255.677 28.4042 254.969 28.4042 253.977 27.5542C253.526 27.2692 253.18 26.8465 252.988 26.3489C252.797 25.8513 252.771 25.3052 252.914 24.7917C253.153 23.9708 253.608 23.229 254.231 22.6435C254.854 22.0579 255.622 21.6501 256.456 21.4625C256.917 21.3357 257.399 21.3034 257.872 21.3675C258.346 21.4317 258.801 21.591 259.212 21.8359C259.622 22.0807 259.979 22.4061 260.26 22.7923C260.541 23.1785 260.741 23.6177 260.849 24.0833C261.088 24.7651 261.278 25.4635 261.415 26.1729C262.62 25.5 263.682 24.7563 264.957 24.1896C266.063 23.4381 267.414 23.1403 268.733 23.3578C270.052 23.5754 271.236 24.2917 272.042 25.3584C272.789 26.4024 273.166 27.6658 273.115 28.9486C273.064 30.2315 272.586 31.4606 271.758 32.4417C271.649 32.6104 271.554 32.7881 271.475 32.9729L274.202 34.85L271.439 36.4792C275.229 36.8334 278.311 37.6479 279.586 41.225C283.61 41.8921 287.455 43.3745 290.885 45.5813C293.422 46.9307 295.593 48.8772 297.21 51.2527C298.827 53.6283 299.841 56.3616 300.165 59.2167C300.832 62.9458 300.489 66.7853 299.173 70.3375C298.279 72.5223 296.827 74.4341 294.962 75.8821C293.098 77.3302 290.886 78.2637 288.547 78.5896C288.052 78.6244 287.555 78.6244 287.06 78.5896H285.891C280.224 87.0188 271.935 92.0126 259.892 85.673C258.51 86.9513 257.042 88.1346 255.5 89.2146C253.876 90.1418 252.033 90.6147 250.163 90.5835C248.293 90.5524 246.466 90.0183 244.874 89.0376C242.006 87.5533 239.567 85.3584 237.79 82.6626C236.386 80.4633 235.648 77.905 235.665 75.2959C235.581 71.8771 235.998 68.4644 236.904 65.1667C237.99 61.6839 239.968 58.5458 242.642 56.0646C243.386 55.3209 244.166 54.6125 245.016 53.7271C244.52 53.4792 244.166 53.2313 243.74 53.0542C235.553 49.5353 226.964 47.0373 218.167 45.6167C214.2 44.8729 210.162 44.4125 206.195 43.8104L199.819 42.7125C199.819 43.5979 199.607 44.3417 199.571 45.0854C199.39 46.6175 198.901 48.0971 198.134 49.4359C197.367 50.7747 196.338 51.9451 195.108 52.8771C193.762 54.2229 192.31 55.498 190.929 56.773C189.122 55.8521 190.646 54.5063 190.114 53.4438C189.681 53.5884 189.313 53.8804 189.074 54.2688C188.834 54.6571 188.739 55.1172 188.804 55.5688C189.158 60.0313 189.441 64.4938 189.902 68.9209C190.256 72.4625 190.787 76.0042 191.318 79.298C192.062 84.1146 193.054 88.9313 193.621 93.7834C194.188 98.6355 194.329 103.913 194.683 109.013L195.64 123.002C196.387 131.031 195.495 139.128 193.019 146.802C192.346 148.75 191.779 150.769 191.106 152.752C189.958 156.347 189.385 160.1 189.406 163.873C189.329 168.628 188.355 173.326 186.537 177.721C183.192 186.735 177.696 194.795 170.527 201.202C166.171 205.192 163.091 210.379 161.672 216.113C160.219 221.425 158.696 226.738 157.102 231.979C156.5 234.069 155.544 236.017 154.835 238.071C154.578 239.05 154.054 239.939 153.323 240.639C152.591 241.339 151.681 241.823 150.691 242.038C150.1 242.201 149.521 242.402 148.956 242.64C148.495 246.181 148.106 249.723 147.645 253.265C147.531 254.58 147.257 255.876 146.83 257.125C146.367 258.016 145.783 258.838 145.095 259.569C143.628 264.794 142.726 270.16 142.403 275.577C142.685 275.931 143.006 276.251 143.359 276.534L150.443 281.456C153.873 283.781 156.643 286.953 158.484 290.665C158.69 291.262 158.833 291.879 158.909 292.506L155.721 290.736C156.728 293.085 157.396 295.565 157.705 298.102L155.438 296.934C155.731 300.107 155.345 303.307 154.304 306.319L153.135 306.106C150.473 309.011 148.973 312.792 148.92 316.731L147.362 315.173C147.362 315.173 147.362 315.421 147.362 315.527C147.751 318.644 148.141 321.761 148.601 324.842C149.381 330.261 150.231 335.467 151.01 341.027C151.506 344.569 151.896 348.111 152.462 351.652C153.029 355.194 153.737 358.736 154.34 362.277C154.942 365.819 157.563 377.967 158.342 381.863C158.768 383.444 159.3 384.994 159.936 386.502C163.096 384.85 166.758 384.433 170.208 385.334C170.208 386.609 169.11 386.361 168.437 387.14C172.158 387.96 175.52 389.945 178.036 392.807C175.14 395.015 171.725 396.442 168.118 396.95C164.433 397.254 160.755 396.278 157.705 394.188L156.784 396.171C156.004 395.711 155.473 395.569 155.225 395.215C154.229 393.807 153.318 392.34 152.498 390.823C152.232 390.176 152.232 389.451 152.498 388.804C152.874 387.654 152.874 386.413 152.498 385.263C150.514 378.179 146.512 363.056 144.776 355.796C143.289 349.421 142.12 342.975 140.844 336.529C139.569 330.084 138.365 323.638 137.09 317.227C136.736 315.456 136.24 313.686 135.779 311.738C134.446 311.442 133.133 311.063 131.848 310.604C130.631 309.997 129.448 309.323 128.306 308.586C127.137 309.506 129.156 310.959 127.881 312.127C125.897 311.171 125.189 309.613 123.347 302.211C122.015 302.103 120.676 302.103 119.344 302.211C118.471 302.364 117.666 302.785 117.042 303.415C115.441 305.02 114.23 306.971 113.5 309.117C112.41 311.239 110.959 313.156 109.214 314.784C108.081 313.579 108.86 312.304 108.364 310.994L104.291 315.704L103.83 315.492C103.511 317.192 103.086 319.034 102.803 320.556C101.492 328.561 100.217 336.565 98.8714 344.534C98.2692 348.075 97.3483 351.617 96.7461 355.159C95.3293 363.411 94.0188 371.663 92.6374 379.95C93.3522 380.373 93.9632 380.951 94.4254 381.642C94.8875 382.332 95.1891 383.117 95.3081 383.939C95.427 384.761 95.3601 385.6 95.1125 386.392C94.8649 387.185 94.4428 387.913 93.8771 388.521C92.9052 389.499 91.7807 390.312 90.5476 390.929C89.8037 391.39 89.2016 390.929 88.812 390.15C86.6204 391.551 84.0809 392.312 81.48 392.346C78.5441 392.527 75.6046 392.055 72.8729 390.965C70.8539 390.292 68.8349 389.548 66.7096 388.769C66.7733 388.169 67.0121 387.6 67.3963 387.134C67.7804 386.668 68.293 386.325 68.8703 386.148C71.5665 384.434 74.5567 383.233 77.69 382.606L76.0607 381.827C77.3358 380.056 78.5401 379.95 85.8721 381.154C86.1302 379.879 86.3194 378.59 86.4388 377.294C86.7576 372.336 87.0409 367.377 87.2889 362.454C87.5368 358.204 87.6077 353.919 87.9619 349.704C88.4577 343.861 89.1661 338.017 89.7329 332.209C90.1225 328.171 90.5121 324.169 90.7601 320.131C90.7658 319.365 90.6148 318.605 90.3164 317.898C90.0179 317.192 89.5784 316.554 89.0245 316.023C88.1036 314.996 87.1118 314.004 86.0846 312.942L85.3408 314.004C83.1362 311.31 81.7912 308.016 81.48 304.548C79.9569 305.398 80.0631 307.098 79.1422 308.515C78.0088 305.911 77.4183 303.103 77.4067 300.263C77.0904 300.426 76.758 300.557 76.4149 300.652C76.1672 300.669 75.9187 300.669 75.671 300.652C75.1043 298.386 77.9025 293.781 82.3655 289.39C80.5646 287.254 79.4097 284.65 79.036 281.881C76.8045 282.165 77.6191 284.998 75.7772 285.884C75.3307 284.886 75.0999 283.806 75.0999 282.714C75.0999 281.621 75.3307 280.541 75.7772 279.544C76.5203 277.598 77.8593 275.937 79.6027 274.798C74.024 272.223 68.0224 270.687 61.8925 270.265C55.6585 269.592 49.3891 269.096 43.1197 268.565C41.3841 268.565 39.5777 268.565 37.8775 268.565L25.5158 268.777C19.7828 268.98 14.0885 267.764 8.93906 265.236C7.41023 264.542 6.05099 263.524 4.956 262.252C3.861 260.98 3.05664 259.484 2.59889 257.869C1.61626 254.807 0.835332 251.683 0.261134 248.519C-0.23674 245.571 -0.0205755 242.547 0.89154 239.7C1.80366 236.853 3.38507 234.266 5.50328 232.156C6.67215 230.988 7.66397 229.642 8.762 228.367C11.5147 225.589 14.5815 223.14 17.9004 221.071L19.2818 219.548ZM271.085 39.1709C273.177 40.733 275.79 41.4304 278.382 41.1188C277.956 40.3349 277.353 39.6611 276.622 39.1508C275.89 38.6405 275.049 38.3078 274.167 38.1792L270.979 39.2063C271.233 38.9758 271.469 38.7273 271.687 38.4625C271.792 38.3009 271.864 38.1204 271.9 37.9313L270.235 37.5771C270.235 35.9834 271.864 36.1604 272.431 35.1688C271.368 33.8584 269.916 34.3188 268.606 34.4959C267.863 34.5613 267.149 34.8131 266.53 35.2279C265.911 35.6427 265.407 36.2071 265.064 36.8688L263.293 40.2334L263.682 41.4375L262.195 40.4104L258.405 43.9521V42.8542L252.985 44.2354L252.064 48.8042L253.587 48.2021L256.067 50.5396L257.094 52.4875C258.086 51.3896 257.661 49.7605 258.971 49.2292L260.919 53.8334L262.017 52.4521C263.576 55.3209 266.764 55.6396 268.854 57.8709C270.222 55.3029 270.985 52.4561 271.085 49.5479L267.224 48.2021C266.976 49.8313 268.216 51.0354 267.224 52.5584L266.233 49.0167L265.312 49.3354C265.644 48.4824 265.71 47.5488 265.501 46.6574C265.293 45.766 264.819 44.9587 264.143 44.3417L263.399 41.65L264.78 43.5625L269.243 44.5188V44.9792L265.17 44.1646L266.374 47.423L274.663 50.2563L275.406 45.6875L277.709 46.4313V43.8813C276.373 42.809 274.879 41.9489 273.281 41.3313L274.415 43.8104C273.702 43.1363 273.094 42.3605 272.608 41.5084C272.328 41.0477 271.883 40.7109 271.363 40.5662C270.843 40.4215 270.288 40.4798 269.81 40.7292L271.227 43.0667H270.908L268.57 40.0209C267.224 40.1979 265.843 40.4104 264.462 40.5521C264.462 40.5521 264.461 40.5521 264.178 40.1979L265.595 39.7375C265.845 39.0065 266.259 38.3424 266.806 37.796C267.352 37.2497 268.016 36.8356 268.747 36.5854C267.968 37.7896 266.551 38.25 266.516 39.95L271.085 39.1709ZM105.53 204.213C103.547 203.752 101.67 203.327 99.7922 202.831C94.4885 201.62 89.3072 199.925 84.3136 197.767C80.7715 196.138 77.2296 194.615 73.8646 193.021C70.4997 191.427 66.2138 189.479 62.4593 187.744C58.9987 186.063 55.2466 185.065 51.4081 184.804C44.6964 184.66 38.1616 186.964 33.025 191.286C31.2778 192.577 29.778 194.172 28.5974 195.996C24.3932 202.862 21.8915 210.634 21.3008 218.663C21.2637 219.282 21.0766 219.882 20.7557 220.413C20.4349 220.943 19.9898 221.388 19.4589 221.708C16.519 223.798 13.6145 225.958 10.8163 228.261C9.56221 229.478 8.37956 230.767 7.27429 232.121C5.22165 234.133 3.68098 236.607 2.78125 239.337C1.88151 242.067 1.64894 244.973 2.10295 247.811C2.58446 252.043 3.78221 256.163 5.64499 259.994C6.14615 260.973 6.92153 261.785 7.87649 262.331C13.0317 265.178 18.8492 266.607 24.7366 266.475C28.2786 266.475 31.431 266.475 34.796 266.475C37.3108 266.475 39.8256 266.475 42.3404 266.475C45.8825 266.652 49.7079 266.9 53.3917 267.254C59.7213 267.684 66.009 268.595 72.1999 269.981C74.9488 270.723 77.6562 271.609 80.311 272.638C80.7361 272.638 81.0195 273.311 81.1612 273.488C80.3111 276.038 77.6192 277.029 77.0524 279.863L79.5672 278.092C80.7715 278.623 80.4173 279.438 80.4173 280.181C80.2878 281.452 80.419 282.735 80.8027 283.953C81.1863 285.171 81.8145 286.298 82.6488 287.265C84.7697 289.435 87.6243 290.736 90.6538 290.913C93.2395 290.913 95.8607 291.338 98.5526 291.586C98.0444 288.297 98.3235 284.935 99.3672 281.775C99.3672 281.456 99.5798 281.102 99.6506 280.784C100.111 277.242 99.9694 273.7 96.1086 271.717C95.8961 271.717 95.7898 271.256 95.6481 271.115C95.6481 269.804 96.7816 269.486 97.9859 269.131L95.7898 267.077C95.0103 266.325 94.0685 265.761 93.0369 265.429C92.0053 265.098 90.9112 265.007 89.8391 265.165C88.5978 265.365 87.3418 265.459 86.0846 265.448C84.5621 265.455 83.0468 265.24 81.5862 264.811C79.8434 264.084 78.1615 263.22 76.5565 262.225C74.325 260.986 72.1644 259.498 69.8267 258.436C64.5844 256.027 59.2006 253.654 53.9229 251.352C49.6371 249.652 45.2449 248.306 40.9591 246.783C39.6839 247.669 38.763 249.156 36.5315 248.838C36.8283 248.284 37.1976 247.771 37.6296 247.315C38.6548 246.635 39.4762 245.689 40.0064 244.579C40.5366 243.469 40.7557 242.235 40.6403 241.011C40.6098 240.859 40.6098 240.702 40.6403 240.55L49.8496 237.008C52.991 235.757 55.742 233.691 57.8192 231.023C59.0344 229.707 59.9738 228.161 60.5821 226.476C61.1904 224.791 61.4554 223.001 61.3612 221.213C61.2729 220.318 61.2729 219.416 61.3612 218.521C61.4967 218.09 61.6999 217.684 61.9633 217.317C63.3093 218.733 63.451 220.858 62.7426 226.49C63.0993 226.664 63.4659 226.818 63.8406 226.95C66.2115 227.621 68.3942 228.833 70.2163 230.492C75.3183 234.24 79.8209 238.742 83.5698 243.844C88.0229 249.482 91.1684 256.038 92.7791 263.04C96.8878 264.952 101.422 268.813 101.74 270.69L98.4817 271.115C99.4631 271.814 100.262 272.739 100.81 273.811C101.359 274.884 101.642 276.073 101.634 277.277C104.078 277.986 106.416 278.623 108.718 279.367C113.559 280.75 118.561 281.488 123.595 281.563C128.462 281.721 133.303 280.789 137.763 278.836C138.967 278.34 140.065 277.667 141.305 277.065C140.136 274.55 141.057 272.142 140.774 269.981L132.627 270.513C131.777 272.956 132.627 275.542 131.246 277.986C129.581 275.577 131.068 273.027 130.325 270.654L122.107 271.646C121.647 270.583 122.107 270.194 122.745 270.017C123.382 269.84 124.941 269.521 126.039 269.344L130.714 268.706C131.061 265.46 131.144 262.191 130.962 258.931C130.621 258.9 130.277 258.9 129.935 258.931L117.998 259.64C117.042 259.64 116.05 259.64 115.059 259.64C120.225 257.905 125.656 257.089 131.104 257.231C131.104 255.39 130.927 253.69 130.785 252.202C130.371 250.504 130.371 248.73 130.785 247.031C131.825 250.314 132.514 253.697 132.839 257.125L144.032 257.692C144.918 257.692 145.378 257.019 145.52 256.133L147.539 243.561C144.989 243.136 142.474 244.446 139.853 243.773C139.906 243.271 140.156 242.811 140.548 242.493C140.939 242.174 141.44 242.023 141.942 242.073C144.937 241.903 147.893 241.319 150.727 240.338C151.261 240.193 151.754 239.926 152.166 239.557C152.578 239.188 152.898 238.728 153.1 238.213C153.985 235.769 155.013 233.396 155.756 230.917C157.457 225.25 158.944 219.513 160.715 213.881C162.056 208.719 164.774 204.019 168.579 200.281C175.528 194.164 180.919 186.479 184.305 177.863C186.264 173.293 187.31 168.384 187.387 163.413C187.323 159.7 187.922 156.006 189.158 152.504C190.114 149.777 190.716 146.873 191.673 144.111C193.568 137.657 194.24 130.907 193.656 124.206C193.337 117.796 192.7 111.385 192.487 104.975C192.07 96.949 191.099 88.9613 189.583 81.0688C188.485 75.2202 187.787 69.3038 187.493 63.3605C187.493 61.3771 187.245 59.4292 187.103 57.198L185.403 59.8188C182.818 59.8188 183.278 56.9855 181.542 55.9584C181.755 57.5875 182.003 59.0042 182.074 60.4209C182.251 64.7417 182.393 69.0625 182.534 73.3834C182.721 75.6094 182.792 77.8437 182.747 80.0771C182.251 87.3376 181.613 94.5626 180.976 101.788C180.594 108.334 179.343 114.802 177.257 121.019C176.361 123.067 175.569 125.16 174.884 127.288C174.42 128.685 173.558 129.916 172.404 130.829C170.881 132.281 169.322 133.663 167.941 135.186C166.471 136.546 165.457 138.327 165.037 140.286C164.318 143.787 163.88 147.34 163.726 150.911C163.788 151.763 163.621 152.618 163.241 153.384C162.861 154.15 162.282 154.8 161.565 155.267C159.299 156.79 156.925 158.136 154.481 159.411C151.241 160.855 148.583 163.351 146.937 166.494C145.679 168.83 144.283 171.088 142.757 173.258C142.461 173.716 142.211 174.203 142.013 174.711C140.576 177.67 139.734 180.883 139.534 184.167C139.476 185.003 139.26 185.82 138.896 186.575C138.423 187.805 137.55 188.84 136.417 189.515C133.371 191.604 130.466 193.906 127.526 196.138L121.682 200.494C120.372 201.521 119.026 202.477 117.715 203.433C118.034 205.736 119.911 207.329 119.557 209.454C118.778 210.127 118.282 209.773 117.963 209.136C117.29 207.825 116.652 206.515 116.086 205.169C115.777 204.578 115.69 203.897 115.84 203.248C115.989 202.599 116.365 202.024 116.9 201.627C117.928 200.706 119.025 199.821 120.159 198.865C118.256 195.425 117.628 191.424 118.388 187.567C107.29 190.478 95.7489 191.307 84.349 190.011C84.6948 190.885 84.8176 191.831 84.7063 192.765C84.595 193.699 84.2531 194.59 83.7115 195.358C85.0929 195.996 86.2972 196.633 87.6077 197.094C89.9101 197.908 92.2124 198.723 94.6918 199.361C98.2338 200.317 101.563 201.131 105.034 201.981C106.735 202.406 107.372 202.973 107.62 204.779C107.81 205.952 107.928 207.134 107.974 208.321C108.03 208.801 107.986 209.288 107.846 209.751C107.706 210.214 107.472 210.643 107.16 211.013L105.53 204.213ZM79.7444 117.442L81.657 116.769C89.5214 113.629 98.0224 112.415 106.451 113.227C114.814 114.066 122.837 116.975 129.793 121.692C132.839 123.746 135.531 126.367 138.436 128.775C143.5 132.735 147.212 138.167 149.062 144.323C150.849 149.127 151.169 154.353 149.983 159.34C149.969 159.552 149.969 159.765 149.983 159.977C154.021 157.25 158.803 155.975 162.026 152.292C161.881 148.513 162.202 144.73 162.982 141.029C163.375 138.813 164.339 136.738 165.78 135.008C167.233 133.238 168.968 131.715 170.562 130.05C171.086 129.604 171.55 129.092 171.944 128.527C172.931 126.766 173.806 124.944 174.565 123.073C176.484 118.05 177.745 112.8 178.319 107.454C179.028 100.371 179.689 93.2876 180.303 86.2042C180.586 83.2292 180.763 80.2188 180.763 77.2438C180.763 73.1001 180.763 68.9917 180.374 64.8834C179.984 60.775 179.913 57.2334 179.701 53.4084C177.385 51.5891 174.835 50.0882 172.121 48.9459C170.53 48.4114 169.074 47.5399 167.851 46.3907C166.628 45.2415 165.668 43.8419 165.037 42.2875C164.253 42.2732 163.471 42.3325 162.699 42.4646C157.528 43.5271 152.285 44.3771 147.185 45.8292C140.632 47.7417 134.185 50.0084 127.774 52.3459C122.32 54.2938 116.971 56.4896 111.623 58.65C110.029 59.2875 108.541 60.1375 106.947 60.9167C107.266 61.6959 107.443 62.2271 107.691 62.6875C109.288 65.6928 110.479 68.8964 111.233 72.2146C111.974 74.786 111.971 77.5145 111.225 80.0843C110.479 82.6542 109.02 84.9602 107.018 86.7355C105.276 88.0475 103.441 89.2312 101.528 90.2771C101.776 90.5959 102.165 91.0917 102.59 91.5521C103.004 92.0336 103.305 92.6016 103.47 93.2145C103.636 93.8274 103.662 94.4695 103.547 95.0938C103.334 97.0559 102.488 98.8956 101.138 100.335C99.6937 101.887 97.8661 103.031 95.8392 103.653C93.8123 104.275 91.6575 104.352 89.5913 103.877C88.2993 103.72 86.9888 103.83 85.7413 104.201C84.4937 104.571 83.3356 105.195 82.3391 106.032C81.3426 106.869 80.5288 107.901 79.9484 109.066C79.368 110.231 79.0333 111.503 78.9652 112.802C79.5319 114.29 79.6382 115.742 79.7444 117.442ZM47.6535 153.956C47.6535 154.594 47.6535 155.019 47.6535 155.444C47.6535 155.869 47.6535 156.4 47.6535 156.896C47.3165 160.07 47.6812 163.279 48.7218 166.296C49.7623 169.313 51.4532 172.065 53.675 174.356C58.5043 178.929 64.2863 182.376 70.6059 184.45C76.4657 186.526 82.6014 187.719 88.812 187.992C94.7122 188.472 100.646 188.353 106.522 187.638C112.573 186.889 118.517 185.439 124.232 183.317C132.373 180.561 139.258 174.983 143.643 167.592C145.342 164.481 146.583 161.141 147.326 157.675C148.128 153.901 147.87 149.979 146.582 146.342C145.133 140.54 141.884 135.346 137.302 131.502C136.027 130.546 134.858 129.413 133.76 128.35C128.912 123.999 123.245 120.658 117.09 118.524C110.935 116.389 104.416 115.504 97.915 115.919C93.1828 116.298 88.5177 117.274 84.0302 118.823C83.5971 119.008 83.182 119.234 82.7905 119.496C84.1765 120.027 85.4421 120.83 86.5127 121.858C87.5834 122.886 88.4374 124.118 89.0245 125.481C90.1695 128.13 90.3817 131.09 89.6266 133.875C88.6348 134.442 88.2452 133.875 87.7493 133.273C86.7221 132.175 85.6596 131.042 84.5615 129.979C84.2541 129.811 83.9176 129.703 83.5698 129.661C83.5698 129.979 83.5698 130.156 83.5698 130.263C86.6696 134.626 87.9408 140.027 87.1118 145.315C86.5495 148.63 85.092 151.728 82.8968 154.275C82.4717 154.806 81.9404 155.338 81.1965 154.665C81.8341 152.469 81.8341 152.469 80.8778 151.3C80.1693 153.377 78.9878 155.262 77.4265 156.804C75.8652 158.347 73.9669 159.506 71.8811 160.19C69.8621 158.986 71.704 156.329 69.8621 155.196L66.3201 156.754C64.2123 157.518 61.9431 157.726 59.7318 157.356C59.0588 157.356 58.2796 157.356 58.2796 156.046C60.334 154.452 59.6256 152.008 59.8027 149.671C58.2487 151.278 56.3421 152.502 54.2335 153.246C52.1249 153.99 49.8722 154.233 47.6535 153.956ZM102.201 63.0417C101.977 58.4042 100.553 53.9042 98.0701 49.981C95.5868 46.0579 92.1285 42.8458 88.0328 40.6584C87.714 40.4813 87.4306 40.1979 87.1118 40.1625C85.1991 39.95 83.2509 39.6313 81.3028 39.5959C77.949 39.7539 74.6556 40.5471 71.5977 41.9334C65.6794 44.1934 60.7495 48.4705 57.6775 54.0105C55.8333 57.1604 54.7597 60.7016 54.5443 64.3452C54.3288 67.9889 54.9776 71.6318 56.4378 74.9771C57.6747 78.4092 59.7859 81.4593 62.5626 83.8258C65.3393 86.1923 68.6856 87.7934 72.2707 88.4709C76.6621 89.3717 81.206 89.2017 85.5178 87.9751C88.3458 87.2893 91.0028 86.0301 93.3242 84.2755C95.6456 82.521 97.5818 80.3085 99.013 77.7751C101.616 73.3279 102.732 68.1668 102.201 63.0417ZM40.0028 116.485C43.4704 113.73 47.7582 112.209 52.1874 112.165C51.5684 111.652 50.9176 111.179 50.2392 110.748L44.6074 107.738C44.2644 107.496 43.9443 107.223 43.6511 106.923C47.6283 107.5 51.2765 109.455 53.9584 112.448C58.8464 112.235 62.6364 114.998 66.6743 117.371C67.4452 115.797 68.0505 114.147 68.4807 112.448C68.7286 110.783 69.7558 108.906 68.4807 107.206C67.1347 108.694 66.2846 110.748 63.9469 110.748C63.8032 110.333 63.6965 109.907 63.6281 109.473C63.479 107.337 62.7855 105.275 61.6136 103.484C60.4418 101.692 58.8307 100.23 56.9337 99.2376C56.5013 99.0647 56.0492 98.9457 55.5877 98.8834C57.6421 103.629 57.642 103.629 56.1898 104.94C53.7606 103.316 50.8463 102.578 47.9369 102.85C45.0156 102.982 42.2173 104.064 39.9673 105.931L42.6593 107.525C41.6321 109.65 40.534 111.527 39.7548 113.51C38.7715 115.522 38.1025 117.672 37.7713 119.885C40.7112 119.885 43.6511 119.602 46.0951 122.117C40.4987 123.604 38.4442 127.713 37.3108 133.096L39.8611 131.361C40.6757 130.794 41.5258 130.298 42.3759 131.361C41.797 132.38 41.3337 133.461 40.9945 134.583C40.8352 135.96 40.8352 137.351 40.9945 138.727C41.6499 141.666 41.6499 144.713 40.9945 147.652C40.6758 148.538 40.3924 149.458 40.0736 150.308C42.2696 150.733 44.324 150.981 46.3076 151.548C47.8134 152.005 49.4003 152.131 50.9593 151.917C52.5184 151.703 54.0127 151.154 55.3397 150.308C56.7031 149.343 57.9827 148.265 59.1651 147.086C60.334 146.023 61.3258 146.2 61.8571 147.652C62.1436 148.434 62.2759 149.264 62.2467 150.096C62.2467 151.867 61.8925 153.638 61.68 155.763C62.6432 155.811 63.6084 155.727 64.549 155.515C66.1782 154.875 67.7742 154.154 69.3308 153.354L71.1018 152.575C72.802 153.992 72.7311 156.117 73.5104 157.711C75.3501 156.954 76.9664 155.74 78.206 154.185C79.4457 152.629 80.2678 150.783 80.5945 148.821C82.3301 149.069 82.0113 150.84 82.8968 151.69C84.0355 150.803 84.8357 149.553 85.1637 148.148C86.8079 143.343 86.5287 138.089 84.3845 133.486C83.9269 132.313 83.0752 131.336 81.9758 130.723C80.4782 129.901 79.0241 129.003 77.6192 128.031L77.8317 127.571L81.3737 129.058C82.8968 127.465 83.7469 127.288 85.3762 128.315C86.4034 128.952 87.3243 129.767 88.3515 130.511C88.4522 128.886 88.1529 127.262 87.4798 125.78C86.8066 124.298 85.7803 123.004 84.4907 122.01C80.3221 119.496 75.5054 118.264 70.6414 118.469C69.0876 118.542 67.5305 118.435 66.0013 118.15C64.7929 117.791 63.6548 117.228 62.6363 116.485C59.9359 114.66 56.7189 113.753 53.4625 113.9C51.9748 115.423 50.983 117.725 47.9014 117.796L51.9394 113.723C50.8414 113.723 50.2393 113.723 49.6371 113.723C46.2726 113.987 42.996 114.927 40.0028 116.485ZM103.759 305.823L100.465 296.544C100.111 296.827 99.8985 296.934 99.8277 297.075C98.9068 299.094 97.915 301.113 97.1004 303.202C96.9866 303.859 97.0602 304.534 97.3129 305.15C97.7733 306.815 98.4109 308.444 98.8714 310.109C99.0376 310.479 99.086 310.892 99.01 311.291C98.9339 311.69 98.7372 312.056 98.4464 312.34L96.4628 305.256C96.206 305.596 95.9694 305.951 95.7544 306.319C94.2909 310.449 93.2119 314.705 92.5311 319.034C92.578 319.617 92.747 320.184 93.027 320.698C94.0806 319.169 95.2658 317.735 96.5691 316.413C97.8088 315.315 98.5879 313.367 100.784 313.402V316.129C104.539 314.323 106.451 310.852 109.285 307.842L110.312 311.631L112.721 307.523C113.358 306.354 113.89 305.115 114.598 303.981C117.325 299.802 116.794 300.44 121.682 300.44C123.949 300.44 124.339 300.971 124.905 303.238C125.103 305.034 125.669 306.771 126.57 308.338L127.916 306.354C128.589 306.921 129.014 307.381 129.51 307.736C130.447 308.432 131.457 309.026 132.521 309.506C135 310.427 137.515 311.136 139.959 311.915C140.349 311.702 140.667 311.277 140.986 311.313C143.518 311.48 145.961 312.31 148.07 313.721C149.027 311.879 149.806 310.179 150.833 308.444C152.064 306.847 152.923 304.996 153.348 303.025H154.41C155.094 300.314 154.995 297.466 154.127 294.809L156.288 295.234C155.678 293.016 154.669 290.928 153.312 289.071H156.571C153.277 283.652 147.822 281.102 143.465 277.773C141.576 278.918 139.611 279.936 137.586 280.819C133.728 282.262 129.66 283.064 125.543 283.192C121.288 283.182 117.043 282.779 112.862 281.988C109.215 281.332 105.651 280.275 102.236 278.836C100.536 283.356 100.107 288.256 100.997 293.002C102.413 291.125 102.768 288.823 104.787 287.442L101.244 294.915C102.879 298.317 103.715 302.048 103.688 305.823H103.759ZM251.108 47.2813C249.301 49.0754 248.175 51.4417 247.92 53.975C247.242 60.3292 248.358 66.7464 251.143 72.498C252.43 75.4162 254.301 78.0402 256.64 80.2086C258.979 82.3769 261.737 84.0437 264.745 85.1063C267.47 86.2582 270.493 86.5048 273.369 85.8098C276.245 85.1148 278.821 83.515 280.719 81.2459C284.175 77.4327 286.148 72.5067 286.28 67.3625C286.635 63.9235 285.784 60.4681 283.872 57.5875C281.711 54.4355 279.055 51.6021 276.788 48.6625C276.788 48.6625 276.54 48.6625 276.398 48.6625L275.442 52.2042C274.202 51.4604 273.777 49.9729 272.573 50.0438L269.42 59.5709C268.42 58.5941 267.368 57.672 266.268 56.8084C265.129 56.086 263.946 55.4354 262.726 54.8605L262.336 56.2771C260.459 55.073 259.821 53.1604 258.44 51.6375L258.192 54.4709C256.067 53.0896 255.252 50.7521 253.481 49.3354L252.1 51.248C250.931 50.1146 251.391 48.7688 251.037 47.3167L251.108 47.2813ZM62.3176 228.402C60.5249 232.127 57.6643 235.234 54.1 237.327C50.5544 239.373 46.7391 240.911 42.7656 241.896L42.2696 245.438C45.3512 246.429 48.4328 247.208 51.3372 248.342C56.7211 250.431 61.9634 252.804 67.3473 254.965C70.5397 256.332 73.5989 257.992 76.4857 259.923L79.6735 261.906C81.3279 262.807 83.1478 263.362 85.023 263.538C86.8982 263.715 88.7897 263.509 90.583 262.934C90.1624 260.346 89.3501 257.839 88.1744 255.496C83.6457 245.999 76.8895 237.737 68.4807 231.413C66.6649 229.98 64.5634 228.954 62.3176 228.402ZM91.8936 321.725C91.8936 323.284 91.6456 324.452 91.5748 325.621C91.2206 330.509 90.9018 335.361 90.4768 340.213C90.158 344.25 89.6266 348.252 89.3078 352.29C89.0953 355.052 89.0954 357.85 88.9183 360.648C88.6703 365.429 88.3869 370.246 88.0681 375.027C87.891 377.329 87.6077 379.561 87.3243 382.111L79.3902 381.19L80.7715 382.925C80.0985 383.917 79.1777 383.74 78.3984 383.669C74.5022 383.386 71.7748 385.9 68.2328 387.565C70.358 388.344 72.0582 389.017 73.7584 389.548C76.0245 390.382 78.4284 390.779 80.8424 390.717C83.4526 390.748 86.0016 389.927 88.1036 388.379C88.9626 387.757 89.8752 387.211 90.8309 386.75L91.5393 388.238C92.1974 387.814 92.7386 387.233 93.1134 386.546C93.4882 385.859 93.6846 385.089 93.6846 384.306C93.6846 383.524 93.4882 382.754 93.1134 382.067C92.7386 381.38 92.1974 380.799 91.5393 380.375C91.5393 379.525 91.5393 378.569 91.7519 377.613C92.2477 374.071 92.8144 370.529 93.3812 366.988C94.1604 361.994 94.8689 357.036 95.7544 352.113C96.7816 346.411 97.9858 340.744 99.0484 335.077C100.111 329.411 101.067 323.709 102.059 318.006C102.104 317.737 102.104 317.462 102.059 317.192L99.0839 318.715V316.448C96.9232 318.609 94.3729 320.202 93.5937 323.531L91.8936 321.725ZM137.94 312.234L137.586 312.588C138.046 314.677 138.471 316.802 138.896 318.892C139.853 323.673 140.809 328.49 141.801 333.271C142.651 337.486 143.572 341.736 144.422 345.95C145.272 350.165 146.016 354.486 147.043 358.665C148.566 364.827 152.25 378.746 153.915 384.873C154.214 386.035 154.214 387.253 153.915 388.415C153.73 389.428 153.871 390.473 154.316 391.402C154.761 392.331 155.489 393.095 156.394 393.586L156.819 391.461C159.503 393.569 162.712 394.903 166.099 395.321C169.589 395.343 172.997 394.264 175.84 392.24C174.505 390.794 172.845 389.686 170.997 389.009C169.15 388.331 167.167 388.103 165.214 388.344C164.399 387.104 165.887 386.786 166.099 385.759L159.192 387.388C157.789 385.727 156.892 383.699 156.607 381.544C155.969 377.365 153.383 365.288 152.498 361.144C151.584 357.125 150.898 353.057 150.443 348.961C150.195 346.552 149.77 344.144 149.416 341.877C148.602 336.565 147.751 331.252 147.078 325.94C146.583 322.009 146.335 318.077 145.98 314.004C144.924 313.326 143.694 312.97 142.438 312.977C142.226 313.615 143.005 314.394 142.049 314.677L137.94 312.234ZM184.376 37.5771C184.695 34.9209 183.243 33.7167 180.834 33.1854C180.303 33.1854 179.807 32.725 179.276 32.5834C175.783 31.7443 172.142 31.7443 168.65 32.5834C167.658 32.7604 166.843 33.7167 165.71 34.4604L167.729 34.9917C167.614 35.9409 167.413 36.8775 167.126 37.7896C166.719 38.8375 166.719 40 167.126 41.0479C167.533 42.4172 168.259 43.6704 169.244 44.7047C170.229 45.739 171.446 46.525 172.794 46.9979C177.848 48.8477 182.154 52.3071 185.049 56.8438C185.906 55.4273 186.853 54.0669 187.883 52.7709C188.837 51.3801 190.256 50.3754 191.885 49.9375L192.523 53.2313C193.869 51.7792 195.109 50.5042 196.313 49.1584C196.639 48.7978 196.892 48.3766 197.056 47.9188C197.63 46.6015 197.873 45.1636 197.761 43.731C197.65 42.2985 197.189 40.9151 196.419 39.7021C196.045 39.0043 195.748 38.2681 195.533 37.5063C197.163 36.8688 197.163 36.8688 200.138 37.5063C199.961 35.8771 199.465 34.6375 198.473 34.1771C196.347 32.9011 193.818 32.4713 191.389 32.9729C189.335 33.6459 187.422 34.5667 185.403 35.3813L185.722 37.5771C187.813 38.6174 189.735 39.9666 191.425 41.5792C189.264 41.225 187.883 39.1354 185.793 38.5688L186.112 43.5625C186.926 44.5188 188.343 44.625 188.839 45.9L185.899 44.4834L185.155 51H184.695L184.943 44.3063L181.861 45.5813V45.2625L185.403 43.5979L185.12 38.7104L178.851 41.9688L178.355 41.4375C178.625 41.3925 178.887 41.309 179.134 41.1896L184.376 37.5771ZM55.6585 80.0771L54.8439 78.448C52.0432 73.244 51.0455 67.2589 52.0068 61.4279C52.968 55.597 55.834 50.2487 60.157 46.2188L63.0613 43.35C62.0696 43.35 61.6092 43.35 61.1487 43.35C60.5266 43.402 59.9102 43.5086 59.3068 43.6688C54.1411 45.0768 49.6227 48.2306 46.5201 52.5938C43.447 56.732 41.561 61.63 41.0653 66.7605C40.7642 68.9759 40.9233 71.2296 41.5327 73.3808C42.1422 75.5319 43.1889 77.5342 44.6074 79.2626C45.1543 80.0289 45.8857 80.6448 46.7339 81.0534C47.5821 81.462 48.5197 81.65 49.4599 81.6001C51.614 81.5619 53.7321 81.0415 55.6585 80.0771ZM68.7286 101.646C66.0455 97.0579 62.4246 93.0875 58.1025 89.9938C56.085 88.6051 53.7419 87.7632 51.3019 87.5501C47.3337 87.3881 43.3649 87.8542 39.5423 88.9313C33.183 90.5355 27.0448 92.9145 21.2654 96.0146C19.9495 96.6718 18.6933 97.4421 17.5108 98.3167C17.1379 98.5184 16.817 98.8042 16.5739 99.1515C16.3307 99.4989 16.1718 99.8981 16.1099 100.318C16.048 100.737 16.0848 101.165 16.2173 101.568C16.3498 101.97 16.5744 102.337 16.8733 102.638L19.0339 105.754C20.4507 104.904 21.7613 103.983 23.1781 103.31C26.7201 101.575 30.4747 100.088 34.0167 98.2813C38.7124 95.8376 43.7163 94.0387 48.8932 92.9334C49.7518 92.6188 50.6714 92.5062 51.5805 92.6045C52.4897 92.7028 53.364 93.0092 54.1355 93.5001C57.2879 96.0146 60.4403 98.5647 63.5573 101.15C64.8678 102.213 66.1076 103.381 67.0993 104.444L68.7286 101.646ZM87.2889 297.571C91.1143 295.234 95.5418 295.8 99.8277 294.809C98.3152 293.356 96.293 292.555 94.1959 292.577C90.8987 292.78 87.6106 292.056 84.7032 290.488C84.3136 290.24 83.8885 290.063 83.3218 289.779C81.1966 292.188 78.363 293.852 77.4775 297.217L78.788 297.606C78.233 299.963 78.406 302.433 79.2839 304.69C80.3465 303.769 80.8424 302.175 82.826 301.963C82.483 305.042 83.1147 308.151 84.6323 310.852L85.7304 310.356L91.6456 316.554L95.5419 303.627L86.1908 308.479L85.9783 308.09C89.2193 305.648 92.799 303.691 96.6044 302.281L99.4381 296.154C94.9043 296.473 91.0788 297.111 87.2889 297.606V297.571ZM244.732 57.0917C244.436 57.2564 244.162 57.4588 243.918 57.6938C241.417 60.7702 239.725 64.4224 238.994 68.3188C238.613 70.4391 238.353 72.5793 238.215 74.7292C238.094 77.6805 238.943 80.5901 240.632 83.0139C242.32 85.4376 244.756 87.2422 247.566 88.1521C249.35 88.8664 251.331 88.9238 253.154 88.3141C254.976 87.7043 256.524 86.4671 257.519 84.823C248.31 77.8813 245.689 67.9646 244.732 57.0917ZM278.878 46.4667C280.224 48.0605 281.357 49.4771 282.597 50.7875C285.656 53.785 287.785 57.602 288.727 61.78C289.67 65.9579 289.386 70.3191 287.91 74.3396C287.733 74.9063 287.591 75.5084 287.414 76.1813C287.744 76.2118 288.076 76.2118 288.406 76.1813C290.356 75.9135 292.193 75.1095 293.713 73.8588C295.232 72.6081 296.375 70.9599 297.013 69.098C297.473 67.6374 297.758 66.1276 297.863 64.6C298.179 62.3178 298.029 59.995 297.42 57.7727C296.811 55.5505 295.757 53.4752 294.321 51.673C290.196 47.4909 284.874 44.6939 279.09 43.6688L278.878 46.4667ZM256.811 37.9313V37.4709C256.124 36.7048 255.497 35.8879 254.933 35.0271C253.342 31.9942 251.105 29.3467 248.381 27.2709C247.41 26.5942 246.529 25.7968 245.759 24.8979C243.67 22.3125 244.059 20.9667 247.035 19.6208C249.643 18.6055 252.418 18.0889 255.217 18.0979C259.503 17.85 263.824 17.6021 268.145 17.2125C269.42 17.2076 270.66 16.7984 271.687 16.0438C273.207 14.2711 274.026 12.0036 273.99 9.66876L270.696 10.5896C266.599 11.9861 262.356 12.9129 258.05 13.3521C256.102 13.4519 254.161 13.6766 252.241 14.025C248.655 14.517 245.363 16.2758 242.961 18.9833C241.403 20.825 241.155 21.5333 242.288 23.6583C243.655 26.1736 245.426 28.4471 247.53 30.3875C250.152 32.7959 252.773 35.2042 255.429 37.4709C255.848 37.764 256.316 37.9799 256.811 38.1084V37.9313ZM94.1959 97.7855C91.8581 97.7855 90.6538 97.0417 90.6538 95.3771C90.7286 94.2815 90.9797 93.2052 91.3976 92.1896C91.6708 91.5729 92.0156 90.9904 92.4249 90.4542L90.4768 89.2855C88.5287 89.8876 86.7576 90.5251 84.9512 90.9146C83.1448 91.3042 81.4091 91.4459 79.3547 91.7292C80.8384 93.1767 81.9389 94.9703 82.5572 96.9486C83.1755 98.9269 83.2922 101.028 82.8968 103.063C82.8968 103.063 83.1802 103.063 83.2864 103.063C85.6524 101.839 88.3736 101.488 90.9726 102.071C92.3548 102.267 93.7619 102.195 95.1168 101.858C96.5025 101.614 97.8002 101.011 98.8812 100.11C99.9623 99.2093 100.789 98.0417 101.28 96.723C101.56 96.2339 101.726 95.6881 101.766 95.126C101.806 94.564 101.719 94.0001 101.512 93.4762C101.304 92.9524 100.981 92.4819 100.567 92.0998C100.153 91.7177 99.6582 91.4336 99.1193 91.2688C98.4793 91.0084 97.7909 90.8876 97.1004 90.9146C96.2747 90.8618 95.4465 90.8618 94.6209 90.9146C93.6906 91.5079 92.9666 92.3743 92.5481 93.3951C92.1296 94.416 92.037 95.5413 92.2831 96.6167L94.1959 97.7855ZM106.416 59.5C111.179 56.5852 116.252 54.2095 121.54 52.4167C126.003 50.7875 130.502 49.2646 134.929 47.6354C142.345 44.8518 149.973 42.6725 157.74 41.1188L165.037 39.8084L165.533 37.1875C157.247 38.5194 149.077 40.4849 141.092 43.0667C128.376 46.5637 116.037 51.309 104.255 57.2334L106.416 59.5ZM137.267 187L138.578 178.217C138.361 178.259 138.147 178.318 137.94 178.394C133.523 182.235 128.327 185.074 122.709 186.717C121.917 186.904 121.213 187.358 120.716 188.003C120.219 188.648 119.96 189.445 119.982 190.258C119.881 193.156 120.619 196.022 122.107 198.511C126.72 194.119 131.763 190.203 137.161 186.823L137.267 187ZM82.3655 1.87709L73.9709 2.40833C73.7736 2.88083 73.6078 3.36593 73.4749 3.86042C72.647 8.3305 72.7435 12.9228 73.7584 17.3542C74.0707 19.1409 74.5815 20.8871 75.2814 22.5604C77.3222 27.7385 80.2332 32.5298 83.8885 36.7271C83.8885 36.7271 84.1011 36.7271 84.349 36.7271C84.2993 36.4621 84.2283 36.2015 84.1365 35.9479C82.578 32.9021 80.8778 29.9271 79.461 26.8459C78.7276 25.1864 78.2844 23.4135 78.1505 21.6042C77.8885 17.4186 78.3804 13.22 79.6027 9.20834C80.382 6.69375 81.4446 4.28542 82.3655 1.87709ZM93.4521 87.5501C94.8374 88.1438 96.3759 88.2803 97.8442 87.9396C99.5398 87.8835 101.204 87.4645 102.724 86.7107C104.244 85.957 105.584 84.8861 106.655 83.5703C107.726 82.2545 108.502 80.7244 108.931 79.0832C109.361 77.442 109.433 75.7278 109.143 74.0563C108.551 70.9034 107.513 67.8506 106.062 64.9896C105.849 64.6 105.601 64.2813 105.141 63.573C105.502 68.248 104.61 72.9347 102.555 77.1496C100.5 81.3645 97.3577 84.9548 93.4521 87.5501ZM245.759 51.3542C244.661 50.7521 243.67 50.15 242.607 49.6542C238.711 47.9542 234.885 46.1125 230.954 44.5896C221.78 41.0479 212.004 40.3396 202.405 38.5334L201.98 41.4021C204.07 41.6854 206.124 42.0396 208.179 42.2167C217.629 43.0204 226.938 45.032 235.877 48.2021C238.817 49.2292 241.686 50.5396 244.555 51.7438C244.91 52.0979 245.405 52.4521 245.795 51.3542H245.759ZM267.012 28.8646C266.693 29.2896 266.445 29.5729 266.197 29.8563C265.965 30.121 265.838 30.4608 265.838 30.8125C265.838 31.1643 265.965 31.5041 266.197 31.7688C266.747 32.4587 267.548 32.9021 268.425 33.0017C269.302 33.1013 270.182 32.849 270.873 32.3C271.504 31.6437 271.918 30.8086 272.057 29.9086C272.197 29.0086 272.055 28.0875 271.652 27.2709C271.283 26.4288 270.617 25.7529 269.779 25.3736C268.942 24.9943 267.994 24.9384 267.118 25.2167C265.323 25.7847 263.694 26.7815 262.372 28.1209C261.33 29.1347 260.521 30.363 260.001 31.7207C259.481 33.0784 259.263 34.5329 259.361 35.9834L262.903 38.9229C264.284 37.4 264.426 34.8854 266.445 34.3542C265.705 33.3689 265.065 32.3131 264.532 31.2021C264.214 29.6792 265.099 28.8646 267.012 28.8646ZM132.414 258.648V268.565L141.199 268.034L143.147 259.073L137.834 258.861L132.414 258.648ZM258.9 39.4542C257.75 38.9003 256.445 38.7563 255.202 39.0462C253.958 39.3361 252.851 40.0424 252.064 41.0479C253.162 41.3313 254.437 40.6584 255.288 41.7209L254.438 43.1729C255.961 43.2898 257.489 43.0276 258.886 42.4095C260.283 41.7915 261.505 40.8369 262.443 39.6313C261.061 38.3209 259.963 36.6917 257.767 36.6917L258.9 39.4542ZM70.1809 104.869C70.3167 106.07 70.5657 107.256 70.9247 108.41C71.4789 109.438 72.094 110.431 72.7666 111.385C73.5813 112.838 74.2896 114.36 75.0334 115.848C75.3168 116.415 75.671 116.946 75.9898 117.513L76.4149 117.265C75.1906 112.756 73.0704 108.54 70.1809 104.869ZM68.9057 117.158H72.9437C72.4178 115.405 71.5377 113.777 70.3579 112.377L68.9057 117.158ZM200.74 41.4375C200.351 40.2688 199.89 39.2771 198.367 39.3479L198.969 41.3313L200.74 41.4375ZM64.8678 105.577V108.906L66.4618 107.242L64.8678 105.577Z" fill="#162D54"/>
<path d="M94.9043 229.498C95.8606 229.002 96.2148 229.498 96.4273 230.101C96.6399 230.704 96.9586 232.406 97.2774 233.646L99.7214 242.014C103.371 243.38 107.293 243.854 111.162 243.397C112.341 243.291 113.526 243.291 114.704 243.397C115.246 243.517 115.77 243.707 116.263 243.964C116.015 245.134 115.448 245.311 114.669 245.311C113.632 245.223 112.589 245.223 111.552 245.311C107.754 245.851 103.883 245.486 100.253 244.248C99.5876 244.06 98.9845 243.698 98.5052 243.199C98.026 242.701 97.6878 242.084 97.5254 241.411C96.3677 238.194 95.537 234.868 95.0459 231.484C94.9636 230.825 94.9164 230.162 94.9043 229.498Z" fill="#162D54"/>
<path d="M96.8527 277.956C94.4442 278.169 92.6731 276.219 89.9812 276.078L92.8857 282.883L96.1797 283.415V283.875H93.417L94.7984 288.625C92.9211 287.455 92.9211 285.647 92.0002 284.265C90.4417 285.789 90.3 287.81 89.1312 289.653C89.0341 287.185 89.9121 284.778 91.5752 282.954C91.2918 282.245 90.9729 281.394 90.6187 280.579C90.2645 279.764 89.9104 278.984 89.3791 277.814L86.0142 283.556C86.3315 281.119 87.4388 278.853 89.1665 277.106L86.8642 272.462L87.2892 272.179L89.4854 274.943C92.1616 275.288 94.7013 276.327 96.8527 277.956Z" fill="#162D54"/>
<path d="M61.0046 208.766C60.0861 207.243 59.5738 205.511 59.5168 203.734C59.5168 202.6 59.2689 201.501 59.1272 200.402C58.5843 197.727 57.2225 195.287 55.2307 193.421C54.1172 191.973 52.6377 190.847 50.9446 190.161C50.3535 189.881 49.7951 189.536 49.2798 189.133L49.9528 188.318C59.5877 192.181 62.3152 199.765 61.0046 208.766Z" fill="#162D54"/>
<path d="M100.252 146.442C100.252 148.139 100.004 149.058 99.0831 149.376C98.1621 149.694 96.8512 148.951 96.0364 147.856C95.618 147.22 95.3579 146.494 95.2778 145.738C95.1977 144.982 95.3 144.217 95.576 143.508C95.6373 143.212 95.7787 142.937 95.9851 142.715C96.1914 142.493 96.4547 142.331 96.7466 142.247C97.0385 142.163 97.3478 142.161 97.641 142.24C97.9342 142.319 98.2001 142.477 98.41 142.696C99.4833 143.662 100.143 145.004 100.252 146.442Z" fill="#162D54"/>
<path d="M132.342 140.634C132.342 142.331 132.058 143.286 131.173 143.569C130.287 143.852 128.941 143.145 128.126 142.048C127.708 141.419 127.448 140.698 127.368 139.947C127.288 139.196 127.39 138.437 127.666 137.734C127.71 137.426 127.841 137.137 128.044 136.902C128.247 136.666 128.513 136.494 128.811 136.404C129.109 136.315 129.426 136.313 129.726 136.398C130.025 136.483 130.294 136.652 130.5 136.885C131.561 137.861 132.218 139.198 132.342 140.634Z" fill="#162D54"/>
<path d="M63.8406 127.574L58.9882 135.368C59.6249 136.924 59.9377 138.594 59.9073 140.276C59.8768 141.957 59.5038 143.615 58.8111 145.147C57.3943 143.694 58.2798 142.242 58.1027 140.931C57.9256 139.62 57.9256 138.344 57.8193 136.679C54.7601 139.791 51.3209 142.505 47.583 144.757C47.7834 143.741 48.3667 142.84 49.2123 142.242C51.7625 139.974 54.2773 137.671 56.7921 135.368C56.9443 135.142 57.0524 134.89 57.1109 134.624C53.3685 134.328 49.6055 134.423 45.8828 134.908C46.2538 134.651 46.6594 134.448 47.0872 134.305C49.936 133.61 52.8768 133.371 55.8004 133.597C56.6733 133.65 57.5485 133.65 58.4214 133.597C59.1652 132.534 59.9445 131.436 60.6529 130.337C61.3613 129.239 61.9634 128.105 62.7426 126.794C58.3123 125.667 53.6809 125.582 49.2123 126.546C51.6208 123.995 57.3942 123.676 63.3802 125.519L65.8596 121.763H66.2492L64.4782 126.334C65.6104 127.107 66.5526 128.128 67.2335 129.318C67.9145 130.509 68.3167 131.839 68.4098 133.207C69.0896 134.901 69.0896 136.792 68.4098 138.486C67.8785 136.431 67.2055 134.412 66.7451 132.357C66.3689 130.47 65.3406 128.777 63.8406 127.574Z" fill="#162D54"/>
<path d="M67.1703 119.25C70.1256 120.376 72.6193 122.457 74.2543 125.163C76.0253 128.279 77.513 131.607 79.1069 134.864C79.4076 135.601 79.6562 136.358 79.8508 137.13C82.0114 138.511 84.597 139.644 85.3409 142.547C83.8901 141.035 82.2325 139.736 80.4174 138.688C81.1127 140.997 81.1127 143.46 80.4174 145.769C80.1141 143.686 79.5796 141.644 78.8236 139.679C77.8672 137.803 76.167 136.351 75.0336 134.404L78.0798 136.811C76.9169 133.387 75.4837 130.06 73.7938 126.863C72.2082 123.845 69.9403 121.238 67.1703 119.25Z" fill="#162D54"/>
<path d="M58.5273 111.948L50.4161 104.021C52.3218 104.564 54.0616 105.573 55.4781 106.957C56.8945 108.341 57.9426 110.057 58.5273 111.948Z" fill="#162D54"/>
<path d="M76.4842 142.199C76.1707 142.771 75.8279 143.327 75.4572 143.864C74.928 144.546 74.2653 145.112 73.5095 145.529L76.2362 141.987L76.4842 142.199Z" fill="#162D54"/>
<path d="M144.492 300.524L141.481 294.181C138.117 297.808 135.311 301.917 133.157 306.371C132.768 304.953 132.697 304.847 133.157 304.032C134.539 301.693 135.991 299.39 137.514 297.158C138.47 295.776 139.604 294.535 140.843 292.976L138.931 289.433L139.179 289.22C139.639 289.787 140.135 290.354 140.56 290.956C140.985 291.559 141.446 292.197 141.941 292.905C144.775 293.118 147.857 292.126 150.336 294.535C147.824 294.019 145.233 294.019 142.721 294.535L145.731 300.701C147.786 301.339 150.124 300.382 152.249 302.119L146.298 301.764L148.105 311.155H147.644C146.799 309.734 146.313 308.128 146.227 306.477C145.802 304.882 145.377 303.288 144.881 301.304C142.623 303.88 141.03 306.97 140.241 310.304C139.072 308.036 141.198 303.217 144.492 300.524Z" fill="#162D54"/>
<path d="M255.923 50.5961L256.879 46.0372C255.816 45.5424 254.895 46.8147 253.727 46.3906L257.446 45.1183L258.509 44.0581L255.923 50.5961Z" fill="#162D54"/>
<path d="M264.21 44.1593C263.75 44.9043 263.289 45.6493 262.9 46.4298C262.602 47.1436 262.247 47.8317 261.837 48.4875C262.156 46.7846 262.262 44.9398 264.246 44.1948L264.21 44.1593Z" fill="#162D54"/>
<path d="M265.486 49.1219L264.672 51.9632L264.211 51.7501C264.277 50.7406 264.735 49.7973 265.486 49.1219Z" fill="#162D54"/>
<path d="M144.209 145.459C143.04 145.459 141.8 145.459 140.667 145.672C140.172 145.659 139.68 145.75 139.222 145.939C138.765 146.128 138.352 146.411 138.01 146.769L133.547 152.01C132.874 152.825 132.166 153.604 131.493 154.383C129.559 156.399 127.396 158.182 125.046 159.695C123.017 161.311 120.632 162.421 118.088 162.932C115.544 163.443 112.914 163.341 110.418 162.634C109.284 162.35 108.08 162.209 106.876 162.032C102.939 161.493 99.0848 160.47 95.3996 158.986C94.0727 158.385 92.6827 157.933 91.2554 157.641C90.2167 157.392 89.1262 157.473 88.1358 157.873C87.1454 158.273 86.3044 158.971 85.7297 159.872C86.2748 159.788 86.8092 159.645 87.3237 159.447C88.2536 159.032 89.2881 158.912 90.2883 159.102C91.2885 159.292 92.2069 159.783 92.9202 160.509L97.3478 163.661C100.358 165.714 103.334 167.804 106.344 169.787C108.879 171.782 111.834 173.175 114.987 173.859C117.83 174.621 120.823 174.621 123.665 173.859C128.157 172.153 131.838 168.814 133.972 164.51C134.468 163.448 134.929 162.35 135.354 161.253C137.099 157.525 138.613 153.693 139.888 149.779C140.112 149.139 140.461 148.549 140.915 148.044L144.705 147.548C144.736 147.1 144.736 146.651 144.705 146.203C144.705 145.884 144.457 145.743 144.209 145.459ZM118.352 172.159C115.107 172.14 111.963 171.03 109.426 169.008C111.941 169.008 114.385 169.008 116.794 169.008C119.874 168.81 122.963 169.256 125.861 170.318L124.126 171.309C122.322 172.139 120.318 172.434 118.352 172.159ZM136.7 152.896C135.318 156.189 133.937 159.482 132.591 162.775C131.461 165.467 129.626 167.803 127.278 169.539C124.062 168.041 120.497 167.453 116.971 167.839C116.298 167.839 111.799 167.839 109.887 167.485C108.579 167.402 107.284 167.176 106.026 166.812C105.186 166.47 104.408 165.991 103.723 165.396C102.885 164.863 102.143 164.192 101.527 163.413C104.573 163.944 107.655 164.333 110.666 164.971C113.149 165.572 115.732 165.637 118.243 165.161C120.753 164.685 123.133 163.678 125.224 162.209C128.361 160.209 131.24 157.83 133.795 155.126C134.858 153.923 135.814 152.648 136.771 151.585L137.16 151.798C137.031 152.174 136.877 152.54 136.7 152.896Z" fill="#162D54"/>
<defs>
<radialGradient id="paint0_radial_112:101396" cx="0" cy="0" r="1" gradientUnits="userSpaceOnUse" gradientTransform="translate(83.575 38.157) rotate(-8.88903) scale(48.8799 48.8748)">
<stop stop-color="#F4D11D"/>
<stop offset="0.46" stop-color="#F5CE1F"/>
<stop offset="0.8" stop-color="#F9C524"/>
<stop offset="1" stop-color="#FDBB2A"/>
</radialGradient>
<radialGradient id="paint1_radial_112:101396" cx="0" cy="0" r="1" gradientUnits="userSpaceOnUse" gradientTransform="translate(10114 -2109.12) scale(291.423 503.322)">
<stop stop-color="#F4D11D"/>
<stop offset="0.46" stop-color="#F5CE1F"/>
<stop offset="0.8" stop-color="#F9C524"/>
<stop offset="1" stop-color="#FDBB2A"/>
</radialGradient>
<linearGradient id="paint2_linear_112:101396" x1="26056.6" y1="120.202" x2="24991.7" y2="1137.47" gradientUnits="userSpaceOnUse">
<stop stop-color="#597836"/>
<stop offset="0.09" stop-color="#688437"/>
<stop offset="0.27" stop-color="#7E9639"/>
<stop offset="0.47" stop-color="#8EA33A"/>
<stop offset="0.69" stop-color="#97AB3B"/>
<stop offset="1" stop-color="#9AAD3B"/>
</linearGradient>
<radialGradient id="paint3_radial_112:101396" cx="0" cy="0" r="1" gradientUnits="userSpaceOnUse" gradientTransform="translate(98566.4 7714.2) rotate(-4.57343) scale(6059.71 7440.93)">
<stop stop-color="#FDBB2A"/>
<stop offset="0.12" stop-color="#FBC027"/>
<stop offset="0.58" stop-color="#F6CD20"/>
<stop offset="1" stop-color="#F4D11D"/>
</radialGradient>
<radialGradient id="paint4_radial_112:101396" cx="0" cy="0" r="1" gradientUnits="userSpaceOnUse" gradientTransform="translate(10067 -1474.17) scale(215.197 363.924)">
<stop stop-color="#F4D11D"/>
<stop offset="0.46" stop-color="#F5CE1F"/>
<stop offset="0.8" stop-color="#F9C524"/>
<stop offset="1" stop-color="#FDBB2A"/>
</radialGradient>
<radialGradient id="paint5_radial_112:101396" cx="0" cy="0" r="1" gradientUnits="userSpaceOnUse" gradientTransform="translate(19853.3 -1811.9) scale(480.97 484.657)">
<stop stop-color="#F4D11D"/>
<stop offset="0.46" stop-color="#F5CE1F"/>
<stop offset="0.8" stop-color="#F9C524"/>
<stop offset="1" stop-color="#FDBB2A"/>
</radialGradient>
<radialGradient id="paint6_radial_112:101396" cx="0" cy="0" r="1" gradientUnits="userSpaceOnUse" gradientTransform="translate(9986.19 -1347.12) scale(197.598 323.537)">
<stop stop-color="#F4D11D"/>
<stop offset="0.46" stop-color="#F5CE1F"/>
<stop offset="0.8" stop-color="#F9C524"/>
<stop offset="1" stop-color="#FDBB2A"/>
</radialGradient>
<linearGradient id="paint7_linear_112:101396" x1="18255.9" y1="-520.901" x2="18175.3" y2="1594.44" gradientUnits="userSpaceOnUse">
<stop stop-color="#597836"/>
<stop offset="0.09" stop-color="#688437"/>
<stop offset="0.27" stop-color="#7E9639"/>
<stop offset="0.47" stop-color="#8EA33A"/>
<stop offset="0.69" stop-color="#97AB3B"/>
<stop offset="1" stop-color="#9AAD3B"/>
</linearGradient>
<radialGradient id="paint8_radial_112:101396" cx="0" cy="0" r="1" gradientUnits="userSpaceOnUse" gradientTransform="translate(110.668 144.762) rotate(-4.57461) scale(58.843 58.8518)">
<stop stop-color="#F4D11D"/>
<stop offset="0.5" stop-color="#F5CE1E"/>
<stop offset="0.8" stop-color="#F8C623"/>
<stop offset="1" stop-color="#FDBB2A"/>
</radialGradient>
<radialGradient id="paint9_radial_112:101396" cx="0" cy="0" r="1" gradientUnits="userSpaceOnUse" gradientTransform="translate(110.004 193.086) rotate(-8.89415) scale(88.0194 88.0592)">
<stop stop-color="#FDBB2A"/>
<stop offset="1" stop-color="#F4D11D"/>
</radialGradient>
<linearGradient id="paint10_linear_112:101396" x1="15443.6" y1="-393.772" x2="15365.2" y2="1501.48" gradientUnits="userSpaceOnUse">
<stop stop-color="#597836"/>
<stop offset="0.09" stop-color="#688437"/>
<stop offset="0.27" stop-color="#7E9639"/>
<stop offset="0.47" stop-color="#8EA33A"/>
<stop offset="0.69" stop-color="#97AB3B"/>
<stop offset="1" stop-color="#9AAD3B"/>
</linearGradient>
</defs>
</svg>
