<svg width="68" height="38" viewBox="0 0 68 38" fill="none" xmlns="http://www.w3.org/2000/svg">
<path d="M19.2412 14.6036V13.8203H32.6596V14.6036H19.2412Z" fill="#162D54"/>
<path d="M35.0127 14.6053V13.8203H48.431V14.6053H35.0127Z" fill="#162D54"/>
<path d="M38.0045 9.02806C38.5478 8.48473 38.8461 7.76473 38.8461 6.99639C38.8461 6.22972 38.5478 5.50972 38.0045 4.96639L34.2278 1.18805V1.18639H34.2261L33.8361 0.796387L33.4461 1.18639H33.4445V1.18805L29.6661 4.96639C29.1228 5.50806 28.8245 6.22972 28.8245 6.99639C28.8245 7.76473 29.1228 8.48473 29.6661 9.02806L33.4428 12.8047V14.6081H34.2261V12.8047L38.0045 9.02806ZM37.7661 8.78973L34.2261 12.3297V11.7397L38.4561 7.50973C38.3578 7.99139 38.1228 8.43473 37.7661 8.78973ZM34.2261 9.51973L38.1111 5.63639C38.3661 6.03472 38.5061 6.49806 38.5078 6.98306L34.2261 11.2647V9.51973ZM34.2261 6.06973L36.4311 3.86806L37.2978 4.73472L34.2261 7.80473V6.06973ZM34.2261 5.59472V4.83139L35.8111 3.24806L36.1928 3.62972L34.2261 5.59472ZM33.4445 3.72972L32.4111 2.69806L32.7911 2.31639L33.4445 2.96806V3.72972ZM33.4445 4.20639V6.12139L31.2161 3.89306L32.1728 2.93639L33.4445 4.20639ZM33.4445 6.59639V7.35973L30.5961 4.51139L30.9778 4.13139L33.4445 6.59639ZM33.4428 10.6314L29.2311 6.41639C29.2678 6.25472 29.3228 6.09639 29.3911 5.94639L33.4445 9.99806L33.4428 10.6314ZM37.9095 5.36139L34.2261 9.04306V8.28139L37.5345 4.97306L37.7661 5.20472C37.8161 5.25472 37.8628 5.30806 37.9095 5.36139ZM35.5728 3.00972L34.2261 4.35639L34.2278 1.66472L35.5728 3.00972ZM33.4445 2.49139L33.0295 2.07972L33.4445 1.66472V2.49139ZM29.9045 5.20472L30.3578 4.74972L33.4445 7.83639V9.52306L29.5578 5.63639C29.6578 5.48306 29.7711 5.33639 29.9045 5.20472ZM29.9045 8.78973C29.4245 8.30973 29.1611 7.67306 29.1611 6.99639C29.1611 6.94139 29.1661 6.88639 29.1695 6.83139L33.4428 11.1064V12.3297L29.9045 8.78973Z" fill="#162D54"/>
<path d="M13.4333 20.1372V20.3522C11.945 20.3522 11.67 20.3322 9.98668 25.0322L6.67667 33.9239H6.44167C5.24834 31.0255 1.84 21.7039 1.84 21.7039C1.33 20.3722 0.743334 20.3522 0 20.3522V20.1372H4.75834V20.3522C3.15167 20.3522 3.36834 21.6055 3.44667 21.8022L7.16667 32.0822L9.77168 24.9939C10.7117 22.2722 11.5333 20.3522 8.91001 20.3522V20.1372H13.4333Z" fill="#162D54"/>
<path d="M19.4437 20.1372V20.3322C18.6021 20.3322 18.2287 20.5672 18.2287 21.7822V31.9656C18.2287 33.2972 18.6221 33.7072 19.4437 33.7072V33.9239H15.4104V33.7072C16.2521 33.7072 16.6437 33.2972 16.6437 31.9656V21.7822C16.6437 20.5672 16.2704 20.3322 15.4104 20.3322V20.1372H19.4437Z" fill="#162D54"/>
<path d="M33.6796 33.9239H29.783V33.7089C30.6046 33.7089 30.8213 33.0806 30.1146 31.4356L29.4096 29.5772H24.123C23.3013 31.9272 22.6346 33.7472 25.1796 33.7089V33.9239H21.028V33.7089C21.8913 33.7089 22.3796 33.4922 23.9663 29.0472L27.198 20.1372H27.3346C28.5296 23.0155 32.093 32.0239 32.093 32.0239C32.7196 33.5906 33.113 33.6689 33.6796 33.7089V33.9239ZM29.333 29.3606L26.668 22.4872L24.1813 29.3606H29.333Z" fill="#162D54"/>
<path d="M40.9046 20.1372V20.3322C40.0229 20.3322 39.4162 20.8805 39.4162 22.1339V30.3589C39.4162 34.7856 37.7912 36.7239 34.5979 37.1939L34.5396 36.9972C36.2246 36.3906 37.8496 34.9806 37.8496 30.7322V24.5239C37.8496 20.8622 37.8496 20.3322 36.4596 20.3322V20.1372H40.9046Z" fill="#162D54"/>
<path d="M43.8996 29.2822V22.0372C43.8996 20.6455 43.4696 20.3522 42.6079 20.3522V20.1372H46.8179V20.3522C45.9762 20.3522 45.3879 20.4689 45.3879 22.0755V29.4589C45.3879 31.9655 46.8362 33.3755 49.1096 33.3755C51.3613 33.3755 52.7896 31.8872 52.7896 29.3405V24.2689C52.7896 21.4889 52.7129 20.3522 50.6363 20.3522V20.1372H55.2963V20.3522C52.9279 20.3522 53.0063 21.4889 53.0063 24.2689V29.3405C53.0246 32.5139 51.0479 34.1005 48.2862 34.1005C45.8196 34.1005 43.8996 32.4739 43.8996 29.2822Z" fill="#162D54"/>
<path d="M67.6727 33.9239H66.341C64.3044 33.9239 64.501 33.9056 63.5027 29.6555C63.0127 27.5805 60.936 27.5805 60.1727 27.5805H59.2527V32.0439C59.2527 33.4156 59.6044 33.7089 60.4277 33.7089V33.9239H56.686V33.7089C57.5294 33.7089 57.8027 33.4739 57.8027 31.6522V21.7239C57.8027 20.5105 57.5477 20.3539 56.686 20.3539V20.1372H59.8594C63.756 20.1372 65.636 20.6072 65.636 23.8772C65.636 26.6589 64.0694 27.4222 62.0727 27.4805C63.3844 27.6172 64.5977 27.4039 65.656 32.0639C65.9894 33.5706 67.1644 33.6689 67.6727 33.7089V33.9239ZM59.8594 20.3539H59.2527V27.3639H59.8594C62.2477 27.3639 63.971 27.3839 63.971 23.8772C63.971 20.2155 62.0527 20.3539 59.8594 20.3539Z" fill="#162D54"/>
</svg>
