<svg width="51" height="67" viewBox="0 0 51 67" fill="none" xmlns="http://www.w3.org/2000/svg">
<path d="M46.2237 41.4439C48.9555 38.7121 50.4578 35.0834 50.461 31.2194C50.461 27.3554 48.9555 23.7297 46.2237 20.9948L27.2048 1.97277V1.96336H27.1954L25.232 0L23.2687 1.96336H23.2593V1.97277L4.23723 20.9917C1.50859 23.7266 0 27.3554 0 31.2162C0 35.0834 1.50859 38.709 4.23723 41.4439L23.2561 60.4628V66.7324H27.2017V60.4628L46.2237 41.4439ZM45.0256 40.2458L27.2017 58.0666V55.0996L48.5007 33.8037C48.002 36.2281 46.8102 38.455 45.0256 40.2458ZM27.2017 43.9185L46.76 24.3664C48.046 26.3737 48.7485 28.704 48.761 31.1472L27.2017 52.7035V43.9185ZM27.2017 26.5525L38.295 15.4623L42.6608 19.8281L27.2017 35.2872V26.5525ZM27.2017 24.1563V20.3205L35.1775 12.3479L37.0969 14.2642L27.2017 24.1563ZM23.2593 14.7723L18.0592 9.57218L19.9786 7.65586L23.2593 10.9334V14.7723ZM23.2593 17.1685V26.8065L12.0405 15.5877L16.858 10.7734L23.2593 17.1685ZM23.2593 29.209V33.0447L8.91668 18.7053L10.8393 16.789L23.2593 29.209ZM23.2561 49.5138L2.04491 28.3025C2.23623 27.4808 2.50595 26.6873 2.85409 25.9252L23.2593 46.3335L23.2561 49.5138ZM45.7407 22.9833L27.2017 41.5223V37.6834L43.8589 21.0262L45.0256 22.1929C45.2797 22.447 45.5118 22.7135 45.7407 22.9833ZM33.9794 11.1466L27.2017 17.9212L27.2048 4.37209L33.9794 11.1466ZM23.2593 8.53718L21.1767 6.45777L23.2593 4.37209V8.53718ZM5.43532 22.1898L7.72173 19.9034L23.2593 35.4409V43.9342L3.6915 24.3727C4.19332 23.598 4.76727 22.8578 5.43532 22.1898ZM5.43532 40.2427C3.02659 37.834 1.69677 34.6255 1.69677 31.2162C1.69677 30.9402 1.72186 30.6642 1.73441 30.3914L23.2561 51.9099V58.0666L5.43532 40.2427Z" fill="white"/>
</svg>
