<svg width="54" height="27" viewBox="0 0 54 27" fill="none" xmlns="http://www.w3.org/2000/svg">
<path d="M15.5574 15.4822C15.8812 16.5623 16.5288 17.3185 17.4823 17.7295C17.9689 17.9393 18.5006 18.0459 19.0625 18.0459C19.2591 18.0459 19.4633 18.0327 19.669 18.007C20.6486 17.8849 21.429 17.4671 21.9888 16.765C22.4815 16.1466 22.7593 15.4022 22.8142 14.552C22.8381 14.1846 22.8398 13.8127 22.8415 13.4528C22.8431 13.1387 22.8446 12.8141 22.861 12.4972C22.8725 12.2726 22.8041 12.0779 22.6625 11.9344C22.5153 11.7852 22.2927 11.6996 22.0514 11.6996C21.9842 11.6996 21.9166 11.7063 21.8511 11.7192C21.4709 11.795 21.2692 12.034 21.2676 12.4105C21.2671 12.5801 21.2682 12.75 21.2694 12.9198C21.2714 13.2409 21.2737 13.5732 21.2629 13.8976C21.2523 14.2186 21.2331 14.5604 21.1656 14.8853C21.0152 15.6079 20.5821 16.4963 19.3731 16.6242C19.2748 16.6346 19.1767 16.64 19.0815 16.64C18.2571 16.64 17.6099 16.2506 17.2595 15.5443C17.0386 15.0993 16.9352 14.5799 16.934 13.91C16.9335 13.6992 16.9348 13.4881 16.9363 13.2773C16.9389 12.847 16.9416 12.402 16.9294 11.9632C16.9168 11.5022 17.1227 11.1952 17.5779 10.9973C17.8764 10.8674 18.1761 10.7403 18.4756 10.613C19.088 10.3531 19.7211 10.0844 20.3342 9.79727C21.9616 9.03522 22.8083 7.77387 22.8511 6.04832C22.8659 5.44616 22.8593 4.85439 22.8506 4.35532C22.8388 3.64822 22.7154 3.03717 22.4741 2.48685C22.0202 1.45281 21.2419 0.792815 20.1603 0.52533C20.019 0.490581 19.876 0.463336 19.7328 0.436091C19.6681 0.423854 19.5199 0.394531 19.5199 0.394531H18.6753L18.6026 0.414965C18.5859 0.419814 18.5694 0.425817 18.5514 0.428356C17.2773 0.590556 16.3559 1.22146 15.8129 2.30341C15.4952 2.93685 15.347 3.64591 15.3463 4.5353C15.3451 7.02717 15.3452 9.51916 15.3456 12.011L15.3458 13.8765C15.3458 14.4817 15.415 15.0067 15.5574 15.4822ZM16.9337 4.5323C16.934 3.86156 17.0367 3.34218 17.2575 2.89749C17.7084 1.98928 18.4971 1.79857 19.0793 1.79857C19.1739 1.79857 19.2717 1.80388 19.3695 1.81404C20.5796 1.94033 21.0139 2.82764 21.1651 3.54963C21.239 3.90359 21.256 4.27936 21.2625 4.56728C21.2739 5.09197 21.2672 5.61101 21.2424 6.10985C21.1835 7.29547 20.5959 8.11027 19.4462 8.6008C19.0541 8.76796 18.6653 8.94194 18.2762 9.11568C18.0024 9.23805 17.7286 9.36065 17.4537 9.48072C17.262 9.56441 17.0904 9.65169 16.9337 9.76483V4.5323Z" fill="#162D54"/>
<path d="M53.9464 22.0457C53.8006 21.6414 53.3428 21.4266 52.9238 21.5675C46.3059 23.785 36.8553 25.0567 26.9957 25.0567C21.4431 25.0567 16.0206 24.6532 11.1604 23.9048C11.4629 23.6191 11.7142 23.2739 11.906 22.8633C12.1886 22.2596 12.3201 21.5794 12.3203 20.7219V1.18784C12.3184 0.946564 12.198 0.755273 11.9719 0.634865C11.8324 0.56098 11.6805 0.521729 11.5324 0.521729C11.0764 0.521729 10.7324 0.869102 10.7324 1.32973L10.7328 13.8487C10.7329 14.3383 10.6842 14.7355 10.5791 15.0986C10.32 15.9944 9.70573 16.5392 8.84986 16.6324C8.74568 16.6437 8.64221 16.6493 8.54209 16.6493C7.97415 16.6493 7.20237 16.4687 6.7495 15.6083C6.51003 15.1531 6.39843 14.6218 6.39867 13.9364C6.39926 10.424 6.39902 1.27304 6.39902 1.27304C6.39902 0.837355 6.09149 0.533042 5.6513 0.533042C5.60692 0.533042 5.56087 0.536044 5.5135 0.542624C5.19089 0.586955 4.96134 0.738418 4.83108 0.992628L4.81087 1.03211V14.4158C4.81087 14.4158 4.84017 14.5882 4.85273 14.6667C4.88072 14.84 4.90943 15.0189 4.9495 15.1955C5.19663 16.2853 5.7312 17.0639 6.58371 17.5759C7.09723 17.8845 7.73491 18.0541 8.37917 18.0541C9.0769 18.0541 9.73671 17.8519 10.2367 17.485C10.4196 17.3507 10.5838 17.1966 10.732 17.019L10.7322 17.1794C10.7328 18.3699 10.7335 19.5606 10.7317 20.7513C10.7308 21.4485 10.6232 21.9586 10.3828 22.4056C10.0759 22.9758 9.58778 23.3007 8.89077 23.3981C8.76147 23.4163 8.63395 23.4254 8.51123 23.4254C8.44711 23.4254 8.38443 23.4202 8.32175 23.4153C8.15513 23.3833 7.98922 23.3511 7.82438 23.3185C6.9708 23.1489 6.14053 22.9676 5.33599 22.7755C3.81421 22.4116 2.38383 22.0086 1.0672 21.5675C0.647346 21.4273 0.18993 21.6411 0.0445948 22.0457C-0.10074 22.4503 0.120791 22.8921 0.54005 23.0327C7.32103 25.3045 16.9636 26.6075 26.9957 26.6075C37.0275 26.6075 46.6701 25.3045 53.4509 23.0327C53.8701 22.8921 54.0919 22.4503 53.9464 22.0457Z" fill="#162D54"/>
<path d="M26.313 17.8663C26.4081 17.8965 26.5122 17.9123 26.6142 17.9123C26.8489 17.9123 27.0602 17.8328 27.2095 17.688C27.3595 17.5427 27.4382 17.3393 27.4372 17.0997C27.421 13.2332 27.4256 9.30178 27.4301 5.49949L27.4309 4.72532C27.4314 4.32865 27.4541 3.97632 27.5004 3.64776C27.5832 3.06003 27.7982 2.60322 28.1576 2.25192C28.4475 1.96885 28.9384 1.7928 29.4387 1.7928C29.8148 1.7928 30.7362 1.89993 31.1715 2.89125C31.3701 3.34414 31.4625 3.86364 31.4623 4.52664L31.4619 17.1229C31.4616 17.1699 31.4613 17.2174 31.4638 17.2646C31.4786 17.545 31.6369 17.755 31.9103 17.856C32.0375 17.9032 32.1631 17.9271 32.2837 17.9271C32.735 17.9271 33.0501 17.5913 33.0501 17.1105L33.0496 14.33C33.049 11.073 33.0483 7.81601 33.0559 4.55908C33.057 4.1294 33.1021 3.72107 33.1898 3.34576C33.3996 2.44841 33.9799 1.90478 34.8238 1.81496C34.9173 1.8048 35.0104 1.79972 35.1002 1.79972C35.6423 1.79972 36.3726 1.98039 36.7731 2.84057C37.0487 3.43257 37.0838 4.06417 37.0838 4.54869L37.0843 17.1647C37.0843 17.6274 37.3994 17.9146 37.9113 17.9146C38.3731 17.913 38.6716 17.6228 38.6719 17.1757V15.9749C38.6722 12.1377 38.6725 8.30053 38.6713 4.46326C38.6709 3.71356 38.5588 3.06938 38.3286 2.49297C37.9493 1.54482 37.2991 0.910799 36.3959 0.608219C36.1887 0.538952 35.9747 0.496699 35.7678 0.456063C35.6762 0.437823 35.5848 0.419929 35.4939 0.399495L35.4721 0.394531H34.7967L34.7768 0.398687C34.6955 0.415542 34.6135 0.430319 34.5317 0.44498C34.3473 0.478228 34.1571 0.512516 33.9711 0.568968C33.2594 0.784042 32.7046 1.24917 32.2751 1.99113C32.268 2.0036 32.261 2.01584 32.254 2.0283C32.1952 1.92833 32.1363 1.83101 32.0731 1.73634C31.5392 0.939546 30.7702 0.495891 29.7868 0.414503L29.7238 0.394531H29.0411L28.9649 0.411616C28.9362 0.418543 28.9075 0.425817 28.8781 0.429627C27.6691 0.586978 26.7994 1.19803 26.2934 2.24592C25.9838 2.88652 25.8397 3.62156 25.8398 4.55977V17.1451C25.8397 17.1856 25.8394 17.2258 25.8417 17.2656C25.8573 17.5527 26.0335 17.7774 26.313 17.8663Z" fill="#162D54"/>
<path d="M41.771 15.0386C41.9009 15.8119 42.2227 16.4696 42.7271 16.9934C43.3404 17.6297 44.1618 17.9801 45.1686 18.0345C45.2627 18.0397 45.3563 18.0424 45.4494 18.0424C46.1707 18.0424 46.7945 17.8881 47.3562 17.5705C48.2295 17.0771 48.7776 16.3015 49.0319 15.199C49.0735 15.0188 49.1021 14.836 49.1295 14.6592C49.1421 14.5792 49.1544 14.4991 49.1682 14.4194L49.1708 14.404V12.2352L49.1582 12.2032C49.0463 11.9163 48.8104 11.748 48.4571 11.7028C48.4144 11.6973 48.3727 11.6946 48.3321 11.6946C47.8927 11.6946 47.5847 11.9976 47.5827 12.4311C47.582 12.6203 47.5827 12.8092 47.5835 12.9984C47.5849 13.3848 47.5862 13.785 47.5743 14.1761C47.5555 14.7866 47.4213 15.2893 47.1637 15.7133C46.8012 16.3109 46.1865 16.6399 45.4333 16.6399C45.339 16.6399 45.242 16.6347 45.1453 16.6244C43.9343 16.4941 43.5015 15.6069 43.3519 14.8854C43.2939 14.6063 43.2636 14.297 43.2537 13.8831C43.2458 13.5575 43.2477 13.2317 43.2495 12.9057C43.2514 12.5842 43.253 12.2626 43.2458 11.9412C43.2355 11.4964 43.4343 11.1999 43.8708 11.0083C44.2146 10.8572 44.5601 10.71 44.9056 10.5627C45.4818 10.3171 46.0775 10.0629 46.656 9.79473C47.9942 9.17444 48.8106 8.1845 49.0826 6.85274C49.1056 6.74006 49.1243 6.62646 49.1428 6.51321L49.1708 6.34559V4.03508L49.1682 4.01961C49.1546 3.94018 49.1422 3.86029 49.1299 3.78041C49.1027 3.60389 49.0745 3.4216 49.0325 3.2414C48.7424 1.99367 48.0935 1.16974 47.0488 0.722278C46.8106 0.620456 46.5575 0.564119 46.3128 0.509861C46.2048 0.485963 46.097 0.461951 45.9915 0.434129L45.8411 0.394531H44.9908L44.9183 0.414849C44.9014 0.419813 44.885 0.425932 44.867 0.428241C43.5926 0.590441 42.6711 1.22135 42.1284 2.30364C41.8098 2.93881 41.6614 3.66346 41.6612 4.58332L41.6607 6.59853C41.66 9.00866 41.6593 11.4187 41.6658 13.8287C41.6666 14.2206 41.702 14.6277 41.771 15.0386ZM43.572 2.89945C43.9225 2.19004 44.5713 1.79938 45.3985 1.79938C45.4964 1.79938 45.5971 1.80492 45.6983 1.81577C46.63 1.91621 47.2635 2.53141 47.4819 3.54813C47.5394 3.81573 47.5713 4.10342 47.5766 4.40346C47.588 5.05457 47.5819 5.596 47.5575 6.10823C47.5014 7.29281 46.9148 8.10785 45.764 8.59999C45.3711 8.76796 44.9812 8.94217 44.5914 9.11649C44.3085 9.2429 44.0256 9.36943 43.7417 9.49318C43.5792 9.56418 43.4118 9.64649 43.2492 9.76471L43.2491 4.55031C43.2489 3.86064 43.3485 3.35165 43.572 2.89945Z" fill="#162D54"/>
</svg>
