<svg width="24" height="17" viewBox="0 0 24 17" fill="none" xmlns="http://www.w3.org/2000/svg">
<path d="M9.2698 11.5221V4.68246L15.2812 8.10241L9.2698 11.5221ZM22.6414 2.53039C22.3769 1.53434 21.5975 0.749983 20.608 0.483784C18.8144 -3.1157e-08 11.6221 0 11.6221 0C11.6221 0 4.42973 -3.1157e-08 2.63613 0.483784C1.6466 0.749983 0.867218 1.53434 0.602718 2.53039C0.12207 4.33563 0.12207 8.10227 0.12207 8.10227C0.12207 8.10227 0.12207 11.8688 0.602718 13.6742C0.867218 14.6702 1.6466 15.4546 2.63613 15.7209C4.42973 16.2045 11.6221 16.2045 11.6221 16.2045C11.6221 16.2045 18.8144 16.2045 20.608 15.7209C21.5975 15.4546 22.3769 14.6702 22.6414 13.6742C23.1221 11.8688 23.1221 8.10227 23.1221 8.10227C23.1221 8.10227 23.1221 4.33563 22.6414 2.53039Z" fill="white"/>
</svg>
